/* XPM */
static const char * draw_xpm[] = {
/* width height ncolors chars_per_pixel */
"32 32 9 1",
/* colors */
" 	c #210021002100",
".	s None c None",
"x	c #600060006000",
"o	c #DB00DB00BA00",
"i	c #FF00FF00FF00",
"r	c #FF0000000000",
"g	c #0000FF000000",
"c	c #0000FF00FF00",
"y	c #FF00FF000000",
/* pixels */
"................................",
"   i                            ",
"  iii                           ",
" i i i                          ",
"   i                            ",
"   i xxx   xxx   xxx   xxx      ",
"   i xxx   xxx  cccx   xxx      ",
" iii xyyyyyyyx c xxc  yyyx      ",
"   i xxx   xxycy xxycy xxyyy    ",
"   i xxxcc xxc  yyyx c xxx      ",
" iii xxc  cccx   xxx  cxxx      ",
"   i xcx   xxx   xxx   ccc      ",
"   i xxx   xxx   xxx   xxxc     ",
" iii xxx   xxx   xxx   xxx c    ",
"   i xgx   xxx   xxggggggx      ",
"   i xxg   xxggggggx   xxg r    ",
" iii xxxgggggx   xxx   xxxg     ",
"   i xxx   xxx   xxx   xxr g    ",
"   i xxx   rrr   xxx   xrx      ",
" iii xxx  rxxxrrrxxx   rxx      ",
"   i xxxrr xxx   rrr  rxxx      ",
"   i xxr   xxx   xxxrr xxx      ",
" iii xrx   xxx   xxx   xxx      ",
"   i xxx   xxx   xxx   xxx      ",
"   i xxx   xxx   xxx   xxx      ",
" iii xxx   xxx   xxx   xxx      ",
"   i xxx   xxx   xxx   xxx   i  ",
"   i xxx   xxx   xxx   xxx    i ",
"iiiiiiiiiiiiiiiiiiiiiiiiiiiiiiii",
"   i xix i xix i xix i xix i  i ",
"   i xxx   xxx   xxx   xxx   i  ",
"................................"
} ;
