/* XPM */
static const char * extr_xpm[] = {
/* width height ncolors chars_per_pixel */
"32 32 8 1",
/* colors */
"q	s None c None",
" 	c #210021002100",
".	c #820782078207",
"X	c #00000000FFFF",
"o	c #FFFFFFFFFFFF",
"O	c #FFFF0000FFFF",
"+	c #FFFFFFFF0000",
"@	c #FFFF00000000",
/* pixels */
"qqqqqqqqqqqqqqqqqqqqqqqqqqqqqqqq",
"                                ",
" ..... XXXXXXXXXXXX ..... ..... ",
" ..... XooXXXXoXXXX ..... .. .. ",
" .   . XoXXooXoXooX .   . .   . ",
" ..... XooXooXoXooX .. .. ..... ",
" ..... XXXXXXXXXXXX ..... ..... ",
"                                ",
" oooo  oooo oooo oooo oooo oooo ",
" oooo  oooo oooo oooo oooo oooo ",
"                                ",
"                                ",
" oooo  oooo oooo oooo oooo OOOO ",
" oooo  oooo oooo oooo oooo OOOO ",
"                                ",
" oooo  oooo oooo oooo oooo OOOO ",
" oooo  oooo oooo oooo oooo OOOO ",
"                                ",
" oooo  oooo oooo oooo oooo OOOO ",
" oooo  oooo oooo oooo oooo OOOO ",
"                                ",
" oooo  oooo oooo oooo oooo OOOO ",
" oooo  oooo oooo oooo oooo OOOO ",
"                                ",
" oooo  oooo oooo oooo oooo OOOO ",
" oooo  oooo oooo oooo oooo OOOO ",
"                                ",
" oooo  ++++ ++++ ++++ ++++ @@@@ ",
" oooo  ++++ ++++ ++++ ++++ @@@@ ",
" oooo  ++++ ++++ ++++ ++++ @@@@ ",
"                                ",
"qqqqqqqqqqqqqqqqqqqqqqqqqqqqqqqq"
} ;
