/* XPM */
static const char * kon_xpm[] = {
/* width height ncolors chars_per_pixel */
"32 32 8 1",
/* colors */
"q	s None c None",
" 	c #9E79BAEAC30B",
"x	c #DB6C00000000",
"o	c #0000E38DE38D",
"l	c #E38D00000000",
"a	c #45144D345555",
"b	c #8617FFFF8617",
"c	c #0000E38D0000",
/* pixels */
"qqqqqqqqqqqqqqqqqqqqqqqqqqqqqqqq",
"                                ",
"                                ",
"                                ",
"               xx               ",
"              xllx              ",
"             llllll             ",
"            ll    ll            ",
"            lx    xl            ",
"aaaaaaaaaaaaaaaaaaaaaaaaaaaaaaaa",
"           bc      cb           ",
"           bc      cb           ",
"          bc        cb          ",
"          b          b          ",
"         bc          cb         ",
"         b            b         ",
"        bc            cb        ",
"        b              b        ",
"       bc              cb       ",
"       b                b       ",
"      bc                cb      ",
"      bc                cb      ",
"     bc                  cb     ",
"aaaaaaaaaaaaaaaaaaaaaaaaaaaaaaaa",
"    ll                    lx    ",
"   lll                    llx   ",
"  lll                      lll  ",
" lx                          xl ",
"lx                            xl",
"                                ",
"                                ",
"                                "
} ;
