/* XPM */
static const char * praterm_xpm[] = {
"32 33 14 1",
" 	c None",
".	c #00741B",
"+	c #00731C",
"@	c #FF6500",
"#	c #FF6600",
"$	c #00721C",
"%	c #FF6700",
"&	c #00731B",
"*	c #00741D",
"=	c #00721D",
"-	c #00741C",
";	c #00731D",
">	c #00721B",
",	c #00761C",
"                                ",
" .+  @      ##      #@      ##  ",
" ++$  #%    ##%     ##@     ### ",
"$++++ ####  ###%    ####    ####",
"++++++ #### #####   #####   ####",
"+++++++ %## ######  ######  ####",
"+++++++$ ## ####### ####### ####",
"+++++++++ # ####### ####### ####",
"++++++++++  ####### ####### ####",
"++++++&$+++ ####### ####### ####",
".    ++*+$=  ###### ####### ####",
"  &+++++++++- ##### ####### ####",
"+++++++++++++$ #### ####### ####",
"++++++++++++++& ### ####### ####",
"+++++++++++++++& ## ####### ####",
"++++++++++++++++. # ####### ####",
"+++++++++++++++++.  ####### ####",
"++++++++++++++++++& @###### ####",
"+++++++++++++;&  &+  @##### ####",
"++++++++-   +++++&++  ##### ####",
"++++++   =+++++++++++  #### ####",
"+++&   +++++++++++++++  ### ####",
"++   ;++++++++++++++++$  ## ####",
"    ++++++++++++++++++++  # ####",
"   ++++++++++++++++++++++   ####",
"  ++++++++++++++++++++++++  ####",
" ++++++++++++++++> ,  =      ###",
"++++++++++++++* -+++++++++++  ##",
"&++++++++++++  ++++++++++++++  #",
" +++++++++++ ;++++++++++++++++  ",
" ;++++++++$ ++++++++++++++++++- ",
"   ++++++;  ++++++++++++++++++++",
"    $&++   $++$++++++++++++++-  "};
