/* XPM */
static const char *add[]={
"16 16 2 1",
". c None",
"# c #00c000",
".....#####......",
".....#####......",
".....#####......",
".....#####......",
".....#####......",
"###############.",
"###############.",
"###############.",
"###############.",
"###############.",
".....#####......",
".....#####......",
".....#####......",
".....#####......",
".....#####......",
"................"};
