/* XPM */
/* $Id: back.xpm 4550 2007-10-19 11:20:36Z schylek $ */
static const char *back_xpm[] = {
"32 32 126 2",
"   c #060E1A",
".  c #06121E",
"X  c #061626",
"o  c #061C2C",
"O  c #061E32",
"+  c #062636",
"@  c #0A2236",
"#  c #0A223A",
"$  c #0A2A3E",
"%  c #0E2E46",
"&  c #0C364E",
"*  c #0C3652",
"=  c #0E3A56",
"-  c #0C3E5E",
";  c #123A56",
":  c #12425E",
">  c #1A425E",
",  c #0E4C6E",
"<  c #06526E",
"1  c #0E5472",
"2  c #0E567A",
"3  c #0E5A7A",
"4  c #124262",
"5  c #1E4662",
"6  c #1E4A66",
"7  c #125676",
"8  c #12567A",
"9  c #2A526E",
"0  c #26567A",
"q  c #2A5272",
"w  c #365676",
"e  c #3A5E7E",
"r  c #0E5E82",
"t  c #0E7296",
"y  c #0E769E",
"u  c #126686",
"i  c #12668E",
"p  c #126A92",
"a  c #127A9E",
"s  c #167EA6",
"d  c #527A9A",
"f  c #0A8DB2",
"g  c #0E96BE",
"h  c #0E9ABE",
"j  c #1E82A6",
"k  c #148EB2",
"l  c #1292B2",
"z  c #1696BA",
"x  c #1A93B3",
"c  c #2692B6",
"v  c #229AB6",
"b  c #328AAE",
"n  c #0B9CC2",
"m  c #0EA2C6",
"M  c #16A6C6",
"N  c #12A2CA",
"B  c #12ABCB",
"V  c #1AA2C6",
"C  c #12AED2",
"Z  c #16B2CC",
"A  c #12B6D2",
"S  c #16BAD6",
"D  c #1AB6D6",
"F  c #369EC2",
"G  c #26AACA",
"H  c #26B6CA",
"J  c #22BACE",
"K  c #2AB6CE",
"L  c #2CBECE",
"P  c #2CBCD4",
"I  c #32AECA",
"U  c #3AB2CE",
"Y  c #3ABAD2",
"T  c #22CADE",
"R  c #2AC6DA",
"E  c #32C2D2",
"W  c #32CEDE",
"Q  c #23CDE2",
"!  c #36D6E2",
"~  c #36DAE6",
"^  c #5296B6",
"/  c #6E8BA6",
"(  c #6E8EAA",
")  c #6E96B2",
"_  c #7296B2",
"`  c #769AB6",
"'  c #42A6CA",
"]  c #4EBED6",
"[  c #56AAC6",
"{  c #5EB6D2",
"}  c #6ABAD6",
"|  c #7EAEC6",
" . c #72BAD2",
".. c #42C6D6",
"X. c #4EC6DA",
"o. c #4ADEEA",
"O. c #72C2D6",
"+. c #76CAE2",
"@. c #7ACEE2",
"#. c #9EBACE",
"$. c #82CADE",
"%. c #82D2E6",
"&. c #8ED2E6",
"*. c #8EDAE6",
"=. c #92D2E6",
"-. c #A6C6DA",
";. c #ABDEEA",
":. c #B2DEEA",
">. c #B2E2EE",
",. c #BAE6EE",
"<. c #B6E6F6",
"1. c #CEDEEE",
"2. c #D4DEEA",
"3. c #C2EEF6",
"4. c #DEE2EA",
"5. c #D2E2F2",
"6. c #D2EEFA",
"7. c #DEEBF4",
"8. c #D6F2FA",
"9. c #DAF2F6",
"0. c #DBF6FE",
"q. c #E6F6FA",
"w. c #F2F6FA",
"e. c #FAF6FA",
"r. c #FEFEFE",
"t. c None",
/* pixels */
"t.t.t.t.t.t.t.t.t.t.t.t.t.t.t.t.t.t.t.t.t.t.t.t.t.t.t.t.t.t.t.t.",
"t.t.t.t.t.t.t.t.t.t.t.t.t.t.t.t.t.t.t.t.t.t.t.t.t.t.t.t.t.t.t.t.",
"t.t.t.t.t.t.t.t.t.t.t.t.t.t.t.t.t.t.t.t.t.t.t.t.t.t.t.t.t.t.t.t.",
"t.t.t.t.t.t.t.t.t.t.t.t.t.t.t.t.t.t.t.t.t.t.t.t.t.t.t.t.t.t.t.t.",
"t.t.t.t.t.t.t.t.t.t.t.t.t.t.t.t.t.= t.t.t.t.t.t.t.t.t.t.t.t.t.t.",
"t.t.t.t.t.t.t.t.t.t.t.t.t.t.t.t.& = t.t.t.t.t.t.t.t.t.t.t.t.t.t.",
"t.t.t.t.t.t.t.t.t.t.t.t.t.t.t.; 5 - t.t.t.t.t.t.t.t.t.t.t.t.t.t.",
"t.t.t.t.t.t.t.t.t.t.t.t.t.t.0 e w : t.t.t.t.t.t.t.t.t.t.t.t.t.t.",
"t.t.t.t.t.t.t.t.t.t.t.t.t.> ) ` e 4 t.t.t.t.t.t.t.t.t.t.t.t.t.t.",
"t.t.t.t.t.t.t.t.t.t.t.t.6 ) 5.#.0 - t.t.t.t.t.t.t.t.t.t.t.t.t.t.",
"t.t.t.t.t.t.t.t.t.t.t.9 / 2.7.#.3 - t.t.t.t.t.t.t.t.t.t.t.t.t.t.",
"t.t.t.t.t.t.t.t.t.t.5 / 2.r.>.| s % % % % % % & % % % t.t.t.t.t.",
"t.t.t.t.t.t.t.t.t.> ( 2.r.7.@.[ G f f f f f f f f f % t.t.t.t.t.",
"t.t.t.t.t.t.t.t.9 _ 4.e.9.*.Y Y G F  .;.q.e.r.e.0.^ % t.t.t.t.t.",
"t.t.t.t.t.t.t.q / 1.w.7.=...B M V I +.<.8.0.0.3.=.^ % t.t.t.t.t.",
"t.t.t.t.t.t.& d -.6.;.%.X.B n n n M ] @.;.,.>.&.{ b % t.t.t.t.t.",
"t.t.t.t.t.t.. 7 c K W Q D N h g g h V U O.$.$.} ' j % t.t.t.t.t.",
"t.t.t.t.t.t.t.+ < f A Q T C m N l g l l k x x x z s % t.t.t.t.t.",
"t.t.t.t.t.t.t.t.O 1 f L ! Q D C C Z P E L P J Z S k % t.t.t.t.t.",
"t.t.t.t.t.t.t.t.t.X 3 h R o.Q B l l a u p p p i r 1 % t.t.t.t.t.",
"t.t.t.t.t.t.t.t.t.t.o 1 x H ~ H t 2 * # $ + + $ $ # % t.t.t.t.t.",
"t.t.t.t.t.t.t.t.t.t.t.+ 1 k K v 3 - t.t.t.t.t.t.t.t.t.t.t.t.t.t.",
"t.t.t.t.t.t.t.t.t.t.t.t.O 3 y t 8 4 t.t.t.t.t.t.t.t.t.t.t.t.t.t.",
"t.t.t.t.t.t.t.t.t.t.t.t.t.X 3 p , 4 t.t.t.t.t.t.t.t.t.t.t.t.t.t.",
"t.t.t.t.t.t.t.t.t.t.t.t.t.t.+ - , - t.t.t.t.t.t.t.t.t.t.t.t.t.t.",
"t.t.t.t.t.t.t.t.t.t.t.t.t.t.t.X & - t.t.t.t.t.t.t.t.t.t.t.t.t.t.",
"t.t.t.t.t.t.t.t.t.t.t.t.t.t.t.t.  = t.t.t.t.t.t.t.t.t.t.t.t.t.t.",
"t.t.t.t.t.t.t.t.t.t.t.t.t.t.t.t.t.X t.t.t.t.t.t.t.t.t.t.t.t.t.t.",
"t.t.t.t.t.t.t.t.t.t.t.t.t.t.t.t.t.t.t.t.t.t.t.t.t.t.t.t.t.t.t.t.",
"t.t.t.t.t.t.t.t.t.t.t.t.t.t.t.t.t.t.t.t.t.t.t.t.t.t.t.t.t.t.t.t.",
"t.t.t.t.t.t.t.t.t.t.t.t.t.t.t.t.t.t.t.t.t.t.t.t.t.t.t.t.t.t.t.t.",
"t.t.t.t.t.t.t.t.t.t.t.t.t.t.t.t.t.t.t.t.t.t.t.t.t.t.t.t.t.t.t.t."
};
