/* XPM */
/* $Id: conf_icon32.xpm 4550 2007-10-19 11:20:36Z schylek $ */
static const char * conf_icon32_xpm[] = {
"32 32 226 2",
"  	c None",
". 	c #B4E59E",
"+ 	c #A2E38C",
"@ 	c #B1E49D",
"# 	c #B3E79C",
"$ 	c #8DDE69",
"% 	c #77E84B",
"& 	c #87E35E",
"* 	c #76E74A",
"= 	c #42FE08",
"- 	c #67E445",
"; 	c #A2E58A",
"> 	c #92D87D",
", 	c #2CD400",
"' 	c #008C00",
") 	c #009000",
"! 	c #009C00",
"~ 	c #15BA00",
"{ 	c #7ADF52",
"] 	c #31E800",
"^ 	c #25E400",
"/ 	c #28F600",
"( 	c #4DFE16",
"_ 	c #99E67B",
": 	c #AAE194",
"< 	c #25C600",
"[ 	c #087800",
"} 	c #027800",
"| 	c #005600",
"1 	c #006200",
"2 	c #007800",
"3 	c #008200",
"4 	c #83D861",
"5 	c #006800",
"6 	c #5DDA31",
"7 	c #AFE97C",
"8 	c #A6E875",
"9 	c #AFDF92",
"0 	c #3BC91A",
"a 	c #3D7E4C",
"b 	c #5A6A93",
"c 	c #559664",
"d 	c #006600",
"e 	c #004A00",
"f 	c #006C00",
"g 	c #005800",
"h 	c #50E31C",
"i 	c #003A00",
"j 	c #003E00",
"k 	c #72E738",
"l 	c #349A23",
"m 	c #6BA766",
"n 	c #A1D192",
"o 	c #4E8B72",
"p 	c #6F5DB1",
"q 	c #7F9EA2",
"r 	c #63AE4F",
"s 	c #377A47",
"t 	c #0D7600",
"u 	c #006400",
"v 	c #005400",
"w 	c #43C112",
"x 	c #004000",
"y 	c #003000",
"z 	c #77E342",
"A 	c #0B7E00",
"B 	c #6BAB68",
"C 	c #9BBE97",
"D 	c #4EA358",
"E 	c #B1D6A5",
"F 	c #5BA084",
"G 	c #5872A3",
"H 	c #227E0D",
"I 	c #004200",
"J 	c #25A000",
"K 	c #038000",
"L 	c #003200",
"M 	c #7ADB4F",
"N 	c #119800",
"O 	c #58AB48",
"P 	c #8EC77E",
"Q 	c #3FB30C",
"R 	c #002400",
"S 	c #005000",
"T 	c #4FD819",
"U 	c #003800",
"V 	c #5BEB22",
"W 	c #37EE00",
"X 	c #2CAD04",
"Y 	c #40B811",
"Z 	c #003400",
"` 	c #5DD92C",
" .	c #0BA600",
"..	c #62EE2B",
"+.	c #ADE38C",
"@.	c #29C400",
"#.	c #6CA7A1",
"$.	c #B0D4A9",
"%.	c #50AD22",
"&.	c #038A00",
"*.	c #179000",
"=.	c #27BA00",
"-.	c #005E00",
";.	c #7FDF54",
">.	c #94DD74",
",.	c #4DA06A",
"'.	c #6B92A6",
").	c #56BB2A",
"!.	c #006E00",
"~.	c #568F6E",
"{.	c #61A466",
"].	c #67E93A",
"^.	c #002A00",
"/.	c #34A000",
"(.	c #BA6185",
"_.	c #BD6E8A",
":.	c #B194B5",
"<.	c #80879F",
"[.	c #46A413",
"}.	c #001600",
"|.	c #2D8413",
"1.	c #9D9AA1",
"2.	c #6DC64D",
"3.	c #6CDE45",
"4.	c #2FCC00",
"5.	c #135A00",
"6.	c #824772",
"7.	c #5B6655",
"8.	c #415E5C",
"9.	c #67546F",
"0.	c #814392",
"a.	c #9DB697",
"b.	c #006000",
"c.	c #001000",
"d.	c #869067",
"e.	c #B1CBAC",
"f.	c #6ABA4B",
"g.	c #008400",
"h.	c #468F26",
"i.	c #435652",
"j.	c #0E7800",
"k.	c #15780B",
"l.	c #1E7817",
"m.	c #37704C",
"n.	c #584D70",
"o.	c #6F996C",
"p.	c #99C685",
"q.	c #B3A49A",
"r.	c #ADD4A1",
"s.	c #005A00",
"t.	c #255A25",
"u.	c #218706",
"v.	c #168800",
"w.	c #157A0D",
"x.	c #1C7815",
"y.	c #1E751C",
"z.	c #4F6C6A",
"A.	c #9AB297",
"B.	c #4FB328",
"C.	c #6B8A39",
"D.	c #B8CFAC",
"E.	c #5BCA39",
"F.	c #43943B",
"G.	c #279704",
"H.	c #209401",
"I.	c #1F8906",
"J.	c #1E7E0F",
"K.	c #20751E",
"L.	c #618C80",
"M.	c #007200",
"N.	c #A69B8D",
"O.	c #66B160",
"P.	c #339021",
"Q.	c #308C1D",
"R.	c #268813",
"S.	c #1F7D1A",
"T.	c #46933E",
"U.	c #AFD5A6",
"V.	c #8ABE75",
"W.	c #3F8F0A",
"X.	c #BEC5AA",
"Y.	c #72B66B",
"Z.	c #4CA548",
"`.	c #52AA4D",
" +	c #86B982",
".+	c #44B114",
"++	c #899661",
"@+	c #007600",
"#+	c #087600",
"$+	c #B7A69E",
"%+	c #84C269",
"&+	c #4C8A2B",
"*+	c #A9CC9F",
"=+	c #40B10E",
"-+	c #005C00",
";+	c #7C957E",
">+	c #1B8000",
",+	c #A2B5A4",
"'+	c #6DC849",
")+	c #004400",
"!+	c #49893A",
"~+	c #119400",
"{+	c #004E00",
"]+	c #81A892",
"^+	c #72CA53",
"/+	c #177E00",
"(+	c #9DCA9F",
"_+	c #95DB80",
":+	c #10AE00",
"<+	c #448E3B",
"[+	c #45FE0C",
"}+	c #1A9E00",
"|+	c #79AE7F",
"1+	c #49F51A",
"2+	c #079E00",
"3+	c #002000",
"4+	c #86B083",
"5+	c #00A000",
"6+	c #4E6B55",
"7+	c #79A481",
"8+	c #007E00",
"9+	c #5D6376",
"0+	c #89B28B",
"a+	c #1B623E",
"b+	c #43766C",
"c+	c #A9D4A3",
"                                                                ",
"                        . + @                                   ",
"                    # $ % & * = - ;                             ",
"                  > , ' ) ! ~ { ] ^ / ( _                       ",
"                : < [ } | 1 2 3 4 5 6 7 8 9                     ",
"                0 a b c d e f g h i j k l m                     ",
"              n o p q r s t u v w x y z A B                     ",
"                C D E F G H g I J K L M N O                     ",
"                  P       Q x R S T U V W X                     ",
"                          Y j I Z ` u  ...+.@.#.$.              ",
"                          %.Z 5 &.*.=.I -.;.>.,.'.              ",
"                          ).y !.~.{.].g ^./.(._.:.<.            ",
"                          [.}.|.1.2.3.4.5.6.7.8.9.0.a.          ",
"                          b.c.d.e.f.g.h.i.j.k.l.m.n.o.          ",
"                        p.i x q.  r.s.t.u.v.w.x.y.z.A.          ",
"                        B.i C.D.    E.F.G.H.I.J.K.L.            ",
"                        M.e N.        O.P.Q.R.S.T.U.            ",
"                      V.d W.X.          Y.Z.`. +                ",
"                      .+!.++                                    ",
"                      @+#+$+                                    ",
"                    %+1 &+*+                                    ",
"                    =+-+;+                                      ",
"                    s.>+,+                                      ",
"                  '+)+!+                                        ",
"                  ~+{+]+                                        ",
"                ^+b./+(+                                        ",
"              _+:+x <+                                          ",
"            @ [+}+x |+                                          ",
"            1+2+3+u 4+                                          ",
"            5+{+}.6+7+                                          ",
"            8+I x 9+0+                                          ",
"            -+U a+b+c+                                          "};
