/* XPM */
static const char *conf_icon16_xpm[] = {
/* columns rows colors chars-per-pixel */
"16 16 77 1",
"  c #000000",
". c #003900",
"X c #192C18",
"o c #1B3212",
"O c #222F1D",
"+ c #24331F",
"@ c #26391E",
"# c #262C25",
"$ c #282D29",
"% c #283424",
"& c #2B3529",
"* c #2C3927",
"= c #004E00",
"- c #005400",
"; c #005A00",
": c #114104",
"> c #114905",
", c #134115",
"< c #1F5A07",
"1 c #006F00",
"2 c #0F6C02",
"3 c #0A7300",
"4 c #19690E",
"5 c #1D7D05",
"6 c #1B7E0D",
"7 c #2C4E1E",
"8 c #295A13",
"9 c #2F4F2E",
"0 c #255A28",
"q c #395B31",
"w c #3D5A39",
"e c #206F14",
"r c #2E7A3D",
"t c #336D34",
"y c #3A7B2B",
"u c #2E5E48",
"i c #3F5541",
"p c #3B7849",
"a c #435340",
"s c #59584D",
"d c #5D556F",
"f c #4C614B",
"g c #55724A",
"h c #5C7A52",
"j c #676B7E",
"k c #1D8B03",
"l c #198B08",
"z c #14A006",
"x c #238F0E",
"c c #2C8115",
"v c #2B8D11",
"b c #318C1D",
"n c #34971F",
"m c #308426",
"M c #3C8824",
"N c #379B2C",
"B c #349335",
"V c #38AF1A",
"C c #3FBD2A",
"Z c #479A3F",
"A c #489D3C",
"S c #52883F",
"D c #51BB3E",
"F c #5FBA39",
"G c #4D8F4C",
"H c #758F5F",
"J c #62AF4A",
"K c #51DF29",
"L c #5CDB2E",
"P c #57E533",
"I c #5BC941",
"U c #7DC264",
"Y c #699284",
"T c #7BB086",
"R c #96937B",
"E c #89B979",
"W c None",
/* pixels */
"WWWWWWg*WWWWWWWW",
"WWWW+ICKP5@WWWWW",
"WWWWDr;1nFUWWWWW",
"WWW%YTr-kMNWWWWW",
"WWWW+W<.vlL0&WWW",
"WWWWWW8=BxcRjWWW",
"WWWWWW:7EVqtdaWW",
"WWWWWWyH&mk6p#WW",
"WWWWW+2sWXAZwWWW",
"WWWWW>SWWWWWWWWW",
"WWWWWbhWWWWWWWWW",
"WWWWo4$WWWWWWWWW",
"WWWWeGWWWWWWWWWW",
"WWWJ39WWWWWWWWWW",
"WWWz,aWWWWWWWWWW",
"WWW-ufWWWWWWWWWW"
};
