/* XPM */
static const char * down_xpm[] = {
"20 20 166 2",
"  	c None",
". 	c #10311D",
"+ 	c #11371E",
"@ 	c #173D25",
"# 	c #183E26",
"$ 	c #143C23",
"% 	c #133B21",
"& 	c #123B20",
"* 	c #10351E",
"= 	c #10301D",
"- 	c #175B27",
"; 	c #49945C",
"> 	c #4F9862",
", 	c #37884A",
"' 	c #267C3A",
") 	c #1F7932",
"! 	c #144D25",
"~ 	c #0D2B1A",
"{ 	c #10331D",
"] 	c #195E29",
"^ 	c #75BA88",
"/ 	c #73CA86",
"( 	c #50B165",
"_ 	c #309043",
": 	c #228632",
"< 	c #175527",
"[ 	c #0E2C18",
"} 	c #10341D",
"| 	c #195D2A",
"1 	c #8BB09A",
"2 	c #8ED79D",
"3 	c #68C67A",
"4 	c #379749",
"5 	c #258634",
"6 	c #185929",
"7 	c #0C2B15",
"8 	c #195C29",
"9 	c #89B397",
"0 	c #94DCA4",
"a 	c #72C981",
"b 	c #3A984B",
"c 	c #2A8838",
"d 	c #0A2A14",
"e 	c #78B887",
"f 	c #8BD99A",
"g 	c #68C277",
"h 	c #349446",
"i 	c #2B8738",
"j 	c #19592A",
"k 	c #0C2B17",
"l 	c #185C28",
"m 	c #5BB16C",
"n 	c #6ECD81",
"o 	c #4DB15E",
"p 	c #2A8B3C",
"q 	c #2C8838",
"r 	c #1A5B2A",
"s 	c #0E301C",
"t 	c #10331E",
"u 	c #165C27",
"v 	c #3F9A52",
"w 	c #49AE5C",
"x 	c #339B45",
"y 	c #228635",
"z 	c #288A36",
"A 	c #1C682D",
"B 	c #124323",
"C 	c #133C22",
"D 	c #1C482E",
"E 	c #234E34",
"F 	c #1C4D2E",
"G 	c #164D28",
"H 	c #1D6C2F",
"I 	c #308B42",
"J 	c #2F9040",
"K 	c #218A34",
"L 	c #1E8532",
"M 	c #218A32",
"N 	c #1D752F",
"O 	c #165528",
"P 	c #164C28",
"Q 	c #154A28",
"R 	c #124324",
"S 	c #0E311C",
"T 	c #081F13",
"U 	c #143B22",
"V 	c #264E36",
"W 	c #436F55",
"X 	c #528566",
"Y 	c #4D8D62",
"Z 	c #429555",
"` 	c #369546",
" .	c #258D37",
"..	c #1D8731",
"+.	c #1E8733",
"@.	c #218E34",
"#.	c #228732",
"$.	c #237832",
"%.	c #1D652F",
"&.	c #16562A",
"*.	c #103C1F",
"=.	c #092012",
"-.	c #275138",
";.	c #4A7B5E",
">.	c #7AAE90",
",.	c #88C29A",
"'.	c #6BBB7C",
").	c #44A553",
"!.	c #279137",
"~.	c #1D8831",
"{.	c #1F8C33",
"].	c #269635",
"^.	c #2B9F36",
"/.	c #2D9437",
"(.	c #207232",
"_.	c #144F25",
":.	c #0D311A",
"<.	c #38664B",
"[.	c #5E8C72",
"}.	c #94BAA3",
"|.	c #9DCAA9",
"1.	c #6DBF7A",
"2.	c #3EA54B",
"3.	c #259237",
"4.	c #239235",
"5.	c #2BA138",
"6.	c #2FA739",
"7.	c #278634",
"8.	c #195B29",
"9.	c #0F391C",
"0.	c #3D674E",
"a.	c #6A8E7A",
"b.	c #A2BCAD",
"c.	c #9CCAA8",
"d.	c #6AC07B",
"e.	c #3AA749",
"f.	c #2B9B37",
"g.	c #2FA138",
"h.	c #2A9236",
"i.	c #1B612A",
"j.	c #103E1E",
"k.	c #416851",
"l.	c #6E927E",
"m.	c #A2BDB3",
"n.	c #94CCA5",
"o.	c #52B760",
"p.	c #2B9D36",
"q.	c #278D34",
"r.	c #1C6A2B",
"s.	c #11401E",
"t.	c #3E674F",
"u.	c #769B88",
"v.	c #96CBAA",
"w.	c #64BE74",
"x.	c #268F34",
"y.	c #196A29",
"z.	c #10411E",
"A.	c #467158",
"B.	c #70A083",
"C.	c #60AC74",
"D.	c #1E6E2E",
"E.	c #0F421D",
"F.	c #416C53",
"G.	c #3F7651",
"H.	c #134621",
"I.	c #13321D",
"                                        ",
"          . + @ # $ % & * =             ",
"          . - ; > , ' ) ! ~             ",
"          { ] ^ / ( _ : < [             ",
"          } | 1 2 3 4 5 6 7             ",
"          . 8 9 0 a b c 6 d             ",
"          . 8 e f g h i j k             ",
"          . l m n o p q r s             ",
"          t u v w x y z A B             ",
"  C D E F G H I J K L M N O P Q R S T   ",
"  U V W X Y Z `  ...+.@.#.$.%.&.*.=.    ",
"    -.;.>.,.'.).!.~.{.].^./.(._.:.      ",
"      <.[.}.|.1.2.3.4.5.6.7.8.9.        ",
"        0.a.b.c.d.e.f.g.h.i.j.          ",
"          k.l.m.n.o.p.q.r.s.            ",
"            t.u.v.w.x.y.z.              ",
"              A.B.C.D.E.                ",
"                F.G.H.                  ",
"                  I.                    ",
"                                        "};
