/* XPM */
static char *draw16[] = {
/* columns rows colors chars-per-pixel */
"16 16 81 1",
"  c #3F3F40",
". c #5F6061",
"X c #606060",
"o c #666668",
"O c #6A6A6B",
"+ c #6D6D6E",
"@ c #747475",
"# c #777777",
"$ c #BA172C",
"% c #934852",
"& c #AE5B66",
"* c #D1051E",
"= c #DB001B",
"- c #DB011C",
"; c #DB041E",
": c #CE0722",
"> c #C80921",
", c #DA0721",
"< c #CF283D",
"1 c #CE2A3E",
"2 c #D12C41",
"3 c #C05765",
"4 c #EA6874",
"5 c #EA6975",
"6 c #EC7681",
"7 c #EC7A85",
"8 c #888888",
"9 c #89898A",
"0 c #8C8C8D",
"q c #8C8C8E",
"w c #8F9090",
"e c #909091",
"r c #959596",
"t c #979798",
"y c #989294",
"u c #A0A0A1",
"i c #A7A8AA",
"p c #ABAAAB",
"a c #A9AAAC",
"s c #ACADAE",
"d c #ADADAE",
"f c #AFAFAF",
"g c #B2AEAF",
"h c #B0B1B3",
"j c #B3B0B0",
"k c #B3B3B5",
"l c #B3B4B6",
"z c #B4B4B4",
"x c #B4B5B7",
"c c #B6B6B6",
"v c #B6B7B8",
"b c gray75",
"n c #EF8993",
"m c #EF9EA7",
"M c #F19CA5",
"N c #F29FA7",
"B c #F2A1A9",
"V c #F4B1B7",
"C c #C3C4C5",
"Z c #C6C2C2",
"A c #C6C7C8",
"S c #C9C9CA",
"D c #C9CACB",
"F c #D2D3D3",
"G c #D5D6D6",
"H c #D9DADA",
"J c #DADADA",
"K c gray87",
"L c #EADADB",
"P c #F7C6CA",
"I c #FADEE0",
"U c #E3E4E4",
"Y c #F8EFEF",
"T c #FDEEEF",
"R c #FDEFF0",
"E c #FDF0F1",
"W c gray98",
"Q c #FFFCFC",
"! c #FEFEFE",
"~ c gray100",
"^ c None",
/* pixels */
"^^^^^^UU^^^^^^^^",
"^^^^^^UU^^^A^^^^",
"^^^^^^UU^^AA^^^^",
"^^^^^UU^^AA^^^^^",
"^^^^^UU^AAA^^==^",
"^^^^UUJtzzq ==^^",
"^^^UUUs~~~Yy==^^",
"^^UUUsWI~~6L%^^^",
"^UUJvuTn4TMM9^^^",
"UFj&<&7PV5TB@^^^",
"UFi<=:Z~~B~j@^^^",
"UUa<==$gKJpqr+^^",
"^Uz<====>*=Xbzo^",
"^UC2=====;^^9Dz.",
"^^F<=====,^^^qDd",
"^^U2--====^^^^wO"
};
