/* XPM */
/* 
  SZARP: SCADA software 
  Copyright (C) 1994-2008  PRATERM S.A.

  This program is free software; you can redistribute it and/or modify
  it under the terms of the GNU General Public License as published by
  the Free Software Foundation; either version 2 of the License, or
  (at your option) any later version.

  This program is distributed in the hope that it will be useful,
  but WITHOUT ANY WARRANTY; without even the implied warranty of
  MERCHANTABILITY or FITNESS FOR A PARTICULAR PURPOSE.  See the
  GNU General Public License for more details.

  You should have received a copy of the GNU General Public License
  along with this program; if not, write to the Free Software
  Foundation, Inc., 51 Franklin Street, Fifth Floor, Boston, MA  02110-1301, USA
*/
const static char *draw64_xpm[] = {
/* columns rows colors chars-per-pixel */
"64 64 129 2",
"   c #453D3E",
".  c #4E3C3F",
"X  c #50373C",
"o  c #50383C",
"O  c #772C36",
"+  c #65343A",
"@  c #3F3F40",
"#  c #413E40",
"$  c #623B40",
"%  c #7C3A44",
"&  c #424243",
"*  c #4C4C4E",
"=  c #525152",
"-  c #5C5C5D",
";  c #69494D",
":  c #734149",
">  c #645A5C",
",  c #5F5F61",
"<  c #605F60",
"1  c #636263",
"2  c #666668",
"3  c #6B6B6C",
"4  c #756B6E",
"5  c #747475",
"6  c #777678",
"7  c #7A7A7C",
"8  c #8F1F2D",
"9  c #9E192A",
"0  c #A21728",
"q  c #A01829",
"w  c #B31025",
"e  c #832430",
"r  c #DB001B",
"t  c #DD0B1F",
"y  c #C20A21",
"u  c #D70D26",
"i  c #DD0D21",
"p  c #DE1124",
"a  c #DF162A",
"s  c #DF192D",
"d  c #E01F31",
"f  c #D0243A",
"g  c #E02436",
"h  c #E12A3B",
"j  c #CC3144",
"k  c #C83D4F",
"l  c #D63F4D",
"z  c #E22F40",
"x  c #E33445",
"c  c #E43E4E",
"v  c #8B6367",
"b  c #BC6571",
"n  c #C44A5A",
"m  c #D84553",
"M  c #E54352",
"N  c #E64C5A",
"B  c #C05664",
"V  c #E75361",
"C  c #E85966",
"Z  c #E85B69",
"A  c #E96471",
"S  c #EA6975",
"D  c #EB707C",
"F  c #7F7F80",
"G  c #807F81",
"H  c #B67781",
"J  c #EC7581",
"K  c #ED7C87",
"L  c #ED7E88",
"P  c #838384",
"I  c #868788",
"U  c #8B8C8D",
"Y  c #8E8E90",
"T  c #939394",
"R  c #9A9091",
"E  c #979698",
"W  c #9B9B9C",
"Q  c #AD969B",
"!  c #9E9FA0",
"~  c #9FA0A2",
"^  c #A2A3A4",
"/  c #A8A5A7",
"(  c #A7A7A9",
")  c #A8A6A8",
"_  c #A7A8AA",
"`  c #AAABAC",
"'  c #ADAEB0",
"]  c #AFB0B2",
"[  c #B3B3B4",
"{  c #B7B8B9",
"}  c #BABABB",
"|  c #EE828C",
" . c #F0949D",
".. c #F19CA4",
"X. c #C2BCBE",
"o. c #F2A1A9",
"O. c #F4ADB4",
"+. c #F5B4BB",
"@. c #F5B8BE",
"#. c #F6BFC4",
"$. c #BFC0C2",
"%. c #C4C4C5",
"&. c #CAC0C1",
"*. c #C6C7C8",
"=. c #CACBCC",
"-. c #CECED0",
";. c #CFD0D0",
":. c #D2D2D3",
">. c #D7D8D8",
",. c #DCDBDC",
"<. c #F6C0C5",
"1. c #F7C4C8",
"2. c #F7C8CD",
"3. c #F8CDD1",
"4. c #F9D7D9",
"5. c #FADADD",
"6. c #DFDFE0",
"7. c #E0DFE1",
"8. c #FADFE1",
"9. c #E3E4E4",
"0. c #E9E9EA",
"q. c #FBE3E5",
"w. c #FCE7E9",
"e. c #FCEAEC",
"r. c #F4F4F5",
"t. c #FDF4F5",
"y. c #FEF7F8",
"u. c #FFFFFF",
"i. c None",
/* pixels */
"i.i.i.i.i.i.i.i.i.i.i.i.i.i.i.i.i.i.i.i.i.i.i.i.i.i.i.i.i.i.i.i.i.i.i.i.i.i.i.i.i.i.i.i.i.i.i.i.i.i.i.i.i.i.i.i.i.i.i.i.i.i.i.i.",
"i.i.i.i.i.i.i.i.i.i.i.i.i.i.i.i.i.i.i.i.i.i.i.i.i.i.i.i.i.i.i.i.i.i.i.i.i.i.i.i.i.i.i.i.i.i.i.i.i.i.i.i.i.i.i.i.i.i.i.i.i.i.i.i.",
"i.i.i.i.i.i.i.i.i.i.i.i.i.i.i.i.i.i.i.i.i.i.i.i.i.i.i.i.i.i.i.i.i.i.i.i.i.i.i.i.i.i.i.i.i.i.i.i.i.i.i.i.i.i.i.i.i.i.i.i.i.i.i.i.",
"i.i.i.i.i.i.i.i.i.i.i.i.i.i.i.i.i.i.i.i.i.i.i.i.i.i.i.i.i.i.i.i.i.i.i.i.i.i.i.i.i.i.i.i.i.i.i.i.i.i.i.i.i.i.i.i.i.i.i.i.i.i.i.i.",
"i.i.i.i.i.i.i.i.i.i.i.i.i.i.i.i.i.i.i.i.i.i.i.i.i.i.i.i.i.i.i.i.i.i.i.i.i.i.i.i.i.i.i.i.i.i.i.i.i.i.i.i.i.i.i.i.i.i.i.i.i.i.i.i.",
"i.i.i.i.i.i.i.i.i.i.i.i.i.i.i.i.i.i.i.i.i.i.i.i.i.i.i.i.i.i.i.i.i.i.i.i.i.i.i.i.i.i.i.i.i.i.i.i.i.i.i.i.i.i.i.i.i.i.i.i.i.i.i.i.",
"i.i.i.i.i.i.i.i.i.i.i.i.i.i.i.i.i.i.i.i.i.i.i.i.i.i.i.9.i.i.i.i.i.i.i.i.i.i.i.i.i.i.i.i.i.i.i.i.i.i.i.i.i.i.i.i.i.i.i.i.i.i.i.i.",
"i.i.i.i.i.i.i.i.i.i.i.i.i.i.i.i.i.i.i.i.i.i.i.i.i.i.i.9.i.i.i.i.i.i.i.i.i.i.i.i.i.i.i.i.i.i.i.i.i.i.i.i.i.i.i.i.i.i.i.i.i.i.i.i.",
"i.i.i.i.i.i.i.i.i.i.i.i.i.i.i.i.i.i.i.i.i.i.i.i.i.i.9.9.i.i.i.i.i.i.i.i.i.i.i.i.i.i.i.i.i.i.i.i.i.i.i.i.i.i.i.i.i.i.i.i.i.i.i.i.",
"i.i.i.i.i.i.i.i.i.i.i.i.i.i.i.i.i.i.i.i.i.i.i.i.i.i.9.9.i.i.i.i.i.i.i.i.i.i.i.i.i.i.i.i.i.i.i.i.i.i.i.i.i.i.i.i.i.i.i.i.i.i.i.i.",
"i.i.i.i.i.i.i.i.i.i.i.i.i.i.i.i.i.i.i.i.i.i.i.i.i.i.9.9.i.i.i.i.i.i.i.i.i.i.i.i.i.i.i.i.i.i.i.i.i.i.i.i.i.i.i.i.i.i.i.i.i.i.i.i.",
"i.i.i.i.i.i.i.i.i.i.i.i.i.i.i.i.i.i.i.i.i.i.i.i.i.9.9.i.i.i.i.i.i.i.i.i.i.i.i.i.i.i.*.i.i.i.i.i.i.i.i.i.i.i.i.i.i.i.i.i.i.i.i.i.",
"i.i.i.i.i.i.i.i.i.i.i.i.i.i.i.i.i.i.i.i.i.i.i.i.i.9.9.i.i.i.i.i.i.i.i.i.i.i.i.i.i.*.i.i.i.i.i.i.i.i.i.i.i.i.i.i.i.i.i.i.i.i.i.i.",
"i.i.i.i.i.i.i.i.i.i.i.i.i.i.i.i.i.i.i.i.i.i.i.i.9.9.9.i.i.i.i.i.i.i.i.i.i.i.i.i.*.*.i.i.i.i.i.i.i.i.i.i.i.i.i.i.i.i.i.i.i.i.i.i.",
"i.i.i.i.i.i.i.i.i.i.i.i.i.i.i.i.i.i.i.i.i.i.i.i.9.9.9.i.i.i.i.i.i.i.i.i.i.i.i.i.*.i.i.i.i.i.i.i.i.i.i.i.i.i.i.i.i.i.i.i.i.i.i.i.",
"i.i.i.i.i.i.i.i.i.i.i.i.i.i.i.i.i.i.i.i.i.i.i.9.9.9.9.i.i.i.i.i.i.i.i.i.i.i.i.*.*.i.i.i.i.i.i.i.i.i.i.i.i.i.i.i.i.i.i.i.i.i.i.i.",
"i.i.i.i.i.i.i.i.i.i.i.i.i.i.i.i.i.i.i.i.i.i.i.9.9.9.9.i.i.i.i.i.i.i.i.i.i.i.*.*.*.i.i.i.i.i.i.i.i.i.i.i.i.i.i.i.i.i.i.i.i.i.i.i.",
"i.i.i.i.i.i.i.i.i.i.i.i.i.i.i.i.i.i.i.i.i.i.9.9.9.9.9.i.i.i.i.i.i.i.i.i.i.*.*.*.i.i.i.i.i.i.i.i.i.i.i.i.i.i.i.i.i.i.i.i.i.i.i.i.",
"i.i.i.i.i.i.i.i.i.i.i.i.i.i.i.i.i.i.i.i.i.i.9.9.9.9.9.i.i.i.i.i.i.i.i.i.*.*.*.*.i.i.i.i.i.i.i.i.i.i.i.i.i.i.i.i.i.i.i.i.i.i.i.i.",
"i.i.i.i.i.i.i.i.i.i.i.i.i.i.i.i.i.i.i.i.i.9.9.9.9.9.9.i.i.i.i.i.i.i.i.i.*.*.*.i.i.i.i.i.i.i.i.i.i.i.i.i.i.i.i.i.i.i.i.i.i.i.i.i.",
"i.i.i.i.i.i.i.i.i.i.i.i.i.i.i.i.i.i.i.i.9.9.9.9.9.9.9.i.i.i.i.i.i.i.I ^ ! E ] i.i.i.i.i.i.i.i.i.i.i.i.i.i.i.i.r i.i.i.i.i.i.i.i.",
"i.i.i.i.i.i.i.i.i.i.i.i.i.i.i.i.i.i.i.i.9.9.9.9.9.9.9.i.i.i.3 I U U U T U U P 7 1 i.i.i.i.i.i.i.i.i.i.i.i.i.r i.i.i.i.i.i.i.i.i.",
"i.i.i.i.i.i.i.i.i.i.i.i.i.i.i.i.i.i.i.9.9.9.9.9.9.9.9.i.1 U U } r.u.u.u.u.u.u.:.E 6 1 i.i.i.i.i.i.i.i.i.r r i.i.i.i.i.i.i.i.i.i.",
"i.i.i.i.i.i.i.i.i.i.i.i.i.i.i.i.i.i.9.9.9.9.9.9.9.9.>.I 6 [ u.u.u.u.u.u.u.u.u.u.u.6.3 3 & i.i.i.i.i.i.r r i.i.i.i.i.i.i.i.i.i.i.",
"i.i.i.i.i.i.i.i.i.i.i.i.i.i.i.i.i.i.9.9.9.9.9.9.9.=.E P 0.u.u.u.u.u.u.u.u.u.u.u.u.u.u.W 2 & i.i.i.i.r r i.i.i.i.i.i.i.i.i.i.i.i.",
"i.i.i.i.i.i.i.i.i.i.i.i.i.i.i.i.i.9.9.9.9.9.9.9.=.U ^ u.u.u.u.u.u.u.u.u.u.u.u.u.u.u.u.u.>.3 @ i.r r r r i.i.i.i.i.i.i.i.i.i.i.i.",
"i.i.i.i.i.i.i.i.i.i.i.i.i.i.i.i.9.9.9.9.9.9.9.9.T G u.u.u.u.u.u.u.u.u.u.u.u.u.u.u.u.t.u.u.[ - 9 r r r i.i.i.i.i.i.i.i.i.i.i.i.i.",
"i.i.i.i.i.i.i.i.i.i.i.i.i.i.i.9.9.9.9.9.9.9.9.{ F 9.u.u.u.u.u.u.u.u.u.u.u.u.u.u.u.u.D q.u.u.6 o r r i.i.i.i.i.i.i.i.i.i.i.i.i.i.",
"i.i.i.i.i.i.i.i.i.i.i.i.i.i.9.9.9.9.9.9.9.9.9.Y [ u.u.u.u.u.u.u.u.u.u.u.u.u.u.u.u.y.s L u.u.0.* 9 r i.i.i.i.i.i.i.i.i.i.i.i.i.i.",
"i.i.i.i.i.i.i.i.i.i.i.i.i.i.9.9.9.9.9.9.9.9.^ T u.u.u.u.u.u.u.y.u.u.u.u.u.u.u.u.u.O.t s y.u.u.[ . i.i.i.i.i.i.i.i.i.i.i.i.i.i.i.",
"i.i.i.i.i.i.i.i.i.i.i.i.i.9.9.9.9.9.9.9.9.9.Y { u.u.u.u.u.u.t.Z u.u.u.u.u.u.u.u.u.V i t ..u.u.r.< i.i.i.i.i.i.i.i.i.i.i.i.i.i.i.",
"i.i.i.i.i.i.i.i.i.i.i.i.9.9.9.9.9.9.9.9.,.{ P 0.u.u.u.u.u.u. .t 1.u.u.u.u.u.u.u.e.p Z x x u.u.u.7 i.i.i.i.i.i.i.i.i.i.i.i.i.i.i.",
"i.i.i.i.i.i.i.i.i.i.i.9.9.9.9.9.9.9.9.%.` _ I u.u.u.u.u.u.y.g t N u.u.q.u.u.u.u...t @.o.t #.u.u.W @ i.i.i.i.i.i.i.i.i.i.i.i.i.i.",
"i.i.i.i.i.i.i.i.i.i.9.9.9.9.9.9.9.;.' _ _ W T u.u.u.u.u.u. .t x t 3.+.S u.u.u.u.c g u.y.d V u.u.` * i.i.i.i.i.i.i.i.i.i.i.i.i.i.",
"i.i.i.i.i.i.i.i.i.9.9.9.9.9.9.:.[ _ _ _ _ W E u.u.u.u.u.y.g N 4.i V x a y.u.u.5.t L u.u.| i 8.u.} 1 i.i.i.i.i.i.i.i.i.i.i.i.i.i.",
"i.i.i.i.i.i.i.i.9.9.9.9.9.-.[ _ _ _ _ _ _ ^ U u.y.V +.u. .t 2.u.C t t t O.u.u.| t 5.u.u.w.p J u.[ , i.i.i.i.i.i.i.i.i.i.i.i.i.i.",
"i.i.i.i.i.i.9.9.9.9.9.=.] _ _ _ _ _ _ _ Q H P t.N t g e.g V u.u.3.t a x V u.u.h M u.u.u.u.A a t.^ = i.i.i.i.i.i.i.i.i.i.i.i.i.i.",
"i.i.i.i.i.9.9.9.;.{ ` _ _ b B n k j f u r r 4 M i K p h i 3.u.u.u.N K  .i e.1.t ..u.u.u.u.3.t  .U & i.i.i.i.i.i.i.i.i.i.i.i.i.i.",
"i.i.i.i.9.9.%.` _ _ _ _ _ r r r r r r r r r % l O.u.| t Z u.u.u.u.2.e.q.i  .S a t.u.u.u.u.u.M z 5 i.i.i.i.i.i.i.i.i.i.i.i.i.i.i.",
"i.i.9.9.9.9.%._ _ _ _ _ _ r r r r r r r r r w R u.u.y.x 4.u.u.u.u.u.u.u.M x a A u.u.u.u.u.u.O.m 2 i.i.i.i.i.i.i.i.i.i.i.i.i.i.i.",
"i.9.9.9.9.9.:._ _ _ _ _ _ r r r r r r r r r r > :.u.u.w.u.u.u.u.u.u.u.u...t t <.u.u.u.u.u.u.y.v & i.i.i.i.i.i.i.i.i.i.i.i.i.i.i.",
"9.9.9.9.9.9.9.` _ _ _ _ _ r r r r r r r r r r 8 - r.u.u.u.u.u.u.u.u.u.u.e.p h u.u.u.u.u.u.u.E 2 i.i.i.i.i.i.i.i.i.i.i.i.i.i.i.i.",
"i.9.9.9.9.9.9.[ _ _ _ _ _ r r r r r r r r r r r X U u.u.u.u.u.u.u.u.u.u.u.V | u.u.u.u.u.u.:.3 3 7 i.i.i.i.i.i.i.i.i.i.i.i.i.i.i.",
"i.9.9.9.9.9.9.%._ _ _ _ _ r r r r r r r r r r r y # =.u.u.u.u.u.u.u.u.u.u.O.8.u.u.u.u.u.r.6 2 U 7 i.i.i.i.i.i.i.i.i.i.i.i.i.i.i.",
"i.i.9.9.9.9.9.>._ _ _ _ _ r r r r r r r r r r r r 0 & ^ u.u.u.u.u.u.u.u.u.u.u.u.u.u.u.:.7 1 =.^ @ i.i.i.i.i.i.i.i.i.i.i.i.i.i.i.",
"i.i.9.9.9.9.9.9.` _ _ _ _ r r r r r r r r r r r r r w   3 9.u.u.u.u.u.u.u.u.u.u.u.y.E 5 1 -.I 5 P i.i.@ i.i.i.i.i.i.i.i.i.i.i.i.",
"i.i.i.9.9.9.9.9.{ _ _ _ _ r r r r r r r r r r r r r r y $ - _ 0.u.u.u.u.u.u.u.y.=.F 3 & I / P -.^ T I P & i.i.i.i.i.i.i.i.i.i.i.",
"i.i.i.i.9.9.9.9.*._ _ _ _ r r r r r r r r r r r r r r r r w + 1 F W ` } [ ^ T 6 2 & i.i.1 @ 5 W ^ ^ { ! U @ i.i.i.i.i.i.i.i.i.i.",
"i.i.i.i.9.9.9.9.,._ _ _ _ r r r r r r r r r r r r r r r r r r y 0 e + ; : O e q i.i.i.i.i.i.i.P ^ P ,.%.! U @ i.i.i.i.i.i.i.i.i.",
"i.i.i.i.i.9.9.9.9.' _ _ _ r r r r r r r r r r r r r r r r r r r r r r r r r r r i.i.i.i.i.i.i.= ! ,.0.,.%.~ U @ i.i.i.i.i.i.i.i.",
"i.i.i.i.i.9.9.9.9.} _ _ _ r r r r r r r r r r r r r r r r r r r r r r r r r r r i.i.i.i.i.i.i.@ T { 9.0.,.%.^ I @ i.i.i.i.i.i.i.",
"i.i.i.i.i.i.9.9.9.=._ _ _ r r r r r r r r r r r r r r r r r r r r r r r r r r i.i.i.i.i.i.i.i.i.& T { 7.0.,.%.^ I @ i.i.i.i.i.i.",
"i.i.i.i.i.i.9.9.9.,._ _ ( r r r r r r r r r r r r r r r r r r r r r r r r r r i.i.i.i.i.i.i.i.i.i.& T { 9.0.,.%.^ I @ i.i.i.i.i.",
"i.i.i.i.i.i.i.9.9.9.] _ ( r r r r r r r r r r r r r r r r r r r r r r r r r r i.i.i.i.i.i.i.i.i.i.i.& T { 9.0.,.%.^ P @ i.i.i.i.",
"i.i.i.i.i.i.i.i.9.9.} _ ( r r r r r r r r r r r r r r r r r r r r r r r r r r i.i.i.i.i.i.i.i.i.i.i.i.& T } 9.0.,.%.^ P @ i.i.i.",
"i.i.i.i.i.i.i.i.9.9.-._ ( r r r r r r r r r r r r r r r r r r r r r r r r r r i.i.i.i.i.i.i.i.i.i.i.i.i.& T } 9.0.,.%.^ P @ i.i.",
"i.i.i.i.i.i.i.i.i.9.9._ ) r r r r r r r r r r r r r r r r r r r r r r r r r r i.i.i.i.i.i.i.i.i.i.i.i.i.i.& T } 9.0.,.%.^ F @ i.",
"i.i.i.i.i.i.i.i.i.9.9.[ ) r r r r r r r r r r r r r r r r r r r r r r r r r r i.i.i.i.i.i.i.i.i.i.i.i.i.i.i.& T } 9.0.,.%.^ 7 i.",
"i.i.i.i.i.i.i.i.i.i.9.$.) r r r r r r r r r r r r r r r r r r r r r r r r r r i.i.i.i.i.i.i.i.i.i.i.i.i.i.i.i.& T } 9.0.,.%.` & ",
"i.i.i.i.i.i.i.i.i.i.9.:./ r r r r r r r r r r r r r r r r r r r r r r r r r i.i.i.i.i.i.i.i.i.i.i.i.i.i.i.i.i.i.& T } 9.0.%.- - ",
"i.i.i.i.i.i.i.i.i.i.i.9.) r r r r r r r r r r r r r r r r r r r r r r r r r i.i.i.i.i.i.i.i.i.i.i.i.i.i.i.i.i.i.i.& T } } = [ - ",
"i.i.i.i.i.i.i.i.i.i.i.i.[ r r r r r r r r r r r r r r r r r r r r r r r r r i.i.i.i.i.i.i.i.i.i.i.i.i.i.i.i.i.i.i.i.& T - ` 7 i.",
"i.i.i.i.i.i.i.i.i.i.i.i.X.r r r r r r r r r r r r r r r r r r r r r r r r r i.i.i.i.i.i.i.i.i.i.i.i.i.i.i.i.i.i.i.i.i.i.i.i.i.i.",
"i.i.i.i.i.i.i.i.i.i.i.i.&.r r r r r r r r r r r r r r r r r r r r r r r r r i.i.i.i.i.i.i.i.i.i.i.i.i.i.i.i.i.i.i.i.i.i.i.i.i.i."
};
