/* XPM */
static const char * dysp_icon32_xpm[] = {
"32 32 808 2",
"  	c None",
". 	c #FFFFFF",
"+ 	c #FFFEFE",
"@ 	c #FFF9FB",
"# 	c #FFF8FD",
"$ 	c #FFF4FB",
"% 	c #FFEDF2",
"& 	c #FEE2E4",
"* 	c #FFEFF5",
"= 	c #FFEAF0",
"- 	c #FDE0E4",
"; 	c #FCDDE2",
"> 	c #FAD6D9",
", 	c #FBD5D8",
"' 	c #F5CDD7",
") 	c #FFFDFE",
"! 	c #FFFBFD",
"~ 	c #FFFBFF",
"{ 	c #FFFAFF",
"] 	c #FFF5FB",
"^ 	c #FFEFF1",
"/ 	c #FFEBED",
"( 	c #FEE4E6",
"_ 	c #FDDDDF",
": 	c #FFE4E9",
"< 	c #FDDDE0",
"[ 	c #F8D1D4",
"} 	c #FCD5DD",
"| 	c #FCC9D0",
"1 	c #FFFEFF",
"2 	c #FFFDFF",
"3 	c #FFF8FE",
"4 	c #FEE4E7",
"5 	c #FEE0E2",
"6 	c #F8D2D3",
"7 	c #FAD2D4",
"8 	c #FDD4D7",
"9 	c #FDC8C9",
"0 	c #F8B5B7",
"a 	c #EAE9E9",
"b 	c #828081",
"c 	c #777676",
"d 	c #7D7B7C",
"e 	c #BCBABB",
"f 	c #FEFDFE",
"g 	c #FFEFF4",
"h 	c #FFECEF",
"i 	c #FFE9EF",
"j 	c #FEE2E6",
"k 	c #FFE1E8",
"l 	c #FCD4D6",
"m 	c #FCD6D8",
"n 	c #F8CFD6",
"o 	c #FCC6CB",
"p 	c #FBB7B8",
"q 	c #FDB1B3",
"r 	c #9F9E9E",
"s 	c #2C2C2C",
"t 	c #2B2B2B",
"u 	c #5E5D5D",
"v 	c #F1F0F0",
"w 	c #FFFCFD",
"x 	c #FFF6FC",
"y 	c #FFEEF1",
"z 	c #FEE6EA",
"A 	c #FFE5EC",
"B 	c #FEDADF",
"C 	c #FBD5D7",
"D 	c #FAD1DA",
"E 	c #FCC8CE",
"F 	c #FCBCC1",
"G 	c #FCADB0",
"H 	c #F9A5A7",
"I 	c #818080",
"J 	c #767575",
"K 	c #555354",
"L 	c #7B797A",
"M 	c #FFFBFC",
"N 	c #FFFAFB",
"O 	c #FFFBFE",
"P 	c #FFF0F7",
"Q 	c #FFE3E6",
"R 	c #FFE8EE",
"S 	c #FFE3EB",
"T 	c #FDD7DA",
"U 	c #FED8DA",
"V 	c #FFCCD1",
"W 	c #FCBCC0",
"X 	c #FCAEB0",
"Y 	c #F9A6AC",
"Z 	c #F79FA8",
"` 	c #F6F5F6",
" .	c #D6D5D5",
"..	c #F0EFF0",
"+.	c #8C8A8A",
"@.	c #2E2D2D",
"#.	c #ECEAEB",
"$.	c #FFF4F7",
"%.	c #FFF2F9",
"&.	c #FFE6EA",
"*.	c #FFE5E9",
"=.	c #FFEAF2",
"-.	c #FFDBE4",
";.	c #F8CACD",
">.	c #FDCACC",
",.	c #FEC1C4",
"'.	c #FEB3B9",
").	c #FCA9B1",
"!.	c #F49CA4",
"~.	c #FC989F",
"{.	c #F7F6F6",
"].	c #FBFBFB",
"^.	c #F3F2F2",
"/.	c #EFEEEE",
"(.	c #2C2C2B",
"_.	c #C6C4C4",
":.	c #FFF9FF",
"<.	c #FFF1F6",
"[.	c #FFE4E7",
"}.	c #FFECF1",
"|.	c #FFE5ED",
"1.	c #FDD4DD",
"2.	c #FDC8CD",
"3.	c #FEC1C9",
"4.	c #FEB4BA",
"5.	c #FFACB3",
"6.	c #FCA4AF",
"7.	c #FD9AA2",
"8.	c #FD8F95",
"9.	c #D2D1D1",
"0.	c #E2E2E2",
"a.	c #F5F3F4",
"b.	c #FAF8F8",
"c.	c #51514F",
"d.	c #353534",
"e.	c #C5C3C3",
"f.	c #FFF2F6",
"g.	c #FFE6E8",
"h.	c #FFE8EA",
"i.	c #FFE3E7",
"j.	c #FEDFE1",
"k.	c #FFDFE7",
"l.	c #FFCDD5",
"m.	c #FFC1C6",
"n.	c #FFB7BE",
"o.	c #FEAEB6",
"p.	c #FDA4A9",
"q.	c #FE9DA5",
"r.	c #FE959C",
"s.	c #F58B94",
"t.	c #A9A8A8",
"u.	c #AAAAAA",
"v.	c #FBF9F9",
"w.	c #9D9D97",
"x.	c #767671",
"y.	c #D1D0CF",
"z.	c #FFF4F6",
"A.	c #FFE3E8",
"B.	c #FFE6EE",
"C.	c #FED8DB",
"D.	c #FFD4DE",
"E.	c #FFC3CC",
"F.	c #FFB7BB",
"G.	c #FEACB4",
"H.	c #FDA6B0",
"I.	c #FE9CA0",
"J.	c #FF969D",
"K.	c #F88E98",
"L.	c #F38995",
"M.	c #F7F7F7",
"N.	c #FAFAFA",
"O.	c #FDFDFD",
"P.	c #A5A4A4",
"Q.	c #727272",
"R.	c #929191",
"S.	c #E8E6E6",
"T.	c #F1EFEE",
"U.	c #FAF9F7",
"V.	c #FCFBF9",
"W.	c #EEEEE4",
"X.	c #CECEC0",
"Y.	c #A8A79E",
"Z.	c #969490",
"`.	c #908A89",
" +	c #9F9091",
".+	c #E0CBD0",
"++	c #FFECF4",
"@+	c #FFE5EE",
"#+	c #FFD8E1",
"$+	c #FFD1D3",
"%+	c #FFC7CF",
"&+	c #FFB9C1",
"*+	c #FEAEB2",
"=+	c #FCA4AD",
"-+	c #FF9DA5",
";+	c #FF959B",
">+	c #FD8E8F",
",+	c #FA8B90",
"'+	c #F48892",
")+	c #C5C5C5",
"!+	c #D2D2D2",
"~+	c #E4E4E4",
"{+	c #F4F4F4",
"]+	c #E1E0E1",
"^+	c #4E4E4E",
"/+	c #585858",
"(+	c #767675",
"_+	c #959593",
":+	c #B9B9B3",
"<+	c #E5E5D8",
"[+	c #FFFFF9",
"}+	c #FFFFFC",
"|+	c #EEEEE2",
"1+	c #BABAB1",
"2+	c #888886",
"3+	c #606060",
"4+	c #414040",
"5+	c #6D6769",
"6+	c #E3C6CE",
"7+	c #FFD2DA",
"8+	c #FFC5CC",
"9+	c #FFBABF",
"0+	c #FFB0B8",
"a+	c #FEA7B0",
"b+	c #FF9EA3",
"c+	c #FF9499",
"d+	c #F98D96",
"e+	c #F8898F",
"f+	c #FD8586",
"g+	c #FC8282",
"h+	c #919191",
"i+	c #969696",
"j+	c #A6A6A6",
"k+	c #C6C6C6",
"l+	c #E9E9E9",
"m+	c #D9D8D8",
"n+	c #666465",
"o+	c #404040",
"p+	c #5F5F5D",
"q+	c #85857E",
"r+	c #B9BAA7",
"s+	c #F4F5D9",
"t+	c #FFFFFD",
"u+	c #F6F5EE",
"v+	c #CECCC9",
"w+	c #A3A2A1",
"x+	c #7D7D7D",
"y+	c #5A5A5A",
"z+	c #454343",
"A+	c #AB8A8F",
"B+	c #FFBCC5",
"C+	c #FFAFB3",
"D+	c #FEA6AF",
"E+	c #FFA1A9",
"F+	c #FF959A",
"G+	c #FB8D93",
"H+	c #F7848B",
"I+	c #FA7E81",
"J+	c #FD8184",
"K+	c #BDBDBD",
"L+	c #ABABAB",
"M+	c #909090",
"N+	c #8B8B8B",
"O+	c #B6B6B6",
"P+	c #E8E8E8",
"Q+	c #FCFCFC",
"R+	c #FCFBFB",
"S+	c #FAF7F7",
"T+	c #65635D",
"U+	c #818270",
"V+	c #D5D5B9",
"W+	c #FFFFFE",
"X+	c #FFFAFE",
"Y+	c #FAEBF3",
"Z+	c #D6C6CC",
"`+	c #9B9999",
" @	c #767676",
".@	c #545454",
"+@	c #9D7A7E",
"@@	c #FEA9B4",
"#@	c #FF9FA3",
"$@	c #FF989D",
"%@	c #FC909B",
"&@	c #FD888A",
"*@	c #FB878B",
"=@	c #FB8186",
"-@	c #FA7D81",
";@	c #FC7C7C",
">@	c #EDEDED",
",@	c #E3E3E3",
"'@	c #BBBBBB",
")@	c #818181",
"!@	c #BFBFBF",
"~@	c #ECECEC",
"{@	c #F7F6F7",
"]@	c #FAF9FA",
"^@	c #464541",
"/@	c #48483D",
"(@	c #C5C4B9",
"_@	c #FFFEF9",
":@	c #FFD5DA",
"<@	c #F3C2C7",
"[@	c #BAAEAF",
"}@	c #929292",
"|@	c #707070",
"1@	c #B58487",
"2@	c #FF99A0",
"3@	c #FD8C91",
"4@	c #FE8D8F",
"5@	c #FE8687",
"6@	c #FF8787",
"7@	c #FE8586",
"8@	c #FD7F80",
"9@	c #FA7979",
"0@	c #D6D6D6",
"a@	c #C1C1C1",
"b@	c #868686",
"c@	c #848484",
"d@	c #B4B3B4",
"e@	c #C7C4C6",
"f@	c #D0CDCE",
"g@	c #3D3C3A",
"h@	c #33342F",
"i@	c #ABAAA5",
"j@	c #FFFAF4",
"k@	c #FFEFED",
"l@	c #FFD8DA",
"m@	c #FFD0D5",
"n@	c #FFC7D1",
"o@	c #FFBCC4",
"p@	c #FAB2BA",
"q@	c #D0BCBE",
"r@	c #ADADAD",
"s@	c #908D8D",
"t@	c #E98D8F",
"u@	c #FC8C91",
"v@	c #FE8588",
"w@	c #FF8687",
"x@	c #FE7E7F",
"y@	c #FD7D7E",
"z@	c #FC7B7B",
"A@	c #F87575",
"B@	c #8E8E8E",
"C@	c #838383",
"D@	c #636363",
"E@	c #4D4D4D",
"F@	c #646364",
"G@	c #7F7E7F",
"H@	c #888586",
"I@	c #8E8C8D",
"J@	c #343332",
"K@	c #858181",
"L@	c #D3CCCC",
"M@	c #E8DCDE",
"N@	c #F6DDE0",
"O@	c #FCD3D4",
"P@	c #FFD3D6",
"Q@	c #FFC8CB",
"R@	c #FFBDC1",
"S@	c #FFB2B7",
"T@	c #FFA8B0",
"U@	c #F9A5AB",
"V@	c #E1DBDB",
"W@	c #C8C8C8",
"X@	c #C2A1A3",
"Y@	c #FD8589",
"Z@	c #FF8788",
"`@	c #FF8182",
" #	c #FB7879",
".#	c #F77474",
"+#	c #F8767A",
"@#	c #9F9F9F",
"##	c #747474",
"$#	c #505050",
"%#	c #8E8C8E",
"&#	c #AEAAAE",
"*#	c #AEAAAC",
"=#	c #A7A4A7",
"-#	c #363535",
";#	c #292929",
">#	c #5D5859",
",#	c #958C8F",
"'#	c #AA989D",
")#	c #C7ABAE",
"!#	c #E3B7B8",
"~#	c #F6BBBD",
"{#	c #FDBBC3",
"]#	c #FFA8AF",
"^#	c #FFA0A5",
"/#	c #FF989C",
"(#	c #E3ADAE",
"_#	c #DCDCDC",
":#	c #DBDADA",
"<#	c #F58C90",
"[#	c #FF8083",
"}#	c #FE8181",
"|#	c #FD7B7B",
"1#	c #FD7C7C",
"2#	c #FC7778",
"3#	c #F67273",
"4#	c #E5E4E5",
"5#	c #D8D8D8",
"6#	c #ACACAC",
"7#	c #6A6A6A",
"8#	c #B4B1B3",
"9#	c #E6E1E6",
"0#	c #EEE8EC",
"a#	c #EAE0E5",
"b#	c #656162",
"c#	c #3C3939",
"d#	c #A4989D",
"e#	c #927E83",
"f#	c #907676",
"g#	c #A57D7E",
"h#	c #CB9697",
"i#	c #EBA4A8",
"j#	c #FAA3AC",
"k#	c #FFA0A7",
"l#	c #FE929D",
"m#	c #F58F99",
"n#	c #B1ADAE",
"o#	c #DDB4B6",
"p#	c #FE7E81",
"q#	c #FD7A7C",
"r#	c #FC7B7C",
"s#	c #FB7778",
"t#	c #FC7777",
"u#	c #F87272",
"v#	c #FDFBFC",
"w#	c #F9F8F8",
"x#	c #DBDBDB",
"y#	c #949294",
"z#	c #6C6B6C",
"A#	c #9F9B9E",
"B#	c #E2DAE0",
"C#	c #FBF2FA",
"D#	c #FEEFF4",
"E#	c #C4B8BD",
"F#	c #282828",
"G#	c #8B7B7F",
"H#	c #CBA4AA",
"I#	c #A98183",
"J#	c #8D6768",
"K#	c #906162",
"L#	c #B47577",
"M#	c #DE8D8F",
"N#	c #F6949A",
"O#	c #FC8E97",
"P#	c #FB8A93",
"Q#	c #FB8A95",
"R#	c #BD898E",
"S#	c #ADABAB",
"T#	c #F17F83",
"U#	c #FC797A",
"V#	c #F77376",
"W#	c #F77070",
"X#	c #FEFCFD",
"Y#	c #F3F1F2",
"Z#	c #C1BDC1",
"`#	c #7F7B7E",
" $	c #7C787C",
".$	c #B7ADB1",
"+$	c #E8DCE3",
"@$	c #FAE9F0",
"#$	c #FEE8EB",
"$$	c #635B5B",
"%$	c #2C2B2C",
"&$	c #C09599",
"*$	c #E4A4A6",
"=$	c #C08182",
"-$	c #966265",
";$	c #865559",
">$	c #A36164",
",$	c #D17578",
"'$	c #EE868E",
")$	c #F88892",
"!$	c #FE858C",
"~$	c #ED8289",
"{$	c #6A6868",
"]$	c #7E7E7E",
"^$	c #C08284",
"/$	c #FA7677",
"($	c #FA7576",
"_$	c #F67175",
":$	c #F46E70",
"<$	c #F56E70",
"[$	c #FCF6F9",
"}$	c #E8E1E6",
"|$	c #B2ABB0",
"1$	c #817B7F",
"2$	c #857D81",
"3$	c #B2A4A8",
"4$	c #DDC9D0",
"5$	c #F4D4DA",
"6$	c #E8C9CB",
"7$	c #3E3A3A",
"8$	c #272727",
"9$	c #312E2E",
"0$	c #CD8D90",
"a$	c #F0999A",
"b$	c #D08184",
"c$	c #A25F62",
"d$	c #844B50",
"e$	c #925259",
"f$	c #C16769",
"g$	c #E77D87",
"h$	c #F9828A",
"i$	c #FF8085",
"j$	c #84595C",
"k$	c #4F4F4F",
"l$	c #706767",
"m$	c #F1767A",
"n$	c #FB7577",
"o$	c #F46F73",
"p$	c #F36D71",
"q$	c #F36A6A",
"r$	c #FFF7FE",
"s$	c #FFF6FE",
"t$	c #FBEDF2",
"u$	c #E6D9DF",
"v$	c #B9ADB3",
"w$	c #8D8388",
"x$	c #827679",
"y$	c #9D898E",
"z$	c #C5A6AE",
"A$	c #E5BCC1",
"B$	c #CDA1A2",
"C$	c #343030",
"D$	c #2F2C2C",
"E$	c #BF7C7D",
"F$	c #F6949B",
"G$	c #DC7D85",
"H$	c #AD5E64",
"I$	c #85494E",
"J$	c #894749",
"K$	c #B35F64",
"L$	c #E07279",
"M$	c #F7797D",
"N$	c #D87175",
"O$	c #2B2A2A",
"P$	c #393939",
"Q$	c #A36265",
"R$	c #F87275",
"S$	c #F46E72",
"T$	c #F36D72",
"U$	c #F26869",
"V$	c #FFF1F7",
"W$	c #FFF4F8",
"X$	c #FFF2FA",
"Y$	c #FFF1F9",
"Z$	c #FCE7EC",
"`$	c #EDDAE0",
" %	c #CCBAC0",
".%	c #A19298",
"+%	c #857174",
"@%	c #886E72",
"#%	c #A58087",
"$%	c #C99196",
"%%	c #B58081",
"&%	c #262626",
"*%	c #CC7B7B",
"=%	c #F88B92",
"-%	c #E37B84",
";%	c #BC6267",
">%	c #8F494C",
",%	c #854346",
"'%	c #A55256",
")%	c #D1666A",
"!%	c #F0747A",
"~%	c #6C4344",
"{%	c #242424",
"]%	c #453636",
"^%	c #F67075",
"/%	c #F46C6F",
"(%	c #F1696E",
"_%	c #F16A6F",
":%	c #FFF1F8",
"<%	c #FFEDF0",
"[%	c #FFEEF3",
"}%	c #FFEDF5",
"|%	c #FFEBF4",
"1%	c #FDE3E9",
"2%	c #F6DAE1",
"3%	c #E0C4CD",
"4%	c #BD9CA2",
"5%	c #977375",
"6%	c #835E61",
"7%	c #895F63",
"8%	c #A66A6D",
"9%	c #AC6E6F",
"0%	c #352E2E",
"a%	c #3F3333",
"b%	c #EE8688",
"c%	c #FA888E",
"d%	c #EE7A7E",
"e%	c #CB6466",
"f%	c #9D4F51",
"g%	c #844144",
"h%	c #9A4A4D",
"i%	c #CF6368",
"j%	c #D06667",
"k%	c #453434",
"l%	c #844D4F",
"m%	c #F56E74",
"n%	c #F36A6C",
"o%	c #EF686C",
"p%	c #EF676C",
"q%	c #FFEDF4",
"r%	c #FFECF3",
"s%	c #FFE8ED",
"t%	c #FFE8EF",
"u%	c #FFE7EF",
"v%	c #FFE6EF",
"w%	c #FEDAE2",
"x%	c #FBCDD3",
"y%	c #F1B9C4",
"z%	c #DA9A9E",
"A%	c #B77D7E",
"B%	c #936164",
"C%	c #804E51",
"D%	c #8C4F50",
"E%	c #824D4D",
"F%	c #252525",
"G%	c #815253",
"H%	c #FC7C7D",
"I%	c #F27374",
"J%	c #DA6B6D",
"K%	c #B0565A",
"L%	c #9F4C4F",
"M%	c #C45A5D",
"N%	c #EC6A6A",
"O%	c #F56D6F",
"P%	c #F76D6E",
"Q%	c #F36C72",
"R%	c #F2696D",
"S%	c #F0676B",
"T%	c #EE6366",
"U%	c #FFE7EE",
"V%	c #FFE9F0",
"W%	c #FFE8F1",
"X%	c #FFE1E9",
"Y%	c #FFDCE7",
"Z%	c #FFD1DC",
"`%	c #FEC1C8",
" &	c #FEB6BA",
".&	c #F9A9AD",
"+&	c #EE9898",
"@&	c #D68586",
"#&	c #AE6667",
"$&	c #874B4C",
"%&	c #7E4343",
"&&	c #4F3636",
"*&	c #E17172",
"=&	c #FD797A",
"-&	c #F87676",
";&	c #E97074",
">&	c #D96569",
",&	c #E16464",
"'&	c #F36C6C",
")&	c #F56C6F",
"!&	c #F46A6A",
"~&	c #F46B6E",
"{&	c #F1686E",
"]&	c #F06365",
"^&	c #F16164",
"/&	c #FFE5EA",
"(&	c #FFE6ED",
"_&	c #FFDDE2",
":&	c #FECED6",
"<&	c #FDC1CB",
"[&	c #FFB7BF",
"}&	c #FBA7AE",
"|&	c #FCA2A4",
"1&	c #FE9999",
"2&	c #F88C8D",
"3&	c #E77F80",
"4&	c #C36869",
"5&	c #924C4C",
"6&	c #6E3B3B",
"7&	c #262525",
"8&	c #6D4445",
"9&	c #F47476",
"0&	c #FC7677",
"a&	c #FA7578",
"b&	c #F56E6F",
"c&	c #F36C6E",
"d&	c #F46A6B",
"e&	c #F26A6F",
"f&	c #F1686C",
"g&	c #F16667",
"h&	c #F26566",
"i&	c #F36264",
"j&	c #F35E5E",
"k&	c #FCDCDE",
"l&	c #FDDCDE",
"m&	c #FBD8DC",
"n&	c #F8CCCE",
"o&	c #FDC7C9",
"p&	c #FEBFC1",
"q&	c #FEB6B8",
"r&	c #FCAAB0",
"s&	c #F89EA5",
"t&	c #FE989D",
"u&	c #FF9495",
"v&	c #FA8586",
"w&	c #FB8080",
"x&	c #F07878",
"y&	c #CE6668",
"z&	c #9B4D4F",
"A&	c #443030",
"B&	c #BE6264",
"C&	c #F67071",
"D&	c #F87171",
"E&	c #F66E6E",
"F&	c #F66D6F",
"G&	c #F46A6C",
"H&	c #F2686A",
"I&	c #F46869",
"J&	c #F06569",
"K&	c #F06063",
"L&	c #F35E5F",
"M&	c #F45C5C",
"N&	c #FCD8DA",
"O&	c #FAD4D6",
"P&	c #FACED0",
"Q&	c #FBC4C6",
"R&	c #FEC0C3",
"S&	c #FEB5BE",
"T&	c #FDAAB1",
"U&	c #FBA1A5",
"V&	c #FE9A9E",
"W&	c #FE9095",
"X&	c #F7868C",
"Y&	c #FD8889",
"Z&	c #FB8487",
"`&	c #FA8085",
" *	c #F27A7E",
".*	c #DA6D71",
"+*	c #B55B5F",
"@*	c #653F40",
"#*	c #5C3C3D",
"$*	c #E06A6E",
"%*	c #F66F70",
"&*	c #F36B6B",
"**	c #F36868",
"=*	c #F4696A",
"-*	c #EF6363",
";*	c #F06364",
">*	c #F36162",
",*	c #F35F5F",
"'*	c #F45C5D",
")*	c #F55A5A",
"!*	c #F7D2D5",
"~*	c #F7CCCE",
"{*	c #F7BFC1",
"]*	c #FAB6B7",
"^*	c #FBA8AD",
"/*	c #F8A1AB",
"(*	c #FE9CA4",
"_*	c #FE9397",
":*	c #F98A8E",
"<*	c #F58389",
"[*	c #F98286",
"}*	c #FD8687",
"|*	c #FB8387",
"1*	c #FA8088",
"2*	c #F77C82",
"3*	c #EE767B",
"4*	c #E56F75",
"5*	c #EA6F73",
"6*	c #F57071",
"7*	c #F46C6C",
"8*	c #F36A6B",
"9*	c #F06668",
"0*	c #EE6263",
"a*	c #EE6264",
"b*	c #F16266",
"c*	c #F35F61",
"d*	c #F45858",
"e*	c #F1C9D1",
"f*	c #F8C3C7",
"g*	c #FCBCBD",
"h*	c #FBADAE",
"i*	c #F8A3A4",
"j*	c #FAA0A1",
"k*	c #FD999E",
"l*	c #FE9298",
"m*	c #F78D97",
"n*	c #F8878B",
"o*	c #F68388",
"p*	c #F5838C",
"q*	c #F98085",
"r*	c #FB7D7E",
"s*	c #FD7C7D",
"t*	c #FD7E82",
"u*	c #FB7A7E",
"v*	c #F97678",
"w*	c #F67070",
"x*	c #F26B6B",
"y*	c #F56D6D",
"z*	c #F3696A",
"A*	c #F0686B",
"B*	c #EE6466",
"C*	c #EE6363",
"D*	c #ED6163",
"E*	c #F06164",
"F*	c #F25E60",
"G*	c #F25959",
". . . . . . . . . . . . . . . . . . . + @ # $ % & * = - ; > , ' ",
". . . . . . . . . . . . . . . . . . ) ! ~ { ] ^ / ( _ : < [ } | ",
". . . . . . . . . . . . . . . . . . . 1 2 3 / 4 & < 5 6 7 8 9 0 ",
". . . . . . . a b c d e f . . . . + . 1 { g h i j k l m n o p q ",
". . . . . . . r s s s t u v . . . w . 2 x * y z A B C D E F G H ",
". . . . . . . a I J K t t L . 1 w M N O $ P Q R S T U V W X Y Z ",
". . . . `  .... . . . +.t @.#.w 2 2 O $.%.&.*.=.-.;.>.,.'.).!.~.",
". . . . {.].^.. . . . /.(.t _.. 1 { :.h <.[.}.|.1.2.3.4.5.6.7.8.",
". . . . 9.0.a.. . . . b.c.d.e.. 1 { f.g.h.i.j.k.l.m.n.o.p.q.r.s.",
". . . . t.u. .. . . . v.w.x.y.. M z./ A.S B.C.D.E.F.G.H.I.J.K.L.",
"M.N.O.. P.Q.R.9.S.T.U.V.W.X.Y.Z.`. +.+++@+#+$+%+&+*+=+-+;+>+,+'+",
")+!+~+{+]+^+/+(+_+:+<+[+. }+|+1+2+3+4+5+6+7+8+9+0+a+b+c+d+e+f+g+",
"h+i+j+k+l+m+n+o+p+q+r+s+t+. t+u+v+w+x+y+z+A+B+C+D+E+F+G+H+H+I+J+",
"K+L+M+N+O+P+Q+R+S+T+U+V+W+. . W+X+Y+Z+`+ @.@+@@@#@$@%@&@*@=@-@;@",
">@,@'@)@)@!@~@{@]@^@/@(@. . }+_@z.*.:@<@[@}@|@1@2@3@4@5@6@7@8@9@",
"!+0@a@b@3+c@d@e@f@g@h@i@U.O.j@k@l@m@n@o@p@q@r@s@t@u@v@w@x@y@z@A@",
"B@M+C@D@E@F@G@H@I@J@(.K@L@M@N@O@P@Q@R@S@T@U@V@W@X@Y@Z@`@`@ #.#+#",
"@#}@##$#/+%#&#*#=#-#;#>#,#'#)#!#~#{#0+]#^#/#(#_#:#<#[#}#|#1#2#3#",
"4#5#6#7#7#8#9#0#a#b#;#c#d#e#f#g#h#i#j#k#2@l#m#n#k+o#p#q#r#s#t#u#",
"v#w#x#y#z#A#B#C#D#E#F#F#G#H#I#J#K#L#M#N#O#P#Q#R#i+S#T# #U#V#u#W#",
". X#Y#Z#`# $.$+$@$#$$$F#%$&$*$=$-$;$>$,$'$)$!$~${$]$^$/$($_$:$<$",
"~ ~ [$}$|$1$2$3$4$5$6$7$8$9$0$a$b$c$d$e$f$g$h$i$j$k$l$m$n$o$p$q$",
"# r$s$t$u$v$w$x$y$z$A$B$C$8$D$E$F$G$H$I$J$K$L$M$N$O$P$Q$R$S$T$U$",
"V$W$X$Y$Z$`$ %.%+%@%#%$%%%D$&%O$*%=%-%;%>%,%'%)%!%~%{%]%^%/%(%_%",
":%<%[%}%|%1%2%3%4%5%6%7%8%9%0%&%a%b%c%d%e%f%g%h%i%j%k%l%m%n%o%p%",
"q%r%s%t%u%v%w%x%y%z%A%B%C%D%E%8$F%G%}#H%I%J%K%L%M%N%O%P%Q%R%S%T%",
"U%V%W%B.X%Y%Z%`% &.&+&@&#&$&%&&&F%8$*&($=&-&;&>&,&'&)&!&~&{&]&^&",
"/&(&|._&_&:&<&[&}&|&1&2&3&4&5&6&7&F%8&9&0&t#a&b&c&d&e&f&g&h&i&j&",
"k&l&m&n&o&p&q&r&s&t&u&v&w&x&y&z&A&{%{%B&C&D&E&F&n%G&H&I&J&K&L&M&",
"N&O&P&Q&R&S&T&U&V&W&X&Y&Z&`& *.*+*@*#*$*%*&*q$/%**=*-*;*>*,*'*)*",
"!*~*{*]*X ^*/*(*_*:*<*[*}*|*1*2*3*4*5*6*7*&*8*9***0*a*b*c*'*)*d*",
"e*f*g*h*i*j*k*l*m*n*o*p*q*r*s*t*u*v*w*x*y*z*A*B*C*D*E*F*'*)*d*G*"};
