/* XPM */
static const char * dysp_icon16_xpm[] = {
"16 16 229 2",
"  	c None",
". 	c #FFFFFF",
"+ 	c #FFFDFE",
"@ 	c #FFFAFE",
"# 	c #FFF1F6",
"$ 	c #FEE8EB",
"% 	c #FEE3E7",
"& 	c #FBD8DC",
"* 	c #FAD0D7",
"= 	c #FAFAFA",
"- 	c #BEBDBD",
"; 	c #CECDCD",
"> 	c #FFFEFF",
", 	c #FFF8FC",
"' 	c #FFE9EC",
") 	c #FEE0E4",
"! 	c #FCD7D9",
"~ 	c #FBCFD3",
"{ 	c #FBB9BB",
"] 	c #E2E1E1",
"^ 	c #545353",
"/ 	c #363536",
"( 	c #7D7C7C",
"_ 	c #FFFCFD",
": 	c #FFFCFE",
"< 	c #FFF2F9",
"[ 	c #FFE8EC",
"} 	c #FEDEE4",
"| 	c #FCD2D7",
"1 	c #FCBCC0",
"2 	c #F9A6AB",
"3 	c #F0EFEF",
"4 	c #F8F8F8",
"5 	c #DEDEDE",
"6 	c #2C2C2C",
"7 	c #ECEAEB",
"8 	c #FFFCFF",
"9 	c #FFF5F9",
"0 	c #FFEBF0",
"a 	c #FFE8EE",
"b 	c #FCD0D7",
"c 	c #FEC0C5",
"d 	c #FDABB3",
"e 	c #FA979E",
"f 	c #C2C1C1",
"g 	c #F2F2F2",
"h 	c #FDFCFC",
"i 	c #666663",
"j 	c #E5E4E4",
"k 	c #FFFAFC",
"l 	c #FFEAED",
"m 	c #FFE5EA",
"n 	c #FEDAE0",
"o 	c #FFC2C8",
"p 	c #FEAEB6",
"q 	c #FE9DA3",
"r 	c #F88E97",
"s 	c #E2E2E2",
"t 	c #F5F5F5",
"u 	c #929191",
"v 	c #8C8C8C",
"w 	c #CAC9C6",
"x 	c #F6F6F0",
"y 	c #EEEEE8",
"z 	c #BAB9B0",
"A 	c #868080",
"B 	c #A3989B",
"C 	c #F8D5DE",
"D 	c #FFC6CB",
"E 	c #FEB0B7",
"F 	c #FE9DA4",
"G 	c #FB8E94",
"H 	c #FA868A",
"I 	c #A4A4A4",
"J 	c #A2A2A2",
"K 	c #D8D8D8",
"L 	c #A8A7A7",
"M 	c #91908C",
"N 	c #C1C2AA",
"O 	c #FFFFFE",
"P 	c #FDFCFA",
"Q 	c #DAD5D7",
"R 	c #928E8F",
"S 	c #6E6667",
"T 	c #E6A4AA",
"U 	c #FFA0A6",
"V 	c #FD8E94",
"W 	c #F9848A",
"X 	c #FB7E80",
"Y 	c #A1A1A1",
"Z 	c #898989",
"` 	c #D8D6D7",
" .	c #939291",
"..	c #7B7A72",
"+.	c #FDFDFC",
"@.	c #FFFAF6",
"#.	c #FFE0E4",
"$.	c #FCC6CE",
"%.	c #C6ACAE",
"&.	c #988C8C",
"*.	c #F89094",
"=.	c #FE8889",
"-.	c #FE8282",
";.	c #FB7A7A",
">.	c #949494",
",.	c #6A6A6A",
"'.	c #666566",
").	c #999698",
"!.	c #686667",
"~.	c #4E4C4C",
"{.	c #BEB3B6",
"].	c #E7C4C6",
"^.	c #FCC4C8",
"/.	c #FFB2B8",
"(.	c #FEA1A7",
"_.	c #DACBCB",
":.	c #E4A3A6",
"<.	c #FF8284",
"[.	c #FD7C7C",
"}.	c #F87576",
"|.	c #EDECEC",
"1.	c #8A888A",
"2.	c #ECE5EB",
"3.	c #C4BABE",
"4.	c #2D2C2C",
"5.	c #A38D92",
"6.	c #9B7778",
"7.	c #BE8486",
"8.	c #F3999F",
"9.	c #FD919A",
"0.	c #D8949A",
"a.	c #BAAFAF",
"b.	c #FA7C7E",
"c.	c #FA7879",
"d.	c #F97373",
"e.	c #E6E1E4",
"f.	c #8C868A",
"g.	c #B6AAAF",
"h.	c #F2DCE1",
"i.	c #6C6262",
"j.	c #514546",
"k.	c #D89394",
"l.	c #A46669",
"m.	c #A25D61",
"n.	c #E47C84",
"o.	c #F98289",
"p.	c #6F6464",
"q.	c #C77577",
"r.	c #F87275",
"s.	c #F46D6F",
"t.	c #FFF5FA",
"u.	c #FEF2F9",
"v.	c #E2D2D8",
"w.	c #9F9196",
"x.	c #9C8488",
"y.	c #C89CA0",
"z.	c #504141",
"A.	c #503E3E",
"B.	c #E6868B",
"C.	c #B46167",
"D.	c #944C50",
"E.	c #D3696E",
"F.	c #985457",
"G.	c #513D3E",
"H.	c #F66F73",
"I.	c #F26A6E",
"J.	c #FFEEF4",
"K.	c #FFEBF1",
"L.	c #FEE7EF",
"M.	c #F4D1D9",
"N.	c #C8989E",
"O.	c #96676A",
"P.	c #985D5F",
"Q.	c #413232",
"R.	c #754C4D",
"S.	c #F88082",
"T.	c #CD6466",
"U.	c #9B4B4E",
"V.	c #D46366",
"W.	c #AD5758",
"X.	c #F36B70",
"Y.	c #EF666A",
"Z.	c #FFE7ED",
"`.	c #FFE4EC",
" +	c #FFDAE2",
".+	c #FEC2CC",
"++	c #FCAAAE",
"@+	c #EE9091",
"#+	c #B86667",
"$+	c #734040",
"%+	c #262626",
"&+	c #CF6869",
"*+	c #FB7778",
"=+	c #EC6E71",
"-+	c #EF6A6A",
";+	c #F36A6D",
">+	c #F2686A",
",+	c #F26163",
"'+	c #FCD9DB",
")+	c #FACED0",
"!+	c #FEBFC3",
"~+	c #FCABB0",
"{+	c #FC989D",
"]+	c #FB8A8C",
"^+	c #F87F81",
"/+	c #CD666A",
"(+	c #603C3D",
"_+	c #884B4D",
":+	c #F66F6F",
"<+	c #F56C6E",
"[+	c #F4696A",
"}+	c #F16666",
"|+	c #F45C5C",
"1+	c #F6CACF",
"2+	c #FAB8B9",
"3+	c #FAA6A8",
"4+	c #FC9AA1",
"5+	c #FA8C92",
"6+	c #F68389",
"7+	c #FB8284",
"8+	c #FB7E82",
"9+	c #F2757A",
"0+	c #F26E70",
"a+	c #F46B6C",
"b+	c #F06769",
"c+	c #EF6464",
"d+	c #F06164",
"e+	c #F45C5D",
"f+	c #F45959",
". . . . . . . . . + @ # $ % & * ",
". . . = - ; > . . > , ' ) ! ~ { ",
". . . ] ^ / ( . _ : < [ } | 1 2 ",
". . 3 4 . 5 6 7 8 9 0 a b c d e ",
". . f g . h i j k l m n o p q r ",
"s t u v w x y z A B C D E F G H ",
"I J K L M N O P Q R S T U V W X ",
"5 Y Z `  ...+.@.#.$.%.&.*.=.-.;.",
">.,.'.).!.~.{.].^./.(._.:.<.[.}.",
"|.Y 1.2.3.4.5.6.7.8.9.0.a.b.c.d.",
": e.f.g.h.i.j.k.l.m.n.o.p.q.r.s.",
"t.u.v.w.x.y.z.A.B.C.D.E.F.G.H.I.",
"J.K.L.M.N.O.P.Q.R.S.T.U.V.W.X.Y.",
"Z.`. +.+++@+#+$+%+&+*+=+-+;+>+,+",
"'+)+!+~+{+]+^+/+(+_+:+<+[+}+,+|+",
"1+2+3+4+5+6+7+8+9+0+a+b+c+d+e+f+"};
