/* XPM */
static const char *exit_xpm[] = {
"32 32 27 1",
"  c black",
". c #393939",
"X c #434343",
"o c #4C4C4C",
"O c #545454",
"+ c #5B5B5B",
"@ c #636363",
"# c #6C6C6C",
"$ c #747474",
"% c #7B7B7B",
"& c #838383",
"* c #8A8A8A",
"= c #939393",
"- c #9B9B9B",
"; c #A2A2A2",
": c #ABABAB",
"> c #B1B1B1",
", c #BABABA",
"< c #C4C4C4",
"1 c #CBCBCB",
"2 c #D3D3D3",
"3 c gray86",
"4 c #E2E2E2",
"5 c #EBEBEB",
"6 c #F1F1F1",
"7 c gray1",
"8 c None",
/* pixels */
"88888888888888888888888888888888",
"8888........................8888",
"888..O=::::::;;;;;---====%o..888",
"88..=3<;============-==--;;$..88",
"8..=2#ooOOO+@@#@@$$$%%%*&*=-$..8",
"8.O3#ooOO++@@@###$$%%%%&***=-o.8",
"8.=<ooOO++@@@###$$%%%&&***==-@.8",
"8.:;oOO++@@#@##$$%%%&&***====%.8",
"8.:=OO++@@@@##$$%%%%&***===-=%.8",
"8.:=O+++%77:#$$%%%*&477===--=$.8",
"8.:=++@@=777:%%%%&&4777===--=$.8",
"8.:=+@@@@3777,%%&&4777<=---;=#.8",
"8.:=@@@##$3777,%*4777<==--;;=#.8",
"8.;=@@#@#$%3777,4777<=---;;;=@.8",
"8.;=@@$$$$$%3777777<=---;;::=@.8",
"8.;=###$$%%%%47777<=--;;;;::=@.8",
"8.;=##$$%%&%&47777<---;;;::,=@.8",
"8.-=$$$%%%&&47777771-;;:::>,=+.8",
"8.-=$$%%%&&4777<47771;:::>,,=+.8",
"8.--$$%%%*4777<=-57772::,,,<=O.8",
"8.-=%%%&*4777<=---57772>,,<<=O.8",
"8.==%%*&;777<=---;;6777,,<<1=o.8",
"8.=-%&&*-77<=---;;;:677,<<11=o.8",
"8.==%&***;:=---;;;::>2<<<112*o.8",
"8.*-&****==---;;::::,,<<1122%o.8",
"8.%;***===---;;:::,,,<<11233@..8",
"8.o:=*===---;;;::,,,<<11233,...8",
"8..$-===--;-;;::>,,<<11223>o...8",
"88..$-=================*&@o...88",
"888..o@%%$$##@@@@+OOOoooo....888",
"8888........................8888",
"88888888888888888888888888888888"
};
