/* XPM */
static const char *extr16_xpm[] = {
/* columns rows colors chars-per-pixel */
"16 16 102 2",
"   c #040404",
".  c #0B0B0B",
"X  c #0C0C0C",
"o  c #0D0D0D",
"O  c #111111",
"+  c #141414",
"@  c #1C1617",
"#  c #1A1A1A",
"$  c #1B1B1B",
"%  c #1C1C1C",
"&  c #2D0F13",
"*  c #221F1F",
"=  c #241F20",
"-  c #2F2C2C",
";  c #332A2C",
":  c #3B282A",
">  c #323232",
",  c #333333",
"<  c #363636",
"1  c #393737",
"2  c #393939",
"3  c #3A3939",
"4  c #3B3B3B",
"5  c #3C3C3D",
"6  c #3F3F3F",
"7  c #620A15",
"8  c #670B16",
"9  c #690A14",
"0  c #750411",
"q  c #760917",
"w  c #401D22",
"e  c #451F24",
"r  c #452327",
"t  c #452328",
"y  c #422529",
"u  c #502E33",
"i  c #473B3D",
"p  c #4C3C3E",
"a  c #454142",
"s  c #474747",
"d  c #474848",
"f  c #494949",
"g  c #4B4B4B",
"h  c #4C4C4C",
"j  c #4F4F4F",
"k  c #584547",
"l  c #584548",
"z  c #564E4F",
"x  c #505050",
"c  c #515151",
"v  c #525252",
"b  c #535353",
"n  c #555555",
"m  c #565656",
"M  c #5A5A5A",
"N  c #5B5B5B",
"B  c #5D5D5D",
"V  c #5E5E5E",
"C  c #5F5F5F",
"Z  c #7C414A",
"A  c #606060",
"S  c #616161",
"D  c #646464",
"F  c #656565",
"G  c #666666",
"H  c #676767",
"J  c #686868",
"K  c #696969",
"L  c #6A6A6A",
"P  c #777878",
"I  c #7A7A7A",
"U  c #7B7B7B",
"Y  c #7C7C7C",
"T  c #7D7D7D",
"R  c #7E7E7E",
"E  c #8E0A1A",
"W  c #BB031B",
"Q  c #BF0119",
"!  c #BD192E",
"~  c #DA001B",
"^  c #DB001B",
"/  c #BE5D6A",
"(  c #BE5E6B",
")  c #B8717B",
"_  c #808080",
"`  c #808181",
"'  c #808182",
"]  c #838383",
"[  c #848484",
"{  c #858585",
"}  c #868686",
"|  c #878888",
" . c #A8A9AB",
".. c #AFB0B2",
"X. c #B3B4B5",
"o. c #C3C4C5",
"O. c #C6C7C8",
"+. c #CACBCC",
"@. c #D8D9D9",
"#. c #E0E1E1",
"$. c #E3E4E4",
"%. c None",
/* pixels */
"%.%.%.%.%.%.%.%.%.%.%.%.%.%.%.%.",
"%.%.%.%.%.%.%.%.%.%.%.%.%.%.%.%.",
"%.%.%.%.%.%.%.$.%.%.%.%.%.%.%.%.",
"%.%.%.%.%.%.$.%.%.%.%.%.%.%.%.%.",
"%.%.%.%.%.%.$.%.%.%.O.%.%.%.%.%.",
"%.%.%.%.%.P } %.%.O.` %.%.%.8 %.",
"%.%.+ x C C x g O.` s L J H * %.",
"%.%.%.4 H L D g d b T Y I ; %.%.",
"%.%.$.+.i D H C 4 x T I : %.%.%.",
"%.@...) ! : D C M , C y %.%.%.%.",
"$.#. ./ ^ 0 - A N m = 0 %.%.%.%.",
"%.$.X./ E k D 4 N m j @ %.%.%.%.",
"%.$.o.Z k [ ` m 1 m x s O %.%.%.",
"%.%.} z } [ ` t 9 i x g 6 o %.%.",
"%.%.x } } _ r Q ^ 7 a j s < . %.",
"%.O , p u e W ^ ^ ^ & % # # o   "
};
