/* XPM */
static const char *extr16[] = {
/* columns rows colors chars-per-pixel */
"16 16 145 2",
"   c #1FA11FA10FFB",
".  c #197119711971",
"X  c #1D9A1D9A1CF9",
"o  c #1D6D1D6D1D6D",
"O  c #1F801F801F80",
"+  c #0AE60AE62E37",
"@  c #0C6E0C6E2DC8",
"#  c #0D0F0D0F2DC8",
"$  c #0CBA0CBA2E37",
"%  c #11531153216D",
"&  c #1FA11FA1203A",
"*  c #2E6A0E290E64",
"=  c #21D110411041",
"-  c #231E13781010",
";  c #2A7E2AA40EF9",
":  c #2E862E860E60",
">  c #231E231E1010",
",  c #21D121D121D1",
"<  c #2E9E2E9E2E9E",
"1  c #3E1C2D673E1C",
"2  c #39F339F339F3",
"3  c #3E1C3E1C3E1C",
"4  c #2DB22DB26A7D",
"5  c #3C1D3C1D78A7",
"6  c #6F0B15732629",
"7  c #75B125DC2699",
"8  c #409731B44097",
"9  c #561637665616",
"0  c #6F96155F6F96",
"q  c #7E1613397E16",
"w  c #7F8D11F37F8D",
"e  c #764825E57648",
"r  c #63E363E322F1",
"t  c #75B175B12699",
"y  c #409740974097",
"u  c #4AEA4AEA4AEA",
"i  c #4E9F4EC34E9F",
"p  c #500950095009",
"a  c #508750875087",
"s  c #537F537F537F",
"d  c #54CD54CD54CD",
"f  c #55D855D855D8",
"g  c #567956795679",
"h  c #596459645727",
"j  c #595459545954",
"k  c #5B1B5B1B58E2",
"l  c #5BC25BC25BC2",
"z  c #5FC65FC65C58",
"x  c #5DB25DB25DB2",
"c  c #5F125F125F12",
"v  c #613B613B613B",
"b  c #624862486248",
"n  c #628262826282",
"m  c #645A645A645A",
"M  c #63E363E3665E",
"N  c #649A649A616A",
"B  c #6735673563D5",
"V  c #6816681663FA",
"C  c #656D656D656D",
"Z  c #6E0F6E0F6E0F",
"A  c #6F0B6F0B6F0B",
"S  c #6F966F966F96",
"D  c #70C770C770BF",
"F  c #720972097209",
"G  c #70C770C77339",
"H  c #726F726F7283",
"J  c #73FA73FA71C0",
"K  c #764876487648",
"L  c #7E167E167E16",
"P  c #7F8D7F8D7F8D",
"I  c #1FCE1FCE8D96",
"U  c #2BC12BC18D98",
"Y  c #327D327D9B83",
"T  c #332D332DA04B",
"R  c #381738179C1B",
"E  c #36953695A211",
"W  c #351C351CA74F",
"Q  c #39E339E3A74F",
"!  c #1D6B1D6BE6A2",
"~  c #189D189DE9C4",
"^  c #231E231EE6A2",
"/  c #397D397DE6A2",
"(  c #7E16133980D5",
")  c #40FB40FBAD02",
"_  c #5A8F5A8FE9C4",
"`  c #6D8D6D8DFFFF",
"'  c #738F738FFFFF",
"]  c #918510CA0FBC",
"[  c #9B13285E0E3B",
"{  c #AF510AC52A69",
"}  c #EDE001710134",
"|  c #860526CC8605",
" . c #879C25F2879C",
".. c #860526CC88FF",
"X. c #B04F0A9DB04F",
"o. c #CAC0067CCAC0",
"O. c #CAC0067CCFC1",
"+. c #CD6D041FCD6D",
"@. c #817D817D0DD7",
"#. c #9B139B130E3B",
"$. c #9B4D9B4D2916",
"%. c #9B4D9E592916",
"&. c #AF57AF572A69",
"*. c #B05EB05E2A7B",
"=. c #D11DD11D05BA",
"-. c #D11DD57F05BA",
";. c #EDE9EDE90132",
":. c #EF63EF6300F7",
">. c #80E780E780E7",
",. c #80E781F780E7",
"<. c #817D817D85E8",
"1. c #860586058605",
"2. c #879C879C879C",
"3. c #8605860588FF",
"4. c #8967896785E0",
"5. c #89A689A685F2",
"6. c #889E891788A8",
"7. c #918591859185",
"8. c #9C279C279C27",
"9. c #9C279F399C27",
"0. c #B055B055B055",
"q. c #B15AB15AB15A",
"w. c #B2E0B2E0B2E0",
"e. c #B2E0B2E0B72D",
"r. c #B2E0B683B2E0",
"t. c #B2E0B683B72D",
"y. c #B87EB87EB4A9",
"u. c #B52CB52CB52C",
"i. c #B74FB74FB74F",
"p. c #B7C8B7BFB7C8",
"a. c #B52CB8E7B52C",
"s. c #81EA81EAFFFF",
"d. c #87F487F4FFFF",
"f. c #973C973CFFFF",
"g. c #CAC7CAC7CAC7",
"h. c #CBFACBFACBFA",
"j. c #CAC7CAC7CFC9",
"k. c #CD74CD74CD74",
"l. c #CEAECEAECEAE",
"z. c #CC01CC01D10B",
"x. c #CFE5D1D8CFE5",
"c. c #D24DD24DCEC3",
"v. c #D1B4D1B4CF7A",
"b. c #D129D129D129",
"n. c #EF57EF57EF57",
/* pixels */
". O O % + $ $ $ $ % O O . O O . ",
"p Z N U _ ^ ^ / ~ I N Z g b z p ",
"s b N R d.' s.` f.Y z s k b l s ",
"u Z h 4 Q T Q W E 5 k C d l Z u ",
">.b.H H c.5.y.y.5.b.2.u.i.3.x.>.",
"3 g 2 2 g y p p y g y p p 8 9 1 ",
"P l.H H l.2.u.u.5.l.2.u.a. .+.w ",
"Z q.C N q.K 8.8.K 0.K 8.9.e X.0 ",
"Z q.m b q.K 8.8.K 0.K 8.9.e X.0 ",
"P g.H H h.1.w.w.1.g.1.q.r. .o.q ",
"Z q.M m q.K 8.8.K 0.K 8.9.e X.0 ",
"S q.C M q.K 8.8.K 0.K 8.9.e X.0 ",
"P h.D H z.3.e.e.3.z.3.e.r...O.( ",
"Z q.M r &.t $.$.t &.t %.%.7 { 6 ",
"7.n.<.@.;.#.=.=.#.;.#.=.-.[ } ] ",
", < O   : > ; ; > : > ; ; - * = "
};
