/* XPM */
static const char *extr64_xpm[] = {
/* columns rows colors chars-per-pixel */
"64 64 80 1",
"  c #010101",
". c #090304",
"X c #0B0B0B",
"o c #140003",
"O c #1F0004",
"+ c #131212",
"@ c #1B1B1B",
"# c #210004",
"$ c #280005",
"% c #340006",
"& c #3A0007",
"* c #30050A",
"= c #3D0008",
"- c #252525",
"; c #2A2A2A",
": c #333333",
"> c #373738",
", c #3C3C3C",
"< c #430008",
"1 c #4B0009",
"2 c #55000A",
"3 c #5A000B",
"4 c #65000D",
"5 c #6B000D",
"6 c #73000E",
"7 c #7C000F",
"8 c #7E0010",
"9 c #78212C",
"0 c #3F3F40",
"q c #444444",
"w c #4C4C4C",
"e c #4F5050",
"r c #545454",
"t c #5C5C5C",
"y c #646464",
"u c #676868",
"i c #6B6B6B",
"p c #6F7071",
"a c #727272",
"s c #767778",
"d c #7C7C7C",
"f c #820010",
"g c #890011",
"h c #950012",
"j c #990013",
"k c #86101E",
"l c #A40014",
"z c #AB0015",
"x c #BC0017",
"c c #BF0018",
"v c #CB0019",
"b c #D5001A",
"n c #DB001B",
"m c #D5162E",
"M c #D21C33",
"N c #BF5A68",
"B c #B8717B",
"V c #C64354",
"C c #C34E5E",
"Z c #848484",
"A c #868789",
"S c #888889",
"D c #8E8F90",
"F c #9E9E9E",
"G c #9FA0A2",
"H c #A7A8AA",
"J c #A9AAAC",
"K c #B3B4B5",
"L c #B9BABB",
"P c #BFC0C1",
"I c #C2C3C4",
"U c #C6C7C8",
"Y c #C7C8C8",
"T c #CACBCB",
"R c #D5D6D6",
"E c #D5D6D8",
"W c #DEDFDF",
"Q c #DFE0E1",
"! c #E3E4E4",
"~ c None",
/* pixels */
"~~~~~~~~~~~~~~~~~~~~~~~~~~~~~~~~~~~~~~~~~~~~~~~~~~~~~~~~~~~~~~~~",
"~~~~~~~~~~~~~~~~~~~~~~~~~~~~~~~~~~~~~~~~~~~~~~~~~~~~~~~~~~~~~~~~",
"~~~~~~~~~~~~~~~~~~~~~~~~~~~~~~~~~~~~~~~~~~~~~~~~~~~~~~~~~~~~~~~~",
"~~~~~~~~~~~~~~~~~~~~~~~~~~~~~~~~~~~~~~~~~~~~~~~~~~~~~~~~~~~~~~~~",
"~~~~~~~~~~~~~~~~~~~~~~~~~~~~~~!~~~~~~~~~~~~~~~~~~~~~~~~~~~~~~~~~",
"~~~~~~~~~~~~~~~~~~~~~~~~~~~~~~!~~~~~~~~~~~~~~~~~~~~~~~~~~~~~~~~~",
"~~~~~~~~~~~~~~~~~~~~~~~~~~~~~~!~~~~~~~~~~~~~~~~~~~~~~~~~~~~~~~~~",
"~~~~~~~~~~~~~~~~~~~~~~~~~~~~~!~~~~~~~~~~~~~~~~~~~~~~~~~~~~~~~~~~",
"~~~~~~~~~~~~~~~~~~~~~~~~~~~~~!~~~~~~~~~~~~~~~~~~~~~~~~~~~~~~~~~~",
"~~~~~~~~~~~~~~~~~~~~~~~~~~~~!!~~~~~~~~~~~~~~~~~~~~~~~~~~~~~~~~~~",
"~~~~~~~~~~~~~~~~~~~~~~~~~~~~!!~~~~~~~~~~~~~~~~U~~~~~~~~~~~~~~~~~",
"~~~~~~~~~~~~~~~~~~~~~~~~~~~~!!~~~~~~~~~~~~~~~~U~~~~~~~~~~~~~~~~~",
"~~~~~~~~~~~~~~~~~~~~~~~~~~~!!!~~~~~~~~~~~~~~~U~~~~~~~~~~~~~~~~~~",
"~~~~~~~~~~~~~~~~~~~~~~~~~~!!!!~~~~~~~~~~~~~~UU~~~~~~~~~~~~~~~~~~",
"~~~~~~~~~~~~~~~~~~~~~~~~~~!!!!~~~~~~~~~~~~~UU~~~~~~~~~~~~~~~~~~~",
"~~~~~~~~~~~~~~~~~~~~~~~~~!!!!!~~~~~~~~~~~~UUU~~~~~~~~~~~~~~~~~~~",
"~~~~~~~~~~~~~~~~~~~~~~~~~!!!!~~~~~~~~~~~~~UU~~~~~~~~~~~~~~~~~~~~",
"~~~~~~~~~~~~~~~~~~~~~~~~!!!!!~~~~~~~~~~~~UUU~~~~~~~~~~~~~~~~~~~~",
"~~~~~~~~~~~~~~~~~~~~~~~~!!!!!~~~~~~~~~~~UUU~~~~~~~~~~~~~~~~~~~~~",
"~~~~~~~~~~~~~~~~~~~~~~~!!!!!!~~~~~~~~~~UUUU~~~~~~~~~~~~~~~~~~~~~",
"~~~~~~~~~~~~~~~~~~~~~~!!!!!!!~~~~~~~~~UUUUU~~~~~~~~~~~~~~~~~n~~~",
"~~~~~~~~~~~~~~~~~~~~~!!!!!!!!~~~~~~~~UUUUU~~~~~~~~~~~~~~~~nn~~~~",
"~~~~~~~~~~~~~~~~~~~~~!!!!!!!!~~~~~~~UUUUUU~~~~~~~~~~~~~~~nn~~~~~",
"~~~~~~~~~~~~~~~~~~~~!!!!!!!!!~~~~~UUUUUUU~~~~~~~~~~~~~~~nn~~~~~~",
"~~~~~~~~~~~~~~~~~~~!!!!!!!!!!~~~~UUUUUUUU~~~~~~~~~~~~~nnn~~~~~~~",
"~~~~~~~~~~~~~~~~~~!!!!!!!!!!!~~~UUUUUUUUU~~~~~~~~~~~~nnn~~~~~~~~",
"~~~~~~~~~~~~~~~~~!!!!!!!!!!!!~~UUUUUUUUUU~~~~~~~~~~nnnnn~~~~~~~~",
"~~~~~~~~~~~~~~~~qiuytrwwq0,I!UUUUUUUUUPy-       .144443 ~~~~~~~~",
"~~~~~~~~~~~                @GKUUUUUUUP:                 ~~~~~~~~",
"~~~~~~~~~~~~  wttttytyyyyu: -JUUUUUUI> ;yuuyyyyyyyyy,  ~~~~~~~~~",
"~~~~~~~~~~~~  @aaaaaipiuuyy- >UUUUUI> -dddddsddsdsar  ~~~~~~~~~~",
"~~~~~~~~~~~~~w -aaaiiiiiuyyt@ tUUUI, -ddddddddddsdr. ~~~~~~~~~~~",
"~~~~~~~~~~~~!W> :apppiiuuyytr+ dUI0 -dddddddddsddrX ~~~~~~~~~~~~",
"~~~~~~~~~~~!!!R- 0pppiiuuuyyyrX Dq -sdZddddddddsrX.~~~~~~~~~~~~~",
"~~~~~~~~~!!!!!!U+.eaiiiuuyyytyw   -ddZdddddddddr..~~~~~~~~~~~~~~",
"~~~~~~~~!!!!!!ELZX.rpiiiuuyyytt0 .iddddddddddstX.~~~~~~~~~~~~~~~",
"~~~~~~~!!!!QTKHHHs Xyiiuuuyyyttt: @sdddddddddt .h~~~~~~~~~~~~~~~",
"~~~~~~!!WTKJHHBNCV9 Xyiiuyyyytttt- -dZZdddddt .l~~~~~~~~~~~~~~~~",
"~~~~!!!KJHHHHHMnnnn4 @uuuuyyyttttr@ :Zddssdt .ln~~~~~~~~~~~~~~~~",
"~~~!!!!JHHHHJJMnnnnn1 -iuyyyyytttrr+ qddBdt .zn~~~~~~~~~~~~~~~~~",
"~!!!!!!LHHHHHHMnnnnnb% :uuyyytytttrwX rddtX lnn~~~~~~~~~~~~~~~~~",
"!!!!!!!THHHHHHMnnnnnnv# ,yuyyytttttrq.Xyt .lnn~~~~~~~~~~~~~~~~~~",
"~!!!!!!!HHHHHHMnnnnnnnxo wyyytttttrrr, .. lnnn~~~~~~~~~~~~~~~~~~",
"~!!!!!!!KHHHHHMnnnnnnnn2 .eytyyttttrrr:  hnnn~~~~~~~~~~~~~~~~~~~",
"~~!!!!!!IHHHHHMnnnnnnn6 X Xryttttrtrrrr- %bnn~~~~~~~~~~~~~~~~~~~",
"~~~!!!!!EHHHHHMnnnnnn6 +sq +tyyytttrrrrw@ 2nn~~~~~~~~~~~~~~~~~~~",
"~~~!!!!!!JHHHHMnnnnn6 +aZZ, @tttttrrrrrrw+ 4~~~~~~~~~~~~~~~~~~~~",
"~~~~!!!!!LHHHHMnnnn7 +aZZZZ; -yttttrrrrwwwX ~~~~~~~~~~~~~~~~~~~~",
"~~~~~!!!!THHHHMnnnf +aZZZdZd@X;ttrtrrrreww0X ~~~~~~~~~~~~~~~~~~~",
"~~~~~!!!!!HHHHMnnf XaZZZZZZZs+ ,ttttrreewww>  ~~~~~~~~~~~~~~~~~~",
"~~~~~~!!!!KHHHmng XaZZZZdZZdspX 0ttrrrrerwqw:  ~~~~~~~~~~~~~~~~~",
"~~~~~~!!!!IHHHMf XaZSZZZZZZZBZe .wrttrreewwww-  ~~~~~~~~~~~~~~~~",
"~~~~~~~!!!EHHHk XaZZZZZZZZdZZyX  Xwrrrreewwwqq@  ~~~~~~~~~~~~~~~",
"~~~~~~~~!!!JHi XaZZZZZZZZZZZy. jf Xrtrreewwwwqq@  ~~~~~~~~~~~~~~",
"~~~~~~~~!!!La XpSZZZZZZZdZZuX jnn4 @rrreeewwwqqqX ~~~~~~~~~~~~~~",
"~~~~~~~~~!!S .pSZSZZZZZZZZu. hnnnn< @rreeewqwqqq,X ~~~~~~~~~~~~~",
"~~~~~~~~~!F XiSSSZSZZZZZZyX jnnnnnb% -rrwwwwwqqqq:  ~~~~~~~~~~~~",
"~~~~~~~~~~ XiSZSZZZZZSZZyX hnnnnnnnvO :rrewwqwqqq0:  ~~~~~~~~~~~",
"~~~~~~~~~ .iSZSSZZZZZZZuX hnnnnnnnnnxo >wwwwwqwqq,0-  ~~~~~~~~~~",
"~~~~~~~~ XiSSSSZZZZZZduX jnnnnnnnnnnnz .qwwwwqqqqq0,@  ~~~~~~~~~",
"~~~~~~~   X.            jnnnnnnnnnnnnnh  XXXXXX++++++   ~~~~~~~~",
"~~~~~~      @-*%%&&==<<hnnnnnnnnnnnnnnn8$o              ~~~~~~~~",
"~~~~~~~~~~~~~Tmnnnnnnnnnnnnnnnnnnnnnnnnnnn~~~~~~~~~~~~~~~~~~~~~~",
"~~~~~~~~~~~~~~mnnnnnnnnnnnnnnnnnnnnnnnnnn~~~~~~~~~~~~~~~~~~~~~~~"
};
