/* XPM */
/* $Id: greenexit.xpm 4550 2007-10-19 11:20:36Z schylek $ */
static const char * greenexit_xpm[] = {
"18 18 201 2",
"  	c None",
". 	c #068E02",
"+ 	c #079302",
"@ 	c #12A90C",
"# 	c #0EA60A",
"$ 	c #0EA30A",
"% 	c #0FA609",
"& 	c #0CA208",
"* 	c #0CA207",
"= 	c #0DA207",
"- 	c #0CA507",
"; 	c #0CA306",
"> 	c #0BA006",
", 	c #0BA507",
"' 	c #069002",
") 	c #15B413",
"! 	c #13B613",
"~ 	c #12B412",
"{ 	c #12B712",
"] 	c #12B312",
"^ 	c #11B411",
"/ 	c #10B312",
"( 	c #13B615",
"_ 	c #0EB00E",
": 	c #0AA306",
"< 	c #28BC2D",
"[ 	c #45CE61",
"} 	c #1CBC28",
"| 	c #22BD2F",
"1 	c #23BF32",
"2 	c #26C035",
"3 	c #32C749",
"4 	c #3ACA52",
"5 	c #35C84D",
"6 	c #2BC546",
"7 	c #30C54A",
"8 	c #31C64E",
"9 	c #36C955",
"0 	c #46CF6C",
"a 	c #18B61D",
"b 	c #0AA206",
"c 	c #46CD61",
"d 	c #07AD0A",
"e 	c #0DB613",
"f 	c #10B718",
"g 	c #21BF2D",
"h 	c #2DC53E",
"i 	c #5BD471",
"j 	c #82DB95",
"k 	c #64D67A",
"l 	c #3BC94F",
"m 	c #33C643",
"n 	c #26C038",
"o 	c #29C23D",
"p 	c #42CE69",
"q 	c #0DAF0D",
"r 	c #11A80C",
"s 	c #15B615",
"t 	c #23BF30",
"u 	c #0CB412",
"v 	c #13B91C",
"w 	c #29C234",
"x 	c #C5EACD",
"y 	c #EEF1EF",
"z 	c #F2F2F2",
"A 	c #F1F2F1",
"B 	c #EDF1EE",
"C 	c #C2E9CB",
"D 	c #3DCB55",
"E 	c #2DC542",
"F 	c #2DC545",
"G 	c #3BCB5E",
"H 	c #11B413",
"I 	c #ECF1ED",
"J 	c #E3F0E6",
"K 	c #B0E6BB",
"L 	c #97E1A9",
"M 	c #C8EBD2",
"N 	c #EEF2EF",
"O 	c #E9F0EB",
"P 	c #46CF5F",
"Q 	c #36C74E",
"R 	c #40CB62",
"S 	c #0FB30F",
"T 	c #C3E8CA",
"U 	c #4ED364",
"V 	c #8EE0A2",
"W 	c #BDE9C9",
"X 	c #92E0A5",
"Y 	c #66D77F",
"Z 	c #CAEAD2",
"` 	c #BCE8C9",
" .	c #4ACE66",
"..	c #43CD66",
"+.	c #2AC33E",
"@.	c #41CD52",
"#.	c #A9E4B7",
"$.	c #AAE5B9",
"%.	c #31C649",
"&.	c #6ED889",
"*.	c #5FD37F",
"=.	c #46CD67",
"-.	c #0FB10F",
";.	c #6CD784",
">.	c #A6E4B4",
",.	c #22BD31",
"'.	c #B6E6C2",
").	c #EAF1EC",
"!.	c #BBE8C7",
"~.	c #47CE62",
"{.	c #D8EDDD",
"].	c #7FDA9A",
"^.	c #51D176",
"/.	c #10B110",
"(.	c #71DA89",
"_.	c #B7E7C3",
":.	c #EBF2ED",
"<.	c #BDE8C9",
"[.	c #47CE64",
"}.	c #C6EACF",
"|.	c #A0E1B3",
"1.	c #5FD586",
"2.	c #37CA4F",
"3.	c #74DA89",
"4.	c #F1F2F2",
"5.	c #A3E3B3",
"6.	c #33C646",
"7.	c #28C13C",
"8.	c #B9E7C5",
"9.	c #EBF2EE",
"0.	c #52D06E",
"a.	c #DAEEE0",
"b.	c #9DE1B1",
"c.	c #64D689",
"d.	c #33C84E",
"e.	c #55D26A",
"f.	c #E0EFE3",
"g.	c #52D26C",
"h.	c #30C546",
"i.	c #B6E6C3",
"j.	c #E7F1EA",
"k.	c #B8E6C5",
"l.	c #41CA5C",
"m.	c #7DDB98",
"n.	c #EFF2F0",
"o.	c #EFF1EF",
"p.	c #86DB9F",
"q.	c #61D684",
"r.	c #38C94D",
"s.	c #B4E5C1",
"t.	c #5ED47A",
"u.	c #ACE5BB",
"v.	c #CFECD7",
"w.	c #A3E3B7",
"x.	c #7ADB97",
"y.	c #D3EBDA",
"z.	c #D6EDDB",
"A.	c #81DB9B",
"B.	c #6AD68B",
"C.	c #31C64B",
"D.	c #28C138",
"E.	c #51D169",
"F.	c #EEF1EE",
"G.	c #E7F1E9",
"H.	c #C2E9CD",
"I.	c #A9E4B8",
"J.	c #C6EAD0",
"K.	c #E8F1EB",
"L.	c #EDF1EF",
"M.	c #7FDB98",
"N.	c #71D88E",
"O.	c #74D893",
"P.	c #10B310",
"Q.	c #0BA307",
"R.	c #12B414",
"S.	c #32C74D",
"T.	c #27C13A",
"U.	c #46CF62",
"V.	c #D3ECDA",
"W.	c #F0F2F0",
"X.	c #DCEFE1",
"Y.	c #6CD788",
"Z.	c #76D997",
"`.	c #4FD06A",
" +	c #6CD78B",
".+	c #B3E5C2",
"++	c #A5E1B7",
"@+	c #82DB9D",
"#+	c #7DD998",
"$+	c #ACE2C0",
"%+	c #54D16F",
"&+	c #0CA60A",
"*+	c #1BB41F",
"=+	c #49CF6C",
"-+	c #59D37F",
";+	c #69D78B",
">+	c #66D788",
",+	c #6FD792",
"'+	c #89DBA3",
")+	c #0DB00D",
"!+	c #079A03",
"    . + @ # $ % & * = - ; > , ' '   ",
"    # ) ! ~ ~ { ~ ] ^ ^ / ] ( _ :   ",
". # < [ } | 1 2 3 4 5 6 7 8 9 0 a b ",
"+ ) c d e f g h i j k l m 2 n o p q ",
"r s t u v w x y z A z B C D E F G H ",
"# ~ | f w I z J K L M N z O P Q R S ",
"$ ~ 1 g x z T U V W X Y Z A `  ...S ",
"% { +.@.y J U 2 #.J $.%.&.N B *.=.-.",
"& ~ 5 ;.z >.h ,.'.).!.F ~.{.z ].^./.",
"* ] 4 j A (.+.n _.:.<.%.[.}.z |.1./.",
"= ^ 2.3.4.5.6.7.8.9.<.Q 0.a.z b.c.S ",
"- ^ d.e.A f.g.h.i.j.k.l.m.n.o.p.q./.",
"; ] 7 r.f.z s.t.u.v.w.x.y.z z.A.B./.",
"> ] C.D.E.F.z G.H.I.J.K.z L.M.N.O.P.",
"Q.R.S.T.F U.V.n.z 4.z W.X.M.Y.].Z.P.",
"' _ 0 o F Q `. +b..+++p.@+N.#+$+%+&+",
"' : *+p G R ..=+-+;+>+q.;+,+'+%+)+!+",
"    b q H S S -././.S /./.P.~ &+!+  "};
