/* XPM */
/* $Id: help.xpm 4550 2007-10-19 11:20:36Z schylek $ */
static const char * help_xpm[] = {
"20 20 123 2",
"  	c None",
". 	c #068E02",
"+ 	c #079302",
"@ 	c #12A90C",
"# 	c #0EA60A",
"$ 	c #0EA30A",
"% 	c #0FA609",
"& 	c #0CA208",
"* 	c #0CA207",
"= 	c #0DA207",
"- 	c #0CA507",
"; 	c #0CA306",
"> 	c #0BA006",
", 	c #0BA507",
"' 	c #069002",
") 	c #F0F0F0",
"! 	c #15B413",
"~ 	c #13B613",
"{ 	c #12B412",
"] 	c #12B712",
"^ 	c #12B312",
"/ 	c #11B411",
"( 	c #10B312",
"_ 	c #13B615",
": 	c #0EB00E",
"< 	c #0AA306",
"[ 	c #28BC2D",
"} 	c #45CE61",
"| 	c #1CBC28",
"1 	c #22BD2F",
"2 	c #23BF32",
"3 	c #0A300D",
"4 	c #060606",
"5 	c #121212",
"6 	c #131313",
"7 	c #4E7559",
"8 	c #31C64E",
"9 	c #36C955",
"0 	c #46CF6C",
"a 	c #18B61D",
"b 	c #0AA206",
"c 	c #46CD61",
"d 	c #07AD0A",
"e 	c #0DB613",
"f 	c #10B718",
"g 	c #0C4710",
"h 	c #104917",
"i 	c #5BD471",
"j 	c #82DB95",
"k 	c #26C038",
"l 	c #29C23D",
"m 	c #42CE69",
"n 	c #0DAF0D",
"o 	c #11A80C",
"p 	c #15B615",
"q 	c #23BF30",
"r 	c #0CB412",
"s 	c #0C4611",
"t 	c #0D4712",
"u 	c #406B4D",
"v 	c #32C749",
"w 	c #3ACA52",
"x 	c #35C84D",
"y 	c #3BCB5E",
"z 	c #11B413",
"A 	c #054408",
"B 	c #64D67A",
"C 	c #0FB30F",
"D 	c #0E4713",
"E 	c #446D51",
"F 	c #111111",
"G 	c #2BC546",
"H 	c #30C54A",
"I 	c #050505",
"J 	c #4B7457",
"K 	c #3BC94F",
"L 	c #0FB10F",
"M 	c #33C643",
"N 	c #26C035",
"O 	c #0F4816",
"P 	c #10B110",
"Q 	c #DDDDDD",
"R 	c #21BF2D",
"S 	c #2DC53E",
"T 	c #214E2A",
"U 	c #305137",
"V 	c #DBDBDB",
"W 	c #124A1B",
"X 	c #154B1E",
"Y 	c #86DB9F",
"Z 	c #61D684",
"` 	c #000000",
" .	c #81DB9B",
"..	c #6AD68B",
"+.	c #31C64B",
"@.	c #28C138",
"#.	c #51D169",
"$.	c #71D88E",
"%.	c #74D893",
"&.	c #10B310",
"*.	c #0BA307",
"=.	c #12B414",
"-.	c #32C74D",
";.	c #27C13A",
">.	c #2DC545",
",.	c #7FDA9A",
"'.	c #76D997",
").	c #ACE2C0",
"!.	c #54D16F",
"~.	c #0CA60A",
"{.	c #1BB41F",
"].	c #40CB62",
"^.	c #43CD66",
"/.	c #49CF6C",
"(.	c #59D37F",
"_.	c #69D78B",
":.	c #66D788",
"<.	c #6FD792",
"[.	c #89DBA3",
"}.	c #0DB00D",
"|.	c #079A03",
"1.	c #C6C6C6",
"2.	c #C3C3C3",
"                                        ",
"      . + @ # $ % & * = - ; > , ' '     ",
"    ) # ! ~ { { ] { ^ / / ( ^ _ : < )   ",
"  . # [ } | 1 2 3 4 5 6 6 7 8 9 0 a b   ",
"  + ! c d e f g h i j 7 6 6 7 k l m n   ",
"  o p q r | s t u v w x 6 6 6 9 0 y z   ",
"  # { c d e A g u i j B 6 6 6 k l m C   ",
"  $ { q r | u t D v w E F 6 7 9 0 y C   ",
"  % ] v w x G H 8 9 0 A I J i j B K L   ",
"  & { i j B K M N k O s 2 N v w x G P Q ",
"  * ^ v w x f R S T U u K M N k B K P V ",
"  = / d e f 1 2 N W X u G H 8 9 x G C   ",
"  - / r | 1 f R S i j B K M N k Y Z P   ",
"  ; ^ d e f 1 2 N ` ` u G H 8 9  ...P   ",
"  > ^ +.@.#.G H 8 ` ` u R S i j $.%.&.  ",
"  *.=.-.;.>.K M N ` ` u 2 N v w ,.'.&.  ",
"  ' : 0 l >.G H 8 9 u u R S i j ).!.~.  ",
"  ' < {.m y ].^./.(._.:.Z _.<.[.!.}.|.  ",
"  1.1.b n z C C L P P C P P &.{ ~.|.1.  ",
"      2.                                "};
