/* XPM */
static const char *kon16[] = {
/* columns rows colors chars-per-pixel */
"16 16 48 1",
"  c #536266",
". c #50965d",
"X c #6a9373",
"o c #48d36a",
"O c #51f057",
"+ c #6cd17a",
"@ c #6ce477",
"# c #76878d",
"$ c #798287",
"% c #758991",
"& c #758f9f",
"* c #788795",
"= c #71959e",
"- c #7cca94",
"; c #91302d",
": c #bd5d61",
"> c #a76c70",
", c #a96c70",
"< c #bc7176",
"1 c #d30309",
"2 c #cf2122",
"3 c #d52b2d",
"4 c #d83337",
"5 c #cc5255",
"6 c #91abb3",
"7 c #9aa1b4",
"8 c #9aa5bd",
"9 c #96bab5",
"0 c #9bb5bd",
"q c #9bb9bf",
"w c #b28d91",
"e c #96bdc5",
"r c #9cb7c1",
"t c #9db9c1",
"y c #a3b4ca",
"u c #a0bdc5",
"i c #a3bdc8",
"p c #83db94",
"a c #97c1bb",
"s c #9cc3bc",
"d c #8ac0c9",
"f c #9dc3c9",
"g c #98c9d2",
"h c #a1c6c2",
"j c #a4c1c9",
"k c #a4cdc8",
"l c #a8c6ce",
"z c #a6c9d2",
/* pixels */
"                ",
"llllllzzzzllllll",
"00000qe22eq00000",
"jjjjjj4554jjjjjf",
"%%%%%#;==;$%%#%%",
"66668+o88o+r6666",
"tjtth@9ji9@htjtt",
"tttyp-ytry-pyttt",
"ttrs@tttrrr@srtt",
"rtyp-y0ttty-py0r",
"jikOajjjjjjaOkij",
"#&X.*%%%%%%*.X=#",
"e>176666666671>e",
"<3wfuuuuuuuujw3<",
":0gqttutttttrg0:",
"grtrtttrtttttreg"
};
