/* XPM */
static char * kontroler3_xpm[] = {
"32 32 49 1",
" 	c None",
".	c #E3E4E4",
"+	c #F3E010",
"@	c #001000",
"#	c #DB001B",
"$	c #C6C7C8",
"%	c #DBDCDC",
"&	c #E0E1E1",
"*	c #BEBFC0",
"=	c #AAABAD",
"-	c #CBCCCD",
";	c #ACADAF",
">	c #A7A8AA",
",	c #C0C1C2",
"'	c #D8D9D9",
")	c #B3B4B5",
"!	c #B8B9BB",
"~	c #CAA4A9",
"{	c #D06573",
"]	c #D81C33",
"^	c #CCCDCE",
"/	c #B5B6B7",
"(	c #A8A9AB",
"_	c #A7A7A9",
":	c #B38189",
"<	c #C85060",
"[	c #D81B33",
"}	c #D6D7D8",
"|	c #BCBDBE",
"1	c #ABACAD",
"2	c #B2858C",
"3	c #B96D78",
"4	c #BF5967",
"5	c #C64555",
"6	c #CC3144",
"7	c #D21C33",
"8	c #D90822",
"9	c #C4C5C6",
"0	c #D5142C",
"a	c #D2D3D3",
"b	c #D5132B",
"c	c #DDDEDE",
"d	c #BFC0C1",
"e	c #D2D3D5",
"f	c #D6112A",
"g	c #B7B8B9",
"h	c #D61029",
"i	c #D61028",
"j	c #D71029",
"                                ",
"                                ",
"               .                ",
"                                ",
"     +++++++  .    +++++++      ",
"    +++++++++ .   +++++++++     ",
"   +++++++++++.  +++++++++++    ",
"   ++++@@@++++.  ++++@@@++++    ",
"   +++@@@@@+++.  +++@@@@@+++    ",
"   +++@@@@@+++.  +++@@@@@+++    ",
"   +++@@@@@+++.  +++@@@@@+++ #  ",
"   ++++@@@++++.  ++++@@@++++#   ",
"   +++++++++++. $+++++++++++#   ",
"    +++++++++.%$$$+++++++++#    ",
"     +++++++&*=$$$$+++++++#     ",
"       ....-;>>,$$$$ #####      ",
"      ...')>>>>!$~{]######      ",
"    ...^/(>>>_:<[########       ",
"   .}|12345678##########        ",
"  .9>>>0################        ",
"...a>>>0###############         ",
" ..+++>0###############   +++   ",
" ..+++>b###############   +++   ",
"  .+++++##############  +++++   ",
"  ..c+++++############+++++     ",
"   ..+++++++########+++++++     ",
"    .d>++++++++++++++++++       ",
"    .e>f#++++++++++++++         ",
"     .=f###++++++++++           ",
"      gh#############           ",
"      $i#############           ",
"       j#############           "};
