/* XPM */
static char * kontroler3_16_xpm[] = {
"16 16 42 1",
" 	c None",
".	c #F3E010",
"+	c #E3E4E4",
"@	c #B6AC0C",
"#	c #7A7808",
"$	c #001000",
"%	c #3D4404",
"&	c #DB001B",
"*	c #EFE145",
"=	c #D7D8D8",
"-	c #D1CD9A",
";	c #EDA813",
">	c #EEE157",
",	c #EBE27A",
"'	c #E5DC74",
")	c #BCBDBE",
"!	c #B6B7B8",
"~	c #C6C7C8",
"{	c #EB9514",
"]	c #E77016",
"^	c #DDDEDE",
"/	c #AAABAD",
"(	c #A7A8AA",
"_	c #B68C94",
":	c #D16270",
"<	c #D82037",
"[	c #D9DADA",
"}	c #B8B9BA",
"|	c #B67B84",
"1	c #CC3245",
"2	c #D21E34",
"3	c #D80923",
"4	c #E3DFAB",
"5	c #CDC45D",
"6	c #BE5E6B",
"7	c #D89F3D",
"8	c #EAE078",
"9	c #D6D7D8",
"0	c #C69064",
"a	c #C3616E",
"b	c #E13818",
"c	c #D14D5E",
"                ",
"                ",
"  .... + ....   ",
" ..@#..+..@#..  ",
" ..$$#.+..$$#.  ",
" ..%$@.+..%$@.& ",
"  ....*=-....;  ",
"   >,')!~-{]]   ",
"  +^~/(_:<&&&   ",
" [}|123&&&&&    ",
"+456&&&&&&&& .  ",
" ,.7&&&&&&& ... ",
" +8..]&&&&]...  ",
"  90;.......    ",
"   a&b]]]]]     ",
"   c&&&&&&&     "};
