/* XPM */
static const char * kontr64_xpm[] = {
/* columns rows colors chars-per-pixel */
"64 64 157 2",
"   c #5C3439",
".  c #742B33",
"X  c #767D11",
"o  c #7B7812",
"O  c #3F3F40",
"+  c #404040",
"@  c #474748",
"#  c #4A4A4B",
"$  c #4E4F50",
"%  c #4F5051",
"&  c #535355",
"*  c #575759",
"=  c #57585A",
"-  c #5A5B5C",
";  c #616162",
":  c #666668",
">  c #6C6B6C",
",  c #6E6F71",
"<  c #6F7072",
"1  c #737475",
"2  c #767678",
"3  c #777878",
"4  c #7A7A7C",
"5  c #BE2D1B",
"6  c #BB331D",
"7  c #B63D1E",
"8  c #B41A2E",
"9  c #8D202D",
"0  c #8B2F3B",
"q  c #88313C",
"w  c #CF051E",
"e  c #DB001B",
"r  c #DD0B1F",
"t  c #D6131E",
"y  c #D9101E",
"u  c #C9211C",
"i  c #C02D1C",
"p  c #DB0C23",
"a  c #DF182B",
"s  c #D31930",
"d  c #E01D30",
"f  c #C23021",
"g  c #E22D3F",
"h  c #A75825",
"j  c #AE5328",
"k  c #A5662E",
"l  c #8C3440",
"z  c #C73F51",
"x  c #E43B4B",
"c  c #BE7554",
"v  c #BE5D6A",
"b  c #E54655",
"n  c #E64857",
"m  c #EA6673",
"M  c #5A9B0D",
"N  c #698E11",
"B  c #6D9B1F",
"V  c #48BE16",
"C  c #5ABF2C",
"Z  c #63BD33",
"A  c #6EBA3D",
"S  c #2CD70D",
"D  c #25DB0A",
"F  c #2AD90D",
"G  c #31D410",
"H  c #38D015",
"J  c #17E603",
"K  c #1AE506",
"L  c #14EA04",
"P  c #0BF402",
"I  c #00FF00",
"U  c #44C81B",
"Y  c #4CC421",
"T  c #52C326",
"R  c #71BC42",
"E  c #78B947",
"W  c #79BB4A",
"Q  c #7FBC51",
"!  c #B48253",
"~  c #BA895D",
"^  c #86B250",
"/  c #81BB52",
"(  c #B69D69",
")  c #8EBC62",
"_  c #99BD6E",
"`  c #B5A371",
"'  c #A2B974",
"]  c #C08F67",
"[  c #C49673",
"{  c #CA9F7F",
"}  c #9FC179",
"|  c #7E7F82",
" . c #B57982",
".. c #7F8182",
"X. c #848485",
"o. c #888786",
"O. c #888887",
"+. c #858688",
"@. c #8A8A8C",
"#. c #919292",
"$. c #979899",
"%. c #9B9C9D",
"&. c #B1888F",
"*. c #AE9297",
"=. c #AABD80",
"-. c #9F9FA1",
";. c #AA9DA1",
":. c #9EA0A1",
">. c #A4A4A5",
",. c #A8A5A7",
"<. c #A7A7A9",
"1. c #A8A6A8",
"2. c #A7A8AA",
"3. c #A8A9AA",
"4. c #AEAFB1",
"5. c #B4B5B7",
"6. c #B5B6B8",
"7. c #B7B8BA",
"8. c #BCBDBE",
"9. c #F4B3BA",
"0. c #AEC38A",
"q. c #B7C799",
"w. c #BBC599",
"e. c #B8CA9D",
"r. c #C2CAA8",
"t. c #CDCFB8",
"y. c #DBC6B5",
"u. c #D6CEB0",
"i. c #DECEB8",
"p. c #C7D2B4",
"a. c #CED2BC",
"s. c #BEBFC0",
"d. c #C4C5C6",
"f. c #C8C0C2",
"g. c #C6C7C8",
"h. c #D4DBC9",
"j. c #CFD0D1",
"k. c #D2D3D4",
"l. c #DCDCD3",
"z. c #DADBDB",
"x. c #F8CACF",
"c. c #F8CFD2",
"v. c #F5D5D5",
"b. c #F9D7D9",
"n. c #F3DED9",
"m. c #DFE0DA",
"M. c #E4E5E5",
"N. c #ECECEC",
"B. c #FBE2E6",
"V. c #F5E9E4",
"C. c #FCEDEE",
"Z. c #F5F5ED",
"A. c #F3F3F3",
"S. c #FEF6F7",
"D. c #FCF8F6",
"F. c #FFFFFF",
"G. c None",
/* pixels */
"G.G.G.G.G.G.G.G.G.G.G.G.G.G.G.G.G.G.G.G.G.G.G.G.G.G.G.G.G.G.G.G.G.G.G.G.G.G.G.G.G.G.G.G.G.G.G.G.G.G.G.G.G.G.G.G.G.G.G.G.G.G.G.G.",
"G.G.G.G.G.G.G.G.G.G.G.G.G.G.G.G.G.G.G.G.G.G.G.G.G.G.G.G.G.G.G.G.G.G.G.G.G.G.G.G.G.G.G.G.G.G.G.G.G.G.G.G.G.G.G.G.G.G.G.G.G.G.G.G.",
"G.G.G.G.G.G.G.G.G.G.G.G.G.G.G.G.G.G.G.G.G.G.G.G.G.G.G.G.G.G.G.G.G.G.G.G.G.G.G.G.G.G.G.G.G.G.G.G.G.G.G.G.G.G.G.G.G.G.G.G.G.G.G.G.",
"G.G.G.G.G.G.G.G.G.G.G.G.G.G.G.G.G.G.G.G.G.G.G.G.G.G.G.G.G.G.G.G.G.G.G.G.G.G.G.G.G.G.G.G.G.G.G.G.G.G.G.G.G.G.G.G.G.G.G.G.G.G.G.G.",
"G.G.G.G.G.G.G.G.G.G.G.G.G.G.G.G.G.G.G.G.G.G.G.G.G.G.G.G.G.G.M.G.G.G.G.G.G.G.G.G.G.G.G.G.G.G.G.G.G.G.G.G.G.G.G.G.G.G.G.G.G.G.G.G.",
"G.G.G.G.G.G.G.G.G.G.G.G.G.G.G.G.G.G.G.G.G.G.G.G.G.G.G.G.G.G.G.G.G.G.G.G.G.G.G.G.G.G.G.G.G.G.G.G.G.G.G.G.G.G.G.G.G.G.G.G.G.G.G.G.",
"G.G.G.G.G.G.G.G.G.G.G.G.G.G.G.G.G.G.G.G.G.G.G.G.G.G.G.G.G.M.G.G.G.G.G.G.G.G.G.G.G.G.G.G.G.G.G.G.G.G.G.G.G.G.G.G.G.G.G.G.G.G.G.G.",
"G.G.G.G.G.G.G.G.G.G.G.G.G.G.G.G.G.G.G.G.G.G.G.G.G.G.G.G.G.M.G.G.G.G.G.G.G.G.G.G.G.G.G.G.G.G.G.G.G.G.G.G.G.G.G.G.G.G.G.G.G.G.G.G.",
"G.G.G.G.G.G.G.G.G.G.G.G.G.G.G.G.G.G.G.G.G.G.G.G.G.G.G.G.M.M.G.G.G.G.G.G.G.G.G.G.G.G.G.G.G.G.G.G.G.G.G.G.G.G.G.G.G.G.G.G.G.G.G.G.",
"G.G.G.G.G.G.G.G.G.G.G.G.G.G.G.G.G.G.G.G.G.G.G.G.G.G.G.G.M.M.G.G.G.G.G.G.G.G.G.G.G.G.G.G.G.G.g.G.G.G.G.G.G.G.G.G.G.G.G.G.G.G.G.G.",
"G.G.G.G.G.G.G.G.G.G.G.G.G.G.G.G.G.G.G.G.G.G.G.G.G.G.G.G.M.M.G.G.G.G.G.G.G.G.G.G.G.G.G.G.G.G.G.G.G.G.G.G.G.G.G.G.G.G.G.G.G.G.G.G.",
"G.G.G.G.G.G.G.G.G.G.G.G.G.G.G.G.G.G.G.G.G.G.G.G.G.G.G.M.M.M.G.G.G.G.G.G.G.G.G.G.G.G.G.G.G.g.G.G.G.G.G.G.G.G.G.G.G.G.G.G.G.G.G.G.",
"G.G.G.G.G.G.G.G.G.G.G.G.G.G.G.G.G.G.G.G.G.G.G.G.G.G.G.M.M.M.G.G.G.G.G.G.G.G.G.G.G.G.G.G.g.G.G.G.G.G.G.G.G.G.G.G.G.G.G.G.G.G.G.G.",
"G.G.G.G.G.G.G.G.G.G.G.G.G.G.G.G.G.G.G.G.G.G.G.G.G.G.M.M.M.G.G.G.G.G.G.G.G.G.G.G.G.G.G.G.g.G.G.G.G.G.G.G.G.G.G.G.G.G.G.G.G.G.G.G.",
"G.G.G.G.G.G.G.G.G.G.G.G.G.G.G.G.G.G.G.G.G.G.G.G.G.G.M.M.M.G.G.G.G.G.G.G.G.G.G.G.G.G.G.g.g.G.G.G.G.G.G.G.G.G.G.G.G.G.G.G.G.G.G.G.",
"G.G.G.G.G.G.G.G.G.G.G.G.G.G.G.G.G.G.G.G.G.G.G.G.G.M.M.M.M.G.G.G.G.G.G.G.G.G.G.G.G.G.g.g.G.G.G.G.G.G.G.G.G.G.G.G.G.G.G.G.G.G.G.G.",
"G.G.G.G.G.G.G.G.G.G.G.G.G.G.G.G.G.G.G.G.G.G.G.G.M.M.M.z.M.G.G.G.G.G.G.G.G.G.G.G.G.g.g.g.G.G.G.G.G.G.G.G.G.G.G.G.G.G.G.G.G.G.G.G.",
"G.G.G.G.G.G.G.G.G.G.G.G.G.G.G.G.G.G.G.G.G.G.G.G.M.M.M.M.M.G.G.G.G.G.G.G.G.G.G.G.g.g.g.G.G.G.G.G.G.G.G.G.G.G.G.G.G.G.G.G.G.G.G.G.",
"G.G.G.G.G.G.G.G.G.G.G.G.G.G.G.G.G.G.G.G.G.G.G.M.M.M.M.M.M.G.G.G.G.G.G.G.G.G.G.g.g.g.g.G.G.G.G.G.G.G.G.G.G.G.G.G.G.G.G.G.G.G.G.G.",
"G.G.G.G.G.G.G.G.G.G.G.G.G.G.G.G.G.G.G.G.G.G.M.M.z.M.M.M.M.G.G.G.G.G.G.G.G.G.g.g.g.g.G.G.G.G.G.G.G.G.G.G.G.G.G.G.G.G.G.G.G.G.G.G.",
"G.G.G.G.G.G.G.G.G.G.G.G.G.G.G.G.G.G.G.G.G.G.M.M.M.M.z.M.M.G.G.G.G.G.G.G.G.g.g.g.g.g.G.G.G.G.G.G.G.G.G.G.G.G.G.G.G.G.G.e G.G.G.G.",
"G.G.G.G.G.G.G.G.G.G.G.G.G.G.G.G.G.G.G.G.G.M.M.M.M.M.M.M.M.G.G.G.G.G.G.G.g.g.g.g.g.g.G.G.G.G.G.G.G.G.G.G.G.G.G.G.G.G.e G.G.G.G.G.",
"G.G.G.G.G.G.G.G.G.G.G.G.G.G.G.G.G.G.G.G.M.M.M.M.M.M.M.M.M.G.G.G.G.G.G.g.g.g.g.g.g.G.G.G.G.G.G.G.G.G.G.G.G.G.G.G.e e G.G.G.G.G.G.",
"G.G.G.G.G.G.G.G.G.G.G.G.G.G.G.G.G.G.G.G.M.M.M.M.M.M.M.M.M.G.G.G.G.G.g.g.g.g.g.g.g.G.G.G.G.G.G.G.G.G.G.G.G.G.G.e e G.G.G.G.G.G.G.",
"G.G.G.G.G.G.G.G.G.G.G.G.G.G.G.G.G.G.G.M.M.M.z.M.M.M.M.M.M.G.G.G.G.g.g.g.g.g.g.g.g.G.G.G.G.G.G.G.G.G.G.G.G.e e e G.G.G.G.G.G.G.G.",
"G.G.G.G.G.G.G.G.G.G.G.G.G.G.G.G.G.G.M.M.M.M.M.4.2 3 2 2 3 + + ; > , < > > > > < & O + + + + O O + O +   . . .   + + O O G.G.G.G.",
"G.G.G.G.G.G.G.G.G.G.G.G.G.G.G.G.G.M.M.M.M.M.M.#.O O O O O O O + O O O O + + + + O O O + O O O O O O O O O O O O O O O O O G.G.G.",
"G.G.G.G.G.G.G.G.G.G.G.G.G.G.G.G.M.M.M.M.M.M.M.#.O @.2.2.3.3.3.3.3.3.3.3.3.3.3.3.3.3.3.3.3.3.3.3.3.3.3.3.3.3.3.3.3.3.3.O O G.G.G.",
"G.G.G.G.G.G.G.G.G.G.G.G.G.G.G.M.M.M.M.M.M.M.M.#.O 2.z.M.M.M.M.M.M.M.M.M.M.M.M.M.M.M.M.M.M.M.M.M.M.M.M.M.M.M.M.M.M.M.d.O O G.G.G.",
"G.G.G.G.G.G.G.G.G.G.G.G.G.G.M.M.M.M.M.M.M.z.M.#.+ :.N.F.F.F.F.F.F.F.F.F.F.F.F.F.F.F.F.F.F.F.F.F.F.F.F.F.F.F.F.F.F.F.d.O O G.G.G.",
"G.G.G.G.G.G.G.G.G.G.G.G.G.M.M.M.M.M.z.M.M.M.M.@.+ >.N.F.F.F.F.F.F.F.F.F.F.F.F.F.F.F.F.F.F.F.F.F.F.F.F.F.F.F.F.F.F.D.d.O O G.G.G.",
"G.G.G.G.G.G.G.G.G.G.G.G.M.M.M.M.M.M.M.M.M.z.6.< O >.N.F.F.F.F.F.F.F.F.F.F.F.F.F.F.F.F.F.F.F.F.F.F.V.F.F.F.F.F.F.F.F.d.O O G.G.G.",
"G.G.G.G.G.G.G.G.G.G.G.M.M.M.M.M.M.M.M.z.s.3.<.1 + >.N.F.F.F.F.F.F.F.F.F.F.F.F.F.F.F.F.F.F.F.F.{ 7 7 F.F.F.F.F.F.F.F.d.O O G.G.G.",
"G.G.G.G.G.G.G.G.G.G.M.M.M.M.M.M.M.M.d.2.<.<.3.1 + >.N.F.F.F.F.F.F.F.F.F.F.F.F.F.F.F.F.F.F.[ 6 r r r n.F.F.F.F.F.F.D.d.O O G.G.G.",
"G.G.G.G.G.G.G.G.G.M.M.M.M.z.M.z.7.2.2.2.<.<.<.1 O >.N.F.F.F.F.F.F.F.F.F.F.F.F.F.F.F.F.] 6 r r t 5 r c F.F.F.F.F.F.D.d.O O G.G.G.",
"G.G.G.G.G.G.G.G.M.M.M.M.M.j.5.2.2.2.2.2.2.2.3.1 O >.N.F.F.F.F.F.F.F.F.F.F.F.F.F.S.~ 6 r r y h u.( r f F.F.F.F.F.F.F.d.O O G.G.G.",
"G.G.G.G.G.G.M.M.M.M.k.s.4.2.2.2.2.;.*.&. .v z q O >.N.F.F.F.F.F.F.F.F.F.F.F.D.! i p r y j i.F.F.Z.u r v.F.F.F.F.F.F.d.O O G.G.G.",
"G.G.G.G.G.M.M.k.8.3.2.3.2.2.s p e e e e e e e 9 O >.N.A.A.A.A.A.A.A.A.A.A.w.N X X o k y.A.A.A.A.A.B M ` A.A.A.A.A.D.d.O O G.G.G.",
"G.G.G.M.M.M.z.2.2.2.2.2.2.2.w e e e e e e e e 9 O >.N.M.M.M.M.M.M.M.M.M.a.L I P E h.M.M.M.M.M.M.M.) I C M.M.M.M.M.A.d.O O G.G.G.",
"G.G.M.M.M.M.M.4.2.2.2.2.2.3.e e e e e e e e e 9 O >.N.M.M.N.M.M.M.M.M.l.S I P e.M.M.M.M.M.M.M.M.M.h.I L M.M.M.M.M.A.d.O O G.G.G.",
"M.M.M.M.M.M.M.7.2.2.2.2.2.2.p e e e e e e e e 9 + 2.N.M.M.M.M.M.M.M.M.T I I } M.M.M.M.M.M.V.M.M.M.M.H I 0.M.M.N.M.A.d.O O G.G.G.",
"G.M.M.M.M.M.M.j.2.2.2.2.2.2.e e e e e e e e e 9 + :.N.M.M.M.M.M.M.M.R I I / M.M.M.M.M.M.M.M.M.M.M.M.Q I Z M.M.M.M.A.d.O O G.G.G.",
"G.M.M.M.M.M.M.M.2.2.2.2.2.2.p e e e e e e e e 9 + 2.N.M.M.M.M.M.M._ I I Z M.V.M.M.M.M.M.M.M.M.M.M.M.p.I D M.M.M.M.A.d.O O G.G.G.",
"G.G.M.M.M.z.M.M.5.2.2.2.2.2.e e e e e e e e e 9 + :.N.M.M.M.M.M.q.P I U M.M.M.M.M.M.M.N.M.M.M.M.M.M.M.F I w.M.M.M.A.d.O O G.G.G.",
"G.G.M.M.M.M.M.z.g.2.2.2.2.2.e e e e e e e e e 9 + :.N.M.M.M.M.h.K I S l.M.M.M.M.M.M.M.M.M.N.N.M.M.N.M.R I A M.M.M.A.g.O O G.G.G.",
"G.G.G.M.M.M.M.M.z.2.2.2.2.2.e e e e e e e e e 9 + :.N.M.M.M.l.G I K a.M.M.M.M.M.M.M.M.M.M.M.M.M.M.M.M.q.I D M.M.M.A.7.O O G.G.G.",
"G.G.G.G.M.M.M.M.M.4.2.2.2.2.e e e e e e e e e 9 O :.N.M.M.M.T I P w.M.M.M.M.M.M.M.V.M.M.M.M.M.M.M.M.M.M.K I r.M.M.A.2.O O G.G.G.",
"G.G.G.G.M.M.M.M.M.s.2.2.2.2.e e e e e e e e e 9   ,.N.M.M.W I I ' M.M.M.M.M.M.M.M.M.M.M.M.M.M.M.M.M.M.M.Z I W M.M.A.$.O O G.G.G.",
"G.G.G.G.G.M.M.M.M.j.2.2.2.2.e e e e e e e e e 9   :.N.M.' L L ^ M.M.N.M.M.M.N.M.M.M.N.M.M.M.N.M.N.M.N.M.0.J V M.M.A.X.O O G.G.G.",
"G.G.G.G.G.M.M.M.M.M.2.<.2.2.e e e e e e e e e 9 O :.N.n.a r m F.F.F.F.F.F.F.F.F.F.F.F.F.F.F.F.F.F.F.F.F.F.d r B.F.D.# O O G.G.G.",
"G.G.G.G.G.G.M.M.M.M.4.3.2.2.e e e e e e e e e 9 O 2.A.n e b S.F.F.F.F.F.F.F.F.F.F.F.F.F.F.F.F.F.F.F.F.F.F.m r c.F.>.& O O G.G.G.",
"G.G.G.G.G.G.G.M.M.M.d.3.2.2.e e e e e e e e e 9 O :.N.x x C.F.F.F.F.F.F.F.F.F.F.F.F.F.F.F.F.F.F.F.F.F.F.F.9.p B.N.@ : O O G.G.G.",
"G.G.G.G.G.G.G.M.M.M.z.<.2.<.e e e e e e e e e 9 O >.N.x b.F.F.F.F.F.F.F.F.F.F.F.F.F.F.F.F.F.F.F.F.F.F.F.F.S.x.F.@.# 1 O O G.G.G.",
"G.G.G.G.G.G.G.G.M.M.M.4.2.3.e e e e e e e e e 9 O >.N.v.F.F.F.F.F.F.F.F.F.F.F.F.F.F.F.F.F.F.F.F.F.F.F.F.F.F.F.z.+ : +.O O G.G.G.",
"G.G.G.G.G.G.G.G.G.M.M.s.<.<.e e e e e e e e e 9 O >.N.F.F.F.F.F.F.F.F.F.F.F.F.F.F.F.F.F.F.F.F.F.F.F.F.F.F.F.A.= - 2 $.O O G.G.G.",
"G.G.G.G.G.G.G.G.G.M.M.j.3.<.e e e e e e e e e 9 O >.N.F.F.F.F.F.F.F.F.F.F.F.F.F.F.F.F.F.F.F.F.F.F.F.F.F.F.F.4 & < @.-.O O G.G.G.",
"G.G.G.G.G.G.G.G.G.G.M.M.3.<.e e e e e e e e e 9 + >.N.F.F.F.F.F.F.F.F.F.F.F.F.F.F.F.F.F.F.F.F.F.F.F.F.F.F.<.% , ..%.5.O O G.G.G.",
"G.G.G.G.G.G.G.G.G.G.M.M.5.>.e e e e e e e e e 9 O >.k.z.z.z.z.z.z.z.z.z.z.z.z.z.z.z.z.z.z.z.z.z.z.z.z.z.O.% , | %.2.d.O O G.G.G.",
"G.G.G.G.G.G.G.G.G.G.G.M.g.,.e e e e e e e e e 9 + 2 @.@.@.@.@.@.@.@.@.@.@.@.@.@.@.@.@.@.@.@.@.@.O.@.4 = @ - ; | | -.-.O O G.G.G.",
"G.G.G.G.G.G.G.G.G.G.G.G.z.,.e e e e e e e e e 9 O + O O O O O O O O O O O O O O O O O O O O O O O O O O O + O O O O O O O G.G.G.",
"G.G.G.G.G.G.G.G.G.G.G.G.M.3.e e e e e e e e e 9 O O O + O O O + O O O O O O O O O O O O O O O O O O O O O O O O O O O O O G.G.G.",
"G.G.G.G.G.G.G.G.G.G.G.G.G.8.e e e e e e e e e w 0 & & & & & & & & & & & & & & & & & & & & & & & & & & & & & & & & & & & G.G.G.G.",
"G.G.G.G.G.G.G.G.G.G.G.G.G.f.e e e e e e e e e e 8 l > > > > > > > > > > > > > > > > > > > > > > > > > > > > > > > > ; G.G.G.G.G.",
"G.G.G.G.G.G.G.G.G.G.G.G.G.G.G.G.G.G.G.G.G.G.G.G.G.G.o.o.O.O.O.O.O.X.O.O.O.O.O.O.O.O.O.O.O.O.O.O.O.O.O.O.O.O.O.O.O.O.G.G.G.G.G.G."
};
