/* XPM */
static const char * load_xpm[] = {
"20 20 7 1",
" 	c None",
".	c #191919",
"+	c #33AE3C",
"@	c #FEFEFE",
"#	c #CCF8C7",
"$	c #46C03D",
"%	c #8AE186",
"                    ",
"                    ",
"                    ",
"     .........+     ",
"     .@@@@@@.@.+    ",
"     .@@@@@@.@@.+   ",
"     .@@@@@@....+   ",
"   ...@@@@@@@@@...  ",
"   .#.########@.$.  ",
" .............#.$.+ ",
" .@@@@@@@@@@@@..$.+ ",
"  .@%%%%%%%%%%$.$.+ ",
"  .@%%%%%%%%%%%.$.+ ",
"   .@%%%%%%%%%%$..+ ",
"   .@%%%%%%%%%%%..+ ",
"    .@$$$$$$$$$$$.+ ",
"    ..............+ ",
"      +++++++++++++ ",
"                    ",
"                    "};
