/* XPM */
static const char * lock_icon16_xpm[] = {
"20 15 56 1",
" 	c None",
".	c #FFFFFF",
"+	c #F96270",
"@	c #920000",
"#	c #380000",
"$	c #BE0000",
"%	c #FB7682",
"&	c #660000",
"*	c #F1343D",
"=	c #FEF9FA",
"-	c #FEF5F9",
";	c #FECBD4",
">	c #FE0416",
",	c #4E0000",
"'	c #ED2C35",
")	c #FDC6C8",
"!	c #FEB5C6",
"~	c #FD122E",
"{	c #A80000",
"]	c #F1DAD4",
"^	c #FDB2CE",
"/	c #FD9CA7",
"(	c #FC95A1",
"_	c #FC8392",
":	c #FB7282",
"<	c #F86371",
"[	c #F55266",
"}	c #F14459",
"|	c #F0334A",
"1	c #F41D31",
"2	c #760000",
"3	c #820000",
"4	c #900000",
"5	c #A20000",
"6	c #BC0000",
"7	c #DA0005",
"8	c #FE0011",
"9	c #F03744",
"0	c #F7606E",
"a	c #FB7E8C",
"b	c #FA6D7E",
"c	c #F75E6C",
"d	c #F44F62",
"e	c #F04156",
"f	c #F02F46",
"g	c #F51832",
"h	c #FA011E",
"i	c #EA0016",
"j	c #F65B6D",
"k	c #F44B5F",
"l	c #EE3F4F",
"m	c #F02B42",
"n	c #F80F2B",
"o	c #F4011E",
"p	c #E60015",
"q	c #E20015",
"                    ",
"                    ",
"           +@###$%  ",
"          +&*=-;>,% ",
"          @')###!~{ ",
"          #]#   #^# ",
"          #]#   #^# ",
"   ###########  ### ",
"   #/(_:<[}|1#      ",
"   #234567890#      ",
"   #abcdefghi#      ",
"   #234567890#      ",
"   #jklmnopqq#      ",
"   ###########      ",
"                    "};
