/* XPM */
static const char *rap16_xpm[] = {
/* columns rows colors chars-per-pixel */
"16 16 94 2",
"   c #3E3E3E",
".  c #3E3E40",
"X  c #6A223C",
"o  c #7C2834",
"O  c #404043",
"+  c #464647",
"@  c #474748",
"#  c #494949",
"$  c #49494A",
"%  c #49494B",
"&  c #4B4B4C",
"*  c #4D4D4E",
"=  c #4E4E51",
"-  c #4F4F50",
";  c #514143",
":  c #505052",
">  c #505053",
",  c #525253",
"<  c #545455",
"1  c #565657",
"2  c #565658",
"3  c #575759",
"4  c #59595B",
"5  c #5C5D5E",
"6  c #5E5D60",
"7  c #626264",
"8  c #68686A",
"9  c #707071",
"0  c #717073",
"q  c #727272",
"w  c #747072",
"e  c #747375",
"r  c #757576",
"t  c #7A797C",
"y  c #7B7B7D",
"u  c #981B2B",
"i  c #991B2A",
"p  c #912734",
"a  c #A71527",
"s  c #B90F24",
"d  c #BC0C23",
"f  c #B84F5D",
"g  c #B65562",
"h  c #BE5E6B",
"j  c #AE6973",
"k  c #B1616C",
"l  c #D4001A",
"z  c #DB001B",
"x  c #DB011C",
"c  c #CF1C33",
"v  c #D60B25",
"b  c #D40E27",
"n  c #DA0520",
"m  c #D1182F",
"M  c #CD2136",
"N  c #CC3144",
"B  c #C0606D",
"V  c #C86673",
"C  c #B67B84",
"Z  c #848385",
"A  c #848585",
"S  c gray55",
"D  c #8E8E8F",
"F  c #9F8289",
"G  c #909091",
"H  c #939295",
"J  c #939394",
"K  c #9A9598",
"L  c #989899",
"P  c #A3A2A3",
"I  c #A7A6A8",
"U  c #A7A7A8",
"Y  c #A8A9AB",
"T  c #B1B2B3",
"R  c #B4B5B5",
"E  c #B4B5B7",
"W  c #B7B6B7",
"Q  c #BCBCBC",
"!  c gray75",
"~  c #C0C1C1",
"^  c #C0C1C2",
"/  c #C0C1C3",
"(  c #C4C3C4",
")  c #D2D1D2",
"_  c #D4D5D5",
"`  c #D6D7D7",
"'  c #D8D7D8",
"]  c #D9D8D9",
"[  c #D8D9DA",
"{  c #DDDEDE",
"}  c #DFE0E0",
"|  c #E3E4E4",
" . c gray100",
".. c None",
/* pixels */
"..............| ................",
"..............~ y H 9 O G ......",
"............| R L ' y 1 #   ....",
"............| | @ r I H e # ....",
"..........| | ` P Z * : 4 : ..z ",
"........| | | A ) e 3 - . X z z ",
"........| ~ S Y 9 & < + z z z ..",
"......| Q P ] Q 7 , # i z z ....",
"..| | { ~ 5 W ( 8 3 3 o z ......",
"| [ W C N c p 9 D 6 - ; l ......",
"| } Y h x z M F s u a d ........",
"| | T h z z j f z z z z ........",
"..| ^ h z m K b z z z z ........",
"..| _ h z g k z z z x ..........",
"....| h z v v z z z n ..........",
"....| V x x x z z z z .........."
};
