/* XPM */
static const char * reload_xpm[] = {
"20 20 12 1",
" 	c None",
".	c #000000",
"+	c #FFFFFF",
"@	c #BDBDBD",
"#	c #12AE4B",
"$	c #15C154",
"%	c #095B27",
"&	c #407C54",
"*	c #FBFBFB",
"=	c #417E55",
"-	c #438258",
";	c #5D6069",
"                    ",
"                    ",
"                    ",
"      .........     ",
"      .+++++++..    ",
"     ..+++++++.@.   ",
"    .#.+++++++....  ",
"   ..$%++++++++++.  ",
"  &.$$.++++*+++++.  ",
"  =.$$.+-.......+.; ",
"  -.$$.++.$$$$$.+.; ",
"   .$$.---.$$$$.+.; ",
"   -.$$....$$$$.+.; ",
"    .$$$$$$$$$$.+.; ",
"     ..$$$$$..$.+.; ",
"      ......++..+.; ",
"      .++++++++++.; ",
"      ............; ",
"         ;;;;;;;;;; ",
"                    "};
