/* XPM */
/* $Id: save.xpm 4550 2007-10-19 11:20:36Z schylek $ */
static const char * save_xpm[] = {
"20 20 5 1",
" 	c None",
".	c #000000",
"+	c #4DC25D",
"@	c #EFEFEF",
"#	c #0C7F32",
"                    ",
"                    ",
"                    ",
"   ..............   ",
"   .+.@@@@@@@@.@.   ",
"   .+.@@@@@@@@...#  ",
"   .+.@@@@@@@@.+.#  ",
"   .+.@@@@@@@@.+.#  ",
"   .+.@@@@@@@@.+.#  ",
"   .+.@@@@@@@@.+.#  ",
"   .++........++.#  ",
"   .++++++++++++.#  ",
"   .++.........+.#  ",
"   .++......@@.+.#  ",
"   .++......@@.+.#  ",
"   .++......@@.+.#  ",
"    .............#  ",
"     #############  ",
"                    ",
"                    "};
