/* XPM */
static const char * ssc16_xpm[] = {
"16 16 119 2",
"  	c None",
". 	c #000000",
"+ 	c #E4E5E5",
"@ 	c #1B221B",
"# 	c #232C24",
"$ 	c #0F120F",
"% 	c #020302",
"& 	c #B1E0B4",
"* 	c #425443",
"= 	c #9BC49E",
"- 	c #CBFFCE",
"; 	c #556B56",
"> 	c #9CC59F",
", 	c #C2F5C5",
"' 	c #C3F6C6",
") 	c #161E17",
"! 	c #CDCDCE",
"~ 	c #E5E6E6",
"{ 	c #96BD98",
"] 	c #C4F6C7",
"^ 	c #526753",
"/ 	c #69856A",
"( 	c #BBECBE",
"_ 	c #C1F3C4",
": 	c #B1DFB4",
"< 	c #2C2C2C",
"[ 	c #E8E9E9",
"} 	c #97BD99",
"| 	c #C4F5C7",
"1 	c #657F66",
"2 	c #C6FAC9",
"3 	c #B7E8BA",
"4 	c #696A69",
"5 	c #BBBBBB",
"6 	c #C7C8C8",
"7 	c #504F50",
"8 	c #96BD99",
"9 	c #C4F7C7",
"0 	c #DB001B",
"a 	c #668067",
"b 	c #C6F9C9",
"c 	c #B9E7BB",
"d 	c #848483",
"e 	c #C5C6C7",
"f 	c #B0B1B3",
"g 	c #5A595A",
"h 	c #96BE99",
"i 	c #C4F6C6",
"j 	c #516853",
"k 	c #B10012",
"l 	c #688269",
"m 	c #C6F8CA",
"n 	c #B8E7BB",
"o 	c #5D6364",
"p 	c #A9ACAD",
"q 	c #B19398",
"r 	c #5C3C42",
"s 	c #97B995",
"t 	c #C5EDBF",
"u 	c #A90011",
"v 	c #DEDFDF",
"w 	c #69836B",
"x 	c #C5F5C6",
"y 	c #B8E1B6",
"z 	c #7B0C19",
"A 	c #E10015",
"B 	c #DD0017",
"C 	c #640007",
"D 	c #96BB97",
"E 	c #C5EDC0",
"F 	c #536652",
"G 	c #E3E4E4",
"H 	c #DFE0E0",
"I 	c #69826A",
"J 	c #C5F4C6",
"K 	c #B8DFB4",
"L 	c #7E0311",
"M 	c #E2001B",
"N 	c #E5001C",
"O 	c #680008",
"P 	c #546652",
"Q 	c #6A836B",
"R 	c #C70018",
"S 	c #040504",
"T 	c #54624F",
"U 	c #ACD0A8",
"V 	c #C4ECBF",
"W 	c #83A484",
"X 	c #384638",
"Y 	c #DEDEDF",
"Z 	c #6B846C",
"` 	c #E1001B",
" .	c #B20014",
"..	c #586B55",
"+.	c #C8F1C3",
"@.	c #C3EBBE",
"#.	c #C3F6C5",
"$.	c #1D241D",
"%.	c #6A846C",
"&.	c #C6F5C6",
"*.	c #B9E0B5",
"=.	c #DF001B",
"-.	c #DC001B",
";.	c #75000C",
">.	c #6B866C",
",.	c #C3ECBF",
"'.	c #1B231B",
").	c #3A4A3B",
"!.	c #6E8B70",
"~.	c #668168",
"{.	c #7B0110",
"].	c #DA001A",
"^.	c #DD001B",
"/.	c #58000A",
"(.	c #333F33",
"_.	c #8E3542",
":.	c #AA0010",
"<.	c #DA001B",
"[.	c #76000C",
"                                ",
"                                ",
"      .       +   @ # $         ",
"    % & *     + . = - ;         ",
"  . > , ' ) ! ~ . { ] ^         ",
"  / ( , _ : < [ . } | ^         ",
"    1 2 3 4 5 6 7 8 9 ^   0     ",
"    a b c d e f g h i j k 0     ",
"    l m n o p q r s t j u       ",
"  v w x y z A B C D E F         ",
"G H I J K L M N O D E P         ",
"  H Q J K L R S T U V W X .     ",
"  Y Z J K L `  ...+.@.#.$.      ",
"    %.&.*.L =.-.;.>.,.'.        ",
"    ).!.~.{.=.].^./.(.          ",
"      _.:.R 0 0 ].<.[.          "};
