/* XPM */
static const char * ssc64_xpm[] = {
/* columns rows colors chars-per-pixel */
"64 64 247 2",
"   c #000000",
".  c #010101",
"X  c #020000",
"o  c #030000",
"O  c #010201",
"+  c #020202",
"@  c #020302",
"#  c #030303",
"$  c #050001",
"%  c #030403",
"&  c #040504",
"*  c #040604",
"=  c #050605",
"-  c #070707",
";  c #080001",
":  c #090001",
">  c #0D0002",
",  c #090B09",
"<  c #0A0A0A",
"1  c #0A0D0A",
"2  c #0C0E0B",
"3  c #100002",
"4  c #140002",
"5  c #150003",
"6  c #1B0003",
"7  c #1A0205",
"8  c #0D110D",
"9  c #0F120F",
"0  c #10120F",
"q  c #0F1310",
"w  c #101010",
"e  c #111511",
"r  c #111612",
"t  c #121612",
"y  c #121713",
"u  c #131713",
"i  c #151515",
"p  c #161B15",
"a  c #171D17",
"s  c #181D17",
"d  c #181818",
"f  c #1A1B1B",
"g  c #181E18",
"h  c #210004",
"j  c #280005",
"k  c #2E0006",
"l  c #370007",
"z  c #1A211A",
"x  c #1D231C",
"c  c #252525",
"v  c #202921",
"b  c #222B23",
"n  c #242B23",
"m  c #263027",
"M  c #293329",
"N  c #2A3329",
"B  c #2A352B",
"V  c #2D392E",
"C  c #313132",
"Z  c #343434",
"A  c #363636",
"S  c #3A3B3B",
"D  c #3D3D3E",
"F  c #3D3E3E",
"G  c #400008",
"H  c #440008",
"J  c #490009",
"K  c #4A0009",
"L  c #4B0009",
"P  c #51000A",
"I  c #42151A",
"U  c #69000D",
"Y  c #6D000D",
"T  c #6F000E",
"R  c #6C020F",
"E  c #72000E",
"W  c #74000E",
"Q  c #7B000F",
"!  c #334034",
"~  c #374236",
"^  c #3C493B",
"/  c #3B4A3C",
"(  c #3C4B3D",
")  c #3C4C3D",
"_  c #3F3F40",
"`  c #454646",
"'  c #464747",
"]  c #424F40",
"[  c #484848",
"{  c #494A4A",
"}  c #4C4C4D",
"|  c #4D4E4E",
" . c #405041",
".. c #455746",
"X. c #475A48",
"o. c #4A5948",
"O. c #4A5D4B",
"+. c #515252",
"@. c #535354",
"#. c #535455",
"$. c #5D5D5E",
"%. c #4D624E",
"&. c #536451",
"*. c #536854",
"=. c #5F7861",
"-. c #656666",
";. c #637D65",
":. c #717272",
">. c #830010",
",. c #910012",
"<. c #9B0013",
"1. c #9D0013",
"2. c #A10014",
"3. c #A90015",
"4. c #B10016",
"5. c #B20016",
"6. c #B40016",
"7. c #BA0017",
"8. c #BF0018",
"9. c #C10018",
"0. c #C40018",
"q. c #CE0019",
"w. c #D2001A",
"e. c #D4001A",
"r. c #D9001B",
"t. c #DB001B",
"y. c #DB011C",
"u. c #DA031E",
"i. c #D61028",
"p. c #D61029",
"a. c #D71029",
"s. c #D31B32",
"d. c #D21E34",
"f. c #C93B4D",
"g. c #B7737D",
"h. c #C54859",
"j. c #C05765",
"k. c #69856B",
"l. c #6F876D",
"z. c #6C886D",
"x. c #70876E",
"c. c #6F8B71",
"v. c #738B71",
"b. c #718E73",
"n. c #739174",
"m. c #789276",
"M. c #779679",
"N. c #7D977B",
"B. c #7C9B7E",
"V. c #B67780",
"C. c #CE7A85",
"Z. c #8E8E8E",
"A. c #8F9090",
"S. c #AF9095",
"D. c #88A888",
"F. c #91AF8E",
"G. c #8BB08D",
"H. c #8CB18E",
"J. c #8EB390",
"K. c #91B793",
"L. c #98B794",
"P. c #94BB96",
"I. c #97BE99",
"U. c #A9A1A4",
"Y. c #A7A8AA",
"T. c #A8A9AB",
"R. c #AAABAD",
"E. c #ABACAE",
"W. c #B0B1B2",
"Q. c #B1B2B4",
"!. c #B4B5B5",
"~. c #B5B6B7",
"^. c #B5B6B8",
"/. c #B7B8BA",
"(. c #B9BABB",
"). c #BABBBC",
"_. c #C8B0B4",
"`. c #9CC59F",
"'. c #9DC69F",
"]. c #9EC7A0",
"[. c #9EC6A1",
"{. c #A4C6A0",
"}. c #A0CAA3",
"|. c #ABCEA6",
" X c #A7D3AA",
".X c #AFD3AB",
"XX c #A9D6AC",
"oX c #AFD6AD",
"OX c #ACD9AF",
"+X c #AFD9AF",
"@X c #B0D5AC",
"#X c #B1D5AC",
"$X c #B0D8AE",
"%X c #ADDBB0",
"&X c #AFDBB2",
"*X c #AEDCB1",
"=X c #AEDDB1",
"-X c #AFDCB2",
";X c #AFDDB2",
":X c #B1DDB3",
">X c #B0DEB3",
",X c #B6DCB2",
"<X c #BCE2B7",
"1X c #B5E3B8",
"2X c #BEE5B9",
"3X c #BBEBBC",
"4X c #BAEBBD",
"5X c #BCEDBF",
"6X c #BCEEBF",
"7X c #C3EBBE",
"8X c #C2ECBF",
"9X c #C3ECBF",
"0X c #C2EDBF",
"qX c #BFC0C1",
"wX c #BDEEC1",
"eX c #BEF0C1",
"rX c #BFF1C2",
"tX c #C4C5C6",
"yX c #C5C6C7",
"uX c #C6C7C8",
"iX c #CECFCF",
"pX c #CECFD0",
"aX c #D4D5D5",
"sX c #D8D9D9",
"dX c #DEDFDF",
"fX c #C2EDC0",
"gX c #C2EEC1",
"hX c #C2EFC1",
"jX c #C2F0C2",
"kX c #C2F1C2",
"lX c #C0F2C3",
"zX c #C1F2C4",
"xX c #C1F3C4",
"cX c #C2F2C4",
"vX c #C2F3C4",
"bX c #C2F3C5",
"nX c #C2F4C4",
"mX c #C2F4C5",
"MX c #C2F5C5",
"NX c #C3F5C5",
"BX c #C3F4C6",
"VX c #C3F5C6",
"CX c #DFE0E0",
"ZX c #DFE0E1",
"AX c #E0E1E1",
"SX c #E3E4E4",
"DX c None",
/* pixels */
"DXDXDXDXDXDXDXDXDXDXDXDXDXDXDXDXDXDXDXDXDXDXDXDXDXDXDXDXDXDXDXDXDXDXDXDXDXDXDXDXDXDXDXDXDXDXDXDXDXDXDXDXDXDXDXDXDXDXDXDXDXDXDXDX",
"DXDXDXDXDXDXDXDXDXDXDXDXDXDXDXDXDXDXDXDXDXDXDXDXDXDXDXDXDXDXDXDXDXDXDXDXDXDXDXDXDXDXDXDXDXDXDXDXDXDXDXDXDXDXDXDXDXDXDXDXDXDXDXDX",
"DXDXDXDXDXDXDXDXDXDXDXDXDXDXDXDXDXDXDXDXDXDXDXDXDXDXDXDXDXDXDXDXDXDXDXDXDXDXDXDXDXDXDXDXDXDXDXDXDXDXDXDXDXDXDXDXDXDXDXDXDXDXDXDX",
"DXDXDXDXDXDXDXDXDXDXDXDXDXDXDXDXDXDXDXDXDXDXDXDXDXDXDXDXDXDXDXDXDXDXDXDXDXDXDXDXDXDXDXDXDXDXDXDXDXDXDXDXDXDXDXDXDXDXDXDXDXDXDXDX",
"DXDXDXDXDXDXDXDXDXDXDXDXDXDXDXDXDXDXDXDXDXDXDXDXDXDXDXDXDXDXSXDXDXDXDXDXDXDXDXDXDXDXDXDXDXDXDXDXDXDXDXDXDXDXDXDXDXDXDXDXDXDXDXDX",
"DXDXDXDXDXDXDXDXDXDXDXDXDXDXDXDXDXDXDXDXDXDXDXDXDXDXDXDXDXDXSXDXDXDXDXDXDXDXDXDXDXDXDXDXDXDXDXDXDXDXDXDXDXDXDXDXDXDXDXDXDXDXDXDX",
"DXDXDXDXDXDXDXDXDXDXDXDXDXDXDXDXDXDXDXDXDXDXDXDXDXDXDXDXDXDXSXDXDXDXDXDXDXDXDXDXDXDXDXDXDXDXDXDXDXDXDXDXDXDXDXDXDXDXDXDXDXDXDXDX",
"DXDXDXDXDXDXDXDXDXDXDXDXDXDX  DXDXDXDXDXDXDXDXDXDXDXDXDXDXSXDXDXDXDXDXDXDXDXDXDXDXDXDXDXDXDXDXDXDXDXDXDXDXDXDXDXDXDXDXDXDXDXDXDX",
"DXDXDXDXDXDXDXDXDXDXDXDXDX      DXDXDXDXDXDXDXDXDXDXDXDXDXSXDXDXDXDX                          @.DXDXDXDXDXDXDXDXDXDXDXDXDXDXDXDX",
"DXDXDXDXDXDXDXDXDXDXDXDX          DXDXDXDXDXDXDXDXDXDXDXSXSXDXDXDX                            Z DXDXDXDXDXDXDXDXDXDXDXDXDXDXDXDX",
"DXDXDXDXDXDXDXDXDXDXDX      &     DXDXDXDXDXDXDXDXDXDXDXSXSXDXDXDX      e e e e e e e e q     DXDXDXDXDXDXDXDXDXDXDXDXDXDXDXDXDX",
"DXDXDXDXDXDXDXDXDXDXDX    v ].8     DXDXDXDXDXDXDXDXDXSXSXSXDXDXDX    g MXMXMXMXMXMXMXMX;X    DXDXDXDXDXDXDXDXDXDXDXDXDXDXDXDXDX",
"DXDXDXDXDXDXDXDXDXDX    8  XMXJ.%     DXDXDXDXDXDXDXDXSXSXSXDXDXDX    a MXMXMXMXMXMXMXMX;X    DXDXDXDXDXDXDXDXDXDXDXDXDXDXDXDXDX",
"DXDXDXDXDXDXDXDXDX      H.MXMXMXz.      DXDXDXDXDXDXSXSXSXSXDXDXDX    a MXMXMXMXMXMXMXMX;X    DXDXDXDXDXDXDXDXDXDXDXDXDXDXDXDXDX",
"DXDXDXDXDXDXDXDX      k.MXMXMXMXMXX.      DXDXDXDXDXSXSXSXSXDXDXDX    a MXMXMXMXMXMXMXbX%X    DXDXDXDXDXDXDXDXDXDXDXDXDXDXDXDXDX",
"DXDXDXDXDXDXDX      ..MXMXMXMXMXBX6XB     DXDXDXDXSXSXSXSXDXDXDXDX    s MXMXMXMXMXMXMXbX>X    DXDXDXDXDXDXDXDXDXDXDXDXDXDXDXDXDX",
"DXDXDXDXDXDXDX    m wXMXMXMXMXMXMXMXOXy     DXDXDXSXSXSXSXDXDXDXDX    a MXMXMXMXMXbXbXbX;X    DXDXDXDXDXDXDXDXDXDXDXDXDXDXDXDXDX",
"DXDXDXDXDXDX    e %XMXMXMXMXMXMXMXMXMXI.&     DXSXSXSXSXSXDXDXDXDX    a MXMXMXMXMXbXbXbX;X    DXDXDXDXDXDXDXDXDXDXDXDXDXDXDXDXDX",
"DXDXDXDXDX    = P.MXMXMXMXMXMXMXMXMXMXMXM.    w aXSXSXSXSXDXDXDXDX    a MXMXMXbXbXbXbXMX;X    DXDXDXDXDXDXDXDXDXDXDXDXDXDXDXDXDX",
"DXDXDXDX      n.MXMXMXMXMXMXMXMXMXMXMXMXMX*.    F AXSXSXSXDXDXDXDX    a MXMXMXbXbXbXbXMX;X    DXDXDXDXDXDXDXDXDXDXDXDXDXDXDXDXDX",
"DXDXDX      %.MXMXMXMXMXMXMXMXMXMXMXMXMXMXMX!     -.SXSXSXDXDXDXDX    a MXbXbXbXbXbXbXMX;X    DXDXDXDXDXDXDXDXDXDXDXDXDXDXDXDXDX",
"DXDX      V rXMXMXMXMXMXMXMXMXMXMXMXMXMXMXBX1Xz     A.SXSXDXDXDXDX    a MXbXbXbXbXbXMXMX;X    DXDXDXDXDXDXDXDXDXDXDXt.t.DXDXDXDX",
"DXDX    , G.'.`.].[.MXMXMXMXMXMXMXMXrX'.].].].B.    - !.SXDXDXDXDX    a bXbXbXbXbXbXMXMX;X    DXDXDXDXDXDXDXDXDXDXt.t.DXDXDXDXDX",
"DX                e MXMXMXMXMXMXMXMX;X                d iXDXDXDXDX    g bXbXbXbXbXbXMXMX;X    DXDXDXDXDXDXDXDXDXt.t.DXDXDXDXDXDX",
"                  e MXMXMXMXMXMXMXMX;X                  Z DXDXDXDXC   g MXbXbXbXbXbXMXMX;X    DXDXDXDXDXDXDXt.t.t.DXDXDXDXDXDXDX",
"DXDXDXDXDXDXDX    e MXMXMXMXMXMXMXMX>X    [ Z.Z.Z.Z.Z.Z.Z.DXDXDXuXF   g bXbXbXbXMXMXMXMX;X    DXDXDXDXDXDXt.t.t.DXDXDXDXDXDXDXDX",
"DXDXDXDXDXDXDX    e MXMXMXMXMXMXMXBX>X    :.SXSXSXSXSXSXSXDXDXuXuXF   g bXbXbXbXMXMXMXMX;X    DXDXDXDXt.t.t.t.DXDXDXDXDXDXDXDXDX",
"DXDXDXDXDXDXDX    e MXMXMXMXMXMXBXBX>X    :.SXSXSXSXSXSXCXtXuXuXuXF   g bXbXbXbXMXMXMXMX;X    DXDXt.t.t.t.t.t.DXDXDXDXDXDXDXDXDX",
"DXDXDXDXDXDXDX    e MXMXMXMXMXMXBXBX>X    :.SXSXSXSXSXiXE.^.uXuXuXF   g bXbXbXbXMXMXMXMX;X    K t.t.t.t.t.t.DXDXDXDXDXDXDXDXDXDX",
"DXDXDXDXDXDXDX    e MXMXMXMXMXBXBXBX>X    :.SXSXSXAX(.Y.Y.W.uXuXuXF   g bXbXbXbXMXMXMXMX;X    W t.t.t.t.t.DXDXDXDXDXDXDXDXDXDXDX",
"DXDXDXDXDXDXDX    e MXMXMXMXBXBXBXBX>X    :.SXSXiXE.Y.Y.Y.R.uXuXuXF   g bXbXbXbXMXMXnXjX.X    W t.t.t.t.DXDXDXDXDXDXDXDXDXDXDXDX",
"DXDXDXDXDXDXDX    e MXMXMXMXBXBXBXBX>X    :.sX~.Y.Y.Y.Y.Y.Y.tXuXuXF   g bXbXbXMXjXhX7X9X@X    W t.t.t.t.DXDXDXDXDXDXDXDXDXDXDXDX",
"DXDXDXDXDXDXDX    e MXMXBXBXBXBXBXBX:X    $.T.Y.Y.Y.Y.Y.Y.Y.tXuXuXF   g bXjXjXhX7X7X7X7X@X    W t.t.t.DXDXDXDXDXDXDXDXDXDXDXDXDX",
"DXDXDXDXDXDXDX    e MXBXBXBXBXBXBXMX:X    #.Y.Y.Y.Y.Y.Y.Y.Y.(.uXuXF   g hX7X7X7X7X7X7X7X@X    W t.t.DXDXDXDXDXDXDXDXDXDXDXDXDXDX",
"DXDXDXDXDXDXDX    y BXBXBXBXBXBXBXbX:X    #.Y.Y.Y.Y.Y.Y.Y.Y.Q._.C.I   s 7X7X7X7X7X7X7X7X@X    W t.t.DXDXDXDXDXDXDXDXDXDXDXDXDXDX",
"DXDXDXDXDXDXDX<   e BXBXBXBXBXbXbXbX%X    #.Y.T.Y.Y.Y.U.g.h.s.t.t.H   g 7X7X7X7X7X7X7X7X@X    W t.DXDXDXDXDXDXDXDXDXDXDXDXDXDXDX",
"DXDXDXDXDXDXDX[   e BXBXbXwXbXbXbXbX%X    #.S.g.j.f.d.u.t.t.t.t.t.H   s 7X7X7X7X7X7X7X7X@X    E t.DXDXDXDXDXDXDXDXDXDXDXDXDXDXDX",
"DXDXDXDXDXDXSX|   y bXbXbXbXhXhXhXfX@X    U t.t.t.t.t.t.t.t.t.t.t.H   s 7X7X7X7X7X7X7X7X@X    E DXDXDXDXDXDXDXDXDXDXDXDXDXDXDXDX",
"DXDXDXDXSXSXZX_   e bXrXbXrX7X7X7X7X@X    T t.t.t.t.t.t.t.t.t.t.t.H   s 7X7X7X7X7X7X7X7X@X    L DXDXDXDXDXDXDXDXDXDXDXDXDXDXDXDX",
"DXDXDXSXSXSXSXS   q bXbXbXhXfX7X7XfX@X    U t.t.t.t.t.t.t.t.t.t.t.H   s 7X7X7X7X7X7X7X7X@X    DXDXDXDXDXDXDXDXDXDXDXDXDXDXDXDXDX",
"DXSXSXSXSXSXSX_   e bXrXbXbXfX7X7X7X#X    T t.t.t.t.t.t.t.t.t.t.t.H   s 7X7X7X7X7X7X7X7X@X    DXDXDXDXDXDXDXDXDXDXDXDXDXDXDXDXDX",
"SXSXSXSXSXSXSX`   y bXbXbXrX7X7X7X7X@X    E t.t.t.t.t.t.t.t.t.t.t.H   s 7X7X7X7X7X7X7X7X@X    DXDXDXDXDXDXDXDXDXDXDXDXDXDXDXDXDX",
"DXSXSXSXSXSXSX|   e bXrXbXbX7X7X7X7X@X    U t.t.t.t.t.t.t.t.t.t.t.H   s 7X7X7X7X7X7X7X7X@X    DXDXDXDXDXDXDXDXDXDXDXDXDXDXDXDXDX",
"DXSXSXSXSXSXSX|   q bXbXrXbXfX7X7X7X@X    T t.t.t.9.5.5.5.5.5.5.5.l   s 7X7X7X7X7X7X7X7X@X      DXDXDXDXDXDXDXDXDXDXDXDXDXDXDXDX",
"DXDXSXSXSXSXSX|   y bXbXbXjX7X7X7X7X@X    T t.t.t.5.$                 s 7X7X7X7X7X7X7X7XoX                    DXDXDXDXDXDXDXDXDX",
"DXDXDXSXSXSXSX|   e bXrXjXBXfX7X7X7X@X    T t.t.t.t.,.                s 7X7X7X7X7X7X7X7XOX                  DXDXDXDXDXDXDXDXDXDX",
"DXDXDXSXSXSXSX|   y bXbXbXbXfX7X7X7X@X    T t.t.t.t.t.U     2 x.v.v.v.N.7X7X7X7X7X7X7X7X3Xb.b.b.b.;.      DXDXDXDXDXDXDXDXDXDXDX",
"DXDXDXDXSXSXSX|   e rXrXbXjX7X7X7X7X@X    U t.t.t.t.t.t.G     &.7X7X7X7X7X7X7X7X7X7X7X9XBXMXMXMX6XB     DXDXDXDXDXDXDXDXDXDXDXDX",
"DXDXDXDXDXSXSX|   e bXrXbXbXfX7X7X7X#X    E t.t.t.t.t.t.q.h     m.7X7X7X7X7X7X7X7X7X9XjXMXMXMXMXO.      DXDXDXDXDXDXDXDXDXDXDXDX",
"DXDXDXDXDXSXSX|   u bXrXbXwX7X7X7X7X#X    T t.t.t.t.t.t.t.7.>   & L.7X7X7X7X7X7X7X7X7XjXMXMXMXc.      DXDXDXDXDXDXDXDXDXDXDXDXDX",
"DXDXDXDXDXDXSX|   u bXbXjXbXfX7X7X7X@X    T t.t.t.t.t.t.t.t.<.    u .X7X7X7X7X7X7X7X9XnXMXMXK.%     DXDXDXDXDXDXDXDXDXDXDXDXDXDX",
"DXDXDXDXDXDXSX|   e MXbXbXbX7X7X7X7X@X    T t.t.t.t.t.t.t.t.t.E     N 2X7X7X7X7X7X7X9XMXMXXXw     DXDXDXDXDXDXDXDXDXDXDXDXDXDXDX",
"DXDXDXDXDXDXDX[   y bXbXbXbX7X7X7X7X@X    T t.t.t.t.t.t.t.t.t.t.K     O.7X7X7X7X7X7X9XnX4Xb     DXDXDXDXDXDXDXDXDXDXDXDXDXDXDXDX",
"DXDXDXDXDXDXDXc   e bXbXrXbX7X7X7X7X@X    U t.t.t.t.t.t.t.t.t.t.w.j     l.7X7X7X7X7XjXMX .      DXDXDXDXDXDXDXDXDXDXDXDXDXDXDXDX",
"DXDXDXDXDXDXDX    e bXbXbXrXfX7X7X7X@X    T t.t.t.t.t.t.t.t.t.t.t.9.3   % F.7X7X9X9XjX;.      DXDXDXDXDXDXDXDXDXDXDXDXDXDXDXDXDX",
"DXDXDXDXDXDXDX    y bXbXbXbX7X7X7X7X@X    T t.t.t.t.t.t.t.t.t.t.t.t.2.    0 |.7X7X9XD.      DXDXDXDXDXDXDXDXDXDXDXDXDXDXDXDXDXDX",
"DXDXDXDXDXDXDX    e BXBXbXbX7X7X7X7X@X    T t.t.t.t.t.t.t.t.t.t.t.t.t.Q     n <X7X{.,     DXDXDXDXDXDXDXDXDXDXDXDXDXDXDXDXDXDXDX",
"DXDXDXDXDXDXDX    e BXBXbXbX7X7X7X7X@X    T t.t.t.t.t.t.t.t.t.t.t.t.t.t.P     ] ,Xx     DXDXDXDXDXDXDXDXDXDXDXDXDXDXDXDXDXDXDXDX",
"DXDXDXDXDXDXDX    & ( ) ( ( / ^ ( ^ ~     T t.t.t.t.t.t.t.t.t.t.t.t.t.t.e.k     p       DXDXDXDXDXDXDXDXDXDXDXDXDXDXDXDXDXDXDXDX",
"DXDXDXDXDXDXDX                            T t.t.t.t.t.t.t.t.t.t.t.t.t.t.t.0.4         DXDXDXDXDXDXDXDXDXDXDXDXDXDXDXDXDXDXDXDXDX",
"DXDXDXDXDXDXDX        $ d i 7 7 6 6 6 6 6 Q t.t.t.t.t.t.t.t.t.t.t.t.t.t.t.t.3.$   4 DXDXDXDXDXDXDXDXDXDXDXDXDXDXDXDXDXDXDXDXDXDX",
"DXDXDXDXDXDXDXDXDXDXDXDXDX(.p.t.t.t.t.t.t.t.t.t.t.t.t.t.t.t.t.t.t.t.t.t.t.t.t.>.; 1.DXDXDXDXDXDXDXDXDXDXDXDXDXDXDXDXDXDXDXDXDXDX",
"DXDXDXDXDXDXDXDXDXDXDXDXDXuXp.t.t.t.t.t.t.t.t.t.t.t.t.t.t.t.t.t.t.t.t.t.t.t.t.t.6.DXDXDXDXDXDXDXDXDXDXDXDXDXDXDXDXDXDXDXDXDXDXDX",
"DXDXDXDXDXDXDXDXDXDXDXDXDXDXp.t.t.t.t.t.t.t.t.t.t.t.t.t.t.t.t.t.t.t.t.t.t.t.t.t.t.DXDXDXDXDXDXDXDXDXDXDXDXDXDXDXDXDXDXDXDXDXDXDX"
};
