/* XPM */
static const char *szarp16_xpm[] = {
/* columns rows colors chars-per-pixel */
"16 16 35 1",
"  c #BF5C69",
". c #BE5C6A",
"X c #BE5D6A",
"o c #BE5E6B",
"O c #DB001B",
"+ c #DB011C",
"@ c #D90721",
"# c #DA0520",
"$ c #D9172F",
"% c #D21C33",
"& c #D81A32",
"* c #CC3144",
"= c #C15C69",
"- c #D15F6E",
"; c #C9606E",
": c #B67B84",
"> c #B78B92",
", c #A7A8AA",
"< c #A8A9AB",
"1 c #AAABAD",
"2 c #B1B2B3",
"3 c #B5B6B7",
"4 c #B6B7B8",
"5 c #B8B9BB",
"6 c #C0C1C2",
"7 c #C2C3C5",
"8 c #C6C7C8",
"9 c #D4D5D5",
"0 c #D6D7D7",
"q c #D8D9DA",
"w c #DDDEDE",
"e c #DFE0E0",
"r c #E3E4E4",
"t c gray100",
"y c None",
/* pixels */
"yyyyyyyryyyyyyyy",
"yyyyyyyryyyy8yyy",
"yyyyyyrryyy88yyy",
"yyyyyyrryy88yyyy",
"yyyyyrrry888yyyO",
"yyyyrrrr888yyOOO",
"yyyyrrr0888yOOOy",
"yyyrrw5488$OOOyy",
"yrrw71,>-&OOOyyy",
"rq4:*%#OOOOOOyyy",
"re,oOOOOOOOOyyyy",
"rr2oOOOOOOOOyyyy",
"yr6oOOOOOOOOyyyy",
"yr0 OOOOOO+yyyyy",
"yyr OOOOOO#yyyyy",
"yyr=+++OOOOyyyyy"
};
