/* XPM */
/* 
  SZARP: SCADA software 
  Copyright (C) 1994-2008  PRATERM S.A.

  This program is free software; you can redistribute it and/or modify
  it under the terms of the GNU General Public License as published by
  the Free Software Foundation; either version 2 of the License, or
  (at your option) any later version.

  This program is distributed in the hope that it will be useful,
  but WITHOUT ANY WARRANTY; without even the implied warranty of
  MERCHANTABILITY or FITNESS FOR A PARTICULAR PURPOSE.  See the
  GNU General Public License for more details.

  You should have received a copy of the GNU General Public License
  along with this program; if not, write to the Free Software
  Foundation, Inc., 51 Franklin Street, Fifth Floor, Boston, MA  02110-1301, USA
*/
const static char *szarp64_xpm[] = {
/* columns rows colors chars-per-pixel */
"64 64 88 1",
"  c #DB001B",
". c #DB011C",
"X c #DB021C",
"o c #D90620",
"O c #D90822",
"+ c #DA0923",
"@ c #D9132B",
"# c #D12036",
"$ c #D12137",
"% c #D32137",
"& c #D02238",
"* c #D12238",
"= c #D02339",
"- c #D02439",
"; c #D0243A",
": c #CD2D41",
"> c #CA384B",
", c #C83F50",
"< c #BF5A68",
"1 c #BF5B68",
"2 c #B7737D",
"3 c #C64354",
"4 c #C34F5E",
"5 c #D3495B",
"6 c #D34D5E",
"7 c #C2505F",
"8 c #B67781",
"9 c #B47E86",
"0 c #AD9499",
"q c #A8A4A7",
"w c #A7A7A9",
"e c #A7A8AA",
"r c #A8A9AB",
"t c #A9AAAB",
"y c #A9AAAC",
"u c #AAABAD",
"i c #ABACAE",
"p c #ACADAF",
"a c #ADAEB0",
"s c #AEAFB0",
"d c #AEAFB1",
"f c #B0B1B3",
"g c #B3B4B5",
"h c #B3B4B6",
"j c #B4B5B6",
"k c #B4B5B7",
"l c #B5B6B8",
"z c #B8B9BB",
"x c #B9BABC",
"c c #BABBBC",
"v c #BBBCBD",
"b c #BBBCBE",
"n c #BCBDBE",
"m c #BDBEBF",
"M c #CD828C",
"N c #CD848E",
"B c #CC9099",
"V c #C8B8BB",
"C c #BEBFC0",
"Z c #C7BFC1",
"A c #BFC0C1",
"S c #C1C2C3",
"D c #C3C4C5",
"F c #C4C5C6",
"G c #C6C5C6",
"H c #C5C6C6",
"J c #C5C6C7",
"K c #C6C7C8",
"L c #C8C9C9",
"P c #C9CACB",
"I c #CBCCCE",
"U c #CCCDCD",
"Y c #CDCED0",
"T c #CECFD0",
"R c #CFD0D0",
"E c #D3D4D4",
"W c #D4D5D5",
"Q c #D7D8D8",
"! c #D9DADB",
"~ c #DADBDB",
"^ c #DBDCDC",
"/ c #DEDFDF",
"( c #DFE0E0",
") c #E0E1E1",
"_ c #E1E2E2",
"` c #E2E3E3",
"' c #E3E4E4",
"] c None",
/* pixels */
"]]]]]]]]]]]]]]]]]]]]]]]]]]]]]]]]]]]]]]]]]]]]]]]]]]]]]]]]]]]]]]]]",
"]]]]]]]]]]]]]]]]]]]]]]]]]]]]]]]]]]]]]]]]]]]]]]]]]]]]]]]]]]]]]]]]",
"]]]]]]]]]]]]]]]]]]]]]]]]]]]]]]]]]]]]]]]]]]]]]]]]]]]]]]]]]]]]]]]]",
"]]]]]]]]]]]]]]]]]]]]]]]]]]]]]]]]]]]]]]]]]]]]]]]]]]]]]]]]]]]]]]]]",
"]]]]]]]]]]]]]]]]]]]]]]]]]]]]]]']]]]]]]]]]]]]]]]]]]]]]]]]]]]]]]]]",
"]]]]]]]]]]]]]]]]]]]]]]]]]]]]]]']]]]]]]]]]]]]]]]]]]]]]]]]]]]]]]]]",
"]]]]]]]]]]]]]]]]]]]]]]]]]]]]]]']]]]]]]]]]]]]]]]]]]]]]]]]]]]]]]]]",
"]]]]]]]]]]]]]]]]]]]]]]]]]]]]]'']]]]]]]]]]]]]]]]]]]]]]]]]]]]]]]]]",
"]]]]]]]]]]]]]]]]]]]]]]]]]]]]]']]]]]]]]]]]]]]]]]]]]]]]]]]]]]]]]]]",
"]]]]]]]]]]]]]]]]]]]]]]]]]]]]]']]]]]]]]]]]]]]]]]]]]]]]]]]]]]]]]]]",
"]]]]]]]]]]]]]]]]]]]]]]]]]]]]'']]]]]]]]]]]]]]]]K]]]]]]]]]]]]]]]]]",
"]]]]]]]]]]]]]]]]]]]]]]]]]]]]'']]]]]]]]]]]]]]]]K]]]]]]]]]]]]]]]]]",
"]]]]]]]]]]]]]]]]]]]]]]]]]]]''']]]]]]]]]]]]]]]K]]]]]]]]]]]]]]]]]]",
"]]]]]]]]]]]]]]]]]]]]]]]]]]]''']]]]]]]]]]]]]]KK]]]]]]]]]]]]]]]]]]",
"]]]]]]]]]]]]]]]]]]]]]]]]]]'''']]]]]]]]]]]]]KK]]]]]]]]]]]]]]]]]]]",
"]]]]]]]]]]]]]]]]]]]]]]]]]''''']]]]]]]]]]]]]KK]]]]]]]]]]]]]]]]]]]",
"]]]]]]]]]]]]]]]]]]]]]]]]]''''']]]]]]]]]]]]KK]]]]]]]]]]]]]]]]]]]]",
"]]]]]]]]]]]]]]]]]]]]]]]]''''']]]]]]]]]]]]KKK]]]]]]]]]]]]]]]]]]]]",
"]]]]]]]]]]]]]]]]]]]]]]]]''''']]]]]]]]]]]KKKK]]]]]]]]]]]]]]]]]]]]",
"]]]]]]]]]]]]]]]]]]]]]]]'''''']]]]]]]]]]KKKK]]]]]]]]]]]]]]]]]] ]]",
"]]]]]]]]]]]]]]]]]]]]]]''''''']]]]]]]]]KKKKK]]]]]]]]]]]]]]]]] ]]]",
"]]]]]]]]]]]]]]]]]]]]]'''''''']]]]]]]]KKKKK]]]]]]]]]]]]]]]]] ]]]]",
"]]]]]]]]]]]]]]]]]]]]]'''''''']]]]]]]KKKKKK]]]]]]]]]]]]]]]  ]]]]]",
"]]]]]]]]]]]]]]]]]]]]''''''''']]]]]]KKKKKKK]]]]]]]]]]]]]]  ]]]]]]",
"]]]]]]]]]]]]]]]]]]]'''''''''']]]]KKKKKKKK]]]]]]]]]]]]]]  ]]]]]]]",
"]]]]]]]]]]]]]]]]]]''''''''''']]]KKKKKKKKK]]]]]]]]]]]]    ]]]]]]]",
"]]]]]]]]]]]]]]]]]]'''''''''''']KKKKKKKKKK]]]]]]]]]]     ]]]]]]]]",
"]]]]]]]]]]]]]]]]]'''''''''''_LKKKKKKKKKK]]]]]]]]]]     ]]]]]]]]]",
"]]]]]]]]]]]]]]]]'''''''''''WdfKKKKKKKKKK]]]]]]]]      ]]]]]]]]]]",
"]]]]]]]]]]]]]]]''''''''''`CreiKKKKKKKKKK]]]]]]        ]]]]]]]]]]",
"]]]]]]]]]]]]]]''''''''''EseeeeFKKKKKKKKK]]]]         ]]]]]]]]]]]",
"]]]]]]]]]]]]]'''''''''^zeeeeeeAKKKKKKKK]]]          ]]]]]]]]]]]]",
"]]]]]]]]]]]]''''''''(mreeeeeeexKKKKKKZM@           ]]]]]]]]]]]]]",
"]]]]]]]]]]]'''''''`DueeeeeeeeejKKKGB5+             ]]]]]]]]]]]]]",
"]]]]]]]]]'''''''/SieeeeeeeeeeepVN6@               ]]]]]]]]]]]]]]",
"]]]]]]]]''''''Qcteeeeeeeeeeq97&X                 ]]]]]]]]]]]]]]]",
"]]]]]]]''''_Ugeeeeeeew081,&o                     ]]]]]]]]]]]]]]]",
"]]]]]]''(Plyee2<43>:#O                          ]]]]]]]]]]]]]]]]",
"]]]]'')greeeee;                                 ]]]]]]]]]]]]]]]]",
"]]]''''aeeeeee;                                ]]]]]]]]]]]]]]]]]",
"]''''''veeeeee;                                ]]]]]]]]]]]]]]]]]",
"'''''''Yeeeeee-                               ]]]]]]]]]]]]]]]]]]",
"]''''''_teeeee-                               ]]]]]]]]]]]]]]]]]]",
"]'''''''heeeee-                              ]]]]]]]]]]]]]]]]]]]",
"]]''''''Feeeee=                              ]]]]]]]]]]]]]]]]]]]",
"]]]'''''!eeeee=                              ]]]]]]]]]]]]]]]]]]]",
"]]]''''''aeeee=                             ]]]]]]]]]]]]]]]]]]]]",
"]]]]'''''beeee=                             ]]]]]]]]]]]]]]]]]]]]",
"]]]]]''''Teeee&                             ]]]]]]]]]]]]]]]]]]]]",
"]]]]]''''_yeee&                             ]]]]]]]]]]]]]]]]]]]]",
"]]]]]]''''jeee&                            ]]]]]]]]]]]]]]]]]]]]]",
"]]]]]]''''Heee*                            ]]]]]]]]]]]]]]]]]]]]]",
"]]]]]]]'''~eee*                            ]]]]]]]]]]]]]]]]]]]]]",
"]]]]]]]]'''aee*                            ]]]]]]]]]]]]]]]]]]]]]",
"]]]]]]]]'''bee$                            ]]]]]]]]]]]]]]]]]]]]]",
"]]]]]]]]]''Ree$                            ]]]]]]]]]]]]]]]]]]]]]",
"]]]]]]]]]]'_ye$                           ]]]]]]]]]]]]]]]]]]]]]]",
"]]]]]]]]]]''ke#                           ]]]]]]]]]]]]]]]]]]]]]]",
"]]]]]]]]]]]'Je#                           ]]]]]]]]]]]]]]]]]]]]]]",
"]]]]]]]]]]]'~e#                           ]]]]]]]]]]]]]]]]]]]]]]",
"]]]]]]]]]]]]'s#                           ]]]]]]]]]]]]]]]]]]]]]]",
"]]]]]]]]]]]]]n#                           ]]]]]]]]]]]]]]]]]]]]]]",
"]]]]]]]]]]]]]I#                           ]]]]]]]]]]]]]]]]]]]]]]",
"]]]]]]]]]]]]]]%..                         ]]]]]]]]]]]]]]]]]]]]]]"
};
