/* XPM */
static const char * szast_xpm[] = {
"32 32 260 2",
"  	c None",
". 	c #4C5B74",
"+ 	c #4E596D",
"@ 	c #535D6E",
"# 	c #556071",
"$ 	c #525E73",
"% 	c #495972",
"& 	c #4C5D7A",
"* 	c #58606E",
"= 	c #7C7B7B",
"- 	c #8E8F8F",
"; 	c #97999C",
"> 	c #9A9DA4",
", 	c #8D919C",
"' 	c #58657A",
") 	c #4D5E7A",
"! 	c #596373",
"~ 	c #797A7D",
"{ 	c #9A9B9C",
"] 	c #A3A6AC",
"^ 	c #AEB1BA",
"/ 	c #8A8F9B",
"( 	c #4E5C74",
"_ 	c #48556B",
": 	c #64686F",
"< 	c #9C9D9F",
"[ 	c #AEB0B6",
"} 	c #9B9FA9",
"| 	c #60697B",
"1 	c #4D5D78",
"2 	c #465267",
"3 	c #929394",
"4 	c #B4B5B8",
"5 	c #9DA1A7",
"6 	c #6E7480",
"7 	c #434F65",
"8 	c #5D636D",
"9 	c #6D7583",
"0 	c #56647C",
"a 	c #626B79",
"b 	c #B0B2B4",
"c 	c #A5A6A8",
"d 	c #8D9093",
"e 	c #7E818A",
"f 	c #4A5466",
"g 	c #5B6370",
"h 	c #939495",
"i 	c #9DA2A9",
"j 	c #838C9A",
"k 	c #646F81",
"l 	c #B0B3B9",
"m 	c #CACDD2",
"n 	c #525354",
"o 	c #333434",
"p 	c #696B6E",
"q 	c #595E6A",
"r 	c #4D5B73",
"s 	c #727376",
"t 	c #A9ABAF",
"u 	c #C2C5CA",
"v 	c #D1D2D3",
"w 	c #FCFCFC",
"x 	c #B7B9BC",
"y 	c #252525",
"z 	c #161616",
"A 	c #434649",
"B 	c #4E5156",
"C 	c #424A59",
"D 	c #4F5B6F",
"E 	c #7F8184",
"F 	c #B2B5B9",
"G 	c #CACDD3",
"H 	c #FBFCFD",
"I 	c #8A8989",
"J 	c #0F0E0E",
"K 	c #000000",
"L 	c #4C525C",
"M 	c #7B7D7F",
"N 	c #383A40",
"O 	c #3A4250",
"P 	c #47556B",
"Q 	c #7E8287",
"R 	c #BABDC1",
"S 	c #CED2D7",
"T 	c #D9DADC",
"U 	c #7C7C7C",
"V 	c #42474E",
"W 	c #9B9FA6",
"X 	c #CDCECF",
"Y 	c #656667",
"Z 	c #2D3037",
"` 	c #435067",
" .	c #717478",
"..	c #9B9D9E",
"+.	c #999DA2",
"@.	c #C1C5CB",
"#.	c #FAFBFC",
"$.	c #EAEBEC",
"%.	c #C3C6CC",
"&.	c #C5C8CE",
"*.	c #C1C2C3",
"=.	c #595A5C",
"-.	c #34383F",
";.	c #374154",
">.	c #141617",
",.	c #3D434D",
"'.	c #616875",
").	c #8C919A",
"!.	c #CFD0D2",
"~.	c #D5D6D8",
"{.	c #9DA2AA",
"].	c #9DA2A8",
"^.	c #ADAFB0",
"/.	c #67696B",
"(.	c #4E4F54",
"_.	c #44393D",
":.	c #48505F",
"<.	c #6D727B",
"[.	c #9B9DA1",
"}.	c #888D94",
"|.	c #80858B",
"1.	c #8F9699",
"2.	c #9B7E7F",
"3.	c #BE4845",
"4.	c #3A2F2E",
"5.	c #3D434F",
"6.	c #6A6D74",
"7.	c #8E9399",
"8.	c #7E8D93",
"9.	c #CC8383",
"0.	c #F87060",
"a.	c #684823",
"b.	c #372F27",
"c.	c #565E64",
"d.	c #A3868B",
"e.	c #FF5B59",
"f.	c #B4614A",
"g.	c #785B29",
"h.	c #6C4D23",
"i.	c #3E3020",
"j.	c #251F1C",
"k.	c #7E2F30",
"l.	c #D32926",
"m.	c #4C3425",
"n.	c #785C33",
"o.	c #85602E",
"p.	c #543B1A",
"q.	c #3D2D1B",
"r.	c #241D16",
"s.	c #352B2E",
"t.	c #381A18",
"u.	c #201C15",
"v.	c #4E3B28",
"w.	c #826136",
"x.	c #6A4D25",
"y.	c #3D2B13",
"z.	c #302415",
"A.	c #261D15",
"B.	c #242728",
"C.	c #191413",
"D.	c #241B16",
"E.	c #533F2A",
"F.	c #886538",
"G.	c #6B4E25",
"H.	c #332410",
"I.	c #261C10",
"J.	c #271E16",
"K.	c #231F1C",
"L.	c #15110F",
"M.	c #241C16",
"N.	c #58442D",
"O.	c #8A673A",
"P.	c #6D4F25",
"Q.	c #2F210E",
"R.	c #1D150C",
"S.	c #251C14",
"T.	c #201912",
"U.	c #1E1913",
"V.	c #140F0D",
"W.	c #5B452E",
"X.	c #8B673A",
"Y.	c #6E5026",
"Z.	c #2F220F",
"`.	c #17110A",
" +	c #231A12",
".+	c #201811",
"++	c #1E1811",
"@+	c #14100E",
"#+	c #8A6739",
"$+	c #6F5026",
"%+	c #140E08",
"&+	c #211911",
"*+	c #1D1610",
"=+	c #130F0C",
"-+	c #58432D",
";+	c #896639",
">+	c #705127",
",+	c #30220F",
"'+	c #130E08",
")+	c #211810",
"!+	c #211A13",
"~+	c #1E1710",
"{+	c #231B16",
"]+	c #54402B",
"^+	c #866438",
"/+	c #725227",
"(+	c #302210",
"_+	c #171009",
":+	c #241B12",
"<+	c #1E160F",
"[+	c #1F1812",
"}+	c #15110E",
"|+	c #4F3C28",
"1+	c #826035",
"2+	c #735327",
"3+	c #251B0F",
"4+	c #271C13",
"5+	c #19140E",
"6+	c #15110D",
"7+	c #4A3826",
"8+	c #7C5C32",
"9+	c #715227",
"0+	c #483417",
"a+	c #45321B",
"b+	c #1D160F",
"c+	c #0C0A07",
"d+	c #251D17",
"e+	c #473624",
"f+	c #755630",
"g+	c #88622E",
"h+	c #6E4F24",
"i+	c #48341B",
"j+	c #251B12",
"k+	c #1D160E",
"l+	c #040403",
"m+	c #120E0C",
"n+	c #261D17",
"o+	c #453524",
"p+	c #6E522D",
"q+	c #5B4424",
"r+	c #3A2B19",
"s+	c #42301B",
"t+	c #020202",
"u+	c #100C0B",
"v+	c #261E17",
"w+	c #4C3926",
"x+	c #31261A",
"y+	c #040303",
"z+	c #5C421E",
"A+	c #483723",
"B+	c #0B0908",
"C+	c #3F3022",
"D+	c #4E3B22",
"E+	c #825E2C",
"F+	c #4A371F",
"G+	c #050404",
"H+	c #1B1611",
"I+	c #3C2E1F",
"J+	c #3D2E1B",
"K+	c #090704",
"                                                                ",
"    . + @ # $ %                                                 ",
"  & * = - ; > , '                                               ",
"    ) ! ~ { ] ^ / (                                             ",
"        _ : < [ } |                                             ",
"1         2 3 4 5 6 7                                           ",
"8 9 0     a b c d e f                                           ",
"g h i j k l m n o p q                                           ",
"r s t u v w x y z A B C                                         ",
"  D E F G H I J K L M N O                                       ",
"    P Q R S T U V W X Y Z                                       ",
"    `  ...+.@.#.$.%.&.*.=.-.                                    ",
"    ;.>.,.* '.).!.~.{.].^./.(._.                                ",
"                :.<.[.}.|.1.2.3.4.                              ",
"                    5.6.7.8.9.0.a.b.                            ",
"                        c.d.e.f.g.h.i.j.                        ",
"                          k.l.m.n.o.p.q.r.                      ",
"                          s.t.u.v.w.x.y.z.A.                    ",
"                            B.C.D.E.F.G.H.I.J.                  ",
"                              K.L.M.N.O.P.Q.R.S.T.              ",
"                                U.V.M.W.X.Y.Z.`. +.+            ",
"                                  ++@+M.W.#+$+Z.%+&+.+          ",
"                                    *+=+M.-+;+>+,+'+)+!+        ",
"        K K K K K K K                 ~+=+{+]+^+/+(+_+:+<+      ",
"  K K K K K K K K K K K                 [+}+{+|+1+2+,+3+4+*+    ",
"  K K K K K K K K K K K K K K             5+6+M.7+8+9+0+a+:+b+  ",
"  K K K K K K K K K K K K K K K K K K K K   c+=+d+e+f+g+h+i+j+k+",
"                  K K K K K K K K K K K K K K l+m+n+o+p+q+r+s+ +",
"                            K K K K K K K K K K t+u+v+w+x+y+z+A+",
"                                    K K K K K K K K B+d+C+D+E+F+",
"                                            K K K K K G+H+I+J+K+",
"                                                    K K K K     "};
