/* XPM */
static const char *szast_xpm[] = {
/* columns rows colors chars-per-pixel */
"64 64 223 2",
"   c #483C3E",
".  c #57353A",
"X  c #6F2B35",
"o  c #6D2C35",
"O  c #6D2D35",
"+  c #792832",
"@  c #3F3F40",
"#  c #403F40",
"$  c #733C44",
"%  c #414142",
"&  c #616162",
"*  c #636365",
"=  c #666667",
"-  c #676769",
";  c #686869",
":  c #69696A",
">  c #6C6C6D",
",  c #6C6D6D",
"<  c #6F6F70",
"1  c #727273",
"2  c #777779",
"3  c #7B7B7C",
"4  c #7B7C7D",
"5  c #7C7C7D",
"6  c #7D7E7F",
"7  c #B21125",
"8  c #CC061F",
"9  c #DB001B",
"0  c #DB011C",
"q  c #FF0000",
"w  c #FF0202",
"e  c #FF0707",
"r  c #FF0C0C",
"t  c #FF1313",
"y  c #FE1616",
"u  c #FE1919",
"i  c #C30A21",
"p  c #D4152D",
"a  c #D4162E",
"s  c #D4172F",
"d  c #D6162E",
"f  c #D4182F",
"g  c #D31830",
"h  c #D31930",
"j  c #D31A31",
"k  c #D31B32",
"l  c #D21C33",
"z  c #D21D34",
"x  c #D11F35",
"c  c #D21E34",
"v  c #D21E35",
"b  c #FE2626",
"n  c #FE2B2B",
"m  c #FE2C2C",
"M  c #FE3D3D",
"N  c #BF5A68",
"B  c #B8717B",
"V  c #C64354",
"C  c #C34E5E",
"Z  c #FD4747",
"A  c #FD4B4B",
"S  c #FD5757",
"D  c #FD5F5F",
"F  c #FD6464",
"G  c #FC7474",
"H  c #01807F",
"J  c #03817E",
"K  c #07837C",
"L  c #06837D",
"P  c #04827E",
"I  c #09847B",
"U  c #0B857A",
"Y  c #0A857B",
"T  c #08847C",
"R  c #118877",
"E  c #128977",
"W  c #158A75",
"Q  c #148A76",
"!  c #1F8F70",
"~  c #1C8E72",
"^  c #188C74",
"/  c #25926D",
"(  c #27936C",
")  c #2D9669",
"_  c #2C966A",
"`  c #28946C",
"'  c #339966",
"]  c #329967",
"[  c #369B65",
"{  c #3B9D62",
"}  c #3A9D63",
"|  c #3D9E61",
" . c #3E9F61",
".. c #3C9E62",
"X. c #209070",
"o. c #41A05F",
"O. c #42A15F",
"+. c #57AB54",
"@. c #54AA56",
"#. c #5AAD53",
"$. c #5FAF50",
"%. c #63B14E",
"&. c #62B14F",
"*. c #6DB649",
"=. c #6EB749",
"-. c #72B947",
";. c #7ABD43",
":. c #7DBE41",
">. c #7FBF40",
",. c #7EBF41",
"<. c #40A060",
"1. c #85C23D",
"2. c #86C33D",
"3. c #8DC639",
"4. c #8FC738",
"5. c #88C43C",
"6. c #97CB34",
"7. c #96CB35",
"8. c #9ACD33",
"9. c #9ECF31",
"0. c #90C838",
"q. c #A2D12F",
"w. c #A9D42B",
"e. c #ACD62A",
"r. c #B2D927",
"t. c #BFDF20",
"y. c #BEDF21",
"u. c #A0D030",
"i. c #C3E11E",
"p. c #C4E21E",
"a. c #CFE718",
"s. c #C8E41C",
"d. c #D5EA15",
"f. c #D9EC13",
"g. c #DFEF10",
"h. c #DEEF11",
"j. c #DCEE12",
"k. c #D0E818",
"l. c #E5F20D",
"z. c #E4F20E",
"x. c #EAF50B",
"c. c #F1F807",
"v. c #F3F906",
"b. c #F2F907",
"n. c #F9FC03",
"m. c #FBFD02",
"M. c #FFFF00",
"N. c #FEFF01",
"B. c #F0F808",
"V. c #E0F010",
"C. c #C0E020",
"Z. c #80C040",
"A. c #008080",
"S. c #248C8C",
"D. c #3D9595",
"F. c #569F9F",
"G. c #818283",
"H. c #9C9D9D",
"J. c #9FA0A1",
"K. c #A7A8AA",
"L. c #A8A9AB",
"P. c #A9AAAB",
"I. c #ABACAE",
"U. c #ACADAE",
"Y. c #A5BABB",
"T. c #ABBCBD",
"R. c #AFBEBF",
"E. c #B1B2B4",
"W. c #B2B3B4",
"Q. c #B2B3B5",
"!. c #B5B6B7",
"~. c #B8B9BA",
"^. c #B8B9BB",
"/. c #B9BABB",
"(. c #FB9696",
"). c #FBA6A6",
"_. c #FBB2B2",
"`. c #BFC0C2",
"'. c #BFC3C4",
"]. c #C1C2C3",
"[. c #C1C2C4",
"{. c #C4C5C6",
"}. c #C6C7C8",
"|. c #C8C9C9",
" X c #C8C9CA",
".X c #CACBCC",
"XX c #CBCCCD",
"oX c #CDCECF",
"OX c #CECFD0",
"+X c #CFD0D1",
"@X c #D1D2D2",
"#X c #D2D2D3",
"$X c #D3D3D4",
"%X c #D5D5D6",
"&X c #D6D7D7",
"*X c #D5D6D8",
"=X c #D8D9D9",
"-X c #DDDEDE",
";X c #DEDFDF",
":X c #FAC0C0",
">X c #FACACA",
",X c #FACFCF",
"<X c #FAD0D0",
"1X c #FAD2D2",
"2X c #FAD9D9",
"3X c #DFE0E1",
"4X c #E0E1E1",
"5X c #E3E4E4",
"6X c #E5E5E6",
"7X c #E7E5E6",
"8X c #ECE4E4",
"9X c #E7E7E8",
"0X c #EBECEC",
"qX c #FAE1E1",
"wX c #FAE2E2",
"eX c #F9E7E7",
"rX c #F9E8E8",
"tX c #F9EDED",
"yX c #F1F1F1",
"uX c #F9F1F1",
"iX c #F9F3F3",
"pX c #F9F9F9",
"aX c None",
/* pixels */
"aXaXaXaXaXaXaXaXaXaXaXaXaXaXaXaXaXaXaXaXaXaXaXaXaXaXaXaXaXaXaXaXaXaXaXaXaXaXaXaXaXaXaXaXaXaXaXaXaXaXaXaXaXaXaXaXaXaXaXaXaXaXaXaX",
"aXaXaXaXaXaXaXaXaXaXaXaXaXaXaXaXaXaXaXaXaXaXaXaXaXaXaXaXaXaXaXaXaXaXaXaXaXaXaXaXaXaXaXaXaXaXaXaXaXaXaXaXaXaXaXaXaXaXaXaXaXaXaXaX",
"aXaXaXaXaXaXaXaXaXaXaXaXaXaXaXaXaXaXaXaXaXaXaXaXaXaXaXaXaXaXaXaXaXaXaXaXaXaXaXaXaXaXaXaXaXaXaXaXaXaXaXaXaXaXaXaXaXaXaXaXaXaXaXaX",
"aXaXaXaXaXaXaXaXaXaXaXaXaXaXaXaXaXaXaXaXaXaXaXaXaXaXaXaXaXaXaXaXaXaXaXaXaXaXaXaXaXaXaXaXaXaXaXaXaXaXaXaXaXaXaXaXaXaXaXaXaXaXaXaX",
"aXaXaXaXaXaXaXaXaXaXaXaXaXaXaXaXaXaXaXaXaXaXaXaXaXaXaXaXaXaX5XaXaXaXaXaXaXaXaXaXaXaXaXaXaXaXaXaXaXaXaXaXaXaXaXaXaXaXaXaXaXaXaXaX",
"aXaXaXaXaXaXaXaXaXaXaXaXaXaXaXaXaXaXaXaXaXaXaXaXaXaXaXaXaXaX5XaXaXaXaXaXaXaXaXaXaXaXaXaXaXaXaXaXaXaXaXaXaXaXaXaXaXaXaXaXaXaXaXaX",
"aXaXaXaXaXaXaXaXaXaXaXaXaXaXaXaXaXaXaXaXaXaXaXaXaXaXaXaXaXaX5XaXaXaXaXaXaXaXaXaXaXaXaXaXaXaXaXaXaXaXaXaXaXaXaXaXaXaXaXaXaXaXaXaX",
"aXaXaXaXaXaXaXaXaXaXaXaXaXaXaXaXaXaXaXaXaXaXaXaXaXaXaXaXaX5XaXaXaXaXaXaXaXaXaXaXaXaXaXaXaXaXaXaXaXaXaXaXaXaXaXaXaXaXaXaXaXaXaXaX",
"aXaXaXaXaXaXaXaXaXaXaXaXaXaXaXaXaXaXaXaXaXaXaXaXaXaXaXaXaX5XaXaXaXaXaXaXaXaXaXaXaXaXaXaXaXaXaXaXaXaXaXaXaXaXaXaXaXaXaXaXaXaXaXaX",
"aXaXaXaXaXaXaXaXaXaXaXaXaXaXaXaXaXaXaXaXaXaXaXaXaXaXaXaX5X5XaXaXaXaXaXaXaXaXaXaXaXaXaXaXaXaXaXaXaXaXaXaXaXaXaXaXaXaXaXaXaXaXaXaX",
"aXaXaXaXaXaXaXaXaXaXaXaXaXaXaXaXaXaXaXaXaXaXaXaXaXaXaXaX5X5XaXaXaXaXaXaXaXaXaXaXaXaXaXaXaXaX}.aXaXaXaXaXaXaXaXaXaXaXaXaXaXaXaXaX",
"aXaXaXaXaXaXaXaXaXaXaXaXaXaXaXaXaXaXaXaXaXaXaXaXaXaXaXaX5X5XaXaXaXaXaXaXaXaXaXaXaXaXaXaXaXaX}.aXaXaXaXaXaXaXaXaXaXaXaXaXaXaXaXaX",
"aXaXaXaXaXaXaXaXaXaXaXaXaXaXaXaXaXaXaXaXaXaXaXaXaXaXaX5X5X5XaXaXaXaXaXaXaXaXaXaXaXaXaXaXaX}.aXaXaXaXaXaXaXaXaXaXaXaXaXaXaXaXaXaX",
"aXaXaXaXaXaXaXaXaXaXaXaXaXaXaXaXaXaXaXaXaXaXaXaXaXaX5X5X5X5XaXaXaXaXaXaXaXaXaXaXaXaXaXaX}.}.aXaXaXaXaXaXaXaXaXaXaXaXaXaXaXaXaXaX",
"aXaXaXaXaXaXaXaXaXaXaXaXaXaXaXaXaXaXaXaXaXaXaXaXaXaX5X5X5X5XaXaXaXaXaXaXaXaXaXaXaXaXaX}.}.aXaXaXaXaXaXaXaXaXaXaXaXaXaXaXaXaXaXaX",
"aXaXaXaXaXaXaXaXaXaXaXaXaXaXaXaXaXaXaXaXaXaXaXaXaX5X5X5X5X5XaXaXaXaXaXaXaXaXaXaXaXaX}.}.}.aXaXaXaXaXaXaXaXaXaXaXaXaXaXaXaXaXaXaX",
"aXaXaXaXaXaXaXaXaXaXaXaXaXaXaXaXaXaXaXaXaXaXaXaXaX5X5X5X5XaXaXaXaXaXaXaXaXaXaXaXaXaX}.}.aXaXaXaXaXaXaXaXaXaXaXaXaXaXaXaXaXaXaXaX",
"aXaXaXaXaXaXaXaXaXaXaXaXaXaXaXaXaXaXaXaXaXaXaXaX5X5X5X5X5XaXaXaXaXaXaXaXaXaXaXaXaX}.}.}.aXaXaXaXaXaXaXaXaXaXaXaXaXaXaXaXaXaXaXaX",
"aXaXaXaXaXaXaXaXaXaXaXaXaXaXaXaXaXaXaXaXaXaXaXaX5X5X5X5X5XaXaXaXaXaXaXaXaXaXaXaX}.}.}.aXaXaXaXaXaXaXaXaXaXaXaXaXaXaXaXaXaXaXaXaX",
"aXaXaXaXaXaXaXaXaXaXaXaXaXaXaXaXaXaXaXaXaXaXaX5X5X5X5X5X5XaXaXaXaXaXaXaXaXaXaX}.}.}.}.aXaXaXaXaXaXaXaXaXaXaXaXaXaXaXaXaXaXaXaXaX",
"aXaXaXaXaXaXaXaXaXaXaXaXaXaXaXaXaXaXaXaXaXaX5X5X5X5X5X5X5XaXaXaXaXaXaXaXaXaX}.}.}.}.}.aXaXaXaXaXaXaXaXaXaXaXaXaXaXaXaXaX9 aXaXaX",
"aXaXaXaXaXaXaXaXaXaXaXaXaXaXaXaXaXaXaXaXaX5X5X5X5X5X5X5X5XaXaXaXaXaXaXaXaX}.}.}.}.}.aXaXaXaXaXaXaXaXaXaXaXaXaXaXaXaX9 9 aXaXaXaX",
"aXaXaXaXaXaXaXaXaXaXaXaXaXaXaXaXaXaXaXaXaX5X5X5X5X5X5X5X5XaXaXaXaXaXaXaX}.}.}.}.}.}.aXaXaXaXaXaXaXaXaXaXaXaXaXaXaX9 9 aXaXaXaXaX",
"aXaXaXaXaXaXaXaXaXaXaXaXaXaXaXaXaXaXaXaX5X5X5X5X5X5X5X5X5XaXaXaXaXaX}.}.}.}.}.}.}.aXaXaXaXaXaXaXaXaXaXaXaXaXaXaX9 9 aXaXaXaXaXaX",
"aXaXaXaXaXaXaXaXaXaXaXaXaXaXaXaXaXaXaX5X5X5X5X5X5X5X5X5X5XaXaXaXaX}.}.}.}.}.}.}.}.aXaXaXaXaXaXaXaXaXaXaXaXaX9 9 9 aXaXaXaXaXaXaX",
"aXaXaXaXaXaXaXaXaXaXaXaXaXaXaXaXaXaX5X5X5X5X5X5X5X5X5X5X5XaXaXaX}.}.}.}.}.}.}.}.}.aXaXaXaXaXaXaXaXaXaXaXaX9 9 9 aXaXaXaXaXaXaXaX",
"aXaXaXaXaXaXaXaXaXaXaXaXaXaXaXaXaX5X5X5X5X5X5X5X5X5X5X5X5XaXaX}.}.}.}.}.}.}.}.}.}.aXaXaXaXaXaXaXaXaXaX9 9 9 9 9 aXaXaXaXaXaXaXaX",
"aXaXaXaXaXaXaXaXaXaXaXaXaXaXaXaXaX5X5X5X5X5X5X5X5X5X5X5X4X}.}.}.}.}.}.}.}.}.}.}.aXaXaXaXaXaXaXaXaX9 9 9 9 9 9 aXaXaXaXaXaXaXaXaX",
"aXaXaXaXaXaXaXaXaXaXaXaXaXaXaXaX5X5XH.1 1 1 1 1 1 1 1 , & * : : : : : : : : : : % @ @ @ @ @ # . o o X X X o   @ @ @ @ @ @ @ @ aX",
"aXaXaXaXaXaXaXaXaXaXaXaXaXaXaX5X5X5X5 @ @ @ @ @ @ @ @ @ @ @ @ @ @ @ @ @ @ @ @ @ @ @ @ @ @ @ @ @ @ @ # # @ @ @ @ @ @ @ % @ @ @ @ ",
"aXaXaXaXaXaXaXaXaXaXaXaXaXaX5X5X5X5X5 @ 4 ~.~.~.~.~.~.~.~.~.~.~.~.~.~.~.~.~.~.~.~.~.~.~.~.~.~.~.~.~.~.~.~.~.~.~.~.~.~.~.~.2 @ @ ",
"aXaXaXaXaXaXaXaXaXaXaXaXaX5X5X5X5X5X5 @ G.{.{.{.{.{.{.{.{.{.{.{.{.{.{.{.{.{.{.{.{.{.{.{.{.{.{.{.{.{.{.{.{.{.{.{.{.{.{.{.{.5 @ @ ",
"aXaXaXaXaXaXaXaXaXaXaXaX5X5X5X5X5X5X4 @ G.{.{.{.{.{.{.{.{.{.{.{.{.{.{.{.{.{.{.{.{.{.{.{.{.{.{.{.{.{.{.{.{.{.{.{.{.{.{.{.{.6 % @ ",
"aXaXaXaXaXaXaXaXaXaXaX5X5X5X5X5X5X3X4 @ G.{.R.D.D.D.D.D.D.D.D.D.D.D.D.D.D.D.D.D.D.D.D.D.D.D.D.D.D.D.D.D.D.D.D.D.D.D.D.F.{.5 @ @ ",
"aXaXaXaXaXaXaXaXaX5X5X5X5X5X5X5X;X'.- @ G.{.Y.A.A.A.A.A.A.A.A.A.A.A.A.A.A.A.A.A.A.A.A.A.A.A.A.H A.A.A.A.A.A.A.A.A.A.A.S.{.6 @ @ ",
"aXaXaXaXaXaXaXaX5X5X5X5X5X5X*X^.K.K.=   G.{.Y.A.A.A.I X.X.X.X.X.E A.A.A.A.Q / A.A.A.A.A.A. .@.H A.A.A.A.A.A.A.A.A.A.A.S.{.5 @ @ ",
"aXaXaXaXaXaXaX5X5X5X5X3X.XW.K.K.K.K.= @ G.{.Y.A.A.A.o.N.N.N.N.N.7.A.A.&.k.N.5.A.A.A.A.A.3.i.q.p.A.A.A.A.#.w.e.=.=.^ A.S.{.6 @ @ ",
"aXaXaXaXaXaX5X5X3X|.!.P.K.K.B N C V $ @ G.{.Y.A.A.A.( p.O.<.O.v.,.A.A.u.9.l.5.A.A.A.A.T l.U H y.' A.A.8.N.f.r.v.N.+.A.S.{.6 @ @ ",
"aXaXaXaX5X5X3XQ.P.K.K.K.K.K.c 9 9 9 + @ G.{.Y.A.A.A.A.A.A.A. .N.) A.A.A.A.a.5.A.A.A.A.H f.! K d.! A.} N.-.A.A.) n.@.A.S.{.6 @ @ ",
"aXaXaX5X5X5X5XI.K.K.K.K.K.K.c 9 9 9 + @ G.{.Y.A.A.A.A.A.A.A.3.f.A.A.A.A.A.a.5.A.A.A.A.A.+.j.j.1.A.A.,.x.I A.A.A.O.U A.S.{.6 @ @ ",
"aX5X5X5X5X5X5X~.K.K.K.K.K.K.c 0 9 9 + @ G.{.Y.A.A.A.A.A.A.H l.1.A.A.A.A.A.a.5.A.A.A.A.A.A.K R A.A.A.8.y.A.A.A.A.H A.A.S.{.F..   ",
"5X5X5X5X5X5X5XoXK.K.K.K.K.K.c 9 9 9 + @ G.{.Y.A.A.A.A.A.A.} N.' A.A.A.A.A.a.5.A.A.A.A.A.A.A.A.A.A.A.Z.x.K A.A.A.A.A.A.S.{.5 @   ",
"aX5X5X5X5X5X5X3XK.K.K.K.K.K.c 9 9 9 + @ G.{.Y.A.A.A.A.A.A.3.j.H A.A.A.A.A.k.5.A.A.A.A.A.A.A.A.A.A.A...m.;.K A.A.;.` A.S.'.B @ @ ",
"aX5X5X5X5X5X5X5XW.K.K.K.K.K.c 9 9 9 + @ G.{.Y.A.A.A.A.A.A.f.5.H A.A.A.i.g.n.c.g.1.A.A.A.A.A.A.A.A.A.A.5.n.b.C.x.N.' A.S.'.2 @ @ ",
"aXaX5X5X5X5X5X5X'.K.K.K.K.K.l 9 9 9 + @ G.{.Y.A.A.A.A.A.A.} T A.A.A.A.%.Z.Z.Z.Z. .A.A.A.A.A.A.A.A.A.A.A.[ 1.8.$.R A.A.S.'.G.# # ",
"aXaXaX5X5X5X5X5X*XK.K.K.K.K.l 9 9 9 + @ G.{.Y.A.A.A.A.A.A.A.A.A.A.A.A.A.A.A.A.A.A.A.A.A.A.A.A.A.A.A.A.A.A.A.A.A.A.A.A.S.'.O.# # ",
"aXaXaX5X5X5X5X5X5XI.K.K.K.K.l 9 9 9 + @ G.{.Y.A.A.A.A.A.A.A.A.A.A.A.A.A.A.A.A.A.A.A.A.A.A.A.A.A.A.A.A.A.A.A.A.A.A.A.A.S.{.6 # # ",
"aXaXaXaX5X5X5X5X7X~.K.K.K.K.l 9 9 9 + @ G.{.'.Y.Y.Y.Y.Y.Y.Y.Y.Y.Y.Y.Y.Y.Y.Y.Y.Y.Y.Y.Y.Y.Y.Y.Y.Y.Y.Y.Y.T.Y.Y.Y.Y.Y.Q.Y.R.{.G.# # ",
"aXaXaXaXaX5X5X5X5XXXK.K.K.K.k 9 9 9 + @ G.{.{.{.{.{.{.{.{.{.{.{.{.{.{.{.{.{.{.{.{.{.{.{.{.{.{.{.{.{.{.{.{.{.{.{.{.{.{.{.{.6 # @ ",
"aXaXaXaXaX5X5X5X5X3XP.K.K.K.k 9 9 9 + @ G.{.{.{.{.{.{.{.{.{.{.{.{.{.{.{.{.{.{.{.{.{.{.{.{.{.{.{.{.{.{.{.{.{.{.{.{.{.{.{.{.5 @ @ ",
"aXaXaXaXaXaX5X5X5X5XW.K.K.K.k 9 9 9 + @ G.{.{.@X=X=X=X=X=X=X%X{.{.{.{.{.{.@X=X=X=X=X=X=X@X{.{.{.{.{.{.*X=X=X=X&X=X=X@X{.{.6 @ @ ",
"aXaXaXaXaXaX5X5X5X5X[.K.K.K.k 9 9 9 + @ G.{.{.9XiXtXiXiXtXiXyX{.{.{.{.{.{.0XpXpXtX<XpXpX0X{.{.{.{.{.{.yXpXpXpXpXpXpX7X{.{.6 @ @ ",
"aXaXaXaXaXaXaX5X5X5X*XK.K.K.f 9 9 9 + @ G.{.{.7XM w w w w A yX{.{.{.{.{.{.0XpXpXF n iXpX0X{.{.{.{.{.{.yX<Xb b b b pX5X{.{.6 @ @ ",
"aXaXaXaXaXaXaXaX5X5X5XI.K.K.f 9 9 9 + @ G.{.{.9X2Xr w w t qXyX{.{.{.{.{.{.0XpX_.w w G pX0X{.{.{.{.{.{.yX>Xw w w w pX9X{.{.6 @ @ ",
"aXaXaXaXaXaXaXaX5X5X5X/.K.K.f 9 9 9 + @ G.{.{.9XpX(.w w ).pXyX{.{.{.{.{.{.0XeXu w w w _.0X{.{.{.{.{.{.yX>Xw w w w pX7X{.{.6 @ @ ",
"aXaXaXaXaXaXaXaXaX5X4X.XK.K.k 9 9 9 + @ G.{.{.9XpXpXZ S pXpXyX{.{.{.{.{.{.0XD e e r r m 8X{.{.{.{.{.{.yX,Xy y y y pX7X{.{.6 @ @ ",
"aXaXaXaXaXaXaXaXaX5X5X3XL.K.k 9 9 9 + @ G.{.{.9XpXpXqXeXpXpXyX{.{.{.{.{.{.0XpXpXpXpXpXpX0X{.{.{.{.{.{.yXpXpXpXpXpXpX7X{.{.6 @ @ ",
"aXaXaXaXaXaXaXaXaXaX5X5XW.K.s 9 9 9 + @ G.{.{.OX$X$X$X$X$X$X@X{.{.{.{.{.{.OX$X@X$X$X$X$XOX{.{.{.{.{.{.@X$X$X$X$X$X@XoX{.{.4 @ @ ",
"aXaXaXaXaXaXaXaXaXaXaX5X].K.s 9 9 9 + @ G.{.{.{.{.{.{.{.{.{.{.{.{.[.{.{.{.{.{.{.{.{.{.{.{.[.{.{.{.{.{.{.{.{.{.{.{.{.{.{.{.6 @ @ ",
"aXaXaXaXaXaXaXaXaXaXaX5X%XK.s 9 9 9 + @ < J.J.J.J.J.J.J.J.J.J.J.K.H.J.J.J.H.H.K.J.J.J.J.K.H.J.J.J.J.J.J.J.J.J.J.J.J.J.J.J.> @ @ ",
"aXaXaXaXaXaXaXaXaXaXaXaX5XU.s 9 9 9 + @ @ @ @ @ @ @ @ @ @ @ @ @ @ @ @ @ @ @ @ @ @ @ @ @ @ @ @ @ @ @ @ @ @ @ @ @ @ @ @ @ @ @ @ @ ",
"aXaXaXaXaXaXaXaXaXaXaXaXaX~.s 9 9 9 + @ @ @ @ @ @ @ @ @ @ @ @ @ @ @ @ @ @ @ @ @ @ @ @ @ @ @ @ @ @ @ @ @ @ @ @ @ @ @ @ @ @ @ @ @ ",
"aXaXaXaXaXaXaXaXaXaXaXaXaX|.s 9 9 9 8 i i i i i i i i i i i i i i i i i i i i i i 7 aXaXaXaXaXaXaXaXaXaXaXaXaXaXaXaXaXaXaXaXaXaX",
"aXaXaXaXaXaXaXaXaXaXaXaXaXaXs 9 0 9 9 9 9 9 9 9 9 9 9 9 9 9 9 9 9 9 9 9 9 9 9 9 0 aXaXaXaXaXaXaXaXaXaXaXaXaXaXaXaXaXaXaXaXaXaXaX"
};
