/* XPM */
static char *szau_16_r180_xpm[] = {
/* columns rows colors chars-per-pixel */
"16 16 59 1",
"  c #DB001B",
". c #DB011B",
"X c #DB011C",
"o c #DC041D",
"O c #DA0520",
"+ c #D90721",
"@ c #D21C33",
"# c #D81A32",
"$ c #E0322A",
"% c #E2422F",
"& c #E34B31",
"* c #E44A31",
"= c #E65E37",
"- c #E7683A",
"; c #CC3144",
": c #BF5C69",
"> c #BE5C6A",
", c #BE5D6A",
"< c #BE5E6B",
"1 c #E97F40",
"2 c #C15C69",
"3 c #D15F6E",
"4 c #C9606E",
"5 c #EC9848",
"6 c #EFB751",
"7 c #F5ED60",
"8 c #F6EE61",
"9 c #F6F564",
"0 c #F7F864",
"q c #F6F965",
"w c #F7F965",
"e c #F7FB64",
"r c #F7FA65",
"t c #F6FB65",
"y c #F7FB65",
"u c #F7FC66",
"i c #F8FB64",
"p c #B67B84",
"a c #B78B92",
"s c #A7A8AA",
"d c #A8A9AB",
"f c #AAABAD",
"g c #B1B2B3",
"h c #B5B6B7",
"j c #B6B7B8",
"k c #B8B9BB",
"l c #EAEC80",
"z c #D4D6AB",
"x c #CBCDBC",
"c c #C0C1C2",
"v c #C2C3C5",
"b c #C6C7C8",
"n c #D4D5D5",
"m c #D6D7D7",
"M c #D8D9DA",
"N c #DDDEDE",
"B c #DFE0E0",
"V c #E3E4E4",
"C c None",
/* pixels */
"CCCCCCCCCCCCCCCC",
"CCCCCCCCCCCCCCCC",
"CCCCCCCVyyulCCCC",
"CCCCCCCCyyyyyCCC",
"CCCCCCVCCyyyyCCC",
"CCCCCVVCCxzyyqCC",
"CCCCVVVmbbCyywCC",
"CCCVVNkjbbC&ryyC",
"CCVNvfsa3# *ryyC",
"CMhp;@+    6yyeC",
"VBd<     %58yyCC",
"CVg,   .-7yyyiCC",
"CVc>   oyy0ytCCC",
"CCn:    r9=CCCCC",
"CCC2    1$OCCCCC",
"CCC4XXX   CCCCCC"
};
