/* XPM */
static const char *szau_16_xpm[] = {
/* columns rows colors chars-per-pixel */
"16 16 128 2",
"   c #DB001B",
".  c #DB011C",
"X  c #DA0520",
"o  c #D90721",
"O  c #D11E34",
"+  c #D81A32",
"@  c #D32B33",
"#  c #D83234",
"$  c #BB4449",
"%  c #BD4448",
"&  c #BF5F69",
"*  c #C84142",
"=  c #CB5349",
"-  c #DA5845",
";  c #C65B50",
":  c #C46655",
">  c #CA765B",
",  c #CB7D5D",
"<  c #D07557",
"1  c #C15C69",
"2  c #D15F6E",
"3  c #C9606E",
"4  c #A99878",
"5  c #D39C69",
"6  c #62EDBF",
"7  c #61EEBF",
"8  c #64EDBE",
"9  c #64EEBF",
"0  c #67EEBE",
"q  c #6CEDBB",
"w  c #68EEBD",
"e  c #69EEBD",
"r  c #72EFB9",
"t  c #71EFBA",
"y  c #72EFBA",
"u  c #78F0B6",
"i  c #79F0B7",
"p  c #7BF1B6",
"a  c #7AF0B7",
"s  c #4CE9C7",
"d  c #4CEBC7",
"f  c #4EEBC7",
"g  c #4FECC5",
"h  c #45EACA",
"j  c #57ECC3",
"k  c #54EAC4",
"l  c #51EDC6",
"z  c #55ECC4",
"x  c #54ECC5",
"c  c #56ECC4",
"v  c #59EDC3",
"b  c #5AEDC2",
"n  c #5DEDC1",
"m  c #5FEDC0",
"M  c #5EEDC1",
"N  c #5CEDC2",
"B  c #60EDC0",
"V  c #69E1CA",
"C  c #B78B92",
"Z  c #95B08D",
"A  c #A7A8AA",
"S  c #AAABAD",
"D  c #B6B7B8",
"F  c #B8B9BB",
"G  c #B6F29E",
"H  c #BAF79F",
"J  c #BBF79F",
"K  c #BCF79E",
"L  c #BFF89D",
"P  c #BEF89E",
"I  c #87E5AC",
"U  c #9FE7A2",
"Y  c #93F3AD",
"T  c #92F3AE",
"R  c #94F3AD",
"E  c #9BF1A9",
"W  c #9BF4AA",
"Q  c #9AF4AB",
"!  c #81F1B4",
"~  c #82F1B4",
"^  c #83F0B5",
"/  c #88F3B1",
"(  c #8BF2B0",
")  c #8AF2B1",
"_  c #B7E3AF",
"`  c #A3F5A7",
"'  c #ACF0A2",
"]  c #AAF5A5",
"[  c #ACF6A4",
"{  c #ADF6A4",
"}  c #A3F5A8",
"|  c #A7F3AC",
" . c #B2F6A2",
".. c #B3F6A2",
"X. c #B4F6A1",
"o. c #B5F7A1",
"O. c #B8F7A0",
"+. c #D4E18D",
"@. c #CFFA97",
"#. c #C5F79A",
"$. c #CDF198",
"%. c #C6F99A",
"&. c #C1F89C",
"*. c #C0F89D",
"=. c #C2F89C",
"-. c #C3F89C",
";. c #CBF899",
":. c #CAF999",
">. c #C8F99A",
",. c #C9F99A",
"<. c #D0FA97",
"1. c #C8DBA2",
"2. c #C2C5BF",
"3. c #D5EBB6",
"4. c #BCCBC6",
"5. c #A8D3C4",
"6. c #89EACC",
"7. c #9EECC7",
"8. c #C6C7C8",
"9. c #D4D5D5",
"0. c #D6D7D7",
"q. c #DDDEDE",
"w. c #D2E9D2",
"e. c #D0E8D7",
"r. c #DFE0DE",
"t. c #DBE5DF",
"y. c #E3E4E4",
"u. c None",
/* pixels */
"u.u.u.u.u.u.u.u.u.u.u.u.u.u.u.u.",
"u.u.u.u.u.u.u.6.u.u.u.u.u.u.u.u.",
"u.u.u.u.u.p y e B j g V u.u.u.u.",
"u.u.u.R ( ~ i t w m c f h u.u.u.",
"u.u.u.W T ) ^ 7.u.0 M z d u.u.u.",
"u.u.{ } Q e.t.u.u.4.5.n x s u.u.",
"u.u...] | y.y.0.8.8.u.9 N k u.u.",
"u.-.J  .w.q.F D 8.8.u.$ 8 b l u.",
"u.;.=.H _ S A C 2 +   % q 6 v u.",
"u.3.:.&.O.O o         Z r e 7 u.",
"y.r.$.,.*.> @     * 4 I a t u.u.",
"u.y.1.<.>.L G = : U Y ) ! u u.u.",
"u.y.2.+.@.%.P o.[ ` E T / u.u.u.",
"u.u.9.& - 5 #.K X.' ; u.u.u.u.u.",
"u.u.u.1     # < , @ X u.u.u.u.u.",
"u.u.u.3 . . .       u.u.u.u.u.u."
};
