/* XPM */
static const char *szau_16_r0_xpm[] = {
/* columns rows colors chars-per-pixel */
"16 16 33 1",
"  c #DB001B",
". c #DB011C",
"X c #DA0520",
"o c #D90721",
"O c #D21C33",
"+ c #D81A32",
"@ c #CC3144",
"# c #BF5C69",
"$ c #BE5C6A",
"% c #BE5D6A",
"& c #BE5E6B",
"* c #C15C69",
"= c #D15F6E",
"- c #C9606E",
"; c #B67B84",
": c #B78B92",
"> c #A7A8AA",
", c #A8A9AB",
"< c #AAABAD",
"1 c #B1B2B3",
"2 c #B5B6B7",
"3 c #B6B7B8",
"4 c #B8B9BB",
"5 c #C0C1C2",
"6 c #C2C3C5",
"7 c #C6C7C8",
"8 c #D4D5D5",
"9 c #D6D7D7",
"0 c #D8D9DA",
"q c #DDDEDE",
"w c #DFE0E0",
"e c #E3E4E4",
"r c None",
/* pixels */
"rrrrrrrrrrrrrrrr",
"rrrrrrrrrrrrrrrr",
"rrrrrrrerrrrrrrr",
"rrrrrrrrrrrrrrrr",
"rrrrrrerrr7rrrrr",
"rrrrreerr77rrrrr",
"rrrreee977rrr rr",
"rrreeq4377r  rrr",
"rreq6<>:=+   rrr",
"r02;@Oo     rrrr",
"ew,&        rrrr",
"re1%       rrrrr",
"re5$       rrrrr",
"rr8#      .rrrrr",
"rrr*      Xrrrrr",
"rrr-...   rrrrrr"
};
