/* XPM */
static const char *szau_16_r270_xpm[] = {
/* columns rows colors chars-per-pixel */
"16 16 61 1",
"  c #DB001B",
". c #DB011C",
"X c #DA0520",
"o c #D90721",
"O c #D21E34",
"+ c #D81A32",
"@ c #E02A27",
"# c #E0322A",
"$ c #E2422F",
"% c #E34B31",
"& c #E44A31",
"* c #E45434",
"= c #E55935",
"- c #E65E37",
"; c #E7683A",
": c #E8763E",
"> c #E8783E",
", c #C15C69",
"< c #C05F69",
"1 c #D15F6E",
"2 c #C9606E",
"3 c #EA8342",
"4 c #EC9848",
"5 c #ED9D49",
"6 c #EFB751",
"7 c #EEE266",
"8 c #F5ED60",
"9 c #F6EE61",
"0 c #EEF16D",
"q c #F6F463",
"w c #F6F564",
"e c #F7F864",
"r c #F6F965",
"t c #F7F965",
"y c #F7FB64",
"u c #F7FA65",
"i c #F6FB65",
"p c #F7FB65",
"a c #F7FC66",
"s c #F8FB64",
"d c #B78B92",
"f c #A7A8AA",
"g c #AAABAD",
"h c #B6B7B8",
"j c #B8B9BB",
"k c #D8DB87",
"l c #EAEC80",
"z c #E4E688",
"x c #E9EB9B",
"c c #D4D6AB",
"v c #C3C5BC",
"b c #CBCDBC",
"n c #E9EABF",
"m c #C6C7C8",
"M c #D4D5D5",
"N c #D6D7D7",
"B c #DDDEDE",
"V c #E0E0DE",
"C c #E4E5E0",
"Z c #E3E4E4",
"A c None",
/* pixels */
"AAAAAAAAAAAAAAAA",
"AAAAAAAAAAAAAAAA",
"AAAAAAAZppalAAAA",
"AAAAAAAApppppAAA",
"AAAAAAZAAppppAAA",
"AAAAAZZAAbcpprAA",
"AAAAZZZNmmApptAA",
"AAAnCBjhmmA%uppA",
"Apppzgfd1+ &uppA",
"AxpppOo    6ppyA",
"ZV0pp>@  $49ppAA",
"AZkpppq*;8pppsAA",
"AZv7ppppppepiAAA",
"AAM<=5uppw-AAAAA",
"AAA,  #:3#XAAAAA",
"AAA2...   AAAAAA"
};
