/* XPM */
static const char *szau_16_r45_xpm[] = {
/* columns rows colors chars-per-pixel */
"16 16 40 1",
"  c #DB001B",
". c #DB011C",
"X c #DA0520",
"o c #D90721",
"O c #D21C33",
"+ c #D81A32",
"@ c #CC3144",
"# c #BF5C69",
"$ c #BE5C6A",
"% c #BE5D6A",
"& c #BE5E6B",
"* c #C15C69",
"= c #D15F6E",
"- c #C9606E",
"; c #F7FB65",
": c #F6F967",
"> c #F7FC66",
", c #F8FB65",
"< c #B67B84",
"1 c #B78B92",
"2 c #A7A8AA",
"3 c #A8A9AB",
"4 c #AAABAD",
"5 c #B1B2B3",
"6 c #B5B6B7",
"7 c #B6B7B8",
"8 c #B8B9BB",
"9 c #EAEC80",
"0 c #D2D3AF",
"q c #CBCDBC",
"w c #C0C1C2",
"e c #C2C3C5",
"r c #C6C7C8",
"t c #D4D5D5",
"y c #D6D7D7",
"u c #D8D9DA",
"i c #DDDEDE",
"p c #DFE0E0",
"a c #E3E4E4",
"s c None",
/* pixels */
"ssssssssssssssss",
"ssssssssssssssss",
"sssssssa;;>9ssss",
"ssssssss;;;;,sss",
"ssssssass;;:ssss",
"sssssaassq0sssss",
"ssssaaayrrsss ss",
"sssaai87rrs  sss",
"ssaie421=+   sss",
"su6<@Oo     ssss",
"ap3&        ssss",
"sa5%       sssss",
"saw$       sssss",
"sst#      .sssss",
"sss*      Xsssss",
"sss-...   ssssss"
};
