<?xml version="1.0" encoding="UTF-8" standalone="no"?>
<!-- Created with Inkscape (http://www.inkscape.org/) -->
<svg
   xmlns:dc="http://purl.org/dc/elements/1.1/"
   xmlns:cc="http://creativecommons.org/ns#"
   xmlns:rdf="http://www.w3.org/1999/02/22-rdf-syntax-ns#"
   xmlns:svg="http://www.w3.org/2000/svg"
   xmlns="http://www.w3.org/2000/svg"
   xmlns:xlink="http://www.w3.org/1999/xlink"
   xmlns:sodipodi="http://sodipodi.sourceforge.net/DTD/sodipodi-0.dtd"
   xmlns:inkscape="http://www.inkscape.org/namespaces/inkscape"
   width="744.09448819"
   height="1052.3622047"
   id="svg2647"
   sodipodi:version="0.32"
   inkscape:version="0.46"
   sodipodi:docname="szau.svg"
   inkscape:output_extension="org.inkscape.output.svg.inkscape"
   inkscape:export-filename="/home/pawel/szarp-experimental/resources/wx/icons/szau.png"
   inkscape:export-xdpi="26.139999"
   inkscape:export-ydpi="26.139999">
  <defs
     id="defs2649">
    <linearGradient
       id="linearGradient3459">
      <stop
         style="stop-color:#2ce8d4;stop-opacity:1;"
         offset="0"
         id="stop3461" />
      <stop
         style="stop-color:#fdff87;stop-opacity:1;"
         offset="1"
         id="stop3463" />
    </linearGradient>
    <inkscape:perspective
       sodipodi:type="inkscape:persp3d"
       inkscape:vp_x="0 : 526.18109 : 1"
       inkscape:vp_y="0 : 1000 : 0"
       inkscape:vp_z="744.09448 : 526.18109 : 1"
       inkscape:persp3d-origin="372.04724 : 350.78739 : 1"
       id="perspective2655" />
    <linearGradient
       inkscape:collect="always"
       xlink:href="#linearGradient3459"
       id="linearGradient3476"
       gradientUnits="userSpaceOnUse"
       x1="381.77673"
       y1="549.81134"
       x2="322.29956"
       y2="600.76312"
       gradientTransform="matrix(0.7963885,0,0,0.7963885,65.355157,-26.056791)" />
  </defs>
  <sodipodi:namedview
     id="base"
     pagecolor="#ffffff"
     bordercolor="#666666"
     borderopacity="1.0"
     gridtolerance="10000"
     guidetolerance="10"
     objecttolerance="10"
     inkscape:pageopacity="0.0"
     inkscape:pageshadow="2"
     inkscape:zoom="3.6769524"
     inkscape:cx="610.50981"
     inkscape:cy="441.52518"
     inkscape:document-units="px"
     inkscape:current-layer="layer1"
     showgrid="false"
     inkscape:window-width="776"
     inkscape:window-height="668"
     inkscape:window-x="240"
     inkscape:window-y="24" />
  <metadata
     id="metadata2652">
    <rdf:RDF>
      <cc:Work
         rdf:about="">
        <dc:format>image/svg+xml</dc:format>
        <dc:type
           rdf:resource="http://purl.org/dc/dcmitype/StillImage" />
      </cc:Work>
    </rdf:RDF>
  </metadata>
  <g
     inkscape:label="Layer 1"
     inkscape:groupmode="layer"
     id="layer1">
    <g
       id="g2809"
       transform="matrix(1.0698081,0,0,1,290.81243,-7.0868062)"
       inkscape:export-filename="/home/pawel/szarp-experimental/resources/wx/icons/scc.png"
       inkscape:export-xdpi="52.279999"
       inkscape:export-ydpi="52.279999">
      <g
         transform="translate(-4.7776474,-76.067154)"
         id="g2795">
				<path
   d="M 30.352,520.583 L 41.763,540.432 L 60.771,529.406 C 55.1,516.455 51.388,510.787 55.974,484.885 C 52.963,499.059 41.868,513.763 30.352,520.583 z"
   id="path2797"
   style="fill:#e3e4e4" />

				<path
   d="M 35.884,518.309 L 41.762,540.432 L 62.974,534.693 C 60.875,520.726 58.703,514.287 69.834,490.447 C 63.29,503.4 48.799,514.706 35.884,518.309 z"
   id="path2799"
   style="fill:#c6c7c8" />

			</g>
      <g
         transform="translate(-4.7776474,-76.067154)"
         id="g2801">
			<g
   id="g2803">
				<path
   style="fill:#a7a8aa"
   id="path2805"
   d="M 41.762,540.432 L 60.77,529.406 C 57.478,521.843 54.853,516.802 54.12,508.755 C 48.343,513.238 41.937,516.596 35.884,518.31 L 41.762,540.432 z" />

				<path
   style="fill:#db001b"
   id="path2807"
   d="M 41.798,517.542 L 41.762,540.433 L 63.744,540.362 C 65.32,526.329 64.9,519.573 81.842,499.443 C 72.148,510.227 55.204,517.402 41.798,517.542 z" />

			</g>

		</g>
    </g>
    <path
       style="fill:url(#linearGradient3476);fill-opacity:1;stroke:none;stroke-width:12;stroke-linecap:round;stroke-linejoin:round;stroke-miterlimit:4;stroke-dashoffset:0;stroke-opacity:1"
       d="M 345.7088,406.63104 C 339.48944,407.17497 340.47486,408.889 337.65047,410.02958 C 334.82608,411.17016 332.92009,409.40012 329.03441,413.25102 C 325.00292,417.24643 327.31272,419.14481 326.10167,421.89999 C 324.89062,424.65516 322.18098,423.6128 322.04113,429.50232 C 321.89465,435.67115 324.07473,434.62143 325.28579,437.37661 C 326.49684,440.13179 325.75158,442.92913 329.03441,445.75362 C 333.38582,449.4975 334.64659,447.77422 337.45804,448.94928 C 340.26949,450.12435 339.34773,452.42539 345.78346,452.3736 C 352.95642,452.30755 352.10762,448.32143 355.35741,446.63366 C 356.9823,445.78978 359.19674,448.14592 362.54338,444.8353 C 366.07721,441.33951 365.72439,439.71709 366.40592,438.094 C 367.86304,434.62379 369.12994,434.99298 369.32669,430.44803 C 369.38288,430.13605 369.4079,429.81925 369.40135,429.50232 C 369.40419,429.12541 369.36242,428.74949 369.27692,428.3824 C 369.39075,423.27285 366.47659,424.59588 365.30073,422.07837 C 364.12487,419.56086 367.56146,419.02097 362.50762,413.40034 C 358.62203,409.07897 356.38764,411.10637 353.52314,409.97241 C 350.65863,408.83844 352.7032,406.90301 345.7088,406.63104 z M 345.7088,416.1877 C 349.64346,416.1877 347.02276,418.27138 349.7142,419.66928 C 352.50826,421.12048 353.32576,417.06069 355.63877,420.02032 C 357.96862,423.00149 354.54709,421.65704 355.79301,424.74755 C 357.10857,428.0108 359.70617,425.76841 359.84469,429.50232 C 359.94729,432.268 357.16602,431.44557 356.73633,432.71364 C 356.30663,433.98172 358.12591,435.98423 357.33109,437.06801 C 355.99242,438.89336 354.24879,436.51084 351.28944,438.28558 C 348.44305,439.99258 350.97601,442.22728 345.63413,442.81694 C 340.96607,442.57836 344.32615,441.57169 341.36083,439.39431 C 338.74975,437.47704 338.17884,440.37393 335.92635,438.04399 C 333.23408,435.25915 337.35807,435.92648 335.39116,432.18658 C 333.71599,429.00139 332.41368,432.413 332.41368,428.68643 C 332.41368,425.23182 334.6952,426.49954 335.39117,424.92672 C 336.08713,423.3539 333.3062,423.03285 335.65439,420.16964 C 337.74725,417.61777 339.53356,420.40325 341.23146,419.71241 C 342.92935,419.02157 341.54301,416.1877 345.7088,416.1877 z"
       id="path3457"
       sodipodi:nodetypes="cssssssscssscscsssccssssssscsssssssc" />
    <g
       id="g3478"
       transform="matrix(1.0698081,0,0,1,385.6804,-4.3083992)"
       inkscape:export-filename="/home/pawel/szarp-experimental/resources/wx/icons/szau_16_error.png"
       inkscape:export-xdpi="26.139999"
       inkscape:export-ydpi="26.139999">
      <g
         transform="translate(-4.7776474,-76.067154)"
         id="g3480">
				<path
   d="M 30.352,520.583 L 41.763,540.432 L 60.771,529.406 C 55.1,516.455 51.388,510.787 55.974,484.885 C 52.963,499.059 41.868,513.763 30.352,520.583 z"
   id="path3482"
   style="fill:#e3e4e4" />

				<path
   d="M 35.884,518.309 L 41.762,540.432 L 62.974,534.693 C 60.875,520.726 58.703,514.287 69.834,490.447 C 63.29,503.4 48.799,514.706 35.884,518.309 z"
   id="path3484"
   style="fill:#c6c7c8" />

			</g>
      <g
         transform="translate(-4.7776474,-76.067154)"
         id="g3486">
			<g
   id="g3488">
				<path
   style="fill:#a7a8aa"
   id="path3490"
   d="M 41.762,540.432 L 60.77,529.406 C 57.478,521.843 54.853,516.802 54.12,508.755 C 48.343,513.238 41.937,516.596 35.884,518.31 L 41.762,540.432 z" />

				<path
   style="fill:#db001b"
   id="path3492"
   d="M 41.798,517.542 L 41.762,540.433 L 63.744,540.362 C 65.32,526.329 64.9,519.573 81.842,499.443 C 72.148,510.227 55.204,517.402 41.798,517.542 z" />

			</g>

		</g>
    </g>
    <path
       style="fill:#ff1c00;fill-opacity:1;stroke:none;stroke-width:12;stroke-linecap:round;stroke-linejoin:round;stroke-miterlimit:4;stroke-dashoffset:0;stroke-opacity:1"
       d="M 440.57677,409.40945 C 434.35741,409.95338 435.34283,411.66741 432.51844,412.80799 C 429.69405,413.94857 427.78806,412.17853 423.90238,416.02943 C 419.87089,420.02484 422.18069,421.92322 420.96964,424.6784 C 419.75859,427.43357 417.04895,426.39121 416.9091,432.28073 C 416.76262,438.44956 418.9427,437.39984 420.15376,440.15502 C 421.36481,442.9102 420.61955,445.70754 423.90238,448.53203 C 428.25379,452.27591 429.51456,450.55263 432.32601,451.72769 C 435.13746,452.90276 434.2157,455.2038 440.65143,455.15201 C 447.82439,455.08596 446.97559,451.09984 450.22538,449.41207 C 451.85027,448.56819 454.06471,450.92433 457.41135,447.61371 C 460.94518,444.11792 460.59236,442.4955 461.27389,440.87241 C 462.73101,437.4022 463.99791,437.77139 464.19466,433.22644 C 464.25085,432.91446 464.27587,432.59766 464.26932,432.28073 C 464.27216,431.90382 464.23039,431.5279 464.14489,431.16081 C 464.25872,426.05126 461.34456,427.37429 460.1687,424.85678 C 458.99284,422.33927 462.42943,421.79938 457.37559,416.17875 C 453.49,411.85738 451.25561,413.88478 448.39111,412.75082 C 445.5266,411.61685 447.57117,409.68142 440.57677,409.40945 z M 440.57677,418.96611 C 444.51143,418.96611 441.89073,421.04979 444.58217,422.44769 C 447.37623,423.89889 448.19373,419.8391 450.50674,422.79873 C 452.83659,425.7799 449.41506,424.43545 450.66098,427.52596 C 451.97654,430.78921 454.57414,428.54682 454.71266,432.28073 C 454.81526,435.04641 452.03399,434.22398 451.6043,435.49205 C 451.1746,436.76013 452.99388,438.76264 452.19906,439.84642 C 450.86039,441.67177 449.11676,439.28925 446.15741,441.06399 C 443.31102,442.77099 445.84398,445.00569 440.5021,445.59535 C 435.83404,445.35677 439.19412,444.3501 436.2288,442.17272 C 433.61772,440.25545 433.04681,443.15234 430.79432,440.8224 C 428.10205,438.03756 432.22604,438.70489 430.25913,434.96499 C 428.58396,431.7798 427.28165,435.19141 427.28165,431.46484 C 427.28165,428.01023 429.56317,429.27795 430.25914,427.70513 C 430.9551,426.13231 428.17417,425.81126 430.52236,422.94805 C 432.61522,420.39618 434.40153,423.18166 436.09943,422.49082 C 437.79732,421.79998 436.41098,418.96611 440.57677,418.96611 z"
       id="path3494"
       sodipodi:nodetypes="cssssssscssscscsssccssssssscsssssssc"
       inkscape:export-filename="/home/pawel/szarp-experimental/resources/wx/icons/szau_16_error.png"
       inkscape:export-xdpi="26.139999"
       inkscape:export-ydpi="26.139999" />
    <g
       id="g3498"
       transform="matrix(1.0698081,0,0,1,479.23614,-3.220541)"
       inkscape:export-filename="/home/pawel/szarp-experimental/resources/wx/icons/szau_16_error.png"
       inkscape:export-xdpi="26.139999"
       inkscape:export-ydpi="26.139999">
      <g
         transform="translate(-4.7776474,-76.067154)"
         id="g3500">
				<path
   d="M 30.352,520.583 L 41.763,540.432 L 60.771,529.406 C 55.1,516.455 51.388,510.787 55.974,484.885 C 52.963,499.059 41.868,513.763 30.352,520.583 z"
   id="path3502"
   style="fill:#e3e4e4" />

				<path
   d="M 35.884,518.309 L 41.762,540.432 L 62.974,534.693 C 60.875,520.726 58.703,514.287 69.834,490.447 C 63.29,503.4 48.799,514.706 35.884,518.309 z"
   id="path3504"
   style="fill:#c6c7c8" />

			</g>
      <g
         transform="translate(-4.7776474,-76.067154)"
         id="g3506">
			<g
   id="g3508">
				<path
   style="fill:#a7a8aa"
   id="path3510"
   d="M 41.762,540.432 L 60.77,529.406 C 57.478,521.843 54.853,516.802 54.12,508.755 C 48.343,513.238 41.937,516.596 35.884,518.31 L 41.762,540.432 z" />

				<path
   style="fill:#db001b"
   id="path3512"
   d="M 41.798,517.542 L 41.762,540.433 L 63.744,540.362 C 65.32,526.329 64.9,519.573 81.842,499.443 C 72.148,510.227 55.204,517.402 41.798,517.542 z" />

			</g>

		</g>
    </g>
    <path
       style="fill:#f7ff00;fill-opacity:1;stroke:none;stroke-width:12;stroke-linecap:round;stroke-linejoin:round;stroke-miterlimit:4;stroke-dashoffset:0;stroke-opacity:1"
       d="M 534.13251,410.49731 C 527.91315,411.04124 528.89857,412.75527 526.07418,413.89585 C 523.24979,415.03643 521.3438,413.26639 517.45812,417.11729 C 513.42663,421.1127 515.73643,423.01108 514.52538,425.76626 C 513.31433,428.52143 510.60469,427.47907 510.46484,433.36859 C 510.31836,439.53742 512.49844,438.4877 513.7095,441.24288 C 514.92055,443.99806 514.17529,446.7954 517.45812,449.61989 C 521.80953,453.36377 523.0703,451.64049 525.88175,452.81555 C 528.6932,453.99062 527.77144,456.29166 534.20717,456.23987 C 541.38013,456.17382 540.53133,452.1877 543.78112,450.49993 C 545.40601,449.65605 547.62045,452.01219 550.96709,448.70157 C 554.50092,445.20578 554.1481,443.58336 554.82963,441.96027 C 556.28675,438.49006 557.55365,438.85925 557.7504,434.3143 C 557.80659,434.00232 557.83161,433.68552 557.82506,433.36859 C 557.8279,432.99168 557.78613,432.61576 557.70063,432.24867 C 557.81446,427.13912 554.9003,428.46215 553.72444,425.94464 C 552.54858,423.42713 555.98517,422.88724 550.93133,417.26661 C 547.04574,412.94524 544.81135,414.97264 541.94685,413.83868 C 539.08234,412.70471 541.12691,410.76928 534.13251,410.49731 z M 534.13251,420.05397 C 538.06717,420.05397 535.44647,422.13765 538.13791,423.53555 C 540.93197,424.98675 541.74947,420.92696 544.06248,423.88659 C 546.39233,426.86776 542.9708,425.52331 544.21672,428.61382 C 545.53228,431.87707 548.12988,429.63468 548.2684,433.36859 C 548.371,436.13427 545.58973,435.31184 545.16004,436.57991 C 544.73034,437.84799 546.54962,439.8505 545.7548,440.93428 C 544.41613,442.75963 542.6725,440.37711 539.71315,442.15185 C 536.86676,443.85885 539.39972,446.09355 534.05784,446.68321 C 529.38978,446.44463 532.74986,445.43796 529.78454,443.26058 C 527.17346,441.34331 526.60255,444.2402 524.35006,441.91026 C 521.65779,439.12542 525.78178,439.79275 523.81487,436.05285 C 522.1397,432.86766 520.83739,436.27927 520.83739,432.5527 C 520.83739,429.09809 523.11891,430.36581 523.81488,428.79299 C 524.51084,427.22017 521.72991,426.89912 524.0781,424.03591 C 526.17096,421.48404 527.95727,424.26952 529.65517,423.57868 C 531.35306,422.88784 529.96672,420.05397 534.13251,420.05397 z"
       id="path3514"
       sodipodi:nodetypes="cssssssscssscscsssccssssssscsssssssc"
       inkscape:export-filename="/home/pawel/szarp-experimental/resources/wx/icons/szau_16_new.png"
       inkscape:export-xdpi="26.139999"
       inkscape:export-ydpi="26.139999" />
    <g
       id="g3520"
       transform="matrix(1.0698081,0,0,1,22.336018,142.55235)"
       inkscape:export-filename="/home/pawel/szarp-experimental/resources/wx/icons/scc.png"
       inkscape:export-xdpi="52.279999"
       inkscape:export-ydpi="52.279999">
      <g
         transform="translate(-4.7776474,-76.067154)"
         id="g3522">
				<path
   d="M 30.352,520.583 L 41.763,540.432 L 60.771,529.406 C 55.1,516.455 51.388,510.787 55.974,484.885 C 52.963,499.059 41.868,513.763 30.352,520.583 z"
   id="path3524"
   style="fill:#e3e4e4" />

				<path
   d="M 35.884,518.309 L 41.762,540.432 L 62.974,534.693 C 60.875,520.726 58.703,514.287 69.834,490.447 C 63.29,503.4 48.799,514.706 35.884,518.309 z"
   id="path3526"
   style="fill:#c6c7c8" />

			</g>
      <g
         transform="translate(-4.7776474,-76.067154)"
         id="g3528">
			<g
   id="g3530">
				<path
   style="fill:#a7a8aa"
   id="path3532"
   d="M 41.762,540.432 L 60.77,529.406 C 57.478,521.843 54.853,516.802 54.12,508.755 C 48.343,513.238 41.937,516.596 35.884,518.31 L 41.762,540.432 z" />

				<path
   style="fill:#db001b"
   id="path3534"
   d="M 41.798,517.542 L 41.762,540.433 L 63.744,540.362 C 65.32,526.329 64.9,519.573 81.842,499.443 C 72.148,510.227 55.204,517.402 41.798,517.542 z" />

			</g>

		</g>
    </g>
    <path
       style="fill:#f7fb65;fill-opacity:1;stroke:none;stroke-width:12;stroke-linecap:round;stroke-linejoin:round;stroke-miterlimit:4;stroke-dashoffset:0;stroke-opacity:1"
       d="M 77.232388,556.2702 C 71.013028,556.81413 71.998448,558.52816 69.174058,559.66874 C 66.349668,560.80932 64.443678,559.03928 60.557998,562.89018 C 56.526508,566.88559 58.836308,568.78397 57.625258,571.53915 C 56.414208,574.29432 53.704568,573.25196 53.564718,579.14148 C 53.418238,585.31031 55.598318,584.26059 56.809378,587.01577 C 58.020428,589.77095 57.275168,592.56829 60.557998,595.39278 C 64.909408,599.13666 66.170178,597.41338 68.981628,598.58844 C 71.793078,599.76351 70.871318,602.06455 77.307048,602.01276 C 84.480008,601.94671 83.631208,597.96059 86.880998,596.27282 C 88.505888,595.42894 90.720328,597.78508 94.066968,594.47446 C 97.600798,590.97867 97.247978,589.35625 97.929508,587.73316 C 99.386628,584.26295 100.65353,584.63214 100.85028,580.08719 C 100.90647,579.77521 100.93149,579.45841 100.92494,579.14148 C 100.92778,578.76457 100.88601,578.38865 100.80051,578.02156 C 100.91434,572.91201 98.000178,574.23504 96.824318,571.71753 C 95.648458,569.20002 99.085048,568.66013 94.031208,563.0395 C 90.145618,558.71813 87.911228,560.74553 85.046728,559.61157 C 82.182218,558.4776 84.226788,556.54217 77.232388,556.2702 z M 77.232388,565.82686 C 81.167048,565.82686 78.546348,567.91054 81.237788,569.30844 C 84.031848,570.75964 84.849348,566.69985 87.162358,569.65948 C 89.492208,572.64065 86.070678,571.2962 87.316598,574.38671 C 88.632158,577.64996 91.229758,575.40757 91.368278,579.14148 C 91.470878,581.90716 88.689608,581.08473 88.259918,582.3528 C 87.830218,583.62088 89.649498,585.62339 88.854678,586.70717 C 87.516008,588.53252 85.772378,586.15 82.813028,587.92474 C 79.966638,589.63174 82.499598,591.86644 77.157718,592.4561 C 72.489658,592.21752 75.849738,591.21085 72.884418,589.03347 C 70.273338,587.1162 69.702428,590.01309 67.449938,587.68315 C 64.757668,584.89831 68.881658,585.56564 66.914748,581.82574 C 65.239578,578.64055 63.937268,582.05216 63.937268,578.32559 C 63.937268,574.87098 66.218788,576.1387 66.914758,574.56588 C 67.610718,572.99306 64.829788,572.67201 67.177978,569.8088 C 69.270838,567.25693 71.057148,570.04241 72.755048,569.35157 C 74.452938,568.66073 73.066598,565.82686 77.232388,565.82686 z"
       id="path3536"
       sodipodi:nodetypes="cssssssscssscscsssccssssssscsssssssc" />
    <g
       id="g3540"
       transform="matrix(1.0698081,0,0,1,121.33105,141.46449)"
       inkscape:export-filename="/home/pawel/szarp-experimental/resources/wx/icons/szau_16_r315.png"
       inkscape:export-xdpi="26.139999"
       inkscape:export-ydpi="26.139999">
      <g
         transform="translate(-4.7776474,-76.067154)"
         id="g3542">
				<path
   d="M 30.352,520.583 L 41.763,540.432 L 60.771,529.406 C 55.1,516.455 51.388,510.787 55.974,484.885 C 52.963,499.059 41.868,513.763 30.352,520.583 z"
   id="path3544"
   style="fill:#e3e4e4" />

				<path
   d="M 35.884,518.309 L 41.762,540.432 L 62.974,534.693 C 60.875,520.726 58.703,514.287 69.834,490.447 C 63.29,503.4 48.799,514.706 35.884,518.309 z"
   id="path3546"
   style="fill:#c6c7c8" />

			</g>
      <g
         transform="translate(-4.7776474,-76.067154)"
         id="g3548">
			<g
   id="g3550">
				<path
   style="fill:#a7a8aa"
   id="path3552"
   d="M 41.762,540.432 L 60.77,529.406 C 57.478,521.843 54.853,516.802 54.12,508.755 C 48.343,513.238 41.937,516.596 35.884,518.31 L 41.762,540.432 z" />

				<path
   style="fill:#db001b"
   id="path3554"
   d="M 41.798,517.542 L 41.762,540.433 L 63.744,540.362 C 65.32,526.329 64.9,519.573 81.842,499.443 C 72.148,510.227 55.204,517.402 41.798,517.542 z" />

			</g>

		</g>
    </g>
    <path
       style="fill:#f7fb65;fill-opacity:1;stroke:none;stroke-width:12;stroke-linecap:round;stroke-linejoin:round;stroke-miterlimit:4;stroke-dashoffset:0;stroke-opacity:1"
       d="M 176.21875,555.1875 L 176.34375,564.75 C 180.08792,564.79645 177.55789,566.83674 180.21875,568.21875 C 183.01281,569.66995 183.84324,565.60287 186.15625,568.5625 C 188.4861,571.5437 185.06658,570.22199 186.3125,573.3125 C 187.62806,576.57577 190.23648,574.32859 190.375,578.0625 C 190.4776,580.82815 187.67969,579.98193 187.25,581.25 C 186.82031,582.51807 188.63857,584.54122 187.84375,585.625 C 186.50507,587.45034 184.77185,585.06901 181.8125,586.84375 C 178.96611,588.55078 181.49813,590.78534 176.15625,591.375 C 171.48818,591.13643 174.84032,590.11488 171.875,587.9375 C 169.26391,586.02022 168.68999,588.92369 166.4375,586.59375 C 163.74522,583.80892 167.87316,584.4899 165.90625,580.75 C 164.23109,577.56484 162.9375,580.84059 162.9375,577.25 C 162.9375,573.65941 165.21028,575.04157 165.90625,573.46875 C 166.60221,571.89592 163.96697,571.4263 166.1875,568.71875 C 162.44649,565.24198 162.36723,565.58165 159.5625,561.8125 C 155.60392,565.73566 157.83605,567.68232 156.625,570.4375 C 155.41395,573.19267 152.70235,572.17298 152.5625,578.0625 C 152.41602,584.2313 154.60145,583.18232 155.8125,585.9375 C 157.02356,588.69267 156.27967,591.48801 159.5625,594.3125 C 163.91392,598.05637 165.1573,596.32494 167.96875,597.5 C 170.78021,598.67504 169.87677,600.98929 176.3125,600.9375 C 183.48546,600.87142 182.62521,596.87527 185.875,595.1875 C 187.49988,594.34364 189.71586,596.68562 193.0625,593.375 C 196.59633,589.87921 196.25597,588.27934 196.9375,586.65625 C 198.39461,583.18602 199.647,583.54495 199.84375,579 C 199.89994,578.68802 199.9128,578.37943 199.90625,578.0625 C 199.90909,577.68556 199.86675,577.30459 199.78125,576.9375 C 199.89507,571.82793 196.98836,573.14251 195.8125,570.625 C 194.63664,568.10746 198.08509,567.55813 193.03125,561.9375 C 189.14565,557.61611 186.89575,559.66521 184.03125,558.53125 C 181.16674,557.39731 183.20309,555.04375 176.21875,555.1875 z"
       id="path3556"
       sodipodi:nodetypes="ccssssssscsssssccssssscssscscsssc"
       inkscape:export-filename="/home/pawel/szarp-experimental/resources/wx/icons/szau_16_r315.png"
       inkscape:export-xdpi="26.139999"
       inkscape:export-ydpi="26.139999" />
    <g
       id="g3567"
       transform="matrix(1.0698081,0,0,1,202.92035,143.64021)"
       inkscape:export-filename="/home/pawel/szarp-experimental/resources/wx/icons/szau_16_r270.png"
       inkscape:export-xdpi="26.139999"
       inkscape:export-ydpi="26.139999">
      <g
         transform="translate(-4.7776474,-76.067154)"
         id="g3569">
				<path
   d="M 30.352,520.583 L 41.763,540.432 L 60.771,529.406 C 55.1,516.455 51.388,510.787 55.974,484.885 C 52.963,499.059 41.868,513.763 30.352,520.583 z"
   id="path3571"
   style="fill:#e3e4e4" />

				<path
   d="M 35.884,518.309 L 41.762,540.432 L 62.974,534.693 C 60.875,520.726 58.703,514.287 69.834,490.447 C 63.29,503.4 48.799,514.706 35.884,518.309 z"
   id="path3573"
   style="fill:#c6c7c8" />

			</g>
      <g
         transform="translate(-4.7776474,-76.067154)"
         id="g3575">
			<g
   id="g3577">
				<path
   style="fill:#a7a8aa"
   id="path3579"
   d="M 41.762,540.432 L 60.77,529.406 C 57.478,521.843 54.853,516.802 54.12,508.755 C 48.343,513.238 41.937,516.596 35.884,518.31 L 41.762,540.432 z" />

				<path
   style="fill:#db001b"
   id="path3581"
   d="M 41.798,517.542 L 41.762,540.433 L 63.744,540.362 C 65.32,526.329 64.9,519.573 81.842,499.443 C 72.148,510.227 55.204,517.402 41.798,517.542 z" />

			</g>

		</g>
    </g>
    <path
       style="fill:#f7fb65;fill-opacity:1;stroke:none;stroke-width:12;stroke-linecap:round;stroke-linejoin:round;stroke-miterlimit:4;stroke-dashoffset:0;stroke-opacity:1"
       d="M 257.80805,557.36322 L 257.93305,566.92572 C 261.67722,566.97217 259.14719,569.01246 261.80805,570.39447 C 264.60211,571.84567 265.43254,567.77859 267.74555,570.73822 C 270.0754,573.71942 266.65588,572.39771 267.9018,575.48822 C 269.21736,578.75149 271.82578,576.50431 271.9643,580.23822 C 272.0669,583.00387 269.26899,582.15765 268.8393,583.42572 C 268.40961,584.69379 270.22787,586.71694 269.43305,587.80072 C 268.09437,589.62606 266.36115,587.24473 263.4018,589.01947 C 260.55541,590.7265 263.08743,592.96106 257.74555,593.55072 C 253.07748,593.31215 256.42962,592.2906 253.4643,590.11322 C 250.85321,588.19594 250.27929,591.09941 248.0268,588.76947 C 245.33452,585.98464 249.46246,586.66562 247.49555,582.92572 C 245.82039,579.74056 244.5268,583.01631 244.5268,579.42572 C 238.54358,579.64263 242.17862,579.51602 234.1518,580.23822 C 234.00532,586.40702 236.19075,585.35804 237.4018,588.11322 C 238.61286,590.86839 237.86897,593.66373 241.1518,596.48822 C 245.50322,600.23209 246.7466,598.50066 249.55805,599.67572 C 252.36951,600.85076 251.46607,603.16501 257.9018,603.11322 C 265.07476,603.04714 264.21451,599.05099 267.4643,597.36322 C 269.08918,596.51936 271.30516,598.86134 274.6518,595.55072 C 278.18563,592.05493 277.84527,590.45506 278.5268,588.83197 C 279.98391,585.36174 281.2363,585.72067 281.43305,581.17572 C 281.48924,580.86374 281.5021,580.55515 281.49555,580.23822 C 281.49839,579.86128 281.45605,579.48031 281.37055,579.11322 C 281.48437,574.00365 278.57766,575.31823 277.4018,572.80072 C 276.22594,570.28318 279.67439,569.73385 274.62055,564.11322 C 270.73495,559.79183 268.48505,561.84093 265.62055,560.70697 C 262.75604,559.57303 264.79239,557.21947 257.80805,557.36322 z"
       id="path3583"
       sodipodi:nodetypes="ccssssssscsssccssscssscscsssc"
       inkscape:export-filename="/home/pawel/szarp-experimental/resources/wx/icons/szau_16_r270.png"
       inkscape:export-xdpi="26.139999"
       inkscape:export-ydpi="26.139999" />
    <g
       id="g3585"
       transform="matrix(1.0698081,0,0,1,277.79071,147.30843)"
       inkscape:export-filename="/home/pawel/szarp-experimental/resources/wx/icons/szau_16_r225.png"
       inkscape:export-xdpi="26.139999"
       inkscape:export-ydpi="26.139999">
      <g
         transform="translate(-4.7776474,-76.067154)"
         id="g3587">
				<path
   d="M 30.352,520.583 L 41.763,540.432 L 60.771,529.406 C 55.1,516.455 51.388,510.787 55.974,484.885 C 52.963,499.059 41.868,513.763 30.352,520.583 z"
   id="path3589"
   style="fill:#e3e4e4" />

				<path
   d="M 35.884,518.309 L 41.762,540.432 L 62.974,534.693 C 60.875,520.726 58.703,514.287 69.834,490.447 C 63.29,503.4 48.799,514.706 35.884,518.309 z"
   id="path3591"
   style="fill:#c6c7c8" />

			</g>
      <g
         transform="translate(-4.7776474,-76.067154)"
         id="g3593">
			<g
   id="g3595">
				<path
   style="fill:#a7a8aa"
   id="path3597"
   d="M 41.762,540.432 L 60.77,529.406 C 57.478,521.843 54.853,516.802 54.12,508.755 C 48.343,513.238 41.937,516.596 35.884,518.31 L 41.762,540.432 z" />

				<path
   style="fill:#db001b"
   id="path3599"
   d="M 41.798,517.542 L 41.762,540.433 L 63.744,540.362 C 65.32,526.329 64.9,519.573 81.842,499.443 C 72.148,510.227 55.204,517.402 41.798,517.542 z" />

			</g>

		</g>
    </g>
    <path
       style="fill:#f7fb65;fill-opacity:1;stroke:none;stroke-width:12;stroke-linecap:round;stroke-linejoin:round;stroke-miterlimit:4;stroke-dashoffset:0;stroke-opacity:1"
       d="M 332.67841,561.03144 L 332.80341,570.59394 C 336.54758,570.64039 334.01755,572.68068 336.67841,574.06269 C 339.47247,575.51389 340.3029,571.44681 342.61591,574.40644 C 344.94576,577.38764 341.52624,576.06593 342.77216,579.15644 C 344.08772,582.41971 346.69614,580.17253 346.83466,583.90644 C 346.93726,586.67209 344.13935,585.82587 343.70966,587.09394 C 343.27997,588.36201 345.09823,590.38516 344.30341,591.46894 C 342.96473,593.29428 341.23151,590.91295 338.27216,592.68769 C 335.42577,594.39472 337.95779,596.62928 332.61591,597.21894 C 327.94784,596.98037 331.29998,595.95882 328.33466,593.78144 C 325.72357,591.86416 325.14965,594.76763 322.89716,592.43769 C 316.66934,599.17161 322.53005,592.98052 316.02216,600.15644 C 320.37358,603.90031 321.61696,602.16888 324.42841,603.34394 C 327.23987,604.51898 326.33643,606.83323 332.77216,606.78144 C 339.94512,606.71536 339.08487,602.71921 342.33466,601.03144 C 343.95954,600.18758 346.17552,602.52956 349.52216,599.21894 C 353.05599,595.72315 352.71563,594.12328 353.39716,592.50019 C 354.85427,589.02996 356.10666,589.38889 356.30341,584.84394 C 356.3596,584.53196 356.37246,584.22337 356.36591,583.90644 C 356.36875,583.5295 356.32641,583.14853 356.24091,582.78144 C 356.35473,577.67187 353.44802,578.98645 352.27216,576.46894 C 351.0963,573.9514 354.54475,573.40207 349.49091,567.78144 C 345.60531,563.46005 343.35541,565.50915 340.49091,564.37519 C 337.6264,563.24125 339.66275,560.88769 332.67841,561.03144 z"
       id="path3601"
       sodipodi:nodetypes="ccssssssscsccscssscscsssc"
       inkscape:export-filename="/home/pawel/szarp-experimental/resources/wx/icons/szau_16_r225.png"
       inkscape:export-xdpi="26.139999"
       inkscape:export-ydpi="26.139999" />
    <g
       id="g3603"
       transform="matrix(1.0698081,0,0,1,348.14932,150.43932)"
       inkscape:export-filename="/home/pawel/szarp-experimental/resources/wx/icons/szau_16_r180.png"
       inkscape:export-xdpi="26.139999"
       inkscape:export-ydpi="26.139999">
      <g
         transform="translate(-4.7776474,-76.067154)"
         id="g3605">
				<path
   d="M 30.352,520.583 L 41.763,540.432 L 60.771,529.406 C 55.1,516.455 51.388,510.787 55.974,484.885 C 52.963,499.059 41.868,513.763 30.352,520.583 z"
   id="path3607"
   style="fill:#e3e4e4" />

				<path
   d="M 35.884,518.309 L 41.762,540.432 L 62.974,534.693 C 60.875,520.726 58.703,514.287 69.834,490.447 C 63.29,503.4 48.799,514.706 35.884,518.309 z"
   id="path3609"
   style="fill:#c6c7c8" />

			</g>
      <g
         transform="translate(-4.7776474,-76.067154)"
         id="g3611">
			<g
   id="g3613">
				<path
   style="fill:#a7a8aa"
   id="path3615"
   d="M 41.762,540.432 L 60.77,529.406 C 57.478,521.843 54.853,516.802 54.12,508.755 C 48.343,513.238 41.937,516.596 35.884,518.31 L 41.762,540.432 z" />

				<path
   style="fill:#db001b"
   id="path3617"
   d="M 41.798,517.542 L 41.762,540.433 L 63.744,540.362 C 65.32,526.329 64.9,519.573 81.842,499.443 C 72.148,510.227 55.204,517.402 41.798,517.542 z" />

			</g>

		</g>
    </g>
    <path
       style="fill:#f7fb65;fill-opacity:1;stroke:none;stroke-width:12;stroke-linecap:round;stroke-linejoin:round;stroke-miterlimit:4;stroke-dashoffset:0;stroke-opacity:1"
       d="M 403.03702,564.16233 L 403.16202,573.72483 C 406.90619,573.77128 404.37616,575.81157 407.03702,577.19358 C 409.83108,578.64478 410.66151,574.5777 412.97452,577.53733 C 415.30437,580.51853 411.88485,579.19682 413.13077,582.28733 C 414.44633,585.5506 417.05475,583.30342 417.19327,587.03733 C 417.29587,589.80298 414.49796,588.95676 414.06827,590.22483 C 413.63858,591.4929 415.45684,593.51605 414.66202,594.59983 C 413.32334,596.42517 411.59012,594.04384 408.63077,595.81858 C 405.78438,597.52561 408.3164,599.76017 402.97452,600.34983 C 402.65788,609.90198 402.67826,600.44537 403.13077,609.91233 C 410.30373,609.84625 409.44348,605.8501 412.69327,604.16233 C 414.31815,603.31847 416.53413,605.66045 419.88077,602.34983 C 423.4146,598.85404 423.07424,597.25417 423.75577,595.63108 C 425.21288,592.16085 426.46527,592.51978 426.66202,587.97483 C 426.71821,587.66285 426.73107,587.35426 426.72452,587.03733 C 426.72736,586.66039 426.68502,586.27942 426.59952,585.91233 C 426.71334,580.80276 423.80663,582.11734 422.63077,579.59983 C 421.45491,577.08229 424.90336,576.53296 419.84952,570.91233 C 415.96392,566.59094 413.71402,568.64004 410.84952,567.50608 C 407.98501,566.37214 410.02136,564.01858 403.03702,564.16233 z"
       id="path3619"
       sodipodi:nodetypes="ccsssssssccssscscsssc"
       inkscape:export-filename="/home/pawel/szarp-experimental/resources/wx/icons/szau_16_r180.png"
       inkscape:export-xdpi="26.139999"
       inkscape:export-ydpi="26.139999" />
    <g
       id="g3621"
       transform="matrix(1.0698081,0,0,1,413.9647,152.07111)"
       inkscape:export-filename="/home/pawel/szarp-experimental/resources/wx/icons/szau_16_r135.png"
       inkscape:export-xdpi="26.139999"
       inkscape:export-ydpi="26.139999">
      <g
         transform="translate(-4.7776474,-76.067154)"
         id="g3623">
				<path
   d="M 30.352,520.583 L 41.763,540.432 L 60.771,529.406 C 55.1,516.455 51.388,510.787 55.974,484.885 C 52.963,499.059 41.868,513.763 30.352,520.583 z"
   id="path3625"
   style="fill:#e3e4e4" />

				<path
   d="M 35.884,518.309 L 41.762,540.432 L 62.974,534.693 C 60.875,520.726 58.703,514.287 69.834,490.447 C 63.29,503.4 48.799,514.706 35.884,518.309 z"
   id="path3627"
   style="fill:#c6c7c8" />

			</g>
      <g
         transform="translate(-4.7776474,-76.067154)"
         id="g3629">
			<g
   id="g3631">
				<path
   style="fill:#a7a8aa"
   id="path3633"
   d="M 41.762,540.432 L 60.77,529.406 C 57.478,521.843 54.853,516.802 54.12,508.755 C 48.343,513.238 41.937,516.596 35.884,518.31 L 41.762,540.432 z" />

				<path
   style="fill:#db001b"
   id="path3635"
   d="M 41.798,517.542 L 41.762,540.433 L 63.744,540.362 C 65.32,526.329 64.9,519.573 81.842,499.443 C 72.148,510.227 55.204,517.402 41.798,517.542 z" />

			</g>

		</g>
    </g>
    <path
       style="fill:#f7fb65;fill-opacity:1;stroke:none;stroke-width:12;stroke-linecap:round;stroke-linejoin:round;stroke-miterlimit:4;stroke-dashoffset:0;stroke-opacity:1"
       d="M 468.8524,565.79412 L 468.9774,575.35662 C 472.72157,575.40307 470.19154,577.44336 472.8524,578.82537 C 475.64646,580.27657 476.47689,576.20949 478.7899,579.16912 C 481.11975,582.15032 477.70023,580.82861 478.94615,583.91912 C 480.26171,587.18239 482.87013,584.93521 483.00865,588.66912 C 483.11125,591.43477 480.31334,590.58855 479.88365,591.85662 C 479.45396,593.12469 481.00026,595.4198 478.57365,597.86341 C 484.30604,602.68035 481.26165,600.49313 485.69615,603.98162 C 489.22998,600.48583 488.88962,598.88596 489.57115,597.26287 C 491.02826,593.79264 492.28065,594.15157 492.4774,589.60662 C 492.53359,589.29464 492.54645,588.98605 492.5399,588.66912 C 492.54274,588.29218 492.5004,587.91121 492.4149,587.54412 C 492.52872,582.43455 489.62201,583.74913 488.44615,581.23162 C 487.27029,578.71408 490.71874,578.16475 485.6649,572.54412 C 481.7793,568.22273 479.5294,570.27183 476.6649,569.13787 C 473.80039,568.00393 475.83674,565.65037 468.8524,565.79412 z"
       id="path3637"
       sodipodi:nodetypes="ccsssssccscscsssc"
       inkscape:export-filename="/home/pawel/szarp-experimental/resources/wx/icons/szau_16_r135.png"
       inkscape:export-xdpi="26.139999"
       inkscape:export-ydpi="26.139999" />
    <g
       id="g3639"
       transform="matrix(1.0698081,0,0,1,477.60436,151.52718)"
       inkscape:export-filename="/home/pawel/szarp-experimental/resources/wx/icons/szau_16_r90.png"
       inkscape:export-xdpi="26.139999"
       inkscape:export-ydpi="26.139999">
      <g
         transform="translate(-4.7776474,-76.067154)"
         id="g3641">
				<path
   d="M 30.352,520.583 L 41.763,540.432 L 60.771,529.406 C 55.1,516.455 51.388,510.787 55.974,484.885 C 52.963,499.059 41.868,513.763 30.352,520.583 z"
   id="path3643"
   style="fill:#e3e4e4" />

				<path
   d="M 35.884,518.309 L 41.762,540.432 L 62.974,534.693 C 60.875,520.726 58.703,514.287 69.834,490.447 C 63.29,503.4 48.799,514.706 35.884,518.309 z"
   id="path3645"
   style="fill:#c6c7c8" />

			</g>
      <g
         transform="translate(-4.7776474,-76.067154)"
         id="g3647">
			<g
   id="g3649">
				<path
   style="fill:#a7a8aa"
   id="path3651"
   d="M 41.762,540.432 L 60.77,529.406 C 57.478,521.843 54.853,516.802 54.12,508.755 C 48.343,513.238 41.937,516.596 35.884,518.31 L 41.762,540.432 z" />

				<path
   style="fill:#db001b"
   id="path3653"
   d="M 41.798,517.542 L 41.762,540.433 L 63.744,540.362 C 65.32,526.329 64.9,519.573 81.842,499.443 C 72.148,510.227 55.204,517.402 41.798,517.542 z" />

			</g>

		</g>
    </g>
    <path
       style="fill:#f7fb65;fill-opacity:1;stroke:none;stroke-width:12;stroke-linecap:round;stroke-linejoin:round;stroke-miterlimit:4;stroke-dashoffset:0;stroke-opacity:1"
       d="M 532.49206,565.25019 L 532.61706,574.81269 C 536.36123,574.85914 533.8312,576.89943 536.49206,578.28144 C 539.28612,579.73264 540.11655,575.66556 542.42956,578.62519 C 544.75941,581.60639 541.33989,580.28468 542.58581,583.37519 C 543.90137,586.63846 546.78175,585.47914 546.92027,589.21305 C 555.72573,589.25905 547.48941,589.25621 556.11706,589.06269 C 556.17325,588.75071 556.18611,588.44212 556.17956,588.12519 C 556.1824,587.74825 556.14006,587.36728 556.05456,587.00019 C 556.16838,581.89062 553.26167,583.2052 552.08581,580.68769 C 550.90995,578.17015 554.3584,577.62082 549.30456,572.00019 C 545.41896,567.6788 543.16906,569.7279 540.30456,568.59394 C 537.44005,567.46 539.4764,565.10644 532.49206,565.25019 z"
       id="path3655"
       sodipodi:nodetypes="ccsssccscsssc"
       inkscape:export-filename="/home/pawel/szarp-experimental/resources/wx/icons/szau_16_r90.png"
       inkscape:export-xdpi="26.139999"
       inkscape:export-ydpi="26.139999" />
    <g
       id="g3657"
       transform="matrix(1.0698081,0,0,1,545.59545,152.07111)"
       inkscape:export-filename="/home/pawel/szarp-experimental/resources/wx/icons/szau_16_r45.png"
       inkscape:export-xdpi="26.139999"
       inkscape:export-ydpi="26.139999">
      <g
         transform="translate(-4.7776474,-76.067154)"
         id="g3659">
				<path
   d="M 30.352,520.583 L 41.763,540.432 L 60.771,529.406 C 55.1,516.455 51.388,510.787 55.974,484.885 C 52.963,499.059 41.868,513.763 30.352,520.583 z"
   id="path3661"
   style="fill:#e3e4e4" />

				<path
   d="M 35.884,518.309 L 41.762,540.432 L 62.974,534.693 C 60.875,520.726 58.703,514.287 69.834,490.447 C 63.29,503.4 48.799,514.706 35.884,518.309 z"
   id="path3663"
   style="fill:#c6c7c8" />

			</g>
      <g
         transform="translate(-4.7776474,-76.067154)"
         id="g3665">
			<g
   id="g3667">
				<path
   style="fill:#a7a8aa"
   id="path3669"
   d="M 41.762,540.432 L 60.77,529.406 C 57.478,521.843 54.853,516.802 54.12,508.755 C 48.343,513.238 41.937,516.596 35.884,518.31 L 41.762,540.432 z" />

				<path
   style="fill:#db001b"
   id="path3671"
   d="M 41.798,517.542 L 41.762,540.433 L 63.744,540.362 C 65.32,526.329 64.9,519.573 81.842,499.443 C 72.148,510.227 55.204,517.402 41.798,517.542 z" />

			</g>

		</g>
    </g>
    <path
       style="fill:#f7fb65;fill-opacity:1;stroke:none;stroke-width:12;stroke-linecap:round;stroke-linejoin:round;stroke-miterlimit:4;stroke-dashoffset:0;stroke-opacity:1"
       d="M 600.48315,565.79412 L 600.60815,575.35662 C 604.35232,575.40307 601.82229,577.44336 604.48315,578.82537 C 607.27721,580.27657 608.10764,576.20949 610.42065,579.16912 C 615.87363,574.34023 611.23185,578.0733 617.29565,572.54412 C 613.41005,568.22273 611.16015,570.27183 608.29565,569.13787 C 605.43114,568.00393 607.46749,565.65037 600.48315,565.79412 z"
       id="path3673"
       sodipodi:nodetypes="ccsccsc"
       inkscape:export-filename="/home/pawel/szarp-experimental/resources/wx/icons/szau_16_r45.png"
       inkscape:export-xdpi="26.139999"
       inkscape:export-ydpi="26.139999" />
    <g
       id="g3677"
       transform="matrix(1.0698081,0,0,1,560.82545,-1.0448267)"
       inkscape:export-filename="/home/pawel/szarp-experimental/resources/wx/icons/szau_16_wait.png"
       inkscape:export-xdpi="26.139999"
       inkscape:export-ydpi="26.139999">
      <g
         transform="translate(-4.7776474,-76.067154)"
         id="g3679">
				<path
   d="M 30.352,520.583 L 41.763,540.432 L 60.771,529.406 C 55.1,516.455 51.388,510.787 55.974,484.885 C 52.963,499.059 41.868,513.763 30.352,520.583 z"
   id="path3681"
   style="fill:#e3e4e4" />

				<path
   d="M 35.884,518.309 L 41.762,540.432 L 62.974,534.693 C 60.875,520.726 58.703,514.287 69.834,490.447 C 63.29,503.4 48.799,514.706 35.884,518.309 z"
   id="path3683"
   style="fill:#c6c7c8" />

			</g>
      <g
         transform="translate(-4.7776474,-76.067154)"
         id="g3685">
			<g
   id="g3687">
				<path
   style="fill:#a7a8aa"
   id="path3689"
   d="M 41.762,540.432 L 60.77,529.406 C 57.478,521.843 54.853,516.802 54.12,508.755 C 48.343,513.238 41.937,516.596 35.884,518.31 L 41.762,540.432 z" />

				<path
   style="fill:#db001b"
   id="path3691"
   d="M 41.798,517.542 L 41.762,540.433 L 63.744,540.362 C 65.32,526.329 64.9,519.573 81.842,499.443 C 72.148,510.227 55.204,517.402 41.798,517.542 z" />

			</g>

		</g>
    </g>
    <path
       style="fill:#87ece6;fill-opacity:1;stroke:none;stroke-width:12;stroke-linecap:round;stroke-linejoin:round;stroke-miterlimit:4;stroke-dashoffset:0;stroke-opacity:1"
       d="M 615.72182,412.67303 C 609.50246,413.21696 610.48788,414.93099 607.66349,416.07157 C 604.8391,417.21215 602.93311,415.44211 599.04743,419.29301 C 595.01594,423.28842 597.32574,425.1868 596.11469,427.94198 C 594.90364,430.69715 592.194,429.65479 592.05415,435.54431 C 591.90767,441.71314 594.08775,440.66342 595.29881,443.4186 C 596.50986,446.17378 595.7646,448.97112 599.04743,451.79561 C 603.39884,455.53949 604.65961,453.81621 607.47106,454.99127 C 610.28251,456.16634 609.36075,458.46738 615.79648,458.41559 C 622.96944,458.34954 622.12064,454.36342 625.37043,452.67565 C 626.99532,451.83177 629.20976,454.18791 632.5564,450.87729 C 636.09023,447.3815 635.73741,445.75908 636.41894,444.13599 C 637.87606,440.66578 639.14296,441.03497 639.33971,436.49002 C 639.3959,436.17804 639.42092,435.86124 639.41437,435.54431 C 639.41721,435.1674 639.37544,434.79148 639.28994,434.42439 C 639.40377,429.31484 636.48961,430.63787 635.31375,428.12036 C 634.13789,425.60285 637.57448,425.06296 632.52064,419.44233 C 628.63505,415.12096 626.40066,417.14836 623.53616,416.0144 C 620.67165,414.88043 622.71622,412.945 615.72182,412.67303 z M 615.72182,422.22969 C 619.65648,422.22969 617.03578,424.31337 619.72722,425.71127 C 622.52128,427.16247 623.33878,423.10268 625.65179,426.06231 C 627.98164,429.04348 624.56011,427.69903 625.80603,430.78954 C 627.12159,434.05279 629.71919,431.8104 629.85771,435.54431 C 629.96031,438.30999 627.17904,437.48756 626.74935,438.75563 C 626.31965,440.02371 628.13893,442.02622 627.34411,443.11 C 626.00544,444.93535 624.26181,442.55283 621.30246,444.32757 C 618.45607,446.03457 620.98903,448.26927 615.64715,448.85893 C 610.97909,448.62035 614.33917,447.61368 611.37385,445.4363 C 608.76277,443.51903 608.19186,446.41592 605.93937,444.08598 C 603.2471,441.30114 607.37109,441.96847 605.40418,438.22857 C 603.72901,435.04338 602.4267,438.45499 602.4267,434.72842 C 602.4267,431.27381 604.70822,432.54153 605.40419,430.96871 C 606.10015,429.39589 603.31922,429.07484 605.66741,426.21163 C 607.76027,423.65976 609.54658,426.44524 611.24448,425.7544 C 612.94237,425.06356 611.55603,422.22969 615.72182,422.22969 z"
       id="path3693"
       sodipodi:nodetypes="cssssssscssscscsssccssssssscsssssssc"
       inkscape:export-filename="/home/pawel/szarp-experimental/resources/wx/icons/szau_16_wait.png"
       inkscape:export-xdpi="26.139999"
       inkscape:export-ydpi="26.139999" />
  </g>
</svg>
