/* XPM */
static const char *szau_16_r90_xpm[] = {
/* columns rows colors chars-per-pixel */
"16 16 42 1",
"  c #DB001B",
". c #DB011C",
"X c #DA0520",
"o c #D90721",
"O c #D21C33",
"+ c #D81A32",
"@ c #E65E37",
"# c #E66137",
"$ c #CC3144",
"% c #BF5C69",
"& c #BE5C6A",
"* c #BE5D6A",
"= c #BE5E6B",
"- c #C15C69",
"; c #D15F6E",
": c #C9606E",
"> c #F6F965",
", c #F7F965",
"< c #F7FB65",
"1 c #F7FC66",
"2 c #B67B84",
"3 c #B78B92",
"4 c #A7A8AA",
"5 c #A8A9AB",
"6 c #AAABAD",
"7 c #B1B2B3",
"8 c #B5B6B7",
"9 c #B6B7B8",
"0 c #B8B9BB",
"q c #EAEC80",
"w c #D4D6AB",
"e c #CBCDBC",
"r c #C0C1C2",
"t c #C2C3C5",
"y c #C6C7C8",
"u c #D4D5D5",
"i c #D6D7D7",
"p c #D8D9DA",
"a c #DDDEDE",
"s c #DFE0E0",
"d c #E3E4E4",
"f c None",
/* pixels */
"ffffffffffffffff",
"ffffffffffffffff",
"fffffffd<<1qffff",
"ffffffff<<<<<fff",
"ffffffdff<<<<fff",
"fffffddffew<<>ff",
"ffffdddiyyf<<,ff",
"fffdda09yyf#<<<f",
"ffdat643;+  @fff",
"fp82$Oo     ffff",
"ds5=        ffff",
"fd7*       fffff",
"fdr&       fffff",
"ffu%      .fffff",
"fff-      Xfffff",
"fff:...   ffffff"
};
