/* XPM */
static const char *szau_16_wait_xpm[] = {
/* columns rows colors chars-per-pixel */
"16 16 65 1",
"  c #DB001B",
". c #DB011C",
"X c #DA0520",
"o c #D90721",
"O c #D11E35",
"+ c #D81A32",
"@ c #CC2A3F",
"# c #CA2F44",
"$ c #C53F51",
"% c #BF5060",
"& c #BE5362",
"* c #BC5767",
"= c #BE5F6B",
"- c #B86270",
"; c #B46F7A",
": c #B3717C",
"> c #C34454",
", c #C34455",
"< c #C15C69",
"1 c #D15F6E",
"2 c #C9606E",
"3 c #B07781",
"4 c #B78B92",
"5 c #A7949A",
"6 c #9DADB0",
"7 c #A7A8AA",
"8 c #AAABAD",
"9 c #B6B7B8",
"0 c #B8B9BB",
"q c #8CDFDA",
"w c #90D5D2",
"e c #99D2D0",
"r c #9DDDDA",
"t c #BCC4C4",
"y c #BFCBCB",
"u c #B2D3D2",
"i c #8BE1DC",
"p c #8BE4DF",
"a c #98E1DE",
"s c #89E6E2",
"d c #88E7E2",
"f c #87E9E4",
"g c #87EAE4",
"h c #87EBE5",
"j c #87EBE6",
"k c #87ECE5",
"l c #86ECE6",
"z c #87ECE6",
"x c #87EDE6",
"c c #88EBE4",
"v c #89EBE6",
"b c #8DEBE6",
"n c #ACE4E1",
"m c #A3E9E6",
"M c #A8E8E5",
"N c #C6C7C8",
"B c #D4D5D5",
"V c #D6D7D7",
"C c #DDDEDE",
"Z c #C9E7E5",
"A c #CEE6E4",
"S c #DEE0E0",
"D c #DBE4E4",
"F c #E3E4E4",
"G c None",
/* pixels */
"GGGGGGGGGGGGGGGG",
"GGGGGGGmGGGGGGGG",
"GGGGGzzzzzkaGGGG",
"GGGzzzzzzzzzzGGG",
"GGGzzzvMGzzzzGGG",
"GGzzkADGGyuzzcGG",
"GGzzbFFVNNGzzgGG",
"GjzzZC09NNG>hzxG",
"Gzzzr8741+ ,hzlG",
"GnzzzOo    6zzzG",
"FSpzz:@  $5izzGG",
"GFezzzd%-qzzzxGG",
"GFtwzzzzzzfzzGGG",
"GGB=&5hzzs*GGGGG",
"GGG<  #;3@XGGGGG",
"GGG2...   GGGGGG"
};
