/* XPM */
static const char *szau_16_r135_xpm[] = {
/* columns rows colors chars-per-pixel */
"16 16 49 1",
"  c #DB001B",
". c #DB011C",
"X c #DA0520",
"o c #D90721",
"O c #DD0E20",
"+ c #D21C33",
"@ c #D81A32",
"# c #E34B31",
"$ c #E44A31",
"% c #CC3144",
"& c #BF5C69",
"* c #BE5C6A",
"= c #BE5D6A",
"- c #BE5E6B",
"; c #C15C69",
": c #D15F6E",
"> c #C9606E",
", c #F1CE57",
"< c #F6F764",
"1 c #F6F965",
"2 c #F7F965",
"3 c #F7FB64",
"4 c #F7FA65",
"5 c #F7FB65",
"6 c #F7FC66",
"7 c #F8FB64",
"8 c #F8FB65",
"9 c #B67B84",
"0 c #B78B92",
"q c #A7A8AA",
"w c #A8A9AB",
"e c #AAABAD",
"r c #B1B2B3",
"t c #B5B6B7",
"y c #B6B7B8",
"u c #B8B9BB",
"i c #EAEC80",
"p c #D4D6AB",
"a c #CBCDBC",
"s c #C0C1C2",
"d c #C2C3C5",
"f c #C6C7C8",
"g c #D4D5D5",
"h c #D6D7D7",
"j c #D8D9DA",
"k c #DDDEDE",
"l c #DFE0E0",
"z c #E3E4E4",
"x c None",
/* pixels */
"xxxxxxxxxxxxxxxx",
"xxxxxxxxxxxxxxxx",
"xxxxxxxz556ixxxx",
"xxxxxxxx55555xxx",
"xxxxxxzxx5555xxx",
"xxxxxzzxxap551xx",
"xxxxzzzhffx552xx",
"xxxzzkuyffx#455x",
"xxzkdeq0:@ $455x",
"xjt9%+o    ,553x",
"zlw-      O<55xx",
"xzr=       x87xx",
"xzs*       xxxxx",
"xxg&      .xxxxx",
"xxx;      Xxxxxx",
"xxx>...   xxxxxx"
};
