/* XPM */
static const char *szau_16_error_xpm[] = {
/* columns rows colors chars-per-pixel */
"16 16 57 1",
"  c #DB001B",
". c #DB011C",
"X c #ED0E0D",
"o c #EC0D0E",
"O c #F51407",
"+ c #FD1A01",
"@ c #FD1B01",
"# c #FF1B00",
"$ c #FE1B01",
"% c #FF1C00",
"& c #FF1D00",
"* c #FF1D01",
"= c #F2120A",
"- c #E10516",
"; c #E20616",
": c #E50714",
"> c #E50813",
", c #E70912",
"< c #E80A11",
"1 c #E80B12",
"2 c #EA0C10",
"3 c #FE2005",
"4 c #F52611",
"5 c #F52C13",
"6 c #FD2A10",
"7 c #DA0520",
"8 c #D90721",
"9 c #D21C33",
"0 c #D81A32",
"q c #EF4B37",
"w c #DD5D4E",
"e c #E95948",
"r c #F65A46",
"t c #F56352",
"y c #C05B67",
"u c #C15C69",
"i c #D15F6E",
"p c #C9606E",
"a c #ED7364",
"s c #B78B92",
"d c #A7A8AA",
"f c #AAABAD",
"g c #B6B7B8",
"h c #B8B9BB",
"j c #D89088",
"k c #C4B7B6",
"l c #CDB4B1",
"z c #EBABA3",
"x c #E9B7B0",
"c c #C6C7C8",
"v c #D4D5D5",
"b c #D6D7D7",
"n c #DDDEDE",
"m c #E6D2CF",
"M c #E0DCDC",
"N c #E3E4E4",
"B c None",
/* pixels */
"BBBBBBBBBBBBBBBB",
"BBBBBBBrBBBBBBBB",
"BBBBB&&%%%#qBBBB",
"BBB#%%%%%%%%%BBB",
"BBB%%%3tB%%%%BBB",
"BB&%%xmBBlj%%%BB",
"BB%%6NNbccB%%%BB",
"B%%%znhgccB>%%%B",
"B*%%efdsi0 >%%%B",
"Ba%%%98    O%%#B",
"NM5%%o-  :=@%%BB",
"BNw%%%$,2+%%%#BB",
"BNk4%%%%%%%%%BBB",
"BBvy<=%%%$1BBBBB",
"BBBu  ;oX-7BBBBB",
"BBBp...   BBBBBB"
};
