/* XPM */
static const char *szau_16_r315_xpm[] = {
/* columns rows colors chars-per-pixel */
"16 16 63 1",
"  c #DB001B",
". c #DB011C",
"X c #DA0520",
"o c #D90721",
"O c #D21E34",
"+ c #D81A32",
"@ c #E02A27",
"# c #E0322A",
"$ c #E2422F",
"% c #E34B31",
"& c #E44A31",
"* c #E45434",
"= c #E55935",
"- c #E65E37",
"; c #E7683A",
": c #E8763E",
"> c #E8783E",
", c #C15C69",
"< c #C05F69",
"1 c #D15F6E",
"2 c #C9606E",
"3 c #EA8342",
"4 c #EC9848",
"5 c #ED9D49",
"6 c #EFB751",
"7 c #EEE266",
"8 c #F5ED60",
"9 c #F6EE61",
"0 c #EEF16D",
"q c #F6F463",
"w c #F6F564",
"e c #F7F864",
"r c #F6F965",
"t c #F7F965",
"y c #F7FB64",
"u c #F7FA65",
"i c #F6FB65",
"p c #F7FB65",
"a c #F7FC66",
"s c #F8FB64",
"d c #F8FB65",
"f c #F5FA6E",
"g c #B78B92",
"h c #A7A8AA",
"j c #AAABAD",
"k c #B6B7B8",
"l c #B8B9BB",
"z c #D8DB87",
"x c #EAEC80",
"c c #E4E688",
"v c #E9EB9B",
"b c #D4D6AB",
"n c #C3C5BC",
"m c #CBCDBC",
"M c #C6C7C8",
"N c #D4D5D5",
"B c #D6D7D7",
"V c #DDDEDE",
"C c #E9EBC1",
"Z c #E0E0DE",
"A c #E4E5E1",
"S c #E3E4E4",
"D c None",
/* pixels */
"DDDDDDDDDDDDDDDD",
"DDDDDDDDDDDDDDDD",
"DDDDDDDSppaxDDDD",
"DDDDDDDDpppppDDD",
"DDDpDDSDDppppDDD",
"DDdppASDDmbpprDD",
"DDppfSSBMMDpptDD",
"DpppCVlkMMD%uppD",
"Dpppcjhg1+ &uppD",
"DvpppOo    6ppyD",
"SZ0pp>@  $49ppDD",
"DSzpppq*;8pppsDD",
"DSn7ppppppepiDDD",
"DDN<=5uppw-DDDDD",
"DDD,  #:3#XDDDDD",
"DDD2...   DDDDDD"
};
