/* XPM */
static const char *szau_16_r225_xpm[] = {
/* columns rows colors chars-per-pixel */
"16 16 65 1",
"  c #DB001B",
". c #DB011C",
"X c #DA0520",
"o c #D90721",
"O c #DD0E20",
"+ c #D21C33",
"@ c #D81A32",
"# c #E02A27",
"$ c #E0322A",
"% c #E2422F",
"& c #E34B31",
"* c #E44A31",
"= c #E45434",
"- c #E55935",
"; c #E65E37",
": c #E7683A",
"> c #E8763E",
", c #CC3144",
"< c #BE5E6B",
"1 c #C15C69",
"2 c #C05F69",
"3 c #D15F6E",
"4 c #C0616A",
"5 c #C9606E",
"6 c #EA8342",
"7 c #EC9848",
"8 c #ED9D49",
"9 c #EFB751",
"0 c #F0BB52",
"q c #DDB267",
"w c #F5ED60",
"e c #F6EE61",
"r c #F6F463",
"t c #F6F564",
"y c #F7F864",
"u c #F6F965",
"i c #F7F965",
"p c #F7FB64",
"a c #F7FA65",
"s c #F6FB65",
"d c #F7FB65",
"f c #F7FC66",
"g c #F8FB64",
"h c #B67B84",
"j c #B78B92",
"k c #A7A8AA",
"l c #A8A9AB",
"z c #AAABAD",
"x c #B1B2B3",
"c c #B5B6B7",
"v c #B6B7B8",
"b c #B8B9BB",
"n c #EAEC80",
"m c #D4D6AB",
"M c #CBCDBC",
"N c #C0C1C2",
"B c #C2C3C5",
"V c #C6C7C8",
"C c #D4D5D5",
"Z c #D6D7D7",
"A c #D8D9DA",
"S c #DDDEDE",
"D c #DFE0E0",
"F c #E3E4E4",
"G c None",
/* pixels */
"GGGGGGGGGGGGGGGG",
"GGGGGGGGGGGGGGGG",
"GGGGGGGFddfnGGGG",
"GGGGGGGGdddddGGG",
"GGGGGGFGGddddGGG",
"GGGGGFFGGMmdduGG",
"GGGGFFFZVVGddiGG",
"GGGFFSbvVVG&addG",
"GGFSBzkj3@ *addG",
"GAch,+o    9ddpG",
"FDl<O:#  %7eddGG",
"GFx40dr=:wdddgGG",
"GFNqddddddydsGGG",
"GGC2-8addt;GGGGG",
"GGG1  $>6$XGGGGG",
"GGG5...   GGGGGG"
};
