/* XPM */
static const char *szau_16_new_xpm[] = {
/* columns rows colors chars-per-pixel */
"14 13 62 1",
"  c #DB001B",
". c #DB021B",
"X c #DB041B",
"o c #DC071A",
"O c #DC081A",
"+ c #DC0B1A",
"@ c #DE1719",
"# c #DF2018",
"$ c #E13216",
"% c #DA0520",
"& c #DB1122",
"* c #CD3145",
"= c #BF5A67",
"- c #B96D78",
"; c #C34E5E",
": c #EB930B",
"> c #EC980B",
", c #EDA40A",
"< c #EEAC09",
"1 c #EFB708",
"2 c #F0BE07",
"3 c #D58A3E",
"4 c #F0C007",
"5 c #F2CD05",
"6 c #F4E003",
"7 c #F4E303",
"8 c #F4E403",
"9 c #F5EC02",
"0 c #F5ED02",
"q c #F5EF02",
"w c #F6F301",
"e c #F6F901",
"r c #F6FA01",
"t c #F7FC00",
"y c #F7FF00",
"u c #F7FE05",
"i c #F0F20F",
"p c #F6FE09",
"a c #F4FC0C",
"s c #F6FD0F",
"d c #E9F01E",
"f c #F5FC18",
"g c #EEF523",
"h c #F4FB22",
"j c #EAF134",
"k c #EFF459",
"l c #CACD79",
"z c #EFF461",
"x c #A8A9AB",
"c c #B2B3B4",
"v c #BDBEBF",
"b c #CD828C",
"n c #D8DA9A",
"m c #E4E7AF",
"M c #C7BEC0",
"N c #C1C2C3",
"B c #C5C6C7",
"V c #C6C7C8",
"C c #D8D9D9",
"Z c #E0E1E1",
"A c #E3E4E4",
"S c None",
/* pixels */
"SSSSSysyySSSSS",
"SSSyyyyyyyaSSS",
"SSyyyypyyyyySS",
"SyyyhkSSgjyyyS",
"SyyuAASVVSyye$",
"yyyzACNVVS8yyt",
"yyymvxcMb owyy",
"fyyi-=*%  :yyy",
"nyyrO   .#4yyS",
"Zdyyq<X+1yyyyS",
"Alyyyy69yyyySS",
"SB35tyyyy2SSSS",
"SC; @,70>&SSSS"
};
