/* XPM */
static const char * up_xpm[] = {
"20 20 166 2",
"  	c None",
". 	c #13321D",
"+ 	c #134621",
"@ 	c #3F7651",
"# 	c #416C53",
"$ 	c #0F421D",
"% 	c #1E6E2E",
"& 	c #60AC74",
"* 	c #70A083",
"= 	c #467158",
"- 	c #10411E",
"; 	c #196A29",
"> 	c #268F34",
", 	c #64BE74",
"' 	c #96CBAA",
") 	c #769B88",
"! 	c #3E674F",
"~ 	c #11401E",
"{ 	c #1C6A2B",
"] 	c #288D34",
"^ 	c #2B9D36",
"/ 	c #52B760",
"( 	c #94CCA5",
"_ 	c #A2BDB3",
": 	c #6E927E",
"< 	c #416851",
"[ 	c #103E1E",
"} 	c #1B612A",
"| 	c #2A9236",
"1 	c #2FA138",
"2 	c #2B9B38",
"3 	c #3AA749",
"4 	c #6AC07B",
"5 	c #9CCAA8",
"6 	c #A2BCAD",
"7 	c #6A8E7A",
"8 	c #3D674E",
"9 	c #0F391C",
"0 	c #195B29",
"a 	c #278634",
"b 	c #2FA739",
"c 	c #2BA138",
"d 	c #239235",
"e 	c #259237",
"f 	c #3EA54B",
"g 	c #6DBF7A",
"h 	c #9DCAA9",
"i 	c #94BAA3",
"j 	c #5E8C72",
"k 	c #38664B",
"l 	c #0D311A",
"m 	c #144F25",
"n 	c #207232",
"o 	c #2D9437",
"p 	c #2B9F36",
"q 	c #269635",
"r 	c #1F8C33",
"s 	c #1D8831",
"t 	c #279137",
"u 	c #44A553",
"v 	c #6BBB7C",
"w 	c #87C29A",
"x 	c #7AAE90",
"y 	c #4A7B5E",
"z 	c #275138",
"A 	c #092012",
"B 	c #103C1F",
"C 	c #16562A",
"D 	c #1D652E",
"E 	c #237832",
"F 	c #228732",
"G 	c #218E34",
"H 	c #1E8733",
"I 	c #1D8731",
"J 	c #258D37",
"K 	c #369546",
"L 	c #429555",
"M 	c #4D8D62",
"N 	c #528566",
"O 	c #436F55",
"P 	c #264E36",
"Q 	c #143B22",
"R 	c #081F13",
"S 	c #0E311C",
"T 	c #124324",
"U 	c #154A28",
"V 	c #154C28",
"W 	c #165528",
"X 	c #1D752F",
"Y 	c #218A32",
"Z 	c #1E8532",
"` 	c #218A34",
" .	c #2F9040",
"..	c #308B42",
"+.	c #1D6C2F",
"@.	c #164D28",
"#.	c #1C4D2E",
"$.	c #234E34",
"%.	c #1C482E",
"&.	c #133C22",
"*.	c #124323",
"=.	c #1C682D",
"-.	c #288A36",
";.	c #228635",
">.	c #339B45",
",.	c #49AE5C",
"'.	c #3F9A52",
").	c #165C27",
"!.	c #10331E",
"~.	c #0E301C",
"{.	c #1A5B2A",
"].	c #2C8838",
"^.	c #2A8B3C",
"/.	c #4DB15E",
"(.	c #6ECD81",
"_.	c #5BB16C",
":.	c #185C28",
"<.	c #10311D",
"[.	c #0C2B17",
"}.	c #19592A",
"|.	c #2B8738",
"1.	c #349446",
"2.	c #68C277",
"3.	c #8BD99A",
"4.	c #78B887",
"5.	c #195C29",
"6.	c #0A2A14",
"7.	c #185929",
"8.	c #2A8838",
"9.	c #3A984B",
"0.	c #72C981",
"a.	c #94DCA4",
"b.	c #89B397",
"c.	c #0C2B15",
"d.	c #258634",
"e.	c #379749",
"f.	c #68C67A",
"g.	c #8ED79D",
"h.	c #8BB09A",
"i.	c #195D2A",
"j.	c #10341D",
"k.	c #0E2C18",
"l.	c #175527",
"m.	c #228632",
"n.	c #309043",
"o.	c #50B165",
"p.	c #73CA86",
"q.	c #75BA88",
"r.	c #195E29",
"s.	c #10331D",
"t.	c #0D2B1A",
"u.	c #144D25",
"v.	c #1F7932",
"w.	c #267C3A",
"x.	c #37884A",
"y.	c #4F9862",
"z.	c #49945C",
"A.	c #175B27",
"B.	c #10301D",
"C.	c #10351E",
"D.	c #123B20",
"E.	c #133B21",
"F.	c #143C23",
"G.	c #183E26",
"H.	c #173D25",
"I.	c #11371E",
"                                        ",
"                    .                   ",
"                  + @ #                 ",
"                $ % & * =               ",
"              - ; > , ' ) !             ",
"            ~ { ] ^ / ( _ : <           ",
"          [ } | 1 2 3 4 5 6 7 8         ",
"        9 0 a b c d e f g h i j k       ",
"      l m n o p q r s t u v w x y z     ",
"    A B C D E F G H I J K L M N O P Q   ",
"  R S T U V W X Y Z `  ...+.@.#.$.%.&.  ",
"            *.=.-.;.>.,.'.).!.          ",
"            ~.{.].^./.(._.:.<.          ",
"            [.}.|.1.2.3.4.5.<.          ",
"            6.7.8.9.0.a.b.5.<.          ",
"            c.7.d.e.f.g.h.i.j.          ",
"            k.l.m.n.o.p.q.r.s.          ",
"            t.u.v.w.x.y.z.A.<.          ",
"            B.C.D.E.F.G.H.I.<.          ",
"                                        "};
