/* XPM */
static const char * viszio64_xpm[] = {
"64 64 68 1",
" 	c None",
".	c #E3E4E4",
"+	c #C6C7C8",
"@	c #0010FF",
"#	c #DB001B",
"$	c #E1E2E2",
"%	c #C8C9C9",
"&	c #AEAFB1",
"*	c #B0B1B3",
"=	c #A7A8AA",
"-	c #ABACAE",
";	c #C4C5C6",
">	c #BFC0C1",
",	c #B9BABC",
"'	c #E2E3E3",
")	c #C3C4C5",
"!	c #AAABAD",
"~	c #B4B5B6",
"{	c #C6C5C6",
"]	c #DEDFDF",
"^	c #C1C2C3",
"/	c #ACADAF",
"(	c #C8B8BB",
"_	c #CD848E",
":	c #D34D5E",
"<	c #D7D8D8",
"[	c #BABBBC",
"}	c #A9AAAB",
"|	c #D02238",
"1	c #DB021C",
"2	c #CCCDCD",
"3	c #B3B4B5",
"4	c #DFE0E0",
"5	c #C9CACB",
"6	c #B5B6B8",
"7	c #A9AAAC",
"8	c #B7737D",
"9	c #BF5A68",
"0	c #C34F5E",
"a	c #C64354",
"b	c #CA384B",
"c	c #CD2D41",
"d	c #D12036",
"e	c #D90822",
"f	c #E0E1E1",
"g	c #A8A9AB",
"h	c #D0243A",
"i	c #ADAEB0",
"j	c #BBBCBD",
"k	c #CDCED0",
"l	c #D02439",
"m	c #B3B4B6",
"n	c #D02339",
"o	c #D9DADB",
"p	c #BBBCBE",
"q	c #CECFD0",
"r	c #C5C6C6",
"s	c #D12238",
"t	c #DADBDB",
"u	c #D12137",
"v	c #CFD0D0",
"w	c #B4B5B7",
"x	c #C5C6C7",
"y	c #AEAFB0",
"z	c #BCBDBE",
"A	c #CBCCCE",
"B	c #D32137",
"C	c #DB011C",
"                                                                ",
"                                                                ",
"                                                                ",
"                                                                ",
"                              .                                 ",
"                              .                                 ",
"                              .                                 ",
"                             ..                                 ",
"                             .                                  ",
"                             .                                  ",
"                            ..                +                 ",
"                            ..                +                 ",
"            @@@@@@@@@      ...            @@@@@@@@@@            ",
"             @@@@@@@@@     ...            @@@@@@@@@             ",
"             @@@@@@@@@    ....            @@@@@@@@@             ",
"             @@@@@@@@@@  .....           @@@@@@@@@@             ",
"              @@@@@@@@@  .....           @@@@@@@@@@             ",
"              @@@@@@@@@@.....            @@@@@@@@@              ",
"               @@@@@@@@@.....           @@@@@@@@@               ",
"              @@@@@@@@@@.....          @@@@@@@@@@            #  ",
"               @@@@@@@@@@....         +@@@@@@@@@            #   ",
"               @@@@@@@@@@....        +@@@@@@@@@@@          #    ",
"                @@@@@@@@@....       +++@@@@@@@@@         ##     ",
"                @@@@@@@@@@...      ++++@@@@@@@@         ##      ",
"                 @@@@@@@@@...    +++++@@@@@@@@@@       ##       ",
"                 @@@@@@@@@...   +++++@@@@@@@@@@      ####       ",
"                  @@@@@@@@@... ++++++@@@@@@@@@     #####        ",
"                 .@@@@@@@@@.$%+++++++@@@@@@@@@    #####         ",
"                ..@@@@@@@@@@&*++++++@@@@@@@@@@  ######          ",
"               ....@@@@@@@@@=-++++++@@@@@@@@@@########          ",
"              .....@@@@@@@@@==;++++@@@@@@@@@@########           ",
"             ......@@@@@@@@@@=>++++@@@@@@@@@@#######            ",
"            ........@@@@@@@@@=,++++@@@@@@@@@#######             ",
"           .......')!@@@@@@@@@~+++{@@@@@@@@@#######             ",
"         .......]^-=@@@@@@@@@@/(_:@@@@@@@@@@######              ",
"        ......<[}====@@@@@@@@@|1##@@@@@@@@@######               ",
"       ....$23=======@@@@@@@@@@###@@@@@@@@#######               ",
"      ..4567==890abcde@@@@@@@@@##@@@@@@@@@######                ",
"    ..f3g=====h#######@@@@@@@@@@@@@@@@@@@@######                ",
"   ....i======h########@@@@@@@@@@@@@@@@@@######                 ",
" ......j======h########@@@@@@@@@@@@@@@@@@######                 ",
".......k======l########@@@@@@@@@@@@@@@@@######                  ",
" ......$}=====l#########@@@@@@@@@@@@@@@@@#####                  ",
" .......m=====l#########@@@@@@@@@@@@@@@@#####                   ",
"  ......;=====n##########@@@@@@@@@@@@@@@#####                   ",
"   .....o=====n##########@@@@@@@@@@@@@@######                   ",
"   ......i====n##########@@@@@@@@@@@@@######                    ",
"    .....p====n###########@@@@@@@@@@@@@#####                    ",
"     ....q====|###########@@@@@@@@@@@@######                    ",
"     ....$7===|############@@@@@@@@@@#######                    ",
"      ....~===|############@@@@@@@@@@######                     ",
"      ....r===s############################                     ",
"       ...t===s############################                     ",
"        ...i==s############################                     ",
"        ...p==u############################                     ",
"         ..v==u############################                     ",
"          .$7=u###########################                      ",
"          ..w=d###########################                      ",
"           .x=d###########################                      ",
"           .t=d###########################                      ",
"            .yd###########################                      ",
"             zd###########################                      ",
"             Ad###########################                      ",
"              BCC#########################                      "};
