/* XPM */
static const char * viszio16_xpm[] = {
"16 16 40 1",
" 	c None",
".	c #0010FF",
"+	c #E3E4E4",
"@	c #9CA2EC",
"#	c #7A81DD",
"$	c #1523FD",
"%	c #5560F5",
"&	c #D6D7D7",
"*	c #C6C7C8",
"=	c #3E49EE",
"-	c #DB001B",
";	c #ADAFBF",
">	c #ADB0CF",
",	c #7D077D",
"'	c #E0E1E1",
")	c #C8C9CA",
"!	c #1523F5",
"~	c #6C5AC6",
"{	c #805EBD",
"]	c #0E0FF1",
"^	c #D9DADB",
"/	c #BDBEBF",
"(	c #B87D86",
"_	c #C9394C",
":	c #6A1598",
"<	c #1B0EE2",
"[	c #290DD4",
"}	c #7B077F",
"|	c #DFE0E0",
"1	c #A8A9AB",
"2	c #BE5D6A",
"3	c #C00238",
"4	c #B5B6B8",
"5	c #440BB8",
"6	c #370CC6",
"7	c #BE5C6A",
"8	c #A40454",
"9	c #D7D8D8",
"0	c #C4626F",
"a	c #D14D5E",
"                ",
"                ",
"                ",
"   ... +  ...   ",
"    ..+   ..    ",
"    ..@  #..    ",
"    $.%&*=.. -  ",
"    @..;>..,-   ",
"  +')!.~{.]--   ",
" ^/(_:.<[.}-    ",
"+|12-3....3-    ",
" +42--5..6-     ",
" +*7--8668-     ",
"  97-------     ",
"   0-------     ",
"   a-------     "};
