/* XPM */
static const char * wxhelp_xpm[] = {
/* columns rows colors chars-per-pixel */
"64 64 126 2",
"   c #7D3846",
".  c #763D4B",
"X  c #7A3A4A",
"o  c #3E5F66",
"O  c #007F7F",
"+  c #0D7B7D",
"@  c #177477",
"#  c #1B7376",
"$  c #177578",
"%  c #35646B",
"&  c #3B6168",
"*  c #246E72",
"=  c #286C71",
"-  c #207274",
";  c #5D4B56",
":  c #5B4E58",
">  c #4E555F",
",  c #53525B",
"<  c #6E424F",
"1  c #72404D",
"2  c #644753",
"3  c #6B4351",
"4  c #624956",
"5  c #4B5760",
"6  c #445B63",
"7  c #485862",
"8  c #B7162D",
"9  c #BD122A",
"0  c #B11A2F",
"q  c #AB1C31",
"w  c #8D2E3E",
"e  c #9A2739",
"r  c #99283A",
"t  c #A62035",
"y  c #D6031E",
"u  c #DB001B",
"i  c #C30D26",
"p  c #CB0A23",
"a  c #C30F28",
"s  c #D10620",
"d  c #D90721",
"f  c #DA0D27",
"g  c #C11229",
"h  c #D4162E",
"j  c #D4182F",
"k  c #D21C33",
"l  c #D12036",
"z  c #843444",
"x  c #883243",
"c  c #CD2C41",
"v  c #CA374A",
"b  c #C83C4E",
"n  c #D43F52",
"m  c #BF5A68",
"M  c #B7757F",
"N  c #B8717B",
"B  c #C64354",
"V  c #C34D5D",
"C  c #D44658",
"Z  c #C05866",
"A  c #087F80",
"S  c #A97A83",
"D  c #B57982",
"F  c #CE7D88",
"G  c #008181",
"H  c #098787",
"J  c #058888",
"K  c #0D8989",
"L  c #138B8B",
"P  c #1A8E8E",
"I  c #1F9292",
"U  c #228E8F",
"Y  c #249292",
"T  c #2C9595",
"R  c #2D9898",
"E  c #389C9C",
"W  c #439B9B",
"Q  c #4B9D9E",
"!  c #47A3A3",
"~  c #4EA5A5",
"^  c #54A3A3",
"/  c #5CA3A4",
"(  c #56A8A8",
")  c #6BA7A8",
"_  c #63AEAE",
"`  c #6DAAAB",
"'  c #75ABAC",
"]  c #6FB3B3",
"[  c #76B6B6",
"{  c #78B6B6",
"}  c #7EB9B9",
"|  c #AE9297",
" . c #8EB5B6",
".. c #81BBBB",
"X. c #92B6B7",
"o. c #A9A2A5",
"O. c #A7A7A9",
"+. c #A7A8AA",
"@. c #AAABAC",
"#. c #AEAFB1",
"$. c #A2BABB",
"%. c #AFBDBE",
"&. c #B2B3B5",
"*. c #B6B7B8",
"=. c #BABBBC",
"-. c #CD8790",
";. c #C8B3B7",
":. c #C7BABC",
">. c #8FC0C0",
",. c #9CC6C6",
"<. c #A8C9C9",
"1. c #B4C0C1",
"2. c #BEC1C3",
"3. c #BDD4D4",
"4. c #C3C4C5",
"5. c #C6C7C8",
"6. c #CACBCC",
"7. c #CFD0D1",
"8. c #CBDADA",
"9. c #D3D4D4",
"0. c #D5D6D8",
"q. c #D7DEDE",
"w. c #DCDDDD",
"e. c #DEE0E1",
"r. c #E3E4E4",
"t. c None",
/* pixels */
"t.t.t.t.t.t.t.t.t.t.t.t.t.t.t.t.t.t.t.t.t.t.t.t.t.t.t.t.t.t.t.t.t.t.t.t.t.t.t.t.t.t.t.t.t.t.t.t.t.t.t.t.t.t.t.t.t.t.t.t.t.t.t.t.",
"t.t.t.t.t.t.t.t.t.t.t.t.t.t.t.t.t.t.t.t.t.t.t.t.t.t.t.t.t.t.t.t.t.t.t.t.t.t.t.t.t.t.t.t.t.t.t.t.t.t.t.t.t.t.t.t.t.t.t.t.t.t.t.t.",
"t.t.t.t.t.t.t.t.t.t.t.t.t.t.t.t.t.t.t.t.t.t.t.t.t.t.t.t.t.t.t.t.t.t.t.t.t.t.t.t.t.t.t.t.t.t.t.t.t.t.t.t.t.t.t.t.t.t.t.t.t.t.t.t.",
"t.t.t.t.t.t.t.t.t.t.t.t.t.t.t.t.t.t.t.t.t.t.t.t.t.t.t.t.t.t.t.t.t.t.t.t.t.t.t.t.t.t.t.t.t.t.t.t.t.t.t.t.t.t.t.t.t.t.t.t.t.t.t.t.",
"t.t.t.t.t.t.t.t.t.t.t.t.t.t.t.t.t.t.t.t.t.t.t.t.t.t.t.t.t.t.r.t.t.t.t.t.t.t.t.t.t.t.t.t.t.t.t.t.t.t.t.t.t.t.t.t.t.t.t.t.t.t.t.t.",
"t.t.t.t.t.t.t.t.t.t.t.t.t.t.t.t.t.t.t.t.t.t.t.t.t.t.t.t.t.t.r.t.t.t.t.t.t.t.t.t.t.t.t.t.t.t.t.t.t.t.t.t.t.t.t.t.t.t.t.t.t.t.t.t.",
"t.t.t.t.t.t.t.t.t.t.t.t.t.t.t.t.t.t.t.t.t.t.t.t.t.t.t.t.t.t.r.t.t.t.t.t.t.t.t.t.t.t.t.t.t.t.t.t.t.t.t.t.t.t.t.t.t.t.t.t.t.t.t.t.",
"t.t.t.t.t.t.t.t.t.t.t.t.t.t.t.t.t.t.t.t.t.t.t.t.t.t.t.t.t.r.t.t.t.t.t.t.t.t.t.t.t.t.t.t.t.t.t.t.t.t.t.t.t.t.t.t.t.t.t.t.t.t.t.t.",
"t.t.t.t.t.t.t.t.t.t.t.t.t.t.t.t.t.t.t.t.t.t.t.t.t.t.t.t.t.r.t.t.t.t.t.t.t.t.t.t.t.t.t.t.t.t.t.t.t.t.t.t.t.t.t.t.t.t.t.t.t.t.t.t.",
"t.t.t.t.t.t.t.t.t.t.t.t.t.t.t.t.t.t.t.t.t.t.t.t.t.t.t.t.r.r.t.t.t.t.t.t.t.t.t.t.t.t.t.t.t.t.t.t.t.t.t.t.t.t.t.t.t.t.t.t.t.t.t.t.",
"t.t.t.t.t.t.t.t.t.t.t.t.t.t.t.t.t.t.t.t.t.t.t.t.t.t.t.t.r.r.t.t.t.t.t.t.t.t.t.t.t.t.t.t.t.t.5.t.t.t.t.t.t.t.t.t.t.t.t.t.t.t.t.t.",
"t.t.t.t.t.t.t.t.t.t.t.t.t.t.t.t.t.t.t.t.t.t.t.t.t.t.t.t.r.r.t.t.t.t.t.t.t.t.t.t.t.t.t.t.t.t.5.t.t.t.t.t.t.t.t.t.t.t.t.t.t.t.t.t.",
"t.t.t.t.t.t.t.t.t.t.t.t.t.t.t.t.t.t.t.t.t.t.t.t.t.t.t.r.r.r.t.t.t.t.t.t.t.t.t.t.t.t.t.t.t.5.t.t.t.t.t.t.t.t.t.t.t.t.t.t.t.t.t.t.",
"t.t.t.t.t.t.t.t.t.t.t.t.t.t.t.t.t.t.t.t.t.t.t.t.t.t.r.r.r.r.t.t.t.t.t.t.t.t.t.t.t.t.t.t.5.5.t.t.t.t.t.t.t.t.t.t.t.t.t.t.t.t.t.t.",
"t.t.t.t.t.t.t.t.t.t.t.t.t.t.t.t.t.t.t.t.t.t.t.t.t.t.r.r.r.r.t.t.t.t.t.t.t.t.t.t.t.t.t.5.5.t.t.t.t.t.t.t.t.t.t.t.t.t.t.t.t.t.t.t.",
"t.t.t.t.t.t.t.t.t.t.t.t.t.t.t.t.t.t.t.t.t.t.t.t.t.r.r.r.r.r.t.t.t.t.t.t.t.t.t.t.t.t.5.5.5.t.t.t.t.t.t.t.t.t.t.t.t.t.t.t.t.t.t.t.",
"t.t.t.t.t.t.t.t.t.t.t.t.t.t.t.t.t.t.t.t.t.t.t.t.t.r.r.r.r.t.t.t.t.t.t.t.t.t.t.t.t.t.5.5.t.t.t.t.t.t.t.t.t.t.t.t.t.t.t.t.t.t.t.t.",
"t.t.t.t.t.t.t.t.t.t.t.t.t.t.t.t.t.t.t.t.t.t.t.t.r.r.r.r.r.t.t.t.t.t.t.t.t.t.t.t.t.5.5.5.t.t.t.t.t.t.t.t.t.t.t.t.t.t.t.t.t.t.t.t.",
"t.t.t.t.t.t.t.t.t.t.t.t.t.t.t.t.t.t.t.t.t.t.t.t.r.r.r.r.r.t.t.t.t.t.t.t.t.t.t.t.5.5.5.t.t.t.t.t.t.t.t.t.t.t.t.t.t.t.t.t.t.t.t.t.",
"t.t.t.t.t.t.t.t.t.t.t.t.t.t.t.t.t.t.t.t.t.t.t.r.r.r.r.r.e.t.t.t.t.t.t.t.t.t.t.4.5.5.6.t.t.t.t.t.t.t.t.t.t.t.t.t.t.t.t.t.t.t.t.t.",
"t.t.t.t.t.t.t.t.t.t.t.t.t.t.t.t.t.t.t.t.t.t.r.r.8.} ! Y L G G G G G G G G G Y ^ $.4.5.t.t.t.t.t.t.t.t.t.t.t.t.t.t.t.t.t.u t.t.t.",
"t.t.t.t.t.t.t.t.t.t.t.t.t.t.t.t.t.t.t.t.t.8.} R J G G O G G G G G G G G G G G G J U t.t.t.t.t.t.t.t.t.t.t.t.t.t.t.t.u u t.t.t.t.",
"t.t.t.t.t.t.t.t.t.t.t.t.t.t.t.t.t.t.t.t.Y L G G G G G G G G G G O G G G G G G G G G G G t.t.t.t.t.t.t.t.t.t.t.t.t.u u t.t.t.t.t.",
"t.t.t.t.t.t.t.t.t.t.t.t.t.t.t.t.t.t.t.t.G G O G G G G G G G G G G G O G G G G G G G G G G t.t.t.t.t.t.t.t.t.t.t.u u t.t.t.t.t.t.",
"t.t.t.t.t.t.t.t.t.t.t.t.t.t.t.t.t.t.t.>.O G G G G G G J K K G G G P L J G O A G O G G O G G t.t.t.t.t.t.t.t.u u u t.t.t.t.t.t.t.",
"t.t.t.t.t.t.t.t.t.t.t.t.t.t.t.t.t.t.r.,.G G O G J P E ~ ~ I G L / ` ' ) ! P G G G G O G G G G t.t.t.t.t.t.u u u t.t.t.t.t.t.t.t.",
"t.t.t.t.t.t.t.t.t.t.t.t.t.t.t.t.t.r.r.,.O G L T ~ ~ ( _ ..[ t.2.5.5.4.5.4.1.Q G G O O G G G G J t.t.t.u u u u u t.t.t.t.t.t.t.t.",
"t.t.t.t.t.t.t.t.t.t.t.t.t.t.t.t.t.r.r.,.T >.{ ( ( ] ,.8.e.5.5.5.5.5.5.5.5.5.5.W G G G G G G J G + 0 u u u u u t.t.t.t.t.t.t.t.t.",
"t.t.t.t.t.t.t.t.t.t.t.t.t.t.t.t.r.r.r.q.e.e...[ <.q.r.9.@.*.5.5.5.5.5.5.5.5.5.X.G O G G O G A - > e u u u u t.t.t.t.t.t.t.t.t.t.",
"t.t.t.t.t.t.t.t.t.t.t.t.t.t.t.r.r.r.r.r.r.r.3.e.r.e.=.O.O.#.5.5.5.5.5.5.5.5.5.%.G O G G G G G & > z u u u t.t.t.t.t.t.t.t.t.t.t.",
"t.t.t.t.t.t.t.t.t.t.t.t.t.t.r.r.r.r.r.r.r.r.r.r.7.@.@.O.O.@.5.5.5.5.5.5.5.5.5. .G G G G O G O 6 5 z y u u t.t.t.t.t.t.t.t.t.t.t.",
"t.t.t.t.t.t.t.t.t.t.t.t.t.r.r.r.r.r.r.r.r.r.q.*.O.O.@.O.O.O.4.5.5.5.5.5.5.5.4.T G G G G O G H 7 > z u u t.t.t.t.t.t.t.t.t.t.t.t.",
"t.t.t.t.t.t.t.t.t.t.t.t.r.r.r.r.r.r.r.r.e.=.@.O.+.+.+.+.O.O.=.5.5.5.5.5.5.:.S + G O G G O G * 5 , e u t.t.t.t.t.t.t.t.t.t.t.t.t.",
"t.t.t.t.t.t.t.t.t.t.t.r.r.r.r.r.r.r.r.2.@.O.O.O.+.+.+.+.@.@.=.5.5.5.4.-.n g = G G G O G G + 7 5 4 a u t.t.t.t.t.t.t.t.t.t.t.t.t.",
"t.t.t.t.t.t.t.t.t.r.r.r.r.r.r.r.e.2.@.+.O.O.O.O.+.+.O.+.O.O.&.;.F C f u 0 # G G G G A A G & > , x u t.t.t.t.t.t.t.t.t.t.t.t.t.t.",
"t.t.t.t.t.t.t.t.r.r.r.r.r.r.0.=.O.O.+.+.+.O.O.@.+.+.O.o.M V k u u u u w + G G G O G G A % > , X d t.t.t.t.t.t.t.t.t.t.t.t.t.t.t.",
"t.t.t.t.t.t.t.r.r.r.r.e.6.&.+.O.O.O.O.+.@.O.| M Z b l y u u u u u s 2 G G G G G G G H o > 5 X i u t.t.t.t.t.t.t.t.t.t.t.t.t.t.t.",
"t.t.t.t.t.t.r.r.e.6.*.@.+.+.M Z V B v c l d u u u u u u u u u u p 6 G G A G G G G A 6 > , X p u t.t.t.t.t.t.t.t.t.t.t.t.t.t.t.t.",
"t.t.t.t.r.r.e.&.@.+.O.O.O.+.l u u u u u u u u u u u u u u u u 9 = G G G G G G G $ 5 > , z p u u t.t.t.t.t.t.t.t.t.t.t.t.t.t.t.t.",
"t.t.t.r.r.r.r.#.O.O.O.O.O.O.k u u u u u u u u u u u u u u u 8 # G G G G G G G = > > ; r y u u t.t.t.t.t.t.t.t.t.t.t.t.t.t.t.t.t.",
"t.r.r.r.r.r.r.=.+.+.+.+.+.+.k u u u u u u u u u u u u u u p - G G G G G O O & > > 3 q u u u u t.t.t.t.t.t.t.t.t.t.t.t.t.t.t.t.t.",
"r.r.r.r.r.r.r.6.+.+.+.+.+.+.l u u u u u u u u u u u u u u > G G G G G G H & , 5 . 9 u u u u t.t.t.t.t.t.t.t.t.t.t.t.t.t.t.t.t.t.",
"t.r.r.r.r.r.r.r.+.+.+.+.+.+.l u u u u u u u u u u u u u i + O O G G G G & > > X p u u u u u t.t.t.t.t.t.t.t.t.t.t.t.t.t.t.t.t.t.",
"t.r.r.r.r.r.r.r.&.+.+.+.+.+.l u u u u u u u u u u u u u X O G O G G G # > 5 . p u u u u u t.t.t.t.t.t.t.t.t.t.t.t.t.t.t.t.t.t.t.",
"t.t.r.r.r.r.r.r.4.O.O.+.O.O.k u u u u u u u u u u u u u , G O O O G G % 5 : 8 u u u u u u t.t.t.t.t.t.t.t.t.t.t.t.t.t.t.t.t.t.t.",
"t.t.t.r.r.r.r.r.0.@.O.O.O.@.k u u u u u u u u u u u u u 6 O G G G O G 6 5 < s u u u u u u t.t.t.t.t.t.t.t.t.t.t.t.t.t.t.t.t.t.t.",
"t.t.t.r.r.r.r.r.r.@.+.+.O.O.k u u u u u u u u u u u u y % G G G G G G 6 ,   u u u u u u t.t.t.t.t.t.t.t.t.t.t.t.t.t.t.t.t.t.t.t.",
"t.t.t.t.r.r.r.r.r.=.+.+.+.+.k u u u u u u u u u u u u y % G O G O G G 5 5 x u u u u u u t.t.t.t.t.t.t.t.t.t.t.t.t.t.t.t.t.t.t.t.",
"t.t.t.t.t.r.r.r.r.6.O.+.+.+.k u u u u u u u u u u u u u % G O G O O G 6 > w u u u u u u t.t.t.t.t.t.t.t.t.t.t.t.t.t.t.t.t.t.t.t.",
"t.t.t.t.t.r.r.r.r.r.O.O.+.+.k u u u u u u u u u u u u u % G G O O O H 6 > w u u u u u t.t.t.t.t.t.t.t.t.t.t.t.t.t.t.t.t.t.t.t.t.",
"t.t.t.t.t.t.r.r.r.r.&.O.O.O.k u u u u u u u u u u u u u . > 6 - # # # 7 , w y u u u u t.t.t.t.t.t.t.t.t.t.t.t.t.t.t.t.t.t.t.t.t.",
"t.t.t.t.t.t.r.r.r.r.4.O.O.O.k u u u u u u u u u u u u u u u 9 . 1 3 3 < 1 r u u u u u t.t.t.t.t.t.t.t.t.t.t.t.t.t.t.t.t.t.t.t.t.",
"t.t.t.t.t.t.t.r.r.r.0.@.O.+.k u u u u u u u u u u u u u u u u u y u y u u u u u u u u t.t.t.t.t.t.t.t.t.t.t.t.t.t.t.t.t.t.t.t.t.",
"t.t.t.t.t.t.t.t.r.r.r.@.O.+.k u u u u u u u u u u u u u u u u u u u u u u u u u u u u t.t.t.t.t.t.t.t.t.t.t.t.t.t.t.t.t.t.t.t.t.",
"t.t.t.t.t.t.t.t.r.r.r.=.O.O.j u u u u u u u u u u u u y : 6 6 6 6 6 6 q u u u u u u u t.t.t.t.t.t.t.t.t.t.t.t.t.t.t.t.t.t.t.t.t.",
"t.t.t.t.t.t.t.t.t.r.r.6.O.O.k u u u u u u u u u u u u y @ O O G O O O 1 q 0 u u u u t.t.t.t.t.t.t.t.t.t.t.t.t.t.t.t.t.t.t.t.t.t.",
"t.t.t.t.t.t.t.t.t.r.r.r.O.O.k u u u u u u u u u u u u p @ G G O O G G % :   y u u u t.t.t.t.t.t.t.t.t.t.t.t.t.t.t.t.t.t.t.t.t.t.",
"t.t.t.t.t.t.t.t.t.t.r.r.&.O.h u u u u u u u u u u u u y $ O G G G G O % > . y u u u t.t.t.t.t.t.t.t.t.t.t.t.t.t.t.t.t.t.t.t.t.t.",
"t.t.t.t.t.t.t.t.t.t.t.r.4.O.h u u u u u u u u u u u u p $ O G G O O G % > . y u u u t.t.t.t.t.t.t.t.t.t.t.t.t.t.t.t.t.t.t.t.t.t.",
"t.t.t.t.t.t.t.t.t.t.t.r.0.O.h u u u u u u u u u u u u y $ G G G G G G % > . y u u u t.t.t.t.t.t.t.t.t.t.t.t.t.t.t.t.t.t.t.t.t.t.",
"t.t.t.t.t.t.t.t.t.t.t.t.r.@.h u u u u u u u u u u u u y $ G G G G G G % > . y u u u t.t.t.t.t.t.t.t.t.t.t.t.t.t.t.t.t.t.t.t.t.t.",
"t.t.t.t.t.t.t.t.t.t.t.t.t.=.h u u u u u u u u u u u u y 4 7 % @ @ @ @ 6 , X y u u u t.t.t.t.t.t.t.t.t.t.t.t.t.t.t.t.t.t.t.t.t.t.",
"t.t.t.t.t.t.t.t.t.t.t.t.t.6.h u u u u u u u u u u u u u u u t 3 3 3 3 3 1 z u u u u t.t.t.t.t.t.t.t.t.t.t.t.t.t.t.t.t.t.t.t.t.t.",
"t.t.t.t.t.t.t.t.t.t.t.t.t.t.h u u u u u u u u u u u u u u u y u s u d y s u u u u t.t.t.t.t.t.t.t.t.t.t.t.t.t.t.t.t.t.t.t.t.t.t."
};
