/* XPM */
static const char * bmp_green1_xpm[] = {
"120 20 4 1",
" 	c None",
".	c #002D00",
"+	c #1CED1C",
"@	c #000000",
"                                                                                                                        ",
"                                                                                                                        ",
"                                                                                    .........                           ",
"                                                                                   ..+++++++..                          ",
"                             @@@@@     @@                                         .+++++++++++.                         ",
"                            @@@@@@@    @@                                        .+++++++++++++.                        ",
"                           @@@    @    @@                                       ..+++++++++++++..                       ",
"                           @@         @@@@@@    @@@@     @@ @@@@                .+++++++++++++++.                       ",
"                           @@         @@@@@@  @@@@@@@@   @@@@@@@@               .+++++++++++++++.                       ",
"                            @@@@@      @@     @@    @@   @@@   @@@              .+++++++++++++++.                       ",
"                             @@@@@@    @@    @@      @@  @@     @@              .+++++++++++++++.                       ",
"                                 @@@   @@    @@      @@  @@     @@              .+++++++++++++++.                       ",
"                                  @@   @@    @@      @@  @@     @@              .+++++++++++++++.                       ",
"                                  @@   @@    @@      @@  @@     @@              .+++++++++++++++.                       ",
"                           @     @@@   @@     @@    @@   @@@   @@@              ..+++++++++++++..                       ",
"                           @@@@@@@@    @@@@@  @@@@@@@@   @@@@@@@@                .+++++++++++++.                        ",
"                            @@@@@@      @@@@    @@@@     @@ @@@@                  .+++++++++++.                         ",
"                                                         @@                        ..+++++++..                          ",
"                                                         @@                         .........                           ",
"                                                         @@                                                             "};
