/* XPM */
static const char * bmp_grey_xpm[] = {
"120 20 40 1",
" 	c None",
".	c #404040",
"+	c #616161",
"@	c #444444",
"#	c #636363",
"$	c #686868",
"%	c #6A6A6A",
"&	c #6E6E6E",
"*	c #727272",
"=	c #656565",
"-	c #6D6D6D",
";	c #767676",
">	c #797979",
",	c #7D7D7D",
"'	c #7F7F7F",
")	c #6C6C6C",
"!	c #717171",
"~	c #818181",
"{	c #848484",
"]	c #868686",
"^	c #787878",
"/	c #898989",
"(	c #8C8C8C",
"_	c #8A8A8A",
":	c #666666",
"<	c #707070",
"[	c #757575",
"}	c #808080",
"|	c #8F8F8F",
"1	c #929292",
"2	c #909090",
"3	c #8D8D8D",
"4	c #878787",
"5	c #838383",
"6	c #7A7A7A",
"7	c #969696",
"8	c #939393",
"9	c #747474",
"0	c #696969",
"a	c #7C7C7C",
"                                                                                                                        ",
"                                                                                ..                                      ",
"                                                                                ....                                    ",
"                                                                                .++...                                  ",
"                             @@@@@     @@                       @@              .++#$...                                ",
"                            @@@@@@@    @@                       @@              .+#$%&*....                             ",
"                           @@@    @    @@                       @@              .+=%-*;>,'...                           ",
"                           @@         @@@@@@   @@@@     @@ @@@ @@@@@@           .#$)!;>'~{]]...                         ",
"                           @@         @@@@@@  @@@@@@    @@@@@@ @@@@@@           .=%-*^,~]/(_/]...                       ",
"                            @@@@@      @@     @   @@@   @@@     @@              .:%<[>}{/|12345'...                     ",
"                             @@@@@@    @@          @@   @@      @@              .:%!;6}](2772/{'>...                    ",
"                                 @@@   @@      @@@@@@   @@      @@              .:%![6}]_281|/5...                      ",
"                                  @@   @@    @@@@@@@@   @@      @@              .=%<9>'~4_33....                        ",
"                                  @@   @@    @@    @@   @@      @@              .#0-*;a}5]...                           ",
"                           @     @@@   @@    @@   @@@   @@      @@              .+:%<9;a...                             ",
"                           @@@@@@@@    @@@@@ @@@@@@@@   @@      @@@@@           .+#$)!...                               ",
"                            @@@@@@      @@@@  @@@@ @@   @@       @@@@           .++=...                                 ",
"                                                                                .+...                                   ",
"                                                                                ...                                     ",
"                                                                                                                        "};
