/* XPM */
static const char * bmp_start_xpm[] = {
"120 20 88 1",
" 	c None",
".	c #002D00",
"+	c #147F17",
"@	c #000000",
"#	c #148219",
"$	c #158820",
"%	c #148018",
"&	c #168F27",
"*	c #17962E",
"=	c #189C34",
"-	c #15851D",
";	c #168E25",
">	c #17962D",
",	c #189D34",
"'	c #19A43B",
")	c #1AAA41",
"!	c #1BAF46",
"~	c #1CB34A",
"{	c #148119",
"]	c #168A21",
"^	c #17922A",
"/	c #189B32",
"(	c #19A33A",
"_	c #1AAB42",
":	c #1BB249",
"<	c #1CB84F",
"[	c #1DBD53",
"}	c #1DBF55",
"|	c #1DBE55",
"1	c #15841C",
"2	c #168D25",
"3	c #199F36",
"4	c #1AA83F",
"5	c #1BB047",
"6	c #1DC056",
"7	c #1EC65C",
"8	c #1FC95F",
"9	c #1FC85F",
"0	c #1EC45B",
"a	c #1DBE54",
"b	c #15861D",
"c	c #189830",
"d	c #19A239",
"e	c #1CB44B",
"f	c #1DBD54",
"g	c #1FCE64",
"h	c #20D369",
"i	c #20D268",
"j	c #1FCC62",
"k	c #1EC35A",
"l	c #1DBB51",
"m	c #1BB248",
"n	c #15861E",
"o	c #169027",
"p	c #189931",
"q	c #1BAC43",
"r	c #1CB64D",
"s	c #1DBF56",
"t	c #21DB71",
"u	c #21D96F",
"v	c #20CF66",
"w	c #189930",
"x	c #1AAC43",
"y	c #1CB54C",
"z	c #1FC75E",
"A	c #20D066",
"B	c #21D66C",
"C	c #20D56B",
"D	c #1FCD64",
"E	c #1EC55B",
"F	c #1DBC52",
"G	c #17972E",
"H	c #19A037",
"I	c #1AA940",
"J	c #1DBA51",
"K	c #1EC259",
"L	c #1FCC63",
"M	c #14821A",
"N	c #168B23",
"O	c #17942B",
"P	c #1AA53C",
"Q	c #1BAD44",
"R	c #15871F",
"S	c #18972F",
"T	c #199F37",
"U	c #1AA63E",
"V	c #168A22",
"W	c #179229",
"                                                                                                                        ",
"                                                                                ..                                      ",
"                                                                                ....                                    ",
"                                                                                .++...                                  ",
"                             @@@@@     @@                       @@              .++#$...                                ",
"                            @@@@@@@    @@                       @@              .+%$&*=....                             ",
"                           @@@    @    @@                       @@              .+-;>,')!~...                           ",
"                           @@         @@@@@@   @@@@     @@ @@@ @@@@@@           .{]^/(_:<[}|...                         ",
"                           @@         @@@@@@  @@@@@@    @@@@@@ @@@@@@           .12>345<67890a...                       ",
"                            @@@@@      @@     @   @@@   @@@     @@              .b&cd_ef7ghijklm...                     ",
"                             @@@@@@    @@          @@   @@      @@              .nop(qrs8ituv7[~)...                    ",
"                                 @@@   @@      @@@@@@   @@      @@              .n&wdxy|zABCDEF...                      ",
"                                  @@   @@    @@@@@@@@   @@      @@              .1;GHI:JK9Lj....                        ",
"                                  @@   @@    @@    @@   @@      @@              .MNO=PQel6...                           ",
"                           @     @@@   @@    @@   @@@   @@      @@              .+R&STUQ...                             ",
"                           @@@@@@@@    @@@@@ @@@@@@@@   @@      @@@@@           .+MVWw...                               ",
"                            @@@@@@      @@@@  @@@@ @@   @@       @@@@           .++1...                                 ",
"                                                                                .+...                                   ",
"                                                                                ...                                     ",
"                                                                                                                        "};
