<?xml version="1.0" encoding="UTF-8" standalone="no"?>
<svg
   xmlns:dc="http://purl.org/dc/elements/1.1/"
   xmlns:cc="http://creativecommons.org/ns#"
   xmlns:rdf="http://www.w3.org/1999/02/22-rdf-syntax-ns#"
   xmlns:svg="http://www.w3.org/2000/svg"
   xmlns="http://www.w3.org/2000/svg"
   xmlns:sodipodi="http://sodipodi.sourceforge.net/DTD/sodipodi-0.dtd"
   xmlns:inkscape="http://www.inkscape.org/namespaces/inkscape"
   version="1.1"
   width="454.117"
   height="543.476"
   viewBox="0 0 454.117 543.476"
   overflow="visible"
   enable-background="new 0 0 454.117 543.476"
   xml:space="preserve"
   id="svg2"
   sodipodi:version="0.32"
   inkscape:version="0.46"
   sodipodi:docname="szarp-logo.svg"
   inkscape:output_extension="org.inkscape.output.svg.inkscape"
   sodipodi:docbase="/home/pawel/szarp-experimental/resources/logo"><metadata
   id="metadata390"><rdf:RDF><cc:Work
       rdf:about=""><dc:format>image/svg+xml</dc:format><dc:type
         rdf:resource="http://purl.org/dc/dcmitype/StillImage" /><cc:license
         rdf:resource="http://creativecommons.org/licenses/GPL/2.0/" /><dc:relation /></cc:Work><cc:License
       rdf:about="http://creativecommons.org/licenses/GPL/2.0/"><cc:permits
         rdf:resource="http://web.resource.org/cc/Reproduction" /><cc:permits
         rdf:resource="http://web.resource.org/cc/Distribution" /><cc:requires
         rdf:resource="http://web.resource.org/cc/Notice" /><cc:permits
         rdf:resource="http://web.resource.org/cc/DerivativeWorks" /><cc:requires
         rdf:resource="http://web.resource.org/cc/ShareAlike" /><cc:requires
         rdf:resource="http://web.resource.org/cc/SourceCode" /></cc:License></rdf:RDF></metadata><defs
   id="defs388"><inkscape:perspective
   sodipodi:type="inkscape:persp3d"
   inkscape:vp_x="0 : 271.73801 : 1"
   inkscape:vp_y="0 : 1000 : 0"
   inkscape:vp_z="454.117 : 271.73801 : 1"
   inkscape:persp3d-origin="227.0585 : 181.15867 : 1"
   id="perspective274" />
	
	
	
	
	

		
		
		
		
		
		
		
		
	
		
		
		
	
			
			
			
			
		
				
				
				
				
			
			
			
			
			
			
			
			
			
			
		
		
		
	
			
			
			
			
			
			
			
		</defs><sodipodi:namedview
   inkscape:window-height="668"
   inkscape:window-width="841"
   inkscape:pageshadow="2"
   inkscape:pageopacity="0.0"
   guidetolerance="10.0"
   gridtolerance="10.0"
   objecttolerance="10.0"
   borderopacity="1.0"
   bordercolor="#666666"
   pagecolor="#ffffff"
   id="base"
   inkscape:zoom="2.7820914"
   inkscape:cx="274.55124"
   inkscape:cy="72.97059"
   inkscape:window-x="32"
   inkscape:window-y="34"
   inkscape:current-layer="svg2"
   showgrid="false" />
<g
   id="Warstwa_1">
</g>
<g
   id="Warstwa_1_kopia_2">
</g>
<g
   id="Warstwa_1_kopia">
</g>
<g
   id="Warstwa_1_kopia_3">
	<g
   id="g8"
   inkscape:export-filename="/home/pawel/szarp-experimental/resources/documentation/new/common/szarp-logo.png"
   inkscape:export-xdpi="58.66"
   inkscape:export-ydpi="58.66">
		<g
   id="g10">
			<path
   d="M0,90.767l28.922,50.416l48.358-28.12C62.874,80.251,53.387,65.849,65.046,0     C57.386,36.124,29.264,73.393,0,90.767z"
   id="path12"
   fill="#E3E4E4" />
			<path
   d="M13.946,84.938l14.976,56.245l53.957-14.633c-5.372-35.438-10.857-51.786,17.376-112.375     C83.681,46.985,46.755,75.792,13.946,84.938z"
   id="path14"
   fill="#C6C7C8" />
			<path
   d="M28.922,141.183l48.358-28.12c-8.459-19.092-15.093-32.012-17.035-52.359     C45.612,72.02,29.379,80.594,13.946,84.938L28.922,141.183z"
   id="path16"
   fill="#A7A8AA" />
			<path
   d="M29.038,82.995l-0.116,58.188l55.9-0.115c3.887-35.782,2.974-52.929,45.958-104.029     C106.086,64.362,63.104,82.651,29.038,82.995z"
   id="path18"
   fill="#DB001B" />
		</g>
		<g
   id="g20">
			<g
   id="g22">
				<polygon
   points="316.311,141.183 306.446,141.183 306.446,121.45 267.09,121.45 267.09,141.183 257.222,141.183       257.222,111.583 316.311,111.583     "
   id="polygon24" />
				<rect
   x="257.222"
   y="91.848"
   width="59.089"
   height="9.867"
   id="rect26" />
			</g>
			<polygon
   points="454.117,121.45 404.785,121.45 404.785,141.183 394.918,141.183 394.918,111.583 444.253,111.583      444.253,101.715 394.918,101.715 394.918,91.848 454.117,91.848    "
   id="polygon28" />
			<g
   id="g30">
				<rect
   x="119.086"
   y="91.848"
   width="59.201"
   height="9.867"
   id="rect32" />
				<polygon
   points="178.288,141.183 119.086,141.183 119.086,131.317 168.42,131.317 168.42,121.45 119.086,121.45       119.086,111.583 178.288,111.583     "
   id="polygon34" />
			</g>
			<g
   id="g36">
				<polygon
   points="247.354,141.183 188.155,141.183 215.453,111.583 229.267,111.583 211.066,131.317 247.354,131.317     "
   id="polygon38" />
				<polygon
   points="238.254,101.715 188.155,101.715 188.155,91.848 247.354,91.848     "
   id="polygon40" />
			</g>
			<g
   id="g42">
				<polygon
   points="336.046,141.183 326.179,141.183 326.179,91.848 385.381,91.848 385.381,111.583 375.513,111.583       375.513,101.715 336.046,101.715     "
   id="polygon44" />
				<polygon
   points="385.381,141.183 358.189,111.583 344.379,111.583 371.566,141.183     "
   id="polygon46" />
			</g>
		</g>
	</g>
</g>
<g
   id="g49">
		<g
   id="g51">
			<path
   style="fill:#e3e4e4"
   id="path53"
   d="M 0,302.767 L 28.922,353.183 L 77.28,325.063 C 62.874,292.251 53.387,277.849 65.046,212 C 57.386,248.124 29.264,285.393 0,302.767 z " />
			<path
   style="fill:#c6c7c8"
   id="path55"
   d="M 13.946,296.938 L 28.922,353.183 L 82.879,338.55 C 77.507,303.112 72.022,286.764 100.255,226.175 C 83.681,258.985 46.755,287.792 13.946,296.938 z " />
			<path
   style="fill:#a7a8aa"
   id="path57"
   d="M 28.922,353.183 L 77.28,325.063 C 68.821,305.971 62.187,293.051 60.245,272.704 C 45.613,284.02 29.38,292.595 13.946,296.938 L 28.922,353.183 z " />
			<path
   style="fill:#4b4b4d"
   id="path59"
   d="M 29.038,294.995 L 28.922,353.183 L 84.822,353.068 C 88.709,317.286 87.796,300.139 130.78,249.039 C 106.086,276.362 63.104,294.651 29.038,294.995 z " />
		</g>
		<g
   id="g61">
			<g
   id="g63">
				<polygon
   id="polygon65"
   points="316.311,353.183 306.446,353.183 306.446,333.45 267.09,333.45 267.09,353.183 257.222,353.183 257.222,323.583 316.311,323.583 316.311,353.183 " />
				<rect
   id="rect67"
   height="9.8669996"
   width="59.089001"
   y="303.84799"
   x="257.22198" />
			</g>
			<polygon
   id="polygon69"
   points="454.117,333.45 404.785,333.45 404.785,353.183 394.918,353.183 394.918,323.583 444.253,323.583 444.253,313.715 394.918,313.715 394.918,303.848 454.117,303.848 454.117,333.45 " />
			<g
   id="g71">
				<rect
   id="rect73"
   height="9.8669996"
   width="59.201"
   y="303.84799"
   x="119.086" />
				<polygon
   id="polygon75"
   points="178.288,353.183 119.086,353.183 119.086,343.317 168.42,343.317 168.42,333.45 119.086,333.45 119.086,323.583 178.288,323.583 178.288,353.183 " />
			</g>
			<g
   id="g77">
				<polygon
   id="polygon79"
   points="247.354,353.183 188.155,353.183 215.453,323.583 229.267,323.583 211.066,343.317 247.354,343.317 247.354,353.183 " />
				<polygon
   id="polygon81"
   points="238.254,313.715 188.155,313.715 188.155,303.848 247.354,303.848 238.254,313.715 " />
			</g>
			<g
   id="g83">
				<polygon
   id="polygon85"
   points="336.046,353.183 326.179,353.183 326.179,303.848 385.381,303.848 385.381,323.583 375.513,323.583 375.513,313.715 336.046,313.715 336.046,353.183 " />
				<polygon
   id="polygon87"
   points="385.381,353.183 358.189,323.583 344.379,323.583 371.566,353.183 385.381,353.183 " />
			</g>
		</g>
	</g><g
   id="g3056"><polygon
     style="fill:#afb0b2"
     id="polygon91"
     points="200.209,482.09 200.209,543.243 144.798,543.243 144.798,498.893 161.599,482.09 200.209,482.09 " /><polygon
     style="fill:#575759"
     id="polygon93"
     points="201.78,481.15 201.78,542.296 146.408,542.296 146.408,497.951 163.174,481.15 201.78,481.15 " /><polygon
     style="fill:#d9d8d9"
     id="polygon95"
     points="162.58,483.214 162.685,496.478 149.592,496.478 162.58,483.214 " /><polygon
     style="fill:#ffffff"
     id="polygon97"
     points="162.58,484.122 162.685,496.478 150.502,496.478 162.58,484.122 " /><polygon
     style="fill:#d9d8d9"
     id="polygon99"
     points="164.084,498.715 164.084,482.126 200.802,482.126 200.802,540.932 147.842,540.932 147.842,498.715 164.084,498.715 " /><polygon
     style="fill:#ffffff"
     id="polygon101"
     points="164.12,498.715 164.12,482.965 200.031,482.965 200.031,540.059 148.611,540.059 148.611,498.715 164.12,498.715 " /><g
     id="g103">
			<path
   style="fill:#e3e4e4"
   id="path105"
   d="M 148.542,520.316 L 159.953,540.159 L 178.995,529.137 C 173.289,516.179 169.58,510.513 174.165,484.609 C 171.155,498.783 160.093,513.487 148.542,520.316 z " />
			<path
   style="fill:#c6c7c8"
   id="path107"
   d="M 154.072,518.04 L 159.953,540.159 L 181.2,534.417 C 179.065,520.452 176.93,514.008 188.06,490.173 C 181.479,503.125 166.989,514.432 154.072,518.04 z " />
			<path
   style="fill:#a7a8aa"
   id="path109"
   d="M 159.953,540.159 L 178.995,529.137 C 175.67,521.57 173.045,516.533 172.311,508.481 C 166.534,512.962 160.129,516.32 154.073,518.041 L 159.953,540.159 z " />
			<path
   style="fill:#db001b"
   id="path111"
   d="M 160.023,517.27 L 159.953,540.159 L 181.935,540.09 C 183.509,526.054 183.091,519.298 200.031,499.17 C 190.337,509.95 173.397,517.127 160.023,517.27 z " />
		</g><g
     id="g113">
			<path
   style="fill:#3f3f40"
   id="path115"
   d="M 202.063,524.758 C 206.229,514.641 199.646,505.717 189.532,506.906 C 183.58,507.468 179.172,513.205 179.451,518.14 C 179.171,526.997 187.712,533.752 197.897,529.166 L 198.77,530.043 L 199.858,529.48 L 201.047,530.427 L 200.906,531.895 L 211.441,542.153 L 212.109,541.943 L 212.807,542.256 C 214.172,542.046 215.257,540.892 215.467,539.669 L 215.048,539.106 L 215.363,538.267 L 204.897,527.696 L 203.251,528.079 L 202.376,527.208 L 202.935,525.736 L 202.063,524.758 z " />
			<path
   style="fill:#e9e9ea"
   id="path117"
   d="M 201.82,525.279 L 202.484,525.772 L 198.948,529.34 L 198.353,528.748 C 199.684,527.767 200.873,526.61 201.82,525.279 z " />
			<polygon
   style="fill:#e9e9ea"
   id="polygon119"
   points="202.098,527.555 202.833,528.325 201.327,529.832 200.275,529.096 202.098,527.555 " />
			<polygon
   style="fill:#e9e9ea"
   id="polygon121"
   points="203.221,528.537 204.338,528.26 201.502,531.023 201.502,530.214 203.221,528.537 " />
			<polygon
   style="fill:#e9e9ea"
   id="polygon123"
   points="204.826,528.576 201.889,531.758 211.653,541.453 214.593,538.444 204.826,528.576 " />
			<path
   style="fill:#e9e9ea"
   id="path125"
   d="M 214.771,539.564 L 212.599,541.633 C 213.681,541.912 215.049,540.684 214.771,539.564 z " />
			<path
   style="fill:#d9d8d9"
   id="path127"
   d="M 191.212,518.35 L 200.662,511.98 C 198.562,508.902 194.991,507.013 191.212,507.013 C 184.912,507.013 179.731,512.123 179.731,518.35 C 179.731,520.316 180.29,522.343 181.273,524.021 L 191.212,518.35 z " />
			<path
   style="fill:#3f3f40"
   id="path129"
   d="M 191.423,518.741 L 200.943,512.294 C 198.843,509.216 195.201,507.289 191.423,507.289 C 185.085,507.289 179.871,512.436 179.871,518.741 C 179.871,520.694 180.431,522.726 181.411,524.445 L 191.423,518.741 z " />
			<polygon
   style="fill:#d9d8d9"
   id="polygon131"
   points="204.513,528.85 203.462,530.081 213.261,539.808 214.418,538.79 204.513,528.85 " />
			<polygon
   style="fill:#d9d8d9"
   id="polygon133"
   points="202.729,530.848 202.098,531.514 211.831,541.208 212.459,540.614 202.729,530.848 " />
			<polygon
   style="fill:#c4c5c6"
   id="polygon135"
   points="204.549,528.816 203.847,529.656 213.681,539.388 214.383,538.762 204.549,528.816 " />
			<polygon
   style="fill:#c4c5c6"
   id="polygon137"
   points="202.449,531.089 202.063,531.545 211.831,541.246 212.284,540.861 202.449,531.089 " />
			<polygon
   style="fill:#9a9b9d"
   id="polygon139"
   points="202.237,531.303 202.063,531.545 211.865,541.278 212.072,541.066 202.237,531.303 " />
			<polygon
   style="fill:#afb0b2"
   id="polygon141"
   points="204.549,528.784 204.094,529.34 214.033,539.108 214.383,538.762 204.549,528.784 " />
			<polygon
   style="fill:#9a9b9d"
   id="polygon143"
   points="204.583,528.749 204.303,529.096 214.314,538.864 214.526,538.686 204.583,528.749 " />
			<polygon
   style="fill:#6f7072"
   id="polygon145"
   points="202.029,531.514 201.818,531.758 211.618,541.49 211.865,541.278 202.029,531.514 " />
			<polygon
   style="fill:#6f7072"
   id="polygon147"
   points="204.756,528.504 204.513,528.816 214.49,538.686 214.734,538.444 204.756,528.504 " />
			<path
   style="fill:#d9d8d9"
   id="path149"
   d="M 191.423,518.704 L 202.203,514.713 C 202.621,515.976 202.904,517.372 202.904,518.704 C 202.904,524.968 197.758,530.081 191.423,530.081 C 189.321,530.081 187.152,529.445 185.367,528.362 L 191.423,518.704 z " />
			<path
   style="fill:#3f3f40"
   id="path151"
   d="M 191.177,518.458 L 181.515,524.997 C 183.65,528.117 187.328,530.044 191.177,530.044 C 197.651,530.044 202.904,524.861 202.904,518.458 C 202.904,516.458 202.341,514.396 201.362,512.68 L 191.177,518.458 z " />
			<path
   style="fill:#ffffff"
   id="path153"
   d="M 191.317,529.656 C 197.406,529.656 202.411,524.721 202.411,518.667 C 202.411,512.648 197.406,507.711 191.317,507.711 C 185.193,507.711 180.187,512.649 180.187,518.667 C 180.187,524.721 185.194,529.656 191.317,529.656 z " />
			<path
   style="fill:#c4c5c6"
   id="path155"
   d="M 214.771,539.53 L 213.787,540.471 C 213.962,540.684 214.102,540.861 214.245,541.066 C 214.664,540.684 214.874,540.125 214.771,539.53 z " />
			<path
   style="fill:#9a9b9d"
   id="path157"
   d="M 214.771,539.53 L 214.071,540.193 L 214.527,540.79 C 214.771,540.368 214.909,539.983 214.771,539.53 z " />
			<path
   style="fill:#575759"
   id="path159"
   d="M 214.771,539.53 L 214.349,539.915 L 214.734,540.368 C 214.839,540.049 214.874,539.739 214.771,539.53 z " />
			<path
   style="fill:#c4c5c6"
   id="path161"
   d="M 213.16,541.103 L 213.826,541.384 C 213.405,541.665 212.985,541.737 212.598,541.633 L 213.16,541.103 z " />
			<path
   style="fill:#888887"
   id="path163"
   d="M 212.948,541.278 L 213.577,541.522 C 213.229,541.666 212.879,541.697 212.598,541.633 L 212.948,541.278 z " />
			<path
   style="fill:#575759"
   id="path165"
   d="M 212.81,541.418 L 213.229,541.665 C 213.017,541.696 212.81,541.696 212.563,541.665 L 212.81,541.418 z " />
			<polygon
   style="fill:#c4c5c6"
   id="polygon167"
   points="204.338,528.26 203.221,528.537 202.308,529.412 203.008,529.589 204.338,528.26 " />
			<polygon
   style="fill:#9a9b9d"
   id="polygon169"
   points="204.303,528.26 203.221,528.537 202.586,529.136 203.287,529.31 204.303,528.26 " />
			<polygon
   style="fill:#6f7072"
   id="polygon171"
   points="204.373,528.224 203.221,528.504 202.866,528.85 203.672,528.921 204.373,528.224 " />
			<polygon
   style="fill:#c4c5c6"
   id="polygon173"
   points="202.029,529.726 202.308,530.25 201.502,531.023 201.502,530.214 202.029,529.726 " />
			<polygon
   style="fill:#9a9b9d"
   id="polygon175"
   points="201.82,529.938 202.064,530.537 201.573,530.986 201.607,530.113 201.82,529.938 " />
			<polygon
   style="fill:#575759"
   id="polygon177"
   points="201.645,530.081 201.82,530.813 201.432,531.161 201.469,530.25 201.645,530.081 " />
			<polygon
   style="fill:#c4c5c6"
   id="polygon179"
   points="202.029,529.136 201.151,528.362 202.098,527.523 202.833,528.292 202.029,529.136 " />
			<polygon
   style="fill:#9a9b9d"
   id="polygon181"
   points="202.308,528.887 201.396,528.118 201.852,527.733 202.729,528.399 202.308,528.887 " />
			<polygon
   style="fill:#575759"
   id="polygon183"
   points="202.586,528.576 201.748,527.836 202.098,527.523 202.833,528.292 202.586,528.576 " />
			<polygon
   style="fill:#c4c5c6"
   id="polygon185"
   points="201.78,529.38 200.944,528.537 200.345,529.03 201.396,529.762 201.78,529.38 " />
			<polygon
   style="fill:#9a9b9d"
   id="polygon187"
   points="201.607,529.555 200.734,528.712 200.345,529.03 201.432,529.795 201.607,529.555 " />
			<polygon
   style="fill:#575759"
   id="polygon189"
   points="201.432,529.762 200.524,528.887 200.244,529.096 201.259,529.972 201.432,529.762 " />
			<polygon
   style="fill:#c4c5c6"
   id="polygon191"
   points="200.837,527.454 200.313,527.032 201.852,525.247 202.52,525.772 200.837,527.454 " />
			<polygon
   style="fill:#c4c5c6"
   id="polygon193"
   points="199.926,528.362 199.438,527.874 198.352,528.749 198.947,529.38 199.926,528.362 " />
			<polygon
   style="fill:#afb0b2"
   id="polygon195"
   points="201.188,527.136 200.626,526.648 201.852,525.247 202.52,525.772 201.188,527.136 " />
			<polygon
   style="fill:#afb0b2"
   id="polygon197"
   points="199.718,528.611 199.193,528.048 198.527,528.576 198.983,529.31 199.718,528.611 " />
			<polygon
   style="fill:#888887"
   id="polygon199"
   points="199.438,528.887 198.913,528.292 198.458,528.611 198.983,529.31 199.438,528.887 " />
			<polygon
   style="fill:#575759"
   id="polygon201"
   points="199.157,529.167 198.633,528.504 198.316,528.749 198.843,529.445 199.157,529.167 " />
			<polygon
   style="fill:#9a9b9d"
   id="polygon203"
   points="201.469,526.859 200.907,526.334 201.645,525.458 202.483,525.804 201.469,526.859 " />
			<polygon
   style="fill:#6f7072"
   id="polygon205"
   points="201.852,526.509 201.188,525.984 201.82,525.247 202.483,525.804 201.852,526.509 " />
			<polygon
   style="fill:#575759"
   id="polygon207"
   points="202.169,526.155 201.502,525.633 201.852,525.211 202.552,525.772 202.169,526.155 " />
			<path
   style="fill:#dd0b1f"
   id="path209"
   d="M 180.465,521.187 L 182.949,518.911 L 184.386,521.05 L 187.641,514.608 L 189.776,518.944 L 190.929,516.847 L 193.204,523.044 L 197.301,511.948 L 201.818,522.201 C 201.643,522.764 201.395,523.287 201.118,523.777 L 197.478,515.519 L 193.171,526.679 L 190.826,520.068 L 189.776,522.201 L 187.571,517.65 L 184.49,523.533 L 182.774,520.869 L 180.884,522.551 C 180.71,522.094 180.569,521.643 180.465,521.187 z " />
		</g></g><polygon
   style="fill:#afb0b2"
   id="polygon215"
   points="81.981,482.322 81.981,543.476 26.606,543.476 26.606,499.128 43.408,482.322 81.981,482.322 " /><polygon
   style="fill:#575759"
   id="polygon217"
   points="83.593,481.383 83.593,542.534 28.216,542.534 28.216,498.183 44.982,481.383 83.593,481.383 " /><polyline
   style="fill:#d9d8d9"
   id="polyline219"
   points="44.389,483.448 44.458,496.713 31.401,496.713    " /><polygon
   style="fill:#ffffff"
   id="polygon221"
   points="44.389,484.359 44.458,496.713 32.312,496.713 44.389,484.359 " /><polygon
   style="fill:#d9d8d9"
   id="polygon223"
   points="45.891,498.954 45.891,482.36 82.611,482.36 82.611,541.167 29.651,541.167 29.651,498.954 45.891,498.954 " /><polygon
   style="fill:#ffffff"
   id="polygon225"
   points="45.929,498.954 45.929,483.203 81.842,483.203 81.842,540.292 30.42,540.292 30.42,498.954 45.929,498.954 " /><g
   id="g227">
				<path
   style="fill:#e3e4e4"
   id="path229"
   d="M 30.352,520.583 L 41.763,540.432 L 60.771,529.406 C 55.1,516.455 51.388,510.787 55.974,484.885 C 52.963,499.059 41.868,513.763 30.352,520.583 z " />
				<path
   style="fill:#c6c7c8"
   id="path231"
   d="M 35.884,518.309 L 41.762,540.432 L 62.974,534.693 C 60.875,520.726 58.703,514.287 69.834,490.447 C 63.29,503.4 48.799,514.706 35.884,518.309 z " />
			</g><g
   id="g233">
			<g
   id="g235">
				<path
   d="M 41.762,540.432 L 60.77,529.406 C 57.478,521.843 54.853,516.802 54.12,508.755 C 48.343,513.238 41.937,516.596 35.884,518.31 L 41.762,540.432 z "
   id="path237"
   style="fill:#a7a8aa" />
				<path
   d="M 41.798,517.542 L 41.762,540.433 L 63.744,540.362 C 65.32,526.329 64.9,519.573 81.842,499.443 C 72.148,510.227 55.204,517.402 41.798,517.542 z "
   id="path239"
   style="fill:#db001b" />
			</g>
		</g><g
   id="g241">
		<g
   id="g243">
			<polygon
   style="fill:#afb0b2"
   id="polygon245"
   points="446.207,481.577 446.207,542.693 390.831,542.693 390.831,498.308 407.596,481.577 446.207,481.577 " />
			<polygon
   style="fill:#575759"
   id="polygon247"
   points="447.819,480.628 447.819,541.746 392.439,541.746 392.439,497.359 409.208,480.628 447.819,480.628 " />
			<polygon
   style="fill:#d9d8d9"
   id="polygon249"
   points="408.577,482.696 408.683,495.925 395.627,495.925 408.577,482.696 " />
		</g>
		<g
   id="g251">
			<polygon
   style="fill:#ffffff"
   id="polygon253"
   points="408.613,483.603 408.683,495.925 396.536,495.925 408.613,483.603 " />
			<polygon
   style="fill:#d9d8d9"
   id="polygon255"
   points="410.116,498.166 410.116,481.61 446.838,481.61 446.838,540.344 393.872,540.344 393.872,498.166 410.116,498.166 " />
			<polygon
   style="fill:#ffffff"
   id="polygon257"
   points="410.116,498.166 410.116,482.447 446.063,482.447 446.063,539.506 394.647,539.506 394.647,498.166 410.116,498.166 " />
			<g
   id="g259">
				<path
   style="fill:#e3e4e4"
   id="path261"
   d="M 394.573,519.799 L 405.987,539.647 L 424.996,528.583 C 419.322,515.667 415.613,509.994 420.199,484.13 C 417.189,498.271 406.094,512.97 394.573,519.799 z " />
				<path
   style="fill:#c6c7c8"
   id="path263"
   d="M 400.106,517.524 L 405.987,539.647 L 427.198,533.905 C 425.064,519.938 422.927,513.497 434.062,489.659 C 427.512,502.575 412.986,513.917 400.106,517.524 z " />
				<path
   style="fill:#a7a8aa"
   id="path265"
   d="M 405.987,539.647 L 424.996,528.583 C 421.706,521.059 419.042,515.98 418.341,507.967 C 412.568,512.45 406.162,515.81 400.107,517.525 L 405.987,539.647 z " />
				<path
   style="fill:#db001b"
   id="path267"
   d="M 406.02,516.753 L 405.988,539.647 L 427.971,539.578 C 429.544,525.537 429.127,518.787 446.064,498.621 C 436.373,509.439 419.432,516.579 406.02,516.753 z " />
			</g>
		</g>
		<g
   id="g269">
			<path
   style="fill:#e9e9ea"
   id="path271"
   d="M 423.374,498.669 L 431.451,496.747 C 435.156,501.808 441.179,502.462 441.397,496.792 L 446.06,495.001 C 446.06,495.001 446.084,493.107 446.06,489.596 C 444.925,486.251 439.289,485.914 441,489.596 C 435.948,491.215 437.296,490.727 437.296,490.727 C 436.291,489.984 435.419,489.46 434.677,489.288 C 432.671,490.159 430.533,490.205 428.262,489.417 C 428.393,491.514 428.962,493.387 430.006,494.961 L 424.246,496.399 L 423.374,498.669 z " />
			<path
   style="fill:#989a9c"
   id="path273"
   d="M 425.035,488.373 L 421.152,497.315 C 421.242,498.448 421.981,498.886 423.334,498.624 L 427.132,489.288 L 425.035,488.373 z " />
			<path
   style="fill:#3f3f40"
   id="path275"
   d="M 439.91,474.671 C 439.082,469.785 431.49,466.556 426.827,468.606 C 426.344,469.261 426.173,469.961 426.298,470.611 C 426.256,471.966 426.779,473.104 427.652,474.058 L 425.954,478.989 C 423.51,479.69 421.371,480.781 419.491,482.221 C 419.23,486.884 429.88,492.297 435.812,488.716 C 435.593,486.619 435.025,484.619 434.062,482.697 L 436.333,477.813 C 439.302,477.595 440.612,476.593 439.91,474.671 z " />
			<path
   style="fill:#575759"
   id="path277"
   d="M 425.993,479.911 C 423.944,480.601 422.15,481.518 420.542,482.655 C 423.812,487.762 428.785,488.891 434.587,488.067 C 434.414,486.362 433.936,484.661 432.761,482.961 C 429.788,482.482 427.436,481.475 425.993,479.911 z " />
			<path
   style="fill:#575759"
   id="path279"
   d="M 428.35,474.455 L 426.696,478.989 C 428.439,480.339 430.837,481.348 433.457,481.869 L 435.376,477.55 C 432.799,476.896 430.359,475.979 428.35,474.455 z " />
			<path
   style="fill:#575759"
   id="path281"
   d="M 437.602,471.92 C 436.118,470.09 433.498,469.132 430.491,468.74 C 427.738,468.431 426.563,469.219 426.96,471.223 C 427.437,473.272 430.316,475.062 434.328,476.37 C 439.17,478.116 440.875,475.763 437.602,471.92 z " />
			<path
   style="fill:#d9d8d9"
   id="path283"
   d="M 433.018,469.22 C 429.401,471.137 432.454,473.148 439.255,475.192 C 434.2,475.763 427.171,472.187 426.827,470.261 C 427.39,468.39 429.529,468.127 433.018,469.22 z " />
			<path
   style="fill:#d9d8d9"
   id="path285"
   d="M 428.263,474.408 L 426.696,479.037 C 427.305,479.642 428.091,479.993 428.745,480.339 L 430.535,475.806 C 429.788,475.367 429.049,474.931 428.263,474.408 z " />
			<path
   style="fill:#d9d8d9"
   id="path287"
   d="M 425.993,479.864 C 423.989,480.562 422.199,481.518 420.542,482.655 C 422.335,486.232 426.298,488.108 430.661,488.32 C 425.735,485.708 424.247,483.399 428.263,481.564 C 427.39,480.995 426.649,480.43 425.993,479.864 z " />
		</g>
	</g><g
   id="g289">
		<g
   id="g291">
			<polygon
   style="fill:#afb0b2"
   id="polygon293"
   points="322.675,480.747 322.675,541.9 267.298,541.9 267.298,497.515 284.063,480.747 322.675,480.747 " />
		</g>
		<g
   id="g295">
			<polygon
   style="fill:#575759"
   id="polygon297"
   points="324.253,479.807 324.253,540.951 268.876,540.951 268.876,496.571 285.642,479.807 324.253,479.807 " />
			<polygon
   style="fill:#d9d8d9"
   id="polygon299"
   points="285.048,481.833 285.153,495.1 272.094,495.1 285.048,481.833 " />
			<polygon
   style="fill:#ffffff"
   id="polygon301"
   points="285.048,482.777 285.153,495.1 273.007,495.1 285.048,482.777 " />
			<polygon
   style="fill:#d9d8d9"
   id="polygon303"
   points="286.55,497.377 286.55,480.784 323.267,480.784 323.267,539.555 270.344,539.555 270.344,497.34 286.55,497.377 " />
			<polygon
   style="fill:#ffffff"
   id="polygon305"
   points="286.587,497.377 286.587,481.625 322.502,481.625 322.502,538.716 271.078,538.716 271.078,497.377 286.587,497.377 " />
			<g
   id="g307">
				<path
   style="fill:#e3e4e4"
   id="path309"
   d="M 271.044,518.97 L 282.458,538.822 L 301.464,527.795 C 295.789,514.842 292.047,509.206 296.633,483.307 C 293.658,497.481 282.56,512.148 271.044,518.97 z " />
				<path
   style="fill:#c6c7c8"
   id="path311"
   d="M 276.576,516.699 L 282.458,538.822 L 303.67,533.081 C 301.531,519.109 299.399,512.709 310.527,488.866 C 303.985,501.785 289.458,513.09 276.576,516.699 z " />
				<path
   style="fill:#a7a8aa"
   id="path313"
   d="M 282.458,538.822 L 301.464,527.795 C 298.174,520.271 295.513,515.192 294.777,507.179 C 289.001,511.623 282.633,515.018 276.576,516.7 L 282.458,538.822 z " />
				<path
   style="fill:#db001b"
   id="path315"
   d="M 282.492,515.927 L 282.458,538.822 L 304.437,538.786 C 305.978,524.713 305.592,517.959 322.501,497.829 C 312.838,508.612 295.895,515.792 282.492,515.927 z " />
			</g>
		</g>
		<g
   id="g317">
			<rect
   style="fill:#888887"
   id="rect319"
   height="19.249001"
   width="22.607"
   y="524.04901"
   x="301.047" />
			<rect
   style="fill:#575759"
   id="rect321"
   height="19.252001"
   width="24.681999"
   y="523.27899"
   x="299.991" />
			<rect
   style="fill:#3f3f40"
   id="rect323"
   height="19.323999"
   width="26.039"
   y="522.43799"
   x="299.297" />
			<rect
   style="fill:#c4c5c6"
   id="rect325"
   height="16.906"
   width="23.593"
   y="523.45502"
   x="300.51801" />
			<rect
   style="fill:#3f3f40"
   id="rect327"
   height="9.1040001"
   width="27.478001"
   y="513.44098"
   x="298.521" />
			<rect
   style="fill:#575759"
   id="rect329"
   height="7.9819999"
   width="26.462"
   y="514.00201"
   x="298.978" />
			<rect
   style="fill:#6f7072"
   id="rect331"
   height="7.0409999"
   width="25.375999"
   y="514.45502"
   x="299.54099" />
			<path
   style="fill:#e9e9ea"
   id="path333"
   d="M 300.448,520.023 L 300.835,519.952 C 300.835,520.201 300.867,520.338 300.973,520.445 C 301.047,520.511 301.149,520.551 301.291,520.551 C 301.393,520.551 301.464,520.551 301.531,520.477 C 301.605,520.445 301.674,520.373 301.706,520.302 C 301.706,520.233 301.742,520.094 301.742,519.92 L 301.742,517.818 L 302.127,517.818 L 302.127,519.92 C 302.127,520.166 302.096,520.337 302.056,520.477 C 301.987,520.62 301.881,520.721 301.743,520.828 C 301.639,520.902 301.465,520.933 301.292,520.933 C 301.011,520.933 300.799,520.862 300.661,520.687 C 300.518,520.551 300.448,520.302 300.448,520.023 L 300.448,520.023 z M 302.48,520.862 L 303.631,517.819 L 304.053,517.819 L 305.314,520.862 L 304.857,520.862 L 304.509,519.952 L 303.212,519.952 L 302.899,520.862 L 302.48,520.862 L 302.48,520.862 z M 303.355,519.638 L 304.366,519.638 L 304.053,518.763 C 303.949,518.519 303.875,518.307 303.843,518.131 C 303.809,518.344 303.738,518.519 303.669,518.726 L 303.355,519.638 L 303.355,519.638 z M 305.627,520.862 L 305.627,517.819 L 306.05,517.819 L 307.659,520.233 L 307.659,517.819 L 308.043,517.819 L 308.043,520.862 L 307.626,520.862 L 306.014,518.484 L 306.014,520.862 L 305.627,520.862 z " />
			<rect
   style="fill:#c4c5c6"
   id="rect335"
   height="3.0829999"
   width="13.611"
   y="517.81897"
   x="309.76199" />
			<rect
   style="fill:#e9e9ea"
   id="rect337"
   height="2.276"
   width="12.704"
   y="518.20099"
   x="310.181" />
			<rect
   style="fill:#ffffff"
   id="rect339"
   height="15.608"
   width="22.122999"
   y="524.12097"
   x="301.25" />
			<polygon
   style="fill:#dd0b1f"
   id="polygon341"
   points="301.25,533.464 303.457,531.716 305.07,533.711 308.638,527.652 310.986,531.749 312.245,529.791 314.729,535.599 319.244,525.135 323.373,533.184 323.373,536.124 319.456,528.527 314.696,539.066 312.139,532.798 310.986,534.832 308.535,530.523 305.176,536.055 303.281,533.569 301.25,535.112 301.25,533.464 " />
			<path
   style="fill:#3f3f40"
   id="path343"
   d="M 324.286,531.993 L 324.949,541.061 L 317.774,540.393 C 319.382,540.324 320.82,539.066 321.907,537.628 C 323.831,535.074 324.146,535.177 324.286,531.993 z " />
			<path
   style="fill:#6f7072"
   id="path345"
   d="M 324.11,540.393 L 324.11,535.529 C 323.55,536.79 323.059,537.459 322.221,538.366 C 321.31,539.308 320.891,539.627 319.63,540.393 L 324.11,540.393 z " />
			<path
   style="fill:#9a9b9d"
   id="path347"
   d="M 324.073,540.324 L 324.073,537.103 C 323.69,537.944 323.373,538.402 322.778,538.992 C 322.183,539.627 321.907,539.836 321.066,540.324 L 324.073,540.324 z " />
			<path
   style="fill:#c4c5c6"
   id="path349"
   d="M 324.11,540.324 L 324.11,538.613 C 323.902,539.066 323.725,539.308 323.446,539.627 C 323.092,539.942 322.956,540.08 322.502,540.324 L 324.11,540.324 z " />
		</g>
		<g
   id="g351">
			<path
   style="fill:#ffffff"
   id="path353"
   d="M 322.466,515.999 C 322.85,515.999 323.168,515.681 323.168,515.299 C 323.168,514.911 322.85,514.598 322.466,514.598 C 322.114,514.598 321.799,514.911 321.799,515.299 C 321.799,515.68 322.114,515.999 322.466,515.999 z " />
			<path
   style="fill:#ffffff"
   id="path355"
   d="M 317.249,515.999 C 317.636,515.999 317.949,515.681 317.949,515.299 C 317.949,514.911 317.636,514.598 317.249,514.598 C 316.866,514.598 316.549,514.911 316.549,515.299 C 316.549,515.68 316.866,515.999 317.249,515.999 z " />
			<path
   style="fill:#ffffff"
   id="path357"
   d="M 301.464,515.999 C 301.847,515.999 302.165,515.681 302.165,515.299 C 302.165,514.911 301.847,514.598 301.464,514.598 C 301.079,514.598 300.764,514.911 300.764,515.299 C 300.764,515.68 301.079,515.999 301.464,515.999 z " />
			<path
   style="fill:#ffffff"
   id="path359"
   d="M 306.749,515.999 C 307.132,515.999 307.453,515.681 307.453,515.299 C 307.453,514.911 307.132,514.598 306.749,514.598 C 306.365,514.598 306.05,514.911 306.05,515.299 C 306.05,515.68 306.365,515.999 306.749,515.999 z " />
			<path
   style="fill:#ffffff"
   id="path361"
   d="M 312.278,515.999 C 312.664,515.999 312.977,515.681 312.977,515.299 C 312.977,514.911 312.664,514.598 312.278,514.598 C 311.897,514.598 311.579,514.911 311.579,515.299 C 311.579,515.68 311.897,515.999 312.278,515.999 z " />
		</g>
		<g
   id="g363">
			<g
   id="g365">
				<path
   style="fill:#1b161b"
   id="path367"
   d="M 302.056,514.948 C 300.764,513.058 302.269,512.114 302.549,513.441 L 303.281,513.441 C 302.931,510.573 298.945,512.182 301.047,514.984 C 301.605,515.719 302.442,515.51 302.056,514.948 z " />
				<path
   style="fill:#e9e9ea"
   id="path369"
   d="M 302.096,512.81 C 301.498,512.81 301.291,513.795 302.024,514.878 C 301.847,514.773 301.707,514.703 301.568,514.49 C 300.798,513.375 301.355,512.57 302.096,512.81 z " />
				<path
   style="fill:#1b161b"
   id="path371"
   d="M 307.342,514.948 C 306.05,513.058 307.553,512.114 307.834,513.441 L 308.566,513.441 C 308.216,510.573 304.229,512.182 306.327,514.984 C 306.886,515.719 307.729,515.51 307.342,514.948 z " />
				<path
   style="fill:#e9e9ea"
   id="path373"
   d="M 307.379,512.81 C 306.784,512.81 306.573,513.795 307.309,514.878 C 307.132,514.773 306.996,514.703 306.854,514.49 C 306.083,513.375 306.646,512.57 307.379,512.81 z " />
				<path
   style="fill:#1b161b"
   id="path375"
   d="M 312.876,514.948 C 311.579,513.058 313.083,512.114 313.364,513.441 L 314.101,513.441 C 313.746,510.573 309.761,512.182 311.857,514.984 C 312.42,515.719 313.261,515.51 312.876,514.948 z " />
				<path
   style="fill:#e9e9ea"
   id="path377"
   d="M 312.908,512.81 C 312.314,512.81 312.103,513.795 312.838,514.878 C 312.664,514.773 312.525,514.703 312.386,514.49 C 311.613,513.375 312.175,512.57 312.908,512.81 z " />
				<path
   style="fill:#1b161b"
   id="path379"
   d="M 317.917,514.948 C 316.618,513.058 318.093,512.114 318.37,513.441 L 319.105,513.441 C 318.787,510.573 314.765,512.182 316.866,514.984 C 317.424,515.719 318.299,515.51 317.917,514.948 z " />
				<path
   style="fill:#e9e9ea"
   id="path381"
   d="M 317.917,512.81 C 317.318,512.81 317.11,513.795 317.88,514.878 C 317.67,514.773 317.53,514.703 317.39,514.49 C 316.654,513.375 317.178,512.57 317.917,512.81 z " />
				<path
   style="fill:#1b161b"
   id="path383"
   d="M 323.092,514.948 C 321.799,513.058 323.307,512.114 323.585,513.441 L 324.319,513.441 C 323.971,510.573 319.981,512.182 322.082,514.984 C 322.641,515.719 323.479,515.51 323.092,514.948 z " />
				<path
   style="fill:#e9e9ea"
   id="path385"
   d="M 323.129,512.81 C 322.502,512.81 322.29,513.795 323.06,514.878 C 322.85,514.773 322.747,514.703 322.571,514.49 C 321.834,513.375 322.358,512.57 323.129,512.81 z " />
			</g>
		</g>
	</g>
<g
   id="g2694"
   inkscape:export-filename="/home/pawel/szarp-experimental/resources/wx/icons/draw3.png"
   inkscape:export-xdpi="25.549999"
   inkscape:export-ydpi="25.549999"><g
     transform="translate(9.553615,-73.972317)"
     id="g2892">
			<path
   style="fill:#e3e4e4"
   id="path2894"
   d="M 148.542,520.316 L 159.953,540.159 L 178.995,529.137 C 173.289,516.179 169.58,510.513 174.165,484.609 C 171.155,498.783 160.093,513.487 148.542,520.316 z " />
			<path
   style="fill:#c6c7c8"
   id="path2896"
   d="M 154.072,518.04 L 159.953,540.159 L 181.2,534.417 C 179.065,520.452 176.93,514.008 188.06,490.173 C 181.479,503.125 166.989,514.432 154.072,518.04 z " />
			<path
   style="fill:#a7a8aa"
   id="path2898"
   d="M 159.953,540.159 L 178.995,529.137 C 175.67,521.57 173.045,516.533 172.311,508.481 C 166.534,512.962 160.129,516.32 154.073,518.041 L 159.953,540.159 z " />
			<path
   style="fill:#db001b"
   id="path2900"
   d="M 160.023,517.27 L 159.953,540.159 L 181.935,540.09 C 183.509,526.054 183.091,519.298 200.031,499.17 C 190.337,509.95 173.397,517.127 160.023,517.27 z " />
		</g><g
     transform="matrix(1.0317724,0,0,1.0317724,-7.8633165,-94.459261)"
     id="g2902">
			<path
   style="fill:#3f3f40"
   id="path2904"
   d="M 202.063,524.758 C 206.229,514.641 199.646,505.717 189.532,506.906 C 183.58,507.468 179.172,513.205 179.451,518.14 C 179.171,526.997 187.712,533.752 197.897,529.166 L 198.77,530.043 L 199.858,529.48 L 201.047,530.427 L 200.906,531.895 L 211.441,542.153 L 212.109,541.943 L 212.807,542.256 C 214.172,542.046 215.257,540.892 215.467,539.669 L 215.048,539.106 L 215.363,538.267 L 204.897,527.696 L 203.251,528.079 L 202.376,527.208 L 202.935,525.736 L 202.063,524.758 z " />
			<path
   style="fill:#e9e9ea"
   id="path2906"
   d="M 201.82,525.279 L 202.484,525.772 L 198.948,529.34 L 198.353,528.748 C 199.684,527.767 200.873,526.61 201.82,525.279 z " />
			<polygon
   style="fill:#e9e9ea"
   id="polygon2908"
   points="202.098,527.555 202.833,528.325 201.327,529.832 200.275,529.096 202.098,527.555 " />
			<polygon
   style="fill:#e9e9ea"
   id="polygon2910"
   points="203.221,528.537 204.338,528.26 201.502,531.023 201.502,530.214 203.221,528.537 " />
			<polygon
   style="fill:#e9e9ea"
   id="polygon2912"
   points="204.826,528.576 201.889,531.758 211.653,541.453 214.593,538.444 204.826,528.576 " />
			<path
   style="fill:#e9e9ea"
   id="path2914"
   d="M 214.771,539.564 L 212.599,541.633 C 213.681,541.912 215.049,540.684 214.771,539.564 z " />
			<path
   style="fill:#d9d8d9"
   id="path2916"
   d="M 191.212,518.35 L 200.662,511.98 C 198.562,508.902 194.991,507.013 191.212,507.013 C 184.912,507.013 179.731,512.123 179.731,518.35 C 179.731,520.316 180.29,522.343 181.273,524.021 L 191.212,518.35 z " />
			<path
   style="fill:#3f3f40"
   id="path2918"
   d="M 191.423,518.741 L 200.943,512.294 C 198.843,509.216 195.201,507.289 191.423,507.289 C 185.085,507.289 179.871,512.436 179.871,518.741 C 179.871,520.694 180.431,522.726 181.411,524.445 L 191.423,518.741 z " />
			<polygon
   style="fill:#d9d8d9"
   id="polygon2920"
   points="204.513,528.85 203.462,530.081 213.261,539.808 214.418,538.79 204.513,528.85 " />
			<polygon
   style="fill:#d9d8d9"
   id="polygon2922"
   points="202.729,530.848 202.098,531.514 211.831,541.208 212.459,540.614 202.729,530.848 " />
			<polygon
   style="fill:#c4c5c6"
   id="polygon2924"
   points="204.549,528.816 203.847,529.656 213.681,539.388 214.383,538.762 204.549,528.816 " />
			<polygon
   style="fill:#c4c5c6"
   id="polygon2926"
   points="202.449,531.089 202.063,531.545 211.831,541.246 212.284,540.861 202.449,531.089 " />
			<polygon
   style="fill:#9a9b9d"
   id="polygon2928"
   points="202.237,531.303 202.063,531.545 211.865,541.278 212.072,541.066 202.237,531.303 " />
			<polygon
   style="fill:#afb0b2"
   id="polygon2930"
   points="204.549,528.784 204.094,529.34 214.033,539.108 214.383,538.762 204.549,528.784 " />
			<polygon
   style="fill:#9a9b9d"
   id="polygon2932"
   points="204.583,528.749 204.303,529.096 214.314,538.864 214.526,538.686 204.583,528.749 " />
			<polygon
   style="fill:#6f7072"
   id="polygon2934"
   points="202.029,531.514 201.818,531.758 211.618,541.49 211.865,541.278 202.029,531.514 " />
			<polygon
   style="fill:#6f7072"
   id="polygon2936"
   points="204.756,528.504 204.513,528.816 214.49,538.686 214.734,538.444 204.756,528.504 " />
			<path
   style="fill:#d9d8d9"
   id="path2938"
   d="M 191.423,518.704 L 202.203,514.713 C 202.621,515.976 202.904,517.372 202.904,518.704 C 202.904,524.968 197.758,530.081 191.423,530.081 C 189.321,530.081 187.152,529.445 185.367,528.362 L 191.423,518.704 z " />
			<path
   style="fill:#3f3f40"
   id="path2940"
   d="M 191.177,518.458 L 181.515,524.997 C 183.65,528.117 187.328,530.044 191.177,530.044 C 197.651,530.044 202.904,524.861 202.904,518.458 C 202.904,516.458 202.341,514.396 201.362,512.68 L 191.177,518.458 z " />
			<path
   style="fill:#ffffff"
   id="path2942"
   d="M 191.317,529.656 C 197.406,529.656 202.411,524.721 202.411,518.667 C 202.411,512.648 197.406,507.711 191.317,507.711 C 185.193,507.711 180.187,512.649 180.187,518.667 C 180.187,524.721 185.194,529.656 191.317,529.656 z " />
			<path
   style="fill:#c4c5c6"
   id="path2944"
   d="M 214.771,539.53 L 213.787,540.471 C 213.962,540.684 214.102,540.861 214.245,541.066 C 214.664,540.684 214.874,540.125 214.771,539.53 z " />
			<path
   style="fill:#9a9b9d"
   id="path2946"
   d="M 214.771,539.53 L 214.071,540.193 L 214.527,540.79 C 214.771,540.368 214.909,539.983 214.771,539.53 z " />
			<path
   style="fill:#575759"
   id="path2948"
   d="M 214.771,539.53 L 214.349,539.915 L 214.734,540.368 C 214.839,540.049 214.874,539.739 214.771,539.53 z " />
			<path
   style="fill:#c4c5c6"
   id="path2950"
   d="M 213.16,541.103 L 213.826,541.384 C 213.405,541.665 212.985,541.737 212.598,541.633 L 213.16,541.103 z " />
			<path
   style="fill:#888887"
   id="path2952"
   d="M 212.948,541.278 L 213.577,541.522 C 213.229,541.666 212.879,541.697 212.598,541.633 L 212.948,541.278 z " />
			<path
   style="fill:#575759"
   id="path2954"
   d="M 212.81,541.418 L 213.229,541.665 C 213.017,541.696 212.81,541.696 212.563,541.665 L 212.81,541.418 z " />
			<polygon
   style="fill:#c4c5c6"
   id="polygon2956"
   points="204.338,528.26 203.221,528.537 202.308,529.412 203.008,529.589 204.338,528.26 " />
			<polygon
   style="fill:#9a9b9d"
   id="polygon2958"
   points="204.303,528.26 203.221,528.537 202.586,529.136 203.287,529.31 204.303,528.26 " />
			<polygon
   style="fill:#6f7072"
   id="polygon2960"
   points="204.373,528.224 203.221,528.504 202.866,528.85 203.672,528.921 204.373,528.224 " />
			<polygon
   style="fill:#c4c5c6"
   id="polygon2962"
   points="202.029,529.726 202.308,530.25 201.502,531.023 201.502,530.214 202.029,529.726 " />
			<polygon
   style="fill:#9a9b9d"
   id="polygon2964"
   points="201.82,529.938 202.064,530.537 201.573,530.986 201.607,530.113 201.82,529.938 " />
			<polygon
   style="fill:#575759"
   id="polygon2966"
   points="201.645,530.081 201.82,530.813 201.432,531.161 201.469,530.25 201.645,530.081 " />
			<polygon
   style="fill:#c4c5c6"
   id="polygon2968"
   points="202.029,529.136 201.151,528.362 202.098,527.523 202.833,528.292 202.029,529.136 " />
			<polygon
   style="fill:#9a9b9d"
   id="polygon2970"
   points="202.308,528.887 201.396,528.118 201.852,527.733 202.729,528.399 202.308,528.887 " />
			<polygon
   style="fill:#575759"
   id="polygon2972"
   points="202.586,528.576 201.748,527.836 202.098,527.523 202.833,528.292 202.586,528.576 " />
			<polygon
   style="fill:#c4c5c6"
   id="polygon2974"
   points="201.78,529.38 200.944,528.537 200.345,529.03 201.396,529.762 201.78,529.38 " />
			<polygon
   style="fill:#9a9b9d"
   id="polygon2976"
   points="201.607,529.555 200.734,528.712 200.345,529.03 201.432,529.795 201.607,529.555 " />
			<polygon
   style="fill:#575759"
   id="polygon2978"
   points="201.432,529.762 200.524,528.887 200.244,529.096 201.259,529.972 201.432,529.762 " />
			<polygon
   style="fill:#c4c5c6"
   id="polygon2980"
   points="200.837,527.454 200.313,527.032 201.852,525.247 202.52,525.772 200.837,527.454 " />
			<polygon
   style="fill:#c4c5c6"
   id="polygon2982"
   points="199.926,528.362 199.438,527.874 198.352,528.749 198.947,529.38 199.926,528.362 " />
			<polygon
   style="fill:#afb0b2"
   id="polygon2984"
   points="201.188,527.136 200.626,526.648 201.852,525.247 202.52,525.772 201.188,527.136 " />
			<polygon
   style="fill:#afb0b2"
   id="polygon2986"
   points="199.718,528.611 199.193,528.048 198.527,528.576 198.983,529.31 199.718,528.611 " />
			<polygon
   style="fill:#888887"
   id="polygon2988"
   points="199.438,528.887 198.913,528.292 198.458,528.611 198.983,529.31 199.438,528.887 " />
			<polygon
   style="fill:#575759"
   id="polygon2990"
   points="199.157,529.167 198.633,528.504 198.316,528.749 198.843,529.445 199.157,529.167 " />
			<polygon
   style="fill:#9a9b9d"
   id="polygon2992"
   points="201.469,526.859 200.907,526.334 201.645,525.458 202.483,525.804 201.469,526.859 " />
			<polygon
   style="fill:#6f7072"
   id="polygon2994"
   points="201.852,526.509 201.188,525.984 201.82,525.247 202.483,525.804 201.852,526.509 " />
			<polygon
   style="fill:#575759"
   id="polygon2996"
   points="202.169,526.155 201.502,525.633 201.852,525.211 202.552,525.772 202.169,526.155 " />
			<path
   style="fill:#dd0b1f"
   id="path2998"
   d="M 180.465,521.187 L 182.949,518.911 L 184.386,521.05 L 187.641,514.608 L 189.776,518.944 L 190.929,516.847 L 193.204,523.044 L 197.301,511.948 L 201.818,522.201 C 201.643,522.764 201.395,523.287 201.118,523.777 L 197.478,515.519 L 193.171,526.679 L 190.826,520.068 L 189.776,522.201 L 187.571,517.65 L 184.49,523.533 L 182.774,520.869 L 180.884,522.551 C 180.71,522.094 180.569,521.643 180.465,521.187 z " />
		</g></g><g
   id="g3211"
   transform="matrix(1.0837681,0,0,1,-101.14407,-8.6266033)"
   inkscape:export-filename="/home/pawel/szarp-experimental/resources/wx/icons/rap16.png"
   inkscape:export-xdpi="26.139999"
   inkscape:export-ydpi="26.139999"><path
     style="fill:#e3e4e4"
     id="path3138"
     d="M 383.57389,435.72861 L 394.98789,455.57661 L 413.99689,444.51261 C 408.32289,431.59661 404.61389,425.92361 409.19989,400.05961 C 406.18989,414.20061 395.09489,428.89961 383.57389,435.72861 z " /><path
     style="fill:#c6c7c8"
     id="path3140"
     d="M 389.10689,433.45361 L 394.98789,455.57661 L 416.19889,449.83461 C 414.06489,435.86761 411.92789,429.42661 423.06289,405.58861 C 416.51289,418.50461 401.98689,429.84661 389.10689,433.45361 z " /><path
     style="fill:#a7a8aa"
     id="path3142"
     d="M 394.98789,455.57661 L 413.99689,444.51261 C 410.70689,436.98861 408.04289,431.90961 407.34189,423.89661 C 401.56889,428.37961 395.16289,431.73961 389.10789,433.45461 L 394.98789,455.57661 z " /><path
     style="fill:#db001b"
     id="path3144"
     d="M 395.02089,432.68261 L 394.98889,455.57661 L 416.97189,455.50761 C 418.54489,441.46661 418.12789,434.71661 435.06489,414.55061 C 425.37389,425.36861 408.43289,432.50861 395.02089,432.68261 z " /></g><g
   id="g2842"
   transform="matrix(1.4798942,0,0,1.4798942,-169.85572,-198.78784)"
   inkscape:export-filename="/home/pawel/szarp-experimental/resources/wx/icons/rap16.png"
   inkscape:export-xdpi="26.139999"
   inkscape:export-ydpi="26.139999"><path
     d="M 344.06886,421.91526 L 339.86059,430.85726 C 339.95813,431.99026 340.75903,432.42826 342.22537,432.16626 L 346.34152,422.83026 L 344.06886,421.91526 z "
     id="path3150"
     style="fill:#989a9c" /><path
     d="M 360.18991,408.21326 C 359.29255,403.32726 351.06459,400.09826 346.01097,402.14826 C 345.48751,402.80326 345.30219,403.50326 345.43766,404.15326 C 345.39214,405.50826 345.95895,406.64626 346.90508,407.60026 L 345.06485,412.53126 C 342.41612,413.23226 340.09794,414.32326 338.06045,415.76326 C 337.77759,420.42626 349.31972,425.83926 355.74863,422.25826 C 355.51129,420.16126 354.89571,418.16126 353.85204,416.23926 L 356.31327,411.35526 C 359.53098,411.13726 360.95072,410.13526 360.18991,408.21326 z "
     id="path3152"
     style="fill:#3f3f40" /><path
     d="M 345.10711,413.45326 C 342.88647,414.14326 340.94219,415.06026 339.19949,416.19726 C 342.74341,421.30426 348.13299,422.43326 354.42102,421.60926 C 354.23352,419.90426 353.71548,418.20326 352.44205,416.50326 C 349.22001,416.02426 346.67099,415.01726 345.10711,413.45326 z "
     id="path3154"
     style="fill:#575759" /><path
     d="M 347.66155,407.99726 L 345.869,412.53126 C 347.75801,413.88126 350.35689,414.89026 353.19636,415.41126 L 355.27611,411.09226 C 352.48324,410.43826 349.83884,409.52126 347.66155,407.99726 z "
     id="path3156"
     style="fill:#575759" /><path
     d="M 357.68858,405.46226 C 356.08026,403.63226 353.24079,402.67426 349.9819,402.28226 C 346.99829,401.97326 345.72486,402.76126 346.15512,404.76526 C 346.67207,406.81426 349.79224,408.60426 354.14032,409.91226 C 359.38792,411.65826 361.23575,409.30526 357.68858,405.46226 z "
     id="path3158"
     style="fill:#575759" /><path
     d="M 352.72058,402.76226 C 348.80059,404.67926 352.10934,406.69026 359.48004,408.73426 C 354.0016,409.30526 346.38379,405.72926 346.01097,403.80326 C 346.62114,401.93226 348.93932,401.66926 352.72058,402.76226 z "
     id="path3160"
     style="fill:#d9d8d9" /><path
     d="M 347.56727,407.95026 L 345.869,412.57926 C 346.52902,413.18426 347.38086,413.53526 348.08964,413.88126 L 350.02959,409.34826 C 349.22001,408.90926 348.41911,408.47326 347.56727,407.95026 z "
     id="path3162"
     style="fill:#d9d8d9" /><path
     d="M 345.10711,413.40626 C 342.93524,414.10426 340.9953,415.06026 339.19949,416.19726 C 341.14269,419.77426 345.43766,421.65026 350.16614,421.86226 C 344.8275,419.25026 343.21485,416.94126 347.56727,415.10626 C 346.62114,414.53726 345.81806,413.97226 345.10711,413.40626 z "
     id="path3164"
     style="fill:#d9d8d9" /></g><g
   id="g2809"
   transform="matrix(1.0698081,0,0,1,4.684656,2.8755344)"
   inkscape:export-filename="/home/pawel/szarp-experimental/resources/wx/icons/scc.png"
   inkscape:export-xdpi="52.279999"
   inkscape:export-ydpi="52.279999"><g
     transform="translate(-4.7776474,-76.067154)"
     id="g2795">
				<path
   d="M 30.352,520.583 L 41.763,540.432 L 60.771,529.406 C 55.1,516.455 51.388,510.787 55.974,484.885 C 52.963,499.059 41.868,513.763 30.352,520.583 z "
   id="path2797"
   style="fill:#e3e4e4" />
				<path
   d="M 35.884,518.309 L 41.762,540.432 L 62.974,534.693 C 60.875,520.726 58.703,514.287 69.834,490.447 C 63.29,503.4 48.799,514.706 35.884,518.309 z "
   id="path2799"
   style="fill:#c6c7c8" />
			</g><g
     transform="translate(-4.7776474,-76.067154)"
     id="g2801">
			<g
   id="g2803">
				<path
   style="fill:#a7a8aa"
   id="path2805"
   d="M 41.762,540.432 L 60.77,529.406 C 57.478,521.843 54.853,516.802 54.12,508.755 C 48.343,513.238 41.937,516.596 35.884,518.31 L 41.762,540.432 z " />
				<path
   style="fill:#db001b"
   id="path2807"
   d="M 41.798,517.542 L 41.762,540.433 L 63.744,540.362 C 65.32,526.329 64.9,519.573 81.842,499.443 C 72.148,510.227 55.204,517.402 41.798,517.542 z " />
			</g>
		</g></g><g
   id="g2673"><g
     inkscape:export-ydpi="52.279999"
     inkscape:export-xdpi="52.279999"
     inkscape:export-filename="/home/pawel/szarp-experimental/resources/wx/icons/scc.png"
     transform="matrix(1.0698081,0,0,1,213.3811,-17.223629)"
     id="g2647"><g
       id="g2649"
       transform="translate(-4.7776474,-76.067154)">
				<path
   style="fill:#e3e4e4"
   id="path2651"
   d="M 30.352,520.583 L 41.763,540.432 L 60.771,529.406 C 55.1,516.455 51.388,510.787 55.974,484.885 C 52.963,499.059 41.868,513.763 30.352,520.583 z" />
				<path
   style="fill:#c6c7c8"
   id="path2653"
   d="M 35.884,518.309 L 41.762,540.432 L 62.974,534.693 C 60.875,520.726 58.703,514.287 69.834,490.447 C 63.29,503.4 48.799,514.706 35.884,518.309 z" />
			</g><g
       id="g2655"
       transform="translate(-4.7776474,-76.067154)">
			<g
   id="g2657">
				<path
   d="M 41.762,540.432 L 60.77,529.406 C 57.478,521.843 54.853,516.802 54.12,508.755 C 48.343,513.238 41.937,516.596 35.884,518.31 L 41.762,540.432 z"
   id="path2659"
   style="fill:#a7a8aa" />
				<path
   d="M 41.798,517.542 L 41.762,540.433 L 63.744,540.362 C 65.32,526.329 64.9,519.573 81.842,499.443 C 72.148,510.227 55.204,517.402 41.798,517.542 z"
   id="path2661"
   style="fill:#db001b" />
			</g>
		</g></g><path
     sodipodi:nodetypes="cccccccc"
     id="rect2663"
     d="M 248.20195,412.51109 L 242.48976,412.51109 L 253.21544,399.228 L 263.9411,412.51109 L 258.22894,412.51109 L 258.22894,443.31781 L 248.20195,443.31781 L 248.20195,412.51109 z"
     style="fill:#c2f5c5;fill-opacity:0.96078431;fill-rule:nonzero;stroke:#000000;stroke-width:2.23193908;stroke-linecap:butt;stroke-linejoin:miter;marker:none;marker-start:none;marker-mid:none;marker-end:none;stroke-miterlimit:4;stroke-dashoffset:0;stroke-opacity:1;visibility:visible;display:inline;overflow:visible;enable-background:accumulate" /><path
     sodipodi:nodetypes="cccccccc"
     id="path2671"
     d="M 280.70536,430.74648 L 286.41755,430.74648 L 275.69187,444.02957 L 264.96621,430.74648 L 270.67837,430.74648 L 270.67837,399.93976 L 280.70536,399.93976 L 280.70536,430.74648 z"
     style="fill:#c2f5c5;fill-opacity:0.96078431;fill-rule:nonzero;stroke:#000000;stroke-width:2.23193908;stroke-linecap:butt;stroke-linejoin:miter;marker:none;marker-start:none;marker-mid:none;marker-end:none;stroke-miterlimit:4;stroke-dashoffset:0;stroke-opacity:1;visibility:visible;display:inline;overflow:visible;enable-background:accumulate" /></g></svg>