/* XPM */
static char *draw_tree_xpm[] = {
/* columns rows colors chars-per-pixel */
"16 16 131 2",
"   c #387822622EAF",
".  c #32B3276734F5",
"X  c #25E639393BBC",
"o  c #32722FF02FF0",
"O  c #410117171394",
"+  c #490936B735B6",
"@  c #531344C52161",
"#  c #52D3440421A2",
"$  c #6D2D46062969",
"%  c #62A266A62AAB",
"&  c #65256E6E2BEC",
"*  c #676775F62B6B",
"=  c #67E87ABA2BEC",
"-  c #69547F942E43",
";  c #686877B73777",
":  c #69A97B3B3232",
">  c #69A9727239FA",
",  c #2F6F3C7C4B0B",
"<  c #31F230B14000",
"1  c #32F335F641C2",
"2  c #32B33B3B4101",
"3  c #2FB03AFB4787",
"4  c #2D2D41414E0E",
"5  c #39793FC04505",
"6  c #36F748484888",
"7  c #28E9448452D3",
"8  c #27A847475252",
"9  c #24244CCD5898",
"0  c #2CED55555999",
"q  c #2D6D5B5B6161",
"w  c #24A55ADB6929",
"e  c #252558186BAB",
"r  c #272759596AEB",
"t  c #2A2A5AFB67E8",
"y  c #27A859596AEB",
"u  c #246466266E2E",
"i  c #3A7A606063A3",
"p  c #2C6C763666A6",
"a  c #26A7696971F2",
"s  c #242469A97939",
"d  c #1FE06AEB7D3D",
"f  c #69EA6B6B4040",
"g  c #6A2A61E24888",
"h  c #8DCD7E3E42C3",
"j  c #696980262E08",
"k  c #692981012EAF",
"l  c #6A3F80AB2DAE",
"z  c #69EA81012E6E",
"x  c #69EA82022E6E",
"c  c #6BAB9D9D2E6E",
"v  c #7DFE9C9C35B6",
"b  c #79FAA2E235F6",
"n  c #9E1E84043C7C",
"m  c #9E1E84043DBE",
"M  c #8080AA2A38B9",
"N  c #8D0DB9395FE0",
"B  c #9858BEFE7939",
"V  c #9151E4644383",
"C  c #9717EE2D4F8F",
"Z  c #969FF7EE4661",
"A  c #9717F8374606",
"S  c #9696F7CC4732",
"D  c #9760F8094707",
"F  c #9696F8C54646",
"G  c #976FF8C84646",
"H  c #975DF8CB4707",
"J  c #9737F9D94787",
"K  c #9818F9384747",
"L  c #9818F9B94747",
"P  c #9818FB7B4707",
"I  c #9898FCBC4747",
"U  c #9717F2F24B4B",
"Y  c #9494F6F64848",
"T  c #9575F70147DD",
"R  c #9656F7B747C8",
"E  c #9696F4B44A8A",
"W  c #95D5F0704DCE",
"Q  c #9717F87847C8",
"!  c #9717FABA47C8",
"~  c #97C2FBD047C8",
"^  c #9656FB7B4909",
"/  c #9717E9695353",
"(  c #9717EB6B52D3",
")  c #97D7CFCF6A2A",
"_  c #9797D6156464",
"`  c #9717C8487171",
"'  c #C4C4EB2A7A3A",
"]  c #EA29F7F76CED",
"[  c #FFFFFFFF6666",
"{  c #1E5E757582C2",
"}  c #246471718282",
"|  c #21A2737384C4",
" . c #22027B7B87A7",
".. c #20E177778888",
"X. c #21217E3E8A8A",
"o. c #1B5B82829292",
"O. c #1C9D87C79858",
"+. c #1B9C88889BDB",
"@. c #1C9D88489B5B",
"#. c #1E9F8E4E9F1F",
"$. c #222282829151",
"%. c #19DA8FCFA4A4",
"&. c #13139919ACEC",
"*. c #14D59ADAAF2F",
"=. c #15D69EDEB3F3",
"-. c #1555A121B6F6",
";. c #1596A262B6F6",
":. c #12D3A525BABA",
">. c #13D4A525BA3A",
",. c #1495A5A5BB3B",
"<. c #1394A868BDFD",
"1. c #1394A9A9BF3F",
"2. c #1899ADEDB9B9",
"3. c #19DAAEAEB9F9",
"4. c #1ABBAECEB999",
"5. c #1858ADADBAFA",
"6. c #1919ADADBBBB",
"7. c #1899AE2EBABA",
"8. c #17D8AEAEBB7B",
"9. c #17D8AE6EBDFD",
"0. c #1899B030BC3C",
"q. c #2121AFAFBB7B",
"w. c #4A0ABE7EAC2C",
"e. c #0DCEA868C282",
"r. c #1111A9E9C161",
"t. c #1151AA2AC181",
"y. c #130CAAAAC0C0",
"u. c #1252AAEAC181",
"i. c #1313AB2BC141",
"p. c #1293ACECC3C3",
"a. c #1252AD2DC444",
/* pixels */
"$ m h e y y y y y y y y y y y < ",
"m [ ' e.t.t.i.y.y.y.<.t.y.y.y.y ",
"n ] w.t.i.} s <.X.$.s ;.y.t.y.y ",
"i q.t.,.i.a.w ;.-.X X.i | ,.y.y ",
"e y.y.| . *.o.3 ..1 $.o O.1.1.w ",
"y y.y.<.@., #.8 5   9  .:.1.i.y ",
"y y.y.y.t.%.7 d 6 O 0 a i.y.i.y ",
"y y.y.y.<.i.p.4 X &.a.i.t.y.y.y ",
"t 5.5.5.4.9.9.p + 0.5.8.5.5.5.y ",
"- D Y A A A L c % ^ A Y A Y H l ",
"l K L L D Y I b = I H H A A A - ",
"l K L D L L I b * I H A A A H l ",
"l K K A Y H H b & Q A A A A A - ",
"- K K Y H H H V N ` / E ( C H j ",
": K K K H H A H A C ) B _ E H j ",
"@ l l - j l j j l j ; > > g ; @ "
};
