/* XPM */
static const char*filter5_xpm[]={
"16 16 8 1",
"c c #ff00ff",
". c #000000",
"f c #7c7c7c",
"d c #ff8000",
"e c #f9f400",
"# c None",
"a c #c00000",
"b c #ff0000",
"............####",
".aaaaaaaaaa.####",
".aaaaaaaaaa.####",
".bbbbbbbbbb.####",
".bbbbbbbbbb.####",
".cccccccccc.####",
".cccccccccc.####",
".dddddd.........",
".dddddd.eeeeeee.",
".eeeeee.ee...ee.",
".eeeeee.ee.eeee.",
"........ee..fee.",
"#######.eeee.ee.",
"#######.ee..fee.",
"#######.eeeeeee.",
"#######........."
};

