/* XPM */
static const char*filter1_xpm[]={
"16 16 5 1",
". c #000000",
"b c #ffff00",
"a c #f9f400",
"# c None",
"c c #8b8b8b",
"............####",
".##########.####",
".##########.####",
".##########.####",
".##########.####",
".##########.####",
".##########.####",
".######.........",
".######.aaaaaaa.",
".bbbbbb.aaa.aaa.",
".bbbbbb.aac.aaa.",
"........aaa.aaa.",
"#######.aaa.aaa.",
"#######.aaa.aaa.",
"#######.aaaaaaa.",
"#######........."
};

