/* XPM */
static const char*filter2_xpm[]={
"16 16 7 1",
". c #000000",
"e c #7c7c7c",
"a c #ff8000",
"c c #6e6e6e",
"b c #f9f400",
"# c None",
"d c #8b8b8b",
"............####",
".##########.####",
".##########.####",
".##########.####",
".##########.####",
".##########.####",
".##########.####",
".aaaaaa.........",
".aaaaaa.bbbbbbb.",
".bbbbbb.bbc.cbb.",
".bbbbbb.bbdb.bb.",
"........bbbedbb.",
"#######.bbcbbbb.",
"#######.bb...bb.",
"#######.bbbbbbb.",
"#######........."
};

