/* XPM */
static const char *flag_hu[] = {
/* columns rows colors chars-per-pixel */
"16 11 119 2",
"   c black",
".  c #000100",
"X  c #000700",
"o  c #000D00",
"O  c #001300",
"+  c #001B00",
"@  c #002100",
"#  c #002700",
"$  c #002F00",
"%  c #003500",
"&  c #003B00",
"*  c #004100",
"=  c #004700",
"-  c #004F00",
";  c #0B7B0B",
":  c #0F7E0E",
">  c #107E10",
",  c #138113",
"<  c #148114",
"1  c #188419",
"2  c #198419",
"3  c #1E871E",
"4  c #1F871F",
"5  c #238A23",
"6  c #248B24",
"7  c #298D29",
"8  c #2A8E2A",
"9  c #2C8C2C",
"0  c #2F8F2F",
"q  c #2E902E",
"w  c #2F912F",
"e  c #328F32",
"r  c #339032",
"t  c #359335",
"y  c #349434",
"u  c #399539",
"i  c #3A973A",
"p  c #3D983D",
"a  c #3F9A3F",
"s  c #409B3F",
"d  c #429942",
"f  c #449E44",
"g  c #459E45",
"h  c #469D46",
"j  c #4B9F4B",
"k  c #49A149",
"l  c #50A250",
"z  c #54A455",
"x  c #58A858",
"c  c #5DAA5D",
"v  c #61AD62",
"b  c #66AF66",
"n  c #6AB36A",
"m  c #A30000",
"M  c #A90000",
"N  c #AB0000",
"B  c #AF0000",
"V  c #B30000",
"C  c #B70000",
"Z  c #B90000",
"A  c #BD0000",
"S  c #BF0000",
"D  c #C30000",
"F  c #C70000",
"G  c #C90000",
"H  c #CD0000",
"J  c #D52626",
"K  c #D72B2B",
"L  c #D72C2C",
"P  c #D93131",
"I  c #DA3736",
"U  c #DA3737",
"Y  c #DC3C3C",
"T  c #DC3C3D",
"R  c #DB4444",
"E  c #DE4142",
"W  c #DE4242",
"Q  c #DF4747",
"!  c #DC4949",
"~  c #DD4E4E",
"^  c #DF5353",
"/  c #E04B4B",
"(  c #E14C4C",
")  c #E15151",
"_  c #E15757",
"`  c #E35454",
"'  c #E25C5C",
"]  c #E45959",
"[  c #E45C5C",
"{  c #E55F5F",
"}  c #E36060",
"|  c #E46565",
" . c #E66969",
".. c #E66D6D",
"X. c #E87071",
"o. c #E87474",
"O. c #E87777",
"+. c #E97979",
"@. c #EA7B7A",
"#. c #EA7B7B",
"$. c gray89",
"%. c gray90",
"&. c #E7E7E7",
"*. c gray95",
"=. c #F3F3F3",
"-. c #F4F4F4",
";. c #F4F5F5",
":. c gray96",
">. c #F6F6F6",
",. c gray97",
"<. c #F8F8F8",
"1. c #F9F9F9",
"2. c gray98",
"3. c #FBFBFB",
"4. c #FBFCFB",
"5. c gray99",
"6. c #FDFCFD",
"7. c #FDFDFD",
"8. c #FEFEFE",
/* pixels */
"H H H H H H H D D D S S C C V B ",
"H #.#.#.O.o.X... .| { [ _ ^ ~ N ",
"H #.{ [ [ ` ) / R / U U P L ! N ",
"H O.[ [ ` ) ! R / U U P K J R m ",
"7.7.7.7.7.7.3.3.3.3.>.>.;.;.;.&.",
"7.7.7.3.7.3.3.3.>.>.>.;.;.*.;.%.",
"7.7.7.7.3.3.3.<.>.>.;.;.=.*.;.$.",
"- n k g a i r q 8 6 4 2 < > r   ",
"= b g s i t 9 8 6 4 2 > > ; 0   ",
"* v c x z z k g s p i t e 0 9   ",
"& % $ # @ + O o X               "
};
