/* XPM */
static char * flag_checkered_xpm[] = {
"16 16 83 1",
" 	c None",
".	c #B19072",
"+	c #CFB5A0",
"@	c #DBD9D8",
"#	c #DDDDDD",
"$	c #D8D8D8",
"%	c #060606",
"&	c #1F1F1F",
"*	c #3E3E3E",
"=	c #858585",
"-	c #A2A2A2",
";	c #BABABA",
">	c #101010",
",	c #030303",
"'	c #000000",
")	c #D7D7D7",
"!	c #D5D5D5",
"~	c #0B0B0B",
"{	c #E3E3E3",
"]	c #D4D4D4",
"^	c #878787",
"/	c #B8B8B8",
"(	c #DBDBDB",
"_	c #DADADA",
":	c #010101",
"<	c #6F6F6F",
"[	c #454545",
"}	c #292929",
"|	c #EFEFEF",
"1	c #EDEDED",
"2	c #E2E2E2",
"3	c #727272",
"4	c #C3C3C3",
"5	c #D1D1D1",
"6	c #121212",
"7	c #F3F2F2",
"8	c #F8F8F8",
"9	c #F7F7F7",
"0	c #070707",
"a	c #303030",
"b	c #ACACAC",
"c	c #2C2C2C",
"d	c #E9E9E9",
"e	c #E7E7E7",
"f	c #919191",
"g	c #B4B4B4",
"h	c #090909",
"i	c #7F7F7F",
"j	c #272727",
"k	c #141414",
"l	c #F1F1F1",
"m	c #0C0C0C",
"n	c #8F8F8F",
"o	c #464646",
"p	c #EAEAEA",
"q	c #F9F9F9",
"r	c #65625F",
"s	c #424242",
"t	c #282828",
"u	c #FDFDFD",
"v	c #F4F4F4",
"w	c #8A8A8A",
"x	c #B69C84",
"y	c #B9AA9D",
"z	c #A8A8A8",
"A	c #A5A5A5",
"B	c #ABABAB",
"C	c #CCCCCC",
"D	c #2B2B2B",
"E	c #FCFCFC",
"F	c #BE8D63",
"G	c #DCB18D",
"H	c #ADADAD",
"I	c #6B6B6B",
"J	c #262626",
"K	c #F6F6F6",
"L	c #AB917B",
"M	c #CCB6A4",
"N	c #A59383",
"O	c #C6B8AC",
"P	c #A49384",
"Q	c #C5B8AD",
"R	c #C3B7AC",
"   .+           ",
"   .+           ",
"   @#$%&*       ",
"   =-;>,')!     ",
"   ~''{]^/(_':: ",
"   <[}|12345~66 ",
"   7890abc,'dee ",
"   fg5h:'ijkl|| ",
"   m'')nopqq':: ",
"   rst8uvw)emkk ",
"   xyzABCD,'uEE ",
"   FG   HIJkqK9 ",
"   LM     zzzzz ",
"   NO           ",
"   PQ           ",
"   PR           "};
