/* XPM */
static const char *flag_cr[] = {
/* columns rows colors chars-per-pixel */
"16 11 160 2",
"   c #000023",
".  c #000025",
"X  c #000029",
"o  c #00002B",
"O  c #000031",
"+  c #000037",
"@  c #00003B",
"#  c #00003F",
"$  c #000045",
"%  c #00004B",
"&  c #000051",
"*  c #000055",
"=  c #000057",
"-  c #00005B",
";  c #00005D",
":  c #000061",
">  c #000063",
",  c #000067",
"<  c #00006D",
"1  c #000071",
"2  c #000073",
"3  c #000075",
"4  c #000079",
"5  c #00007D",
"6  c #00017F",
"7  c #000783",
"8  c #000985",
"9  c #000F85",
"0  c #00198D",
"q  c #5B79B5",
"w  c #5C7AB6",
"e  c #607DB8",
"r  c #627FB9",
"t  c #6582BB",
"y  c #6984BD",
"u  c #6C88BE",
"i  c #6F8AC1",
"p  c #6F8AC2",
"a  c #738EC3",
"s  c #748EC3",
"d  c #7791C5",
"f  c #7790C6",
"g  c #7B94C7",
"h  c #7A94C8",
"j  c #7F97C9",
"k  c #7F97CA",
"l  c #B70000",
"z  c #B90000",
"x  c #BB0000",
"c  c #DD0000",
"v  c #DF0000",
"b  c #DC1414",
"n  c #DD1919",
"m  c #DE1A1A",
"M  c #DF1F1F",
"N  c #E10000",
"B  c #E01F1F",
"V  c #E02020",
"C  c #E02424",
"Z  c #E12525",
"A  c #E22A2A",
"S  c #E32B2B",
"D  c #E32F2F",
"F  c #E03636",
"G  c #E43030",
"H  c #E53535",
"J  c #E63636",
"K  c #E23B3B",
"L  c #E33F3F",
"P  c #E63B3A",
"I  c #E73B3B",
"U  c #E73B3C",
"Y  c #D3413F",
"T  c #DF6967",
"R  c #E74040",
"E  c #E84040",
"W  c #E94141",
"Q  c #E84545",
"!  c #E94646",
"~  c #E94A49",
"^  c #EA4A4B",
"/  c #EA4B4B",
"(  c #EB4F4F",
")  c #EB4F50",
"_  c #ED5353",
"`  c #ED5454",
"'  c #EE5858",
"]  c #EF6F6F",
"[  c #F17273",
"{  c #F17676",
"}  c #829ACB",
"|  c #829ACC",
" . c #859DCD",
".. c #859ECD",
"X. c #89A0CE",
"o. c #8BA2D0",
"O. c #8FA4D2",
"+. c #91A7D3",
"@. c #93A8D4",
"#. c #94A9D4",
"$. c #95A9D4",
"%. c #F18785",
"&. c #EBA09F",
"*. c #ECA2A2",
"=. c #EEA4A3",
"-. c #EEA7A6",
";. c #EFAAA9",
":. c #EDAEAD",
">. c #F0ACAB",
",. c #F1AFAE",
"<. c #F9A1A1",
"1. c #F3B2B1",
"2. c #F2B4B3",
"3. c #F3B6B5",
"4. c #F4B4B3",
"5. c #F5B7B6",
"6. c #F3BEBE",
"7. c #F4B9B8",
"8. c #F6B9B8",
"9. c #F4BCBB",
"0. c #F7BCBB",
"q. c #F5BDBD",
"w. c #F6BFBF",
"e. c #DDDFDF",
"r. c #F7C2C1",
"t. c #F8C4C3",
"y. c #F9C6C5",
"u. c #FAC8C7",
"i. c #F9C8C8",
"p. c #FAC9C9",
"a. c #FBCBCA",
"s. c #FCD4D4",
"d. c #E5E9E9",
"f. c #F0F1F1",
"g. c #F1F1F1",
"h. c #F1F2F2",
"j. c #F2F3F3",
"k. c #F3F4F4",
"l. c #F4F5F5",
"z. c #F4F6F6",
"x. c #F5F6F6",
"c. c #F5F7F7",
"v. c gray97",
"b. c #F5F8F8",
"n. c #F6F9F9",
"m. c #F7F9F9",
"M. c #F7FAFA",
"N. c #F8F8F8",
"B. c #F9F9F9",
"V. c #F8FBFB",
"C. c #F9FAFA",
"Z. c gray98",
"A. c #F9FCFC",
"S. c #F9FFFF",
"D. c #FAFDFD",
"F. c #FBFCFC",
"G. c #FBFDFD",
"H. c #FBFEFE",
"J. c #FCFEFE",
"K. c #FCFFFF",
/* pixels */
"9 8 8 8 7 5 5 4 3 1 < , > ; - * ",
"0 $.$.@.+.+.o... . .k h s s p * ",
"S.H.H.H.H.H.S.S.C.M.m.c.m.k.m.d.",
"<.s.a.p.y.y.r.r.w.q.q.8.2.2.6.T ",
"N { ` ` _ ~ ! W U H G A Z V L x ",
"N [ _ ( ^ ! E I H G A Z M m K z ",
"c ] ( ~ ! R P H G A Z M m b F z ",
"%.p.0.8.5.2.1.,.,.;.-.-.&.&.:.Y ",
"v.F.Z.M.Z.M.v.v.k.k.j.h.h.h.h.e.",
"1  .} } g s s u u y t r r q q o ",
", > ; - % % $ # @ + O o o .   . "
};
