/* XPM */
static const char * flag_sr[] = {
"16 11 41 1",
" 	c None",
".	c #DC1F26",
"+	c #C92D1F",
"@	c #D91F26",
"#	c #944C33",
"$	c #966124",
"%	c #8C562F",
"&	c #CF2C2F",
"*	c #8A2D51",
"=	c #A34B68",
"-	c #C16E6B",
";	c #C27B62",
">	c #BC7764",
",	c #BB6275",
"'	c #243E86",
")	c #82688D",
"!	c #A9766F",
"~	c #956867",
"{	c #A66054",
"]	c #A97279",
"^	c #836C8C",
"/	c #989292",
"(	c #C5686C",
"_	c #935A5C",
":	c #A17D82",
"<	c #7D678F",
"[	c #9D8080",
"}	c #CC7176",
"|	c #9A5658",
"1	c #A6787E",
"2	c #9EA9C9",
"3	c #A5ABC9",
"4	c #A85623",
"5	c #967E7F",
"6	c #A64E29",
"7	c #BC8B7F",
"8	c #FFFFFF",
"9	c #FADCDD",
"0	c #BC7F81",
"a	c #E5ACAF",
"b	c #FFFDFD",
"................",
".....+@.........",
"....#$%&........",
"***=-;>,********",
"''')!~{]''''''''",
"'''^/(_:''''''''",
"'''<[}|1''''''''",
"2223456722222222",
"888890ab88888888",
"8888888888888888",
"8888888888888888"};
