/* XPM */
static const char *flag_it[] = {
/* columns rows colors chars-per-pixel */
"16 11 112 2",
"   c #005300",
".  c #005B00",
"X  c #006300",
"o  c #006700",
"O  c #006F00",
"+  c #007500",
"@  c #007700",
"#  c #007B00",
"$  c #007F00",
"%  c #008300",
"&  c #008500",
"*  c #008700",
"=  c #008900",
"-  c #009100",
";  c #3AAA3A",
":  c #3FAE3F",
">  c #40AD3F",
",  c #44B144",
"<  c #45B045",
"1  c #45B145",
"2  c #4BB34B",
"3  c #49B449",
"4  c #4FB64F",
"5  c #4FB74F",
"6  c #50B550",
"7  c #54B555",
"8  c #54B754",
"9  c #53B953",
"0  c #54B954",
"q  c #58B958",
"w  c #58BB59",
"e  c #59BA59",
"r  c #58BC58",
"t  c #5CBD5C",
"y  c #5DBC5D",
"u  c #5FBF5F",
"i  c #61BE62",
"p  c #66C066",
"a  c #6AC36A",
"s  c #6FC46F",
"d  c #72C673",
"f  c #77C777",
"g  c #76C876",
"h  c #79C879",
"j  c #7BCA7A",
"k  c #7BCA7B",
"l  c #DD0000",
"z  c #DF0000",
"x  c #E10000",
"c  c #E30000",
"v  c #E50000",
"b  c #E70000",
"n  c #E90000",
"m  c #EB0000",
"M  c #ED0000",
"N  c #EF0000",
"B  c #F10000",
"V  c #F30000",
"C  c #F50000",
"Z  c #F10B0B",
"A  c #F10F0E",
"S  c #F21010",
"D  c #F21313",
"F  c #F21414",
"G  c #F31919",
"H  c #F31A1A",
"J  c #F41F1F",
"K  c #F42020",
"L  c #F52525",
"P  c #F52626",
"I  c #F22C2C",
"U  c #F22F2F",
"Y  c #F62B2B",
"T  c #F62C2C",
"R  c #F23232",
"E  c #F33232",
"W  c #F33535",
"Q  c #F73131",
"!  c #F43636",
"~  c #F43B3B",
"^  c #F53F3F",
"/  c #F83737",
"(  c #F64444",
")  c #F74949",
"_  c #F74E4E",
"`  c #F85353",
"'  c #F95757",
"]  c #FA5C5C",
"[  c #C1C1C1",
"{  c #C3C3C3",
"}  c gray78",
"|  c gray79",
" . c #CDCDCD",
".. c gray86",
"X. c #DDDDDD",
"o. c #DFDFDF",
"O. c #E1E1E1",
"+. c gray89",
"@. c gray90",
"#. c #F3F3F3",
"$. c #F4F4F4",
"%. c gray96",
"&. c #F6F6F6",
"*. c gray97",
"=. c #F8F8F8",
"-. c #F9F9F9",
";. c gray98",
":. c #FBFBFB",
">. c gray99",
",. c #FDFDFD",
"<. c #FDFDFE",
"1. c #FEFEFE",
/* pixels */
"- = = & % @.+.O.o.X...C C V N N ",
"& k k k h ,.,.,.,.,.:.] ' ` _ n ",
"= k u t e ,.,.:.:.:.&.! Q T ) n ",
"& k u 0 7 ,.:.:.:.:.&.Q Y P ( b ",
"& g t 9 5 :.:.=.*.:.&.Y P J ^ b ",
"& d 9 5 2 :.:.:.*.&.&.P J H ~ b ",
"$ s 5 3 < :.=.=.*.&.&.J H F ! x ",
"# a 3 1 : =.=.*.&.&.&.H S S E z ",
"@ i 1 : ; *.*.#.&.#.#.S S Z U z ",
"O i u e 0 *.*.&.&.&.#.! E U I z ",
"@ X X .    .| | [ [ [ x z l l l "
};
