/* XPM */
static const char *florence_xpm[] = {
/* columns rows colors chars-per-pixel */
"16 16 46 1 ",
"  c black",
". c #151515",
"X c #191919",
"o c #1D1D1D",
"O c gray14",
"+ c #252525",
"@ c gray19",
"# c #313131",
"$ c #3E3E3E",
"% c gray25",
"& c #4C4C4C",
"* c gray30",
"= c #515151",
"- c #606060",
"; c #727272",
": c #747474",
"> c gray48",
", c #848484",
"< c gray52",
"1 c gray53",
"2 c #888888",
"3 c gray59",
"4 c gray60",
"5 c #9A9A9A",
"6 c gray65",
"7 c #A7A7A7",
"8 c #AAAAAA",
"9 c gray67",
"0 c #AEAEAE",
"q c gray69",
"w c #B1B1B1",
"e c #B2B2B2",
"r c gray73",
"t c #BCBCBC",
"y c gray74",
"u c gray",
"i c #C0C0C0",
"p c gray79",
"a c #CACACA",
"s c #CBCBCB",
"d c #CECECE",
"f c gray81",
"g c #D5D5D5",
"h c #D7D7D7",
"j c white",
"k c None",
/* pixels */
"kkkkkkkkkkkkkkkk",
"kkkkkkkkkkkkkkkk",
"kkkkkkkkkkkkkkkk",
"o              o",
". :d6<d33d<6d; .",
". ejhujppjuhje .",
". #9-$9==0$-9# .",
". 0jhujppjrhj0 .",
". 2hr4h99h4rh< .",
". &uiiuiiiiiu& .",
". ejjjjjjjjjje .",
"k +>>>>>>>>>>+ k",
"kkXXXXXXXXXXXXkk",
"kkkkkkkkkkkkkkkk",
"kkkkkkkkkkkkkkkk",
"kkkkkkkkkkkkkkkk"
};
