/* XPM */
static const char * menubar_xpm[] = {
"16 7 4 1",
" 	c None",
".	c #110BFF",
"+	c #D8D8FA",
"@	c #000000",
"                ",
"................",
".++++++++++++++.",
".+@@@@++++@@@@+.",
".++++++++++++++.",
"................",
"                "};
