/* XPM */
static const char * old_version_warning_xpm[] = {
"16 16 70 1",
" 	c None",
".	c #D8C02C",
"+	c #CFB226",
"@	c #C9A720",
"#	c #FBF629",
"$	c #F6ED1E",
"%	c #E9D92E",
"&	c #CFC816",
"*	c #DDD616",
"=	c #DAC21C",
"-	c #CFAF24",
";	c #CDC41D",
">	c #212121",
",	c #F5E818",
"'	c #BB9616",
")	c #EEDC29",
"!	c #E7D811",
"~	c #252525",
"{	c #232323",
"]	c #F6E612",
"^	c #E0C71B",
"/	c #D3B425",
"(	c #F3E013",
"_	c #F3DF0F",
":	c #2C2B22",
"<	c #F3E10F",
"[	c #F3E011",
"}	c #C39E18",
"|	c #B6860D",
"1	c #EFDB25",
"2	c #F0D90C",
"3	c #F1DA0D",
"4	c #3E3B1F",
"5	c #F1DB0D",
"6	c #E5CC18",
"7	c #D9BB24",
"8	c #EED40A",
"9	c #48431F",
"0	c #EFD50B",
"a	c #EFD60B",
"b	c #C9A415",
"c	c #BC8E10",
"d	c #EDD41A",
"e	c #ECCE08",
"f	c #C6AE0D",
"g	c #EDD009",
"h	c #E8CC12",
"i	c #DDBD1F",
"j	c #E9C805",
"k	c #EAC806",
"l	c #DDBE07",
"m	c #272727",
"n	c #EACA06",
"o	c #EBCB07",
"p	c #CEA712",
"q	c #BE8E0C",
"r	c #E9C911",
"s	c #E7C203",
"t	c #E7C303",
"u	c #3E3B29",
"v	c #E8C404",
"w	c #E8C504",
"x	c #E7C50B",
"y	c #A87300",
"z	c #BE9401",
"A	c #BF9501",
"B	c #BF9601",
"C	c #BF9701",
"D	c #C09802",
"E	c #BC9202",
"                ",
"       .+       ",
"      @#$       ",
"      %&*=      ",
"     -;>>,'     ",
"     )!~{]^     ",
"    /(_::<[}    ",
"   |12344556    ",
"   7888990aab   ",
"  cdeeeffgggh   ",
"  ijjklmmnnoop  ",
" qrssttuuvwwwx  ",
" yzAABBBBCCDDE  ",
"                ",
"                ",
"                "};
