/* XPM */
static const char * plus_xpm[] = {
"16 16 102 2",
"  	c None",
". 	c #FF91FF",
"+ 	c #FF80FF",
"@ 	c #FE7FFE",
"# 	c #412041",
"$ 	c #773B77",
"% 	c #713871",
"& 	c #653265",
"* 	c #4D264D",
"= 	c #4B254B",
"- 	c #FF7FFF",
"; 	c #FB7DFB",
"> 	c #F97CF9",
", 	c #F77BF7",
"' 	c #F57AF5",
") 	c #EF77EF",
"! 	c #ED76ED",
"~ 	c #E572E5",
"{ 	c #DF6FDF",
"] 	c #DD6EDD",
"^ 	c #DB6DDB",
"/ 	c #D96CD9",
"( 	c #D369D3",
"_ 	c #D168D1",
": 	c #CB65CB",
"< 	c #C763C7",
"[ 	c #BD5EBD",
"} 	c #A753A7",
"| 	c #A150A1",
"1 	c #9B4D9B",
"2 	c #FC7EFC",
"3 	c #F47AF4",
"4 	c #F279F2",
"5 	c #E271E2",
"6 	c #D86CD8",
"7 	c #D46AD4",
"8 	c #CE67CE",
"9 	c #CA65CA",
"0 	c #C060C0",
"a 	c #BE5FBE",
"b 	c #BA5DBA",
"c 	c #B65BB6",
"d 	c #AA55AA",
"e 	c #A854A8",
"f 	c #A452A4",
"g 	c #9E4F9E",
"h 	c #964B96",
"i 	c #924992",
"j 	c #804080",
"k 	c #783C78",
"l 	c #6E376E",
"m 	c #6C366C",
"n 	c #663366",
"o 	c #643264",
"p 	c #603060",
"q 	c #5E2F5E",
"r 	c #562B56",
"s 	c #4A254A",
"t 	c #FF81FF",
"u 	c #FF82FF",
"v 	c #FF83FF",
"w 	c #FF85FF",
"x 	c #FF87FF",
"y 	c #FF88FF",
"z 	c #FF89FF",
"A 	c #FF8AFF",
"B 	c #FF8BFF",
"C 	c #FF8DFF",
"D 	c #FF8EFF",
"E 	c #FF8FFF",
"F 	c #FF90FF",
"G 	c #FF94FF",
"H 	c #FF95FF",
"I 	c #FF97FF",
"J 	c #FF99FF",
"K 	c #FF9BFF",
"L 	c #FF9CFF",
"M 	c #FF9DFF",
"N 	c #FF9EFF",
"O 	c #FF9FFF",
"P 	c #FFA0FF",
"Q 	c #FFA5FF",
"R 	c #FFA8FF",
"S 	c #FFA9FF",
"T 	c #FFAAFF",
"U 	c #FFABFF",
"V 	c #FFACFF",
"W 	c #FFADFF",
"X 	c #FFAFFF",
"Y 	c #FFB4FF",
"Z 	c #FFB5FF",
"` 	c #FFB6FF",
" .	c #FFB7FF",
"..	c #FFB9FF",
"+.	c #FFBBFF",
"@.	c #FFBDFF",
"#.	c #FFBEFF",
"$.	c #FFBFFF",
"%.	c #FFC4FF",
"&.	c #FFC5FF",
"*.	c #FFC7FF",
"=.	c #FFCBFF",
"                                ",
"                                ",
"            ` +.S +             ",
"            R Q D 9             ",
"            T M u a             ",
"            Y P w /             ",
"    *.%.$.#.T H w t K W Z V ~   ",
"    X R O L . y t + B G I z |   ",
"    + ] < 8 3 @ ; ! < [ c g &   ",
"    f % p k / , 4 _ l r * # #   ",
"            2 y 4 e             ",
"            E . > }             ",
"            . z { i             ",
"            @ ( h q             ",
"                                ",
"                                "};
