/* XPM */
static const char * refresh_xpm[] = {
"16 16 4 1",
" 	c None",
".	c #000000",
"+	c #00FFFF",
"@	c #FF00FF",
"        ........",
"        .+++++. ",
"  ..    .++++.  ",
" .@@.   .++++.  ",
" .@@@.  .+++++. ",
".@@@@.  .+.++++.",
".@@@.   .. .+++.",
".@@@.   .  .+++.",
".@@@.  .   .+++.",
".@@@. ..   .+++.",
".@@@@.@.  .++++.",
" .@@@@@.  .+++. ",
"  .@@@@.   .++. ",
"  .@@@@.    ..  ",
" .@@@@@.        ",
"........        "
};

