/* XPM */
static const char * remark_xpm[] = {
"16 16 73 1",
" 	c None",
".	c #EF7C7C",
"+	c #F57A7A",
"@	c #A62727",
"#	c #EE4C4C",
"$	c #EB3333",
"%	c #EC3737",
"&	c #EB3232",
"*	c #EE4B4B",
"=	c #933F3E",
"-	c #D14444",
";	c #D43131",
">	c #D24040",
",	c #B27978",
"'	c #B1B2B0",
")	c #B9BAB9",
"!	c #EEEEEC",
"~	c #EDEEEC",
"{	c #EDEDEC",
"]	c #EDEDEB",
"^	c #EFEFEE",
"/	c #D0D0CE",
"(	c #B8B9B7",
"_	c #B5B6B5",
":	c #F9F9F8",
"<	c #F8F8F7",
"[	c #F5F5F4",
"}	c #D9DAD8",
"|	c #DDDDDC",
"1	c #BFC0BE",
"2	c #B4B5B3",
"3	c #F6F6F5",
"4	c #D6D7D5",
"5	c #DFDFDE",
"6	c #BDBEBD",
"7	c #B2B3B2",
"8	c #EFEFEF",
"9	c #D5D5D2",
"0	c #F2F2F2",
"a	c #F4F4F4",
"b	c #F5F5F5",
"c	c #E6E6E6",
"d	c #DBDBDA",
"e	c #F4F4F3",
"f	c #BCBDBC",
"g	c #B0B1B0",
"h	c #F2F2F1",
"i	c #E4E4E2",
"j	c #CECFCD",
"k	c #E9E9E8",
"l	c #DBDCDB",
"m	c #D5D6D4",
"n	c #DEDEDC",
"o	c #BBBCBA",
"p	c #B0B1AE",
"q	c #DCDCDC",
"r	c #EBEBEB",
"s	c #DBDBDB",
"t	c #EAEAEA",
"u	c #E3E4E3",
"v	c #E5E5E4",
"w	c #C0C0BF",
"x	c #9A9B99",
"y	c #D4D4D3",
"z	c #EDEDED",
"A	c #E8E8E8",
"B	c #DEDFDE",
"C	c #DADADA",
"D	c #D0D0CF",
"E	c #C1C2C1",
"F	c #D6D7D6",
"G	c #D6D6D5",
"H	c #C2C3C0",
"                ",
"                ",
"   .+++.        ",
"  @#$%&*        ",
"  =-;;;>        ",
"   ,            ",
"  ')!~{{{]]]^/  ",
"  (_:<<<<<<[}|  ",
"  12}33333]435  ",
"  67890abcdee5  ",
"  fghijklm~hhn  ",
"  opqr8st8uv8q  ",
"  wxyzzzzzzABC  ",
"  DEFFFFFFFFGH  ",
"                ",
"                "};
