/* XPM */
static const char * remark_xpm[] = {
"16 16 104 2",
"  	c None",
". 	c #E9E55C",
"+ 	c #725E00",
"@ 	c #FBFA69",
"# 	c #C8A800",
"$ 	c #F3F34F",
"% 	c #FEFB42",
"& 	c #DCBA00",
"* 	c #907D00",
"= 	c #FCF560",
"- 	c #DCDD50",
"; 	c #F1F343",
"> 	c #FFF121",
", 	c #E7C501",
"' 	c #D4CB12",
") 	c #D5D10C",
"! 	c #D2B900",
"~ 	c #A5900A",
"{ 	c #F3D919",
"] 	c #FDEB23",
"^ 	c #FFF120",
"/ 	c #FDE00F",
"( 	c #F2D408",
"_ 	c #FCE40D",
": 	c #F0D103",
"< 	c #D0B300",
"[ 	c #5E5000",
"} 	c #A68C00",
"| 	c #DDBC00",
"1 	c #EDCC03",
"2 	c #F4D004",
"3 	c #F0CC02",
"4 	c #B89D00",
"5 	c #615200",
"6 	c #E3D90B",
"7 	c #FBE610",
"8 	c #EFCB00",
"9 	c #E6C400",
"0 	c #867200",
"a 	c #8E8E8D",
"b 	c #EDEDEB",
"c 	c #EFEFEE",
"d 	c #D0D0CE",
"e 	c #FCEE09",
"f 	c #E9C802",
"g 	c #C8AA00",
"h 	c #E5C300",
"i 	c #E9C600",
"j 	c #B49900",
"k 	c #F8F8F7",
"l 	c #F7F7F6",
"m 	c #F5F5F4",
"n 	c #D9DAD8",
"o 	c #DDDDDC",
"p 	c #C0B200",
"q 	c #F1D302",
"r 	c #AD9200",
"s 	c #6A5C16",
"t 	c #A99419",
"u 	c #D0B100",
"v 	c #DCBB00",
"w 	c #272410",
"x 	c #F6F6F5",
"y 	c #D6D7D5",
"z 	c #DFDFDE",
"A 	c #A28F00",
"B 	c #766301",
"C 	c #999479",
"D 	c #EEEEEE",
"E 	c #D4D4D1",
"F 	c #B7AE79",
"G 	c #998201",
"H 	c #443C10",
"I 	c #E6E6E6",
"J 	c #DBDBDA",
"K 	c #F4F4F3",
"L 	c #ABACA8",
"M 	c #F2F2F1",
"N 	c #E4E4E2",
"O 	c #CECFCD",
"P 	c #D9D8D0",
"Q 	c #CACAC4",
"R 	c #D5D6D4",
"S 	c #EDEEEC",
"T 	c #DEDEDC",
"U 	c #BBBCBA",
"V 	c #DCDCDC",
"W 	c #EBEBEB",
"X 	c #EFEFEF",
"Y 	c #DBDBDB",
"Z 	c #EAEAEA",
"` 	c #E3E4E3",
" .	c #E5E5E4",
"..	c #C0C0BF",
"+.	c #DEDFDE",
"@.	c #D4D4D3",
"#.	c #EDEDED",
"$.	c #E8E8E8",
"%.	c #DADADA",
"&.	c #D0D0CF",
"*.	c #C1C2C1",
"=.	c #D6D7D6",
"-.	c #D6D6D5",
";.	c #C2C3C0",
"        . +                     ",
"        @ #                     ",
"      $ % & *                   ",
"=   - ; > , ' )   !             ",
"~ { ] ^ / ( _ : < [             ",
"  } | 1 2 3 & 4 5               ",
"    6 7 , 8 9 0 a b b b c d     ",
"    e f g h i j k l k m n o     ",
"  p q r s t u v w x b y x z     ",
"  A B C D E F G H I J K K z     ",
"    L M M N O P Q R S M M T     ",
"    U K V W X Y Z X `  .X V     ",
"    ..+.@.#.#.#.#.#.#.$.+.%.    ",
"    &.*.=.=.=.=.=.=.=.=.-.;.    ",
"                                ",
"                                "};
