/* XPM */
static const char * remark_flag_xpm[] = {
"16 16 102 2",
"  	c None",
". 	c #CEC845",
"+ 	c #504400",
"@ 	c #FAF66A",
"# 	c #AD9300",
"$ 	c #D5D546",
"% 	c #FFFB64",
"& 	c #E1C001",
"* 	c #4E4200",
"= 	c #F6F652",
"- 	c #FEF942",
"; 	c #E7C502",
"> 	c #907B00",
", 	c #BEBE39",
"' 	c #CACA2E",
") 	c #FFFF4A",
"! 	c #FEF225",
"~ 	c #E9C702",
"{ 	c #CFB201",
"] 	c #97960A",
"^ 	c #B6B106",
"/ 	c #E6D940",
"( 	c #FEFA70",
"_ 	c #FFFE79",
": 	c #FFFF68",
"< 	c #FFFF52",
"[ 	c #FFFE38",
"} 	c #FDE715",
"| 	c #EAC802",
"1 	c #F2E71A",
"2 	c #FFFC1D",
"3 	c #FEF40F",
"4 	c #FDE606",
"5 	c #F0D501",
"6 	c #9E8A00",
"7 	c #625300",
"8 	c #D9B901",
"9 	c #F0D40C",
"0 	c #FAE417",
"a 	c #FDEB1A",
"b 	c #FEEC18",
"c 	c #FCDC0C",
"d 	c #F3D408",
"e 	c #FCE40E",
"f 	c #F6D606",
"g 	c #E8C601",
"h 	c #CCAE00",
"i 	c #191500",
"j 	c #584B00",
"k 	c #C8AA00",
"l 	c #DEBD00",
"m 	c #F1CE04",
"n 	c #F6D205",
"o 	c #F2CE03",
"p 	c #E5C300",
"q 	c #D5B500",
"r 	c #BCA000",
"s 	c #847000",
"t 	c #3F3600",
"u 	c #C9B605",
"v 	c #F2E615",
"w 	c #FBE00C",
"x 	c #EECB02",
"y 	c #F1CD02",
"z 	c #E9C600",
"A 	c #CFB000",
"B 	c #7A6800",
"C 	c #0F0C00",
"D 	c #F1ED0E",
"E 	c #FEEE12",
"F 	c #EFCD03",
"G 	c #DCBB00",
"H 	c #EBC800",
"I 	c #ECC900",
"J 	c #E0BF00",
"K 	c #FEF009",
"L 	c #F4D304",
"M 	c #D4B500",
"N 	c #C0A300",
"O 	c #E6C400",
"P 	c #E3C100",
"Q 	c #B69B00",
"R 	c #C1B300",
"S 	c #F9DD03",
"T 	c #D0B100",
"U 	c #AB9100",
"V 	c #5F5000",
"W 	c #9C8500",
"X 	c #D3B400",
"Y 	c #CEAF00",
"Z 	c #211C00",
"` 	c #CCB700",
" .	c #7D6A00",
"..	c #2A2300",
"+.	c #605200",
"@.	c #B39800",
"#.	c #CDAE00",
"$.	c #3E3500",
"%.	c #776700",
"&.	c #332B00",
"*.	c #5E5000",
"=.	c #3A3100",
"                                ",
"              . +               ",
"              @ #               ",
"            $ % & *             ",
"            = - ; >             ",
"        , ' ) ! ~ { ] ^         ",
"  / ( _ : < [ } | 1 2 3 4 5 6   ",
"  7 8 9 0 a b c d e f g h > i   ",
"    j k l ~ m n o p q r s i     ",
"      t u v w x y z A B C       ",
"        D E F G H I J s         ",
"        K L M N l O P Q         ",
"      R S T U V W X l Y Z       ",
"      ` h  ...    +.@.#.$.      ",
"      %.&.            *.=.      ",
"                                "};
