/* XPM */
static const char * remark_flag_xpm[] = {
"12 12 82 1",
" 	c None",
".	c #B10E0E",
"+	c #C94949",
"@	c #CA4D4D",
"#	c #C23939",
"$	c #DF6B6B",
"%	c #F68080",
"&	c #F57A7A",
"*	c #F68D8D",
"=	c #C03434",
"-	c #E57070",
";	c #F25656",
">	c #F46F6F",
",	c #C74141",
"'	c #8B1C1A",
")	c #DF5B5B",
"!	c #ED3232",
"~	c #EE3A3A",
"{	c #EE3E3E",
"]	c #EE4040",
"^	c #EE4141",
"/	c #EE3F3F",
"(	c #EE3C3C",
"_	c #ED3636",
":	c #EF4A4A",
"<	c #C23131",
"[	c #852221",
"}	c #D85353",
"|	c #DD1B1B",
"1	c #E23C3C",
"2	c #BF2F2F",
"3	c #822523",
"4	c #CE4D4D",
"5	c #D22222",
"6	c #D01818",
"7	c #D84040",
"8	c #B92727",
"9	c #B12727",
"0	c #C44545",
"a	c #C44140",
"b	c #C64040",
"c	c #BF3434",
"d	c #A80101",
"e	c #D8D6D5",
"f	c #B79693",
"g	c #D8D8D7",
"h	c #BBBBB9",
"i	c #A4A6A3",
"j	c #D7D8D7",
"k	c #B9BAB8",
"l	c #D6D7D6",
"m	c #B7B8B7",
"n	c #D5D6D5",
"o	c #B6B7B5",
"p	c #999A98",
"q	c #D5D5D4",
"r	c #B5B5B4",
"s	c #B3B4B2",
"t	c #D4D4D3",
"u	c #FFFFFF",
"v	c #D3D4D3",
"w	c #B2B3B1",
"x	c #D2D3D2",
"y	c #B0B1AF",
"z	c #D2D2D1",
"A	c #AFAFAE",
"B	c #D0D1D0",
"C	c #ADAEAD",
"D	c #D0D0CF",
"E	c #ACADAB",
"F	c #D0D0D0",
"G	c #ABACAA",
"H	c #828381",
"I	c #CACAC9",
"J	c #B7B7B6",
"K	c #686A66",
"L	c #8A8C89",
"M	c #C5C5C5",
"N	c #B7B7B7",
"O	c #6C6E6A",
"P	c #858583",
"Q	c #6B6C69",
" .+@@@@@@@# ",
" $%&&&&&&&*=",
" -;;;;;;;;>,",
"')!~{]^/(_:<",
"[}||||||||12",
"345666666678",
" 90abbbbbbcd",
" ef         ",
" BC         ",
" DE         ",
" FG         ",
"HIJK        ",
"LMNO        ",
" PQ         "};
