/* XPM */
static const char * split_xpm[] = {
"16 16 15 1",
" 	c None",
".	c #FFFFFF",
"+	c #A7A7A7",
"@	c #8B8B8B",
"#	c #7C7C7C",
"$	c #6E6E6E",
"%	c #000000",
"&	c #279DDA",
"*	c #1E7AAA",
"=	c #EC5E5E",
"-	c #FF0000",
";	c #47C830",
">	c #2C7233",
",	c #F9F400",
"'	c #FF9600",
"                ",
"                ",
"         %%     ",
"  %%%%%%%%.%    ",
"  %.,,,,,,,.%   ",
"  %''''',',,,%  ",
"  %'''',',,,%   ",
"  %%%%%%%%,%    ",
"     %%  %%     ",
"    %.%%%%%%%%  ",
"   %.,,,,,,,,%  ",
"  %.,,','''''%  ",
"   %,,,',''''%  ",
"    %,%%%%%%%%  ",
"     %%         ",
"                "
};
